M48
; DRILL file {KiCad (5.1.10-6-gecec324121)-1} date 07/07/21 13:25:06
; FORMAT={-:-/ absolute / inch / decimal}
; #@! TF.CreationDate,2021-07-07T13:25:06-07:00
; #@! TF.GenerationSoftware,Kicad,Pcbnew,(5.1.10-6-gecec324121)-1
; #@! TF.FileFunction,Plated,1,4,PTH
FMAT,2
INCH
T1C0.0079
T2C0.0157
T3C0.0335
T4C0.0669
%
G90
G05
T1
X5.6115Y-4.704
X5.6265Y-4.324
X5.6465Y-3.559
X5.6615Y-4.069
X5.6615Y-4.159
X5.6765Y-4.439
X5.6765Y-4.634
X5.6765Y-4.734
X5.6865Y-4.184
X5.7065Y-3.654
X5.7215Y-4.149
X5.7365Y-4.074
X5.7415Y-3.629
X5.7515Y-4.339
X5.7515Y-4.3569
X5.7515Y-4.389
X5.7515Y-4.4069
X5.7565Y-4.234
X5.7607Y-4.3729
X5.7665Y-3.999
X5.7665Y-4.049
X5.7715Y-3.619
X5.7715Y-4.249
X5.7815Y-3.689
X5.7815Y-4.099
X5.7865Y-4.499
X5.7965Y-4.049
X5.7965Y-4.2503
X5.7965Y-4.284
X5.7965Y-4.334
X5.7965Y-4.384
X5.8006Y-4.2294
X5.8065Y-4.424
X5.8115Y-3.999
X5.814Y-3.8365
X5.8215Y-3.684
X5.8215Y-4.234
X5.8265Y-4.439
X5.8265Y-4.624
X5.8465Y-3.819
X5.8465Y-4.239
X5.8465Y-4.284
X5.8465Y-4.334
X5.8465Y-4.384
X5.8515Y-4.414
X5.8515Y-4.434
X5.8665Y-4.119
X5.8686Y-4.239
X5.8765Y-3.684
X5.8839Y-3.9314
X5.8865Y-4.239
X5.8865Y-4.434
X5.8965Y-3.684
X5.8965Y-4.284
X5.8965Y-4.334
X5.9044Y-4.239
X5.9065Y-4.434
X5.9065Y-4.499
X5.9265Y-3.999
X5.9265Y-4.049
X5.9265Y-4.099
X5.9265Y-4.434
X5.9315Y-4.609
X5.9355Y-3.658
X5.9365Y-4.234
X5.9465Y-4.124
X5.9474Y-4.434
X5.9515Y-4.664
X5.9715Y-3.764
X5.9715Y-4.469
X5.9715Y-4.639
X5.9865Y-3.659
X5.9915Y-3.869
X5.9965Y-3.839
X6.0115Y-4.489
X6.0215Y-3.764
X6.0215Y-3.899
X6.0215Y-4.009
X6.0215Y-4.374
X6.0315Y-3.864
X6.0365Y-4.554
X6.0465Y-3.564
X6.0465Y-3.844
X6.0465Y-4.084
X6.0465Y-4.114
X6.0465Y-4.3884
X6.0465Y-4.734
X6.0556Y-4.3155
X6.0565Y-3.664
X6.0665Y-4.339
X6.0815Y-4.634
T2
X5.6765Y-3.5334
X5.6765Y-3.698
X6.0165Y-3.5334
X6.0165Y-3.698
T3
X5.5465Y-3.634
X5.5465Y-3.734
X5.5465Y-3.834
X5.5465Y-3.934
X5.5465Y-4.034
X5.5465Y-4.134
X5.5465Y-4.234
X5.5465Y-4.334
X5.5465Y-4.434
X5.5465Y-4.534
X5.5465Y-4.634
X5.5465Y-4.734
X6.1465Y-3.634
X6.1465Y-3.734
X6.1465Y-3.834
X6.1465Y-3.934
X6.1465Y-4.034
X6.1465Y-4.134
X6.1465Y-4.234
X6.1465Y-4.334
X6.1465Y-4.434
X6.1465Y-4.534
X6.1465Y-4.634
X6.1465Y-4.734
T4
X5.4847Y-3.634
X5.4847Y-3.734
X5.4847Y-3.834
X5.4847Y-3.934
X5.4847Y-4.034
X5.4847Y-4.134
X5.4847Y-4.234
X5.4847Y-4.334
X5.4847Y-4.434
X5.4847Y-4.534
X5.4847Y-4.634
X5.4847Y-4.734
X6.2083Y-3.634
X6.2083Y-3.734
X6.2083Y-3.834
X6.2083Y-3.934
X6.2083Y-4.034
X6.2083Y-4.134
X6.2083Y-4.234
X6.2083Y-4.334
X6.2083Y-4.434
X6.2083Y-4.534
X6.2083Y-4.634
X6.2083Y-4.734
T0
M30
