%TF.GenerationSoftware,KiCad,Pcbnew,(5.1.10-6-gecec324121)-1*%
%TF.CreationDate,2021-07-07T13:29:09-07:00*%
%TF.ProjectId,SparkFun_ProMicro-RP2040,53706172-6b46-4756-9e5f-50726f4d6963,rev?*%
%TF.SameCoordinates,Original*%
%TF.FileFunction,Legend,Bot*%
%TF.FilePolarity,Positive*%
%FSLAX46Y46*%
G04 Gerber Fmt 4.6, Leading zero omitted, Abs format (unit mm)*
G04 Created by KiCad (PCBNEW (5.1.10-6-gecec324121)-1) date 2021-07-07 13:29:09*
%MOMM*%
%LPD*%
G01*
G04 APERTURE LIST*
%ADD10C,0.100000*%
G04 APERTURE END LIST*
D10*
%TO.C,U$3*%
G36*
X139898500Y-90190231D02*
G01*
X139898500Y-89870232D01*
X140258500Y-89810232D01*
X140258500Y-89770232D01*
X140268500Y-89760232D01*
X140268500Y-89740232D01*
X140278500Y-89730232D01*
X140288500Y-89710232D01*
X140288500Y-89690232D01*
X140298500Y-89680232D01*
X140298500Y-89660232D01*
X140308500Y-89650232D01*
X140318500Y-89630232D01*
X140328500Y-89620232D01*
X140328500Y-89600232D01*
X140338500Y-89590232D01*
X140348500Y-89570232D01*
X140358500Y-89560232D01*
X140148500Y-89270232D01*
X140378500Y-89050232D01*
X140668500Y-89250232D01*
X140678500Y-89240232D01*
X140698500Y-89230232D01*
X140708500Y-89230232D01*
X140728500Y-89220232D01*
X140738500Y-89210232D01*
X140758500Y-89200232D01*
X140768500Y-89200232D01*
X140788500Y-89190232D01*
X140798500Y-89180232D01*
X140818500Y-89180232D01*
X140838500Y-89170232D01*
X140848500Y-89170232D01*
X140868500Y-89160232D01*
X140878500Y-89160232D01*
X140898500Y-89150232D01*
X140918500Y-89150232D01*
X140978500Y-88800232D01*
X141298500Y-88800232D01*
X141358500Y-89150232D01*
X141368500Y-89150232D01*
X141388500Y-89160232D01*
X141408500Y-89160232D01*
X141418500Y-89170232D01*
X141438500Y-89170232D01*
X141458500Y-89180232D01*
X141468500Y-89180232D01*
X141488500Y-89190232D01*
X141498500Y-89200232D01*
X141518500Y-89200232D01*
X141528500Y-89210232D01*
X141548500Y-89220232D01*
X141558500Y-89230232D01*
X141578500Y-89230232D01*
X141588500Y-89240232D01*
X141608500Y-89250232D01*
X141898500Y-89050232D01*
X142118500Y-89270232D01*
X141918500Y-89560232D01*
X141928500Y-89570232D01*
X141928500Y-89590232D01*
X141938500Y-89600232D01*
X141948500Y-89620232D01*
X141958500Y-89630232D01*
X141958500Y-89650232D01*
X141968500Y-89660232D01*
X141978500Y-89680232D01*
X141978500Y-89690232D01*
X141998500Y-89730232D01*
X141998500Y-89740232D01*
X142008500Y-89760232D01*
X142008500Y-89770232D01*
X142018500Y-89790232D01*
X142018500Y-89810232D01*
X142368500Y-89870232D01*
X142368500Y-90190231D01*
X142018500Y-90250231D01*
X142018500Y-90260231D01*
X142008500Y-90280231D01*
X142008500Y-90300231D01*
X141998500Y-90310231D01*
X141998500Y-90330231D01*
X141988500Y-90340231D01*
X141978500Y-90360231D01*
X141978500Y-90380231D01*
X141968500Y-90390231D01*
X141968500Y-90410231D01*
X141958500Y-90420231D01*
X141948500Y-90440231D01*
X141938500Y-90450231D01*
X141928500Y-90470231D01*
X141928500Y-90480231D01*
X141918500Y-90500231D01*
X142118500Y-90780231D01*
X141898500Y-91010231D01*
X141608500Y-90810231D01*
X141598500Y-90810231D01*
X141588500Y-90820231D01*
X141578500Y-90820231D01*
X141568500Y-90830231D01*
X141558500Y-90830231D01*
X141548500Y-90840231D01*
X141538500Y-90840231D01*
X141528500Y-90850231D01*
X141518500Y-90850231D01*
X141508500Y-90860231D01*
X141498500Y-90860231D01*
X141488500Y-90870231D01*
X141468500Y-90870231D01*
X141458500Y-90880231D01*
X141258500Y-90340231D01*
X141288500Y-90330231D01*
X141328500Y-90310231D01*
X141348500Y-90290231D01*
X141368500Y-90280231D01*
X141388500Y-90260231D01*
X141398500Y-90240231D01*
X141418500Y-90220231D01*
X141438500Y-90180231D01*
X141448500Y-90150231D01*
X141468500Y-90110231D01*
X141468500Y-90080231D01*
X141478500Y-90050231D01*
X141478500Y-89990232D01*
X141438500Y-89870232D01*
X141398500Y-89810232D01*
X141378500Y-89790232D01*
X141348500Y-89770232D01*
X141328500Y-89750232D01*
X141298500Y-89730232D01*
X141268500Y-89720232D01*
X141238500Y-89700232D01*
X141208500Y-89700232D01*
X141168500Y-89690232D01*
X141098500Y-89690232D01*
X141068500Y-89700232D01*
X141038500Y-89700232D01*
X141008500Y-89720232D01*
X140978500Y-89730232D01*
X140918500Y-89770232D01*
X140878500Y-89810232D01*
X140838500Y-89870232D01*
X140828500Y-89900232D01*
X140808500Y-89930232D01*
X140808500Y-89960232D01*
X140798500Y-89990232D01*
X140798500Y-90080231D01*
X140808500Y-90110231D01*
X140808500Y-90130231D01*
X140818500Y-90150231D01*
X140828500Y-90180231D01*
X140838500Y-90200231D01*
X140858500Y-90220231D01*
X140868500Y-90240231D01*
X140908500Y-90280231D01*
X140928500Y-90290231D01*
X140948500Y-90310231D01*
X141008500Y-90340231D01*
X140808500Y-90880231D01*
X140808500Y-90870231D01*
X140788500Y-90870231D01*
X140778500Y-90860231D01*
X140768500Y-90860231D01*
X140758500Y-90850231D01*
X140748500Y-90850231D01*
X140738500Y-90840231D01*
X140718500Y-90840231D01*
X140708500Y-90830231D01*
X140698500Y-90830231D01*
X140678500Y-90810231D01*
X140668500Y-90810231D01*
X140378500Y-91010231D01*
X140148500Y-90780231D01*
X140358500Y-90500231D01*
X140348500Y-90480231D01*
X140338500Y-90470231D01*
X140328500Y-90450231D01*
X140328500Y-90440231D01*
X140318500Y-90420231D01*
X140308500Y-90410231D01*
X140298500Y-90390231D01*
X140298500Y-90380231D01*
X140278500Y-90340231D01*
X140278500Y-90330231D01*
X140268500Y-90310231D01*
X140268500Y-90300231D01*
X140258500Y-90280231D01*
X140258500Y-90260231D01*
X140248500Y-90250231D01*
X139898500Y-90190231D01*
G37*
%TD*%
M02*
