%TF.GenerationSoftware,KiCad,Pcbnew,(5.1.10-6-gecec324121)-1*%
%TF.CreationDate,2021-07-07T13:29:09-07:00*%
%TF.ProjectId,SparkFun_ProMicro-RP2040,53706172-6b46-4756-9e5f-50726f4d6963,rev?*%
%TF.SameCoordinates,Original*%
%TF.FileFunction,Legend,Top*%
%TF.FilePolarity,Positive*%
%FSLAX46Y46*%
G04 Gerber Fmt 4.6, Leading zero omitted, Abs format (unit mm)*
G04 Created by KiCad (PCBNEW (5.1.10-6-gecec324121)-1) date 2021-07-07 13:29:09*
%MOMM*%
%LPD*%
G01*
G04 APERTURE LIST*
%ADD10C,0.203200*%
%ADD11C,0.127000*%
%ADD12C,0.152400*%
%ADD13C,0.254000*%
%ADD14C,0.161553*%
%ADD15C,0.300000*%
%ADD16C,0.030886*%
%ADD17C,0.115824*%
%ADD18C,0.121920*%
%ADD19C,0.060960*%
%ADD20C,0.046329*%
%ADD21C,0.073152*%
G04 APERTURE END LIST*
D10*
%TO.C,LED1*%
X143103600Y-89795350D02*
X143103600Y-90747850D01*
%TO.C,D2*%
X145590100Y-96483600D02*
X145590100Y-98283600D01*
X146840100Y-96483600D02*
X146840100Y-98283600D01*
X146840100Y-95613600D02*
X145590100Y-95613600D01*
%TO.C,U1*%
X148769500Y-98092400D02*
X148232700Y-98092400D01*
X149771100Y-96954200D02*
X149771100Y-97813000D01*
X147231100Y-97813000D02*
X147231100Y-96954200D01*
D11*
X150164800Y-96367600D02*
G75*
G03*
X150164800Y-96367600I-63500J0D01*
G01*
D10*
%TO.C,S1*%
X150300000Y-119250000D02*
X150300000Y-119510000D01*
X154500000Y-119510000D02*
X154500000Y-119250000D01*
X153738000Y-120780000D02*
X151062000Y-120780000D01*
X151062000Y-117980000D02*
X153738000Y-117980000D01*
D11*
X153205000Y-119380000D02*
G75*
G03*
X153205000Y-119380000I-805000J0D01*
G01*
D10*
%TO.C,J5*%
X144181100Y-92643600D02*
X144181100Y-90843600D01*
X152821100Y-92643600D02*
X152821100Y-90843600D01*
D12*
%TO.C,U2*%
X145001100Y-106583600D02*
X145001100Y-106983600D01*
X145401100Y-106583600D02*
X145001100Y-106583600D01*
D13*
X144614100Y-106908600D02*
G75*
G03*
X144614100Y-106908600I-50000J0D01*
G01*
D12*
X152001100Y-106583600D02*
X151601100Y-106583600D01*
X152001100Y-106983600D02*
X152001100Y-106583600D01*
X145001100Y-113583600D02*
X145001100Y-113183600D01*
X145401100Y-113583600D02*
X145001100Y-113583600D01*
X152001100Y-113183600D02*
X152001100Y-113583600D01*
X151601100Y-113583600D02*
X152001100Y-113583600D01*
D14*
%TO.C,Y1*%
X145084876Y-116290600D02*
G75*
G03*
X145084876Y-116290600I-80776J0D01*
G01*
D12*
%TO.C,U4*%
X145501100Y-104809600D02*
X151501100Y-104809600D01*
X145501100Y-99609600D02*
X151501100Y-99609600D01*
D15*
X145213600Y-99509600D02*
G75*
G03*
X145213600Y-99509600I-50000J0D01*
G01*
D10*
%TO.C,S2*%
X143950000Y-119250000D02*
X143950000Y-119510000D01*
X148150000Y-119510000D02*
X148150000Y-119250000D01*
X147388000Y-120780000D02*
X144712000Y-120780000D01*
X144712000Y-117980000D02*
X147388000Y-117980000D01*
D11*
X146855000Y-119380000D02*
G75*
G03*
X146855000Y-119380000I-805000J0D01*
G01*
%TO.C,R11*%
D16*
X144228215Y-96742794D02*
X144044367Y-96871487D01*
X144228215Y-96963411D02*
X143842135Y-96963411D01*
X143842135Y-96816333D01*
X143860520Y-96779563D01*
X143878904Y-96761179D01*
X143915674Y-96742794D01*
X143970828Y-96742794D01*
X144007598Y-96761179D01*
X144025982Y-96779563D01*
X144044367Y-96816333D01*
X144044367Y-96963411D01*
X144228215Y-96375099D02*
X144228215Y-96595716D01*
X144228215Y-96485407D02*
X143842135Y-96485407D01*
X143897289Y-96522177D01*
X143934059Y-96558946D01*
X143952443Y-96595716D01*
X144228215Y-96007403D02*
X144228215Y-96228020D01*
X144228215Y-96117712D02*
X143842135Y-96117712D01*
X143897289Y-96154481D01*
X143934059Y-96191251D01*
X143952443Y-96228020D01*
%TO.C,LED1*%
X140799215Y-91592641D02*
X140799215Y-91776489D01*
X140413135Y-91776489D01*
X140596982Y-91463948D02*
X140596982Y-91335255D01*
X140799215Y-91280100D02*
X140799215Y-91463948D01*
X140413135Y-91463948D01*
X140413135Y-91280100D01*
X140799215Y-91114638D02*
X140413135Y-91114638D01*
X140413135Y-91022714D01*
X140431520Y-90967560D01*
X140468289Y-90930790D01*
X140505059Y-90912405D01*
X140578598Y-90894020D01*
X140633752Y-90894020D01*
X140707291Y-90912405D01*
X140744060Y-90930790D01*
X140780830Y-90967560D01*
X140799215Y-91022714D01*
X140799215Y-91114638D01*
X140799215Y-90526325D02*
X140799215Y-90746942D01*
X140799215Y-90636634D02*
X140413135Y-90636634D01*
X140468289Y-90673403D01*
X140505059Y-90710173D01*
X140523443Y-90746942D01*
%TO.C,R2*%
X150341746Y-115589719D02*
X150213053Y-115405871D01*
X150121129Y-115589719D02*
X150121129Y-115203639D01*
X150268207Y-115203639D01*
X150304976Y-115222024D01*
X150323361Y-115240408D01*
X150341746Y-115277178D01*
X150341746Y-115332332D01*
X150323361Y-115369102D01*
X150304976Y-115387486D01*
X150268207Y-115405871D01*
X150121129Y-115405871D01*
X150488824Y-115240408D02*
X150507209Y-115222024D01*
X150543978Y-115203639D01*
X150635902Y-115203639D01*
X150672672Y-115222024D01*
X150691056Y-115240408D01*
X150709441Y-115277178D01*
X150709441Y-115313947D01*
X150691056Y-115369102D01*
X150470439Y-115589719D01*
X150709441Y-115589719D01*
%TO.C,C6*%
X151865756Y-97201445D02*
X151847371Y-97219830D01*
X151792217Y-97238215D01*
X151755447Y-97238215D01*
X151700293Y-97219830D01*
X151663523Y-97183060D01*
X151645139Y-97146291D01*
X151626754Y-97072752D01*
X151626754Y-97017598D01*
X151645139Y-96944059D01*
X151663523Y-96907289D01*
X151700293Y-96870520D01*
X151755447Y-96852135D01*
X151792217Y-96852135D01*
X151847371Y-96870520D01*
X151865756Y-96888904D01*
X152196682Y-96852135D02*
X152123143Y-96852135D01*
X152086373Y-96870520D01*
X152067988Y-96888904D01*
X152031219Y-96944059D01*
X152012834Y-97017598D01*
X152012834Y-97164676D01*
X152031219Y-97201445D01*
X152049603Y-97219830D01*
X152086373Y-97238215D01*
X152159912Y-97238215D01*
X152196682Y-97219830D01*
X152215066Y-97201445D01*
X152233451Y-97164676D01*
X152233451Y-97072752D01*
X152215066Y-97035982D01*
X152196682Y-97017598D01*
X152159912Y-96999213D01*
X152086373Y-96999213D01*
X152049603Y-97017598D01*
X152031219Y-97035982D01*
X152012834Y-97072752D01*
%TO.C,F1*%
X145740482Y-95988293D02*
X145740482Y-96116986D01*
X145942715Y-96116986D02*
X145556635Y-96116986D01*
X145556635Y-95933139D01*
X145942715Y-95583828D02*
X145942715Y-95804445D01*
X145942715Y-95694137D02*
X145556635Y-95694137D01*
X145611789Y-95730906D01*
X145648559Y-95767676D01*
X145666943Y-95804445D01*
%TO.C,D2*%
X147212715Y-96779563D02*
X146826635Y-96779563D01*
X146826635Y-96687640D01*
X146845020Y-96632485D01*
X146881789Y-96595716D01*
X146918559Y-96577331D01*
X146992098Y-96558946D01*
X147047252Y-96558946D01*
X147120791Y-96577331D01*
X147157560Y-96595716D01*
X147194330Y-96632485D01*
X147212715Y-96687640D01*
X147212715Y-96779563D01*
X146863404Y-96411868D02*
X146845020Y-96393483D01*
X146826635Y-96356714D01*
X146826635Y-96264790D01*
X146845020Y-96228020D01*
X146863404Y-96209636D01*
X146900174Y-96191251D01*
X146936943Y-96191251D01*
X146992098Y-96209636D01*
X147212715Y-96430253D01*
X147212715Y-96191251D01*
%TO.C,U1*%
X149502099Y-99138135D02*
X149502099Y-99450676D01*
X149520484Y-99487445D01*
X149538869Y-99505830D01*
X149575638Y-99524215D01*
X149649177Y-99524215D01*
X149685947Y-99505830D01*
X149704332Y-99487445D01*
X149722716Y-99450676D01*
X149722716Y-99138135D01*
X150108796Y-99524215D02*
X149888179Y-99524215D01*
X149998488Y-99524215D02*
X149998488Y-99138135D01*
X149961718Y-99193289D01*
X149924949Y-99230059D01*
X149888179Y-99248443D01*
%TO.C,R1*%
D17*
X144409522Y-91765120D02*
X144133751Y-91958160D01*
X144409522Y-92096045D02*
X143830402Y-92096045D01*
X143830402Y-91875428D01*
X143857980Y-91820274D01*
X143885557Y-91792697D01*
X143940711Y-91765120D01*
X144023442Y-91765120D01*
X144078597Y-91792697D01*
X144106174Y-91820274D01*
X144133751Y-91875428D01*
X144133751Y-92096045D01*
X144409522Y-91213577D02*
X144409522Y-91544502D01*
X144409522Y-91379040D02*
X143830402Y-91379040D01*
X143913134Y-91434194D01*
X143968288Y-91489348D01*
X143995865Y-91544502D01*
%TO.C,R3*%
X154061522Y-91765120D02*
X153785751Y-91958160D01*
X154061522Y-92096045D02*
X153482402Y-92096045D01*
X153482402Y-91875428D01*
X153509980Y-91820274D01*
X153537557Y-91792697D01*
X153592711Y-91765120D01*
X153675442Y-91765120D01*
X153730597Y-91792697D01*
X153758174Y-91820274D01*
X153785751Y-91875428D01*
X153785751Y-92096045D01*
X153482402Y-91572080D02*
X153482402Y-91213577D01*
X153703020Y-91406617D01*
X153703020Y-91323885D01*
X153730597Y-91268731D01*
X153758174Y-91241154D01*
X153813328Y-91213577D01*
X153951214Y-91213577D01*
X154006368Y-91241154D01*
X154033945Y-91268731D01*
X154061522Y-91323885D01*
X154061522Y-91489348D01*
X154033945Y-91544502D01*
X154006368Y-91572080D01*
%TO.C,C7*%
X150944580Y-98062868D02*
X150917002Y-98090445D01*
X150834271Y-98118022D01*
X150779117Y-98118022D01*
X150696385Y-98090445D01*
X150641231Y-98035291D01*
X150613654Y-97980137D01*
X150586077Y-97869828D01*
X150586077Y-97787097D01*
X150613654Y-97676788D01*
X150641231Y-97621634D01*
X150696385Y-97566480D01*
X150779117Y-97538902D01*
X150834271Y-97538902D01*
X150917002Y-97566480D01*
X150944580Y-97594057D01*
X151137620Y-97538902D02*
X151523700Y-97538902D01*
X151275505Y-98118022D01*
%TO.C,C8*%
X150944580Y-98951868D02*
X150917002Y-98979445D01*
X150834271Y-99007022D01*
X150779117Y-99007022D01*
X150696385Y-98979445D01*
X150641231Y-98924291D01*
X150613654Y-98869137D01*
X150586077Y-98758828D01*
X150586077Y-98676097D01*
X150613654Y-98565788D01*
X150641231Y-98510634D01*
X150696385Y-98455480D01*
X150779117Y-98427902D01*
X150834271Y-98427902D01*
X150917002Y-98455480D01*
X150944580Y-98483057D01*
X151275505Y-98676097D02*
X151220351Y-98648520D01*
X151192774Y-98620942D01*
X151165197Y-98565788D01*
X151165197Y-98538211D01*
X151192774Y-98483057D01*
X151220351Y-98455480D01*
X151275505Y-98427902D01*
X151385814Y-98427902D01*
X151440968Y-98455480D01*
X151468545Y-98483057D01*
X151496122Y-98538211D01*
X151496122Y-98565788D01*
X151468545Y-98620942D01*
X151440968Y-98648520D01*
X151385814Y-98676097D01*
X151275505Y-98676097D01*
X151220351Y-98703674D01*
X151192774Y-98731251D01*
X151165197Y-98786405D01*
X151165197Y-98896714D01*
X151192774Y-98951868D01*
X151220351Y-98979445D01*
X151275505Y-99007022D01*
X151385814Y-99007022D01*
X151440968Y-98979445D01*
X151468545Y-98951868D01*
X151496122Y-98896714D01*
X151496122Y-98786405D01*
X151468545Y-98731251D01*
X151440968Y-98703674D01*
X151385814Y-98676097D01*
%TO.C,S1*%
D18*
X150979777Y-120490342D02*
X151421011Y-120655805D01*
X150979777Y-120821268D01*
X151696782Y-120876422D02*
X151696782Y-120297302D01*
X152027708Y-120876422D01*
X152027708Y-120297302D01*
X152551674Y-120876422D02*
X152551674Y-120573074D01*
X152524097Y-120517920D01*
X152468942Y-120490342D01*
X152358634Y-120490342D01*
X152303480Y-120517920D01*
X152551674Y-120848845D02*
X152496520Y-120876422D01*
X152358634Y-120876422D01*
X152303480Y-120848845D01*
X152275902Y-120793691D01*
X152275902Y-120738537D01*
X152303480Y-120683382D01*
X152358634Y-120655805D01*
X152496520Y-120655805D01*
X152551674Y-120628228D01*
X152827445Y-120876422D02*
X152827445Y-120490342D01*
X152827445Y-120545497D02*
X152855022Y-120517920D01*
X152910177Y-120490342D01*
X152992908Y-120490342D01*
X153048062Y-120517920D01*
X153075640Y-120573074D01*
X153075640Y-120876422D01*
X153075640Y-120573074D02*
X153103217Y-120517920D01*
X153158371Y-120490342D01*
X153241102Y-120490342D01*
X153296257Y-120517920D01*
X153323834Y-120573074D01*
X153323834Y-120876422D01*
X153820222Y-120848845D02*
X153765068Y-120876422D01*
X153654760Y-120876422D01*
X153599605Y-120848845D01*
X153572028Y-120793691D01*
X153572028Y-120573074D01*
X153599605Y-120517920D01*
X153654760Y-120490342D01*
X153765068Y-120490342D01*
X153820222Y-120517920D01*
X153847800Y-120573074D01*
X153847800Y-120628228D01*
X153572028Y-120683382D01*
%TO.C,J3*%
D17*
X139989734Y-118239902D02*
X139989734Y-118653560D01*
X139962157Y-118736291D01*
X139907002Y-118791445D01*
X139824271Y-118819022D01*
X139769117Y-118819022D01*
X140210351Y-118239902D02*
X140568854Y-118239902D01*
X140375814Y-118460520D01*
X140458545Y-118460520D01*
X140513699Y-118488097D01*
X140541277Y-118515674D01*
X140568854Y-118570828D01*
X140568854Y-118708714D01*
X140541277Y-118763868D01*
X140513699Y-118791445D01*
X140458545Y-118819022D01*
X140293082Y-118819022D01*
X140237928Y-118791445D01*
X140210351Y-118763868D01*
%TO.C,J4*%
X157769734Y-93093902D02*
X157769734Y-93507560D01*
X157742157Y-93590291D01*
X157687002Y-93645445D01*
X157604271Y-93673022D01*
X157549117Y-93673022D01*
X158293699Y-93286942D02*
X158293699Y-93673022D01*
X158155814Y-93066325D02*
X158017928Y-93479982D01*
X158376431Y-93479982D01*
%TO.C,R5*%
X151198580Y-113939022D02*
X151005540Y-113663251D01*
X150867654Y-113939022D02*
X150867654Y-113359902D01*
X151088271Y-113359902D01*
X151143425Y-113387480D01*
X151171002Y-113415057D01*
X151198580Y-113470211D01*
X151198580Y-113552942D01*
X151171002Y-113608097D01*
X151143425Y-113635674D01*
X151088271Y-113663251D01*
X150867654Y-113663251D01*
X151722545Y-113359902D02*
X151446774Y-113359902D01*
X151419197Y-113635674D01*
X151446774Y-113608097D01*
X151501928Y-113580520D01*
X151639814Y-113580520D01*
X151694968Y-113608097D01*
X151722545Y-113635674D01*
X151750122Y-113690828D01*
X151750122Y-113828714D01*
X151722545Y-113883868D01*
X151694968Y-113911445D01*
X151639814Y-113939022D01*
X151501928Y-113939022D01*
X151446774Y-113911445D01*
X151419197Y-113883868D01*
%TO.C,R7*%
X151198580Y-114828022D02*
X151005540Y-114552251D01*
X150867654Y-114828022D02*
X150867654Y-114248902D01*
X151088271Y-114248902D01*
X151143425Y-114276480D01*
X151171002Y-114304057D01*
X151198580Y-114359211D01*
X151198580Y-114441942D01*
X151171002Y-114497097D01*
X151143425Y-114524674D01*
X151088271Y-114552251D01*
X150867654Y-114552251D01*
X151391620Y-114248902D02*
X151777700Y-114248902D01*
X151529505Y-114828022D01*
%TO.C,J5*%
D19*
X146725821Y-92148478D02*
X147277364Y-92355307D01*
X146725821Y-92562135D01*
X147622078Y-92631078D02*
X147622078Y-91907178D01*
X148035735Y-92631078D01*
X148035735Y-91907178D01*
X148690692Y-92631078D02*
X148690692Y-92251892D01*
X148656221Y-92182950D01*
X148587278Y-92148478D01*
X148449392Y-92148478D01*
X148380450Y-92182950D01*
X148690692Y-92596607D02*
X148621750Y-92631078D01*
X148449392Y-92631078D01*
X148380450Y-92596607D01*
X148345978Y-92527664D01*
X148345978Y-92458721D01*
X148380450Y-92389778D01*
X148449392Y-92355307D01*
X148621750Y-92355307D01*
X148690692Y-92320835D01*
X149035407Y-92631078D02*
X149035407Y-92148478D01*
X149035407Y-92217421D02*
X149069878Y-92182950D01*
X149138821Y-92148478D01*
X149242235Y-92148478D01*
X149311178Y-92182950D01*
X149345650Y-92251892D01*
X149345650Y-92631078D01*
X149345650Y-92251892D02*
X149380121Y-92182950D01*
X149449064Y-92148478D01*
X149552478Y-92148478D01*
X149621421Y-92182950D01*
X149655892Y-92251892D01*
X149655892Y-92631078D01*
X150276378Y-92596607D02*
X150207435Y-92631078D01*
X150069550Y-92631078D01*
X150000607Y-92596607D01*
X149966135Y-92527664D01*
X149966135Y-92251892D01*
X150000607Y-92182950D01*
X150069550Y-92148478D01*
X150207435Y-92148478D01*
X150276378Y-92182950D01*
X150310850Y-92251892D01*
X150310850Y-92320835D01*
X149966135Y-92389778D01*
%TO.C,C11*%
D17*
X145334808Y-116785868D02*
X145307231Y-116813445D01*
X145224500Y-116841022D01*
X145169345Y-116841022D01*
X145086614Y-116813445D01*
X145031460Y-116758291D01*
X145003882Y-116703137D01*
X144976305Y-116592828D01*
X144976305Y-116510097D01*
X145003882Y-116399788D01*
X145031460Y-116344634D01*
X145086614Y-116289480D01*
X145169345Y-116261902D01*
X145224500Y-116261902D01*
X145307231Y-116289480D01*
X145334808Y-116317057D01*
X145886351Y-116841022D02*
X145555425Y-116841022D01*
X145720888Y-116841022D02*
X145720888Y-116261902D01*
X145665734Y-116344634D01*
X145610580Y-116399788D01*
X145555425Y-116427365D01*
X146437894Y-116841022D02*
X146106968Y-116841022D01*
X146272431Y-116841022D02*
X146272431Y-116261902D01*
X146217277Y-116344634D01*
X146162122Y-116399788D01*
X146106968Y-116427365D01*
%TO.C,C13*%
X145334808Y-115007868D02*
X145307231Y-115035445D01*
X145224500Y-115063022D01*
X145169345Y-115063022D01*
X145086614Y-115035445D01*
X145031460Y-114980291D01*
X145003882Y-114925137D01*
X144976305Y-114814828D01*
X144976305Y-114732097D01*
X145003882Y-114621788D01*
X145031460Y-114566634D01*
X145086614Y-114511480D01*
X145169345Y-114483902D01*
X145224500Y-114483902D01*
X145307231Y-114511480D01*
X145334808Y-114539057D01*
X145886351Y-115063022D02*
X145555425Y-115063022D01*
X145720888Y-115063022D02*
X145720888Y-114483902D01*
X145665734Y-114566634D01*
X145610580Y-114621788D01*
X145555425Y-114649365D01*
X146079391Y-114483902D02*
X146437894Y-114483902D01*
X146244854Y-114704520D01*
X146327585Y-114704520D01*
X146382740Y-114732097D01*
X146410317Y-114759674D01*
X146437894Y-114814828D01*
X146437894Y-114952714D01*
X146410317Y-115007868D01*
X146382740Y-115035445D01*
X146327585Y-115063022D01*
X146162122Y-115063022D01*
X146106968Y-115035445D01*
X146079391Y-115007868D01*
%TO.C,U2*%
D20*
X148059861Y-107607466D02*
X148059861Y-108076278D01*
X148087438Y-108131432D01*
X148115016Y-108159009D01*
X148170170Y-108186586D01*
X148280478Y-108186586D01*
X148335633Y-108159009D01*
X148363210Y-108131432D01*
X148390787Y-108076278D01*
X148390787Y-107607466D01*
X148638981Y-107662621D02*
X148666558Y-107635044D01*
X148721713Y-107607466D01*
X148859598Y-107607466D01*
X148914753Y-107635044D01*
X148942330Y-107662621D01*
X148969907Y-107717775D01*
X148969907Y-107772929D01*
X148942330Y-107855661D01*
X148611404Y-108186586D01*
X148969907Y-108186586D01*
%TO.C,R10*%
D17*
X145334808Y-114828022D02*
X145141768Y-114552251D01*
X145003882Y-114828022D02*
X145003882Y-114248902D01*
X145224500Y-114248902D01*
X145279654Y-114276480D01*
X145307231Y-114304057D01*
X145334808Y-114359211D01*
X145334808Y-114441942D01*
X145307231Y-114497097D01*
X145279654Y-114524674D01*
X145224500Y-114552251D01*
X145003882Y-114552251D01*
X145886351Y-114828022D02*
X145555425Y-114828022D01*
X145720888Y-114828022D02*
X145720888Y-114248902D01*
X145665734Y-114331634D01*
X145610580Y-114386788D01*
X145555425Y-114414365D01*
X146244854Y-114248902D02*
X146300008Y-114248902D01*
X146355162Y-114276480D01*
X146382740Y-114304057D01*
X146410317Y-114359211D01*
X146437894Y-114469520D01*
X146437894Y-114607405D01*
X146410317Y-114717714D01*
X146382740Y-114772868D01*
X146355162Y-114800445D01*
X146300008Y-114828022D01*
X146244854Y-114828022D01*
X146189700Y-114800445D01*
X146162122Y-114772868D01*
X146134545Y-114717714D01*
X146106968Y-114607405D01*
X146106968Y-114469520D01*
X146134545Y-114359211D01*
X146162122Y-114304057D01*
X146189700Y-114276480D01*
X146244854Y-114248902D01*
%TO.C,C9*%
X142903368Y-110434120D02*
X142930945Y-110461697D01*
X142958522Y-110544428D01*
X142958522Y-110599582D01*
X142930945Y-110682314D01*
X142875791Y-110737468D01*
X142820637Y-110765045D01*
X142710328Y-110792622D01*
X142627597Y-110792622D01*
X142517288Y-110765045D01*
X142462134Y-110737468D01*
X142406980Y-110682314D01*
X142379402Y-110599582D01*
X142379402Y-110544428D01*
X142406980Y-110461697D01*
X142434557Y-110434120D01*
X142958522Y-110158348D02*
X142958522Y-110048040D01*
X142930945Y-109992885D01*
X142903368Y-109965308D01*
X142820637Y-109910154D01*
X142710328Y-109882577D01*
X142489711Y-109882577D01*
X142434557Y-109910154D01*
X142406980Y-109937731D01*
X142379402Y-109992885D01*
X142379402Y-110103194D01*
X142406980Y-110158348D01*
X142434557Y-110185925D01*
X142489711Y-110213502D01*
X142627597Y-110213502D01*
X142682751Y-110185925D01*
X142710328Y-110158348D01*
X142737905Y-110103194D01*
X142737905Y-109992885D01*
X142710328Y-109937731D01*
X142682751Y-109910154D01*
X142627597Y-109882577D01*
%TO.C,C12*%
X147112808Y-115388868D02*
X147085231Y-115416445D01*
X147002500Y-115444022D01*
X146947345Y-115444022D01*
X146864614Y-115416445D01*
X146809460Y-115361291D01*
X146781882Y-115306137D01*
X146754305Y-115195828D01*
X146754305Y-115113097D01*
X146781882Y-115002788D01*
X146809460Y-114947634D01*
X146864614Y-114892480D01*
X146947345Y-114864902D01*
X147002500Y-114864902D01*
X147085231Y-114892480D01*
X147112808Y-114920057D01*
X147664351Y-115444022D02*
X147333425Y-115444022D01*
X147498888Y-115444022D02*
X147498888Y-114864902D01*
X147443734Y-114947634D01*
X147388580Y-115002788D01*
X147333425Y-115030365D01*
X147884968Y-114920057D02*
X147912545Y-114892480D01*
X147967700Y-114864902D01*
X148105585Y-114864902D01*
X148160740Y-114892480D01*
X148188317Y-114920057D01*
X148215894Y-114975211D01*
X148215894Y-115030365D01*
X148188317Y-115113097D01*
X147857391Y-115444022D01*
X148215894Y-115444022D01*
%TO.C,C14*%
X151539368Y-105375891D02*
X151566945Y-105403468D01*
X151594522Y-105486200D01*
X151594522Y-105541354D01*
X151566945Y-105624085D01*
X151511791Y-105679240D01*
X151456637Y-105706817D01*
X151346328Y-105734394D01*
X151263597Y-105734394D01*
X151153288Y-105706817D01*
X151098134Y-105679240D01*
X151042980Y-105624085D01*
X151015402Y-105541354D01*
X151015402Y-105486200D01*
X151042980Y-105403468D01*
X151070557Y-105375891D01*
X151594522Y-104824348D02*
X151594522Y-105155274D01*
X151594522Y-104989811D02*
X151015402Y-104989811D01*
X151098134Y-105044965D01*
X151153288Y-105100120D01*
X151180865Y-105155274D01*
X151208442Y-104327960D02*
X151594522Y-104327960D01*
X150987825Y-104465845D02*
X151401482Y-104603731D01*
X151401482Y-104245228D01*
%TO.C,C15*%
X153171368Y-115535891D02*
X153198945Y-115563468D01*
X153226522Y-115646200D01*
X153226522Y-115701354D01*
X153198945Y-115784085D01*
X153143791Y-115839240D01*
X153088637Y-115866817D01*
X152978328Y-115894394D01*
X152895597Y-115894394D01*
X152785288Y-115866817D01*
X152730134Y-115839240D01*
X152674980Y-115784085D01*
X152647402Y-115701354D01*
X152647402Y-115646200D01*
X152674980Y-115563468D01*
X152702557Y-115535891D01*
X153226522Y-114984348D02*
X153226522Y-115315274D01*
X153226522Y-115149811D02*
X152647402Y-115149811D01*
X152730134Y-115204965D01*
X152785288Y-115260120D01*
X152812865Y-115315274D01*
X152647402Y-114460382D02*
X152647402Y-114736154D01*
X152923174Y-114763731D01*
X152895597Y-114736154D01*
X152868020Y-114681000D01*
X152868020Y-114543114D01*
X152895597Y-114487960D01*
X152923174Y-114460382D01*
X152978328Y-114432805D01*
X153116214Y-114432805D01*
X153171368Y-114460382D01*
X153198945Y-114487960D01*
X153226522Y-114543114D01*
X153226522Y-114681000D01*
X153198945Y-114736154D01*
X153171368Y-114763731D01*
%TO.C,C16*%
X142903368Y-107280891D02*
X142930945Y-107308468D01*
X142958522Y-107391200D01*
X142958522Y-107446354D01*
X142930945Y-107529085D01*
X142875791Y-107584240D01*
X142820637Y-107611817D01*
X142710328Y-107639394D01*
X142627597Y-107639394D01*
X142517288Y-107611817D01*
X142462134Y-107584240D01*
X142406980Y-107529085D01*
X142379402Y-107446354D01*
X142379402Y-107391200D01*
X142406980Y-107308468D01*
X142434557Y-107280891D01*
X142958522Y-106729348D02*
X142958522Y-107060274D01*
X142958522Y-106894811D02*
X142379402Y-106894811D01*
X142462134Y-106949965D01*
X142517288Y-107005120D01*
X142544865Y-107060274D01*
X142379402Y-106232960D02*
X142379402Y-106343268D01*
X142406980Y-106398422D01*
X142434557Y-106426000D01*
X142517288Y-106481154D01*
X142627597Y-106508731D01*
X142848214Y-106508731D01*
X142903368Y-106481154D01*
X142930945Y-106453577D01*
X142958522Y-106398422D01*
X142958522Y-106288114D01*
X142930945Y-106232960D01*
X142903368Y-106205382D01*
X142848214Y-106177805D01*
X142710328Y-106177805D01*
X142655174Y-106205382D01*
X142627597Y-106232960D01*
X142600020Y-106288114D01*
X142600020Y-106398422D01*
X142627597Y-106453577D01*
X142655174Y-106481154D01*
X142710328Y-106508731D01*
%TO.C,C17*%
X152301368Y-105375891D02*
X152328945Y-105403468D01*
X152356522Y-105486200D01*
X152356522Y-105541354D01*
X152328945Y-105624085D01*
X152273791Y-105679240D01*
X152218637Y-105706817D01*
X152108328Y-105734394D01*
X152025597Y-105734394D01*
X151915288Y-105706817D01*
X151860134Y-105679240D01*
X151804980Y-105624085D01*
X151777402Y-105541354D01*
X151777402Y-105486200D01*
X151804980Y-105403468D01*
X151832557Y-105375891D01*
X152356522Y-104824348D02*
X152356522Y-105155274D01*
X152356522Y-104989811D02*
X151777402Y-104989811D01*
X151860134Y-105044965D01*
X151915288Y-105100120D01*
X151942865Y-105155274D01*
X151777402Y-104631308D02*
X151777402Y-104245228D01*
X152356522Y-104493422D01*
%TO.C,C18*%
X149144808Y-114264868D02*
X149117231Y-114292445D01*
X149034500Y-114320022D01*
X148979345Y-114320022D01*
X148896614Y-114292445D01*
X148841460Y-114237291D01*
X148813882Y-114182137D01*
X148786305Y-114071828D01*
X148786305Y-113989097D01*
X148813882Y-113878788D01*
X148841460Y-113823634D01*
X148896614Y-113768480D01*
X148979345Y-113740902D01*
X149034500Y-113740902D01*
X149117231Y-113768480D01*
X149144808Y-113796057D01*
X149696351Y-114320022D02*
X149365425Y-114320022D01*
X149530888Y-114320022D02*
X149530888Y-113740902D01*
X149475734Y-113823634D01*
X149420580Y-113878788D01*
X149365425Y-113906365D01*
X150027277Y-113989097D02*
X149972122Y-113961520D01*
X149944545Y-113933942D01*
X149916968Y-113878788D01*
X149916968Y-113851211D01*
X149944545Y-113796057D01*
X149972122Y-113768480D01*
X150027277Y-113740902D01*
X150137585Y-113740902D01*
X150192740Y-113768480D01*
X150220317Y-113796057D01*
X150247894Y-113851211D01*
X150247894Y-113878788D01*
X150220317Y-113933942D01*
X150192740Y-113961520D01*
X150137585Y-113989097D01*
X150027277Y-113989097D01*
X149972122Y-114016674D01*
X149944545Y-114044251D01*
X149916968Y-114099405D01*
X149916968Y-114209714D01*
X149944545Y-114264868D01*
X149972122Y-114292445D01*
X150027277Y-114320022D01*
X150137585Y-114320022D01*
X150192740Y-114292445D01*
X150220317Y-114264868D01*
X150247894Y-114209714D01*
X150247894Y-114099405D01*
X150220317Y-114044251D01*
X150192740Y-114016674D01*
X150137585Y-113989097D01*
%TO.C,C19*%
X146096808Y-105863868D02*
X146069231Y-105891445D01*
X145986500Y-105919022D01*
X145931345Y-105919022D01*
X145848614Y-105891445D01*
X145793460Y-105836291D01*
X145765882Y-105781137D01*
X145738305Y-105670828D01*
X145738305Y-105588097D01*
X145765882Y-105477788D01*
X145793460Y-105422634D01*
X145848614Y-105367480D01*
X145931345Y-105339902D01*
X145986500Y-105339902D01*
X146069231Y-105367480D01*
X146096808Y-105395057D01*
X146648351Y-105919022D02*
X146317425Y-105919022D01*
X146482888Y-105919022D02*
X146482888Y-105339902D01*
X146427734Y-105422634D01*
X146372580Y-105477788D01*
X146317425Y-105505365D01*
X146924122Y-105919022D02*
X147034431Y-105919022D01*
X147089585Y-105891445D01*
X147117162Y-105863868D01*
X147172317Y-105781137D01*
X147199894Y-105670828D01*
X147199894Y-105450211D01*
X147172317Y-105395057D01*
X147144740Y-105367480D01*
X147089585Y-105339902D01*
X146979277Y-105339902D01*
X146924122Y-105367480D01*
X146896545Y-105395057D01*
X146868968Y-105450211D01*
X146868968Y-105588097D01*
X146896545Y-105643251D01*
X146924122Y-105670828D01*
X146979277Y-105698405D01*
X147089585Y-105698405D01*
X147144740Y-105670828D01*
X147172317Y-105643251D01*
X147199894Y-105588097D01*
%TO.C,R12*%
X154115522Y-96485891D02*
X153839751Y-96678931D01*
X154115522Y-96816817D02*
X153536402Y-96816817D01*
X153536402Y-96596200D01*
X153563980Y-96541045D01*
X153591557Y-96513468D01*
X153646711Y-96485891D01*
X153729442Y-96485891D01*
X153784597Y-96513468D01*
X153812174Y-96541045D01*
X153839751Y-96596200D01*
X153839751Y-96816817D01*
X154115522Y-95934348D02*
X154115522Y-96265274D01*
X154115522Y-96099811D02*
X153536402Y-96099811D01*
X153619134Y-96154965D01*
X153674288Y-96210120D01*
X153701865Y-96265274D01*
X153591557Y-95713731D02*
X153563980Y-95686154D01*
X153536402Y-95631000D01*
X153536402Y-95493114D01*
X153563980Y-95437960D01*
X153591557Y-95410382D01*
X153646711Y-95382805D01*
X153701865Y-95382805D01*
X153784597Y-95410382D01*
X154115522Y-95741308D01*
X154115522Y-95382805D01*
%TO.C,R13*%
X152845522Y-96485891D02*
X152569751Y-96678931D01*
X152845522Y-96816817D02*
X152266402Y-96816817D01*
X152266402Y-96596200D01*
X152293980Y-96541045D01*
X152321557Y-96513468D01*
X152376711Y-96485891D01*
X152459442Y-96485891D01*
X152514597Y-96513468D01*
X152542174Y-96541045D01*
X152569751Y-96596200D01*
X152569751Y-96816817D01*
X152845522Y-95934348D02*
X152845522Y-96265274D01*
X152845522Y-96099811D02*
X152266402Y-96099811D01*
X152349134Y-96154965D01*
X152404288Y-96210120D01*
X152431865Y-96265274D01*
X152266402Y-95741308D02*
X152266402Y-95382805D01*
X152487020Y-95575845D01*
X152487020Y-95493114D01*
X152514597Y-95437960D01*
X152542174Y-95410382D01*
X152597328Y-95382805D01*
X152735214Y-95382805D01*
X152790368Y-95410382D01*
X152817945Y-95437960D01*
X152845522Y-95493114D01*
X152845522Y-95658577D01*
X152817945Y-95713731D01*
X152790368Y-95741308D01*
%TO.C,C20*%
X150160808Y-104739868D02*
X150133231Y-104767445D01*
X150050500Y-104795022D01*
X149995345Y-104795022D01*
X149912614Y-104767445D01*
X149857460Y-104712291D01*
X149829882Y-104657137D01*
X149802305Y-104546828D01*
X149802305Y-104464097D01*
X149829882Y-104353788D01*
X149857460Y-104298634D01*
X149912614Y-104243480D01*
X149995345Y-104215902D01*
X150050500Y-104215902D01*
X150133231Y-104243480D01*
X150160808Y-104271057D01*
X150381425Y-104271057D02*
X150409002Y-104243480D01*
X150464157Y-104215902D01*
X150602042Y-104215902D01*
X150657197Y-104243480D01*
X150684774Y-104271057D01*
X150712351Y-104326211D01*
X150712351Y-104381365D01*
X150684774Y-104464097D01*
X150353848Y-104795022D01*
X150712351Y-104795022D01*
X151070854Y-104215902D02*
X151126008Y-104215902D01*
X151181162Y-104243480D01*
X151208740Y-104271057D01*
X151236317Y-104326211D01*
X151263894Y-104436520D01*
X151263894Y-104574405D01*
X151236317Y-104684714D01*
X151208740Y-104739868D01*
X151181162Y-104767445D01*
X151126008Y-104795022D01*
X151070854Y-104795022D01*
X151015700Y-104767445D01*
X150988122Y-104739868D01*
X150960545Y-104684714D01*
X150932968Y-104574405D01*
X150932968Y-104436520D01*
X150960545Y-104326211D01*
X150988122Y-104271057D01*
X151015700Y-104243480D01*
X151070854Y-104215902D01*
%TO.C,C21*%
X148128808Y-104739868D02*
X148101231Y-104767445D01*
X148018500Y-104795022D01*
X147963345Y-104795022D01*
X147880614Y-104767445D01*
X147825460Y-104712291D01*
X147797882Y-104657137D01*
X147770305Y-104546828D01*
X147770305Y-104464097D01*
X147797882Y-104353788D01*
X147825460Y-104298634D01*
X147880614Y-104243480D01*
X147963345Y-104215902D01*
X148018500Y-104215902D01*
X148101231Y-104243480D01*
X148128808Y-104271057D01*
X148349425Y-104271057D02*
X148377002Y-104243480D01*
X148432157Y-104215902D01*
X148570042Y-104215902D01*
X148625197Y-104243480D01*
X148652774Y-104271057D01*
X148680351Y-104326211D01*
X148680351Y-104381365D01*
X148652774Y-104464097D01*
X148321848Y-104795022D01*
X148680351Y-104795022D01*
X149231894Y-104795022D02*
X148900968Y-104795022D01*
X149066431Y-104795022D02*
X149066431Y-104215902D01*
X149011277Y-104298634D01*
X148956122Y-104353788D01*
X148900968Y-104381365D01*
%TO.C,R14*%
X153480522Y-103597891D02*
X153204751Y-103790931D01*
X153480522Y-103928817D02*
X152901402Y-103928817D01*
X152901402Y-103708200D01*
X152928980Y-103653045D01*
X152956557Y-103625468D01*
X153011711Y-103597891D01*
X153094442Y-103597891D01*
X153149597Y-103625468D01*
X153177174Y-103653045D01*
X153204751Y-103708200D01*
X153204751Y-103928817D01*
X153480522Y-103046348D02*
X153480522Y-103377274D01*
X153480522Y-103211811D02*
X152901402Y-103211811D01*
X152984134Y-103266965D01*
X153039288Y-103322120D01*
X153066865Y-103377274D01*
X153094442Y-102549960D02*
X153480522Y-102549960D01*
X152873825Y-102687845D02*
X153287482Y-102825731D01*
X153287482Y-102467228D01*
%TO.C,C22*%
X152663368Y-103597891D02*
X152690945Y-103625468D01*
X152718522Y-103708200D01*
X152718522Y-103763354D01*
X152690945Y-103846085D01*
X152635791Y-103901240D01*
X152580637Y-103928817D01*
X152470328Y-103956394D01*
X152387597Y-103956394D01*
X152277288Y-103928817D01*
X152222134Y-103901240D01*
X152166980Y-103846085D01*
X152139402Y-103763354D01*
X152139402Y-103708200D01*
X152166980Y-103625468D01*
X152194557Y-103597891D01*
X152194557Y-103377274D02*
X152166980Y-103349697D01*
X152139402Y-103294542D01*
X152139402Y-103156657D01*
X152166980Y-103101502D01*
X152194557Y-103073925D01*
X152249711Y-103046348D01*
X152304865Y-103046348D01*
X152387597Y-103073925D01*
X152718522Y-103404851D01*
X152718522Y-103046348D01*
X152194557Y-102825731D02*
X152166980Y-102798154D01*
X152139402Y-102743000D01*
X152139402Y-102605114D01*
X152166980Y-102549960D01*
X152194557Y-102522382D01*
X152249711Y-102494805D01*
X152304865Y-102494805D01*
X152387597Y-102522382D01*
X152718522Y-102853308D01*
X152718522Y-102494805D01*
%TO.C,Y1*%
D21*
X141865877Y-116017942D02*
X142307111Y-116183405D01*
X141865877Y-116348868D01*
X142582882Y-116404022D02*
X142582882Y-115824902D01*
X142913808Y-116404022D01*
X142913808Y-115824902D01*
X143437774Y-116404022D02*
X143437774Y-116100674D01*
X143410197Y-116045520D01*
X143355042Y-116017942D01*
X143244734Y-116017942D01*
X143189580Y-116045520D01*
X143437774Y-116376445D02*
X143382620Y-116404022D01*
X143244734Y-116404022D01*
X143189580Y-116376445D01*
X143162002Y-116321291D01*
X143162002Y-116266137D01*
X143189580Y-116210982D01*
X143244734Y-116183405D01*
X143382620Y-116183405D01*
X143437774Y-116155828D01*
X143713545Y-116404022D02*
X143713545Y-116017942D01*
X143713545Y-116073097D02*
X143741122Y-116045520D01*
X143796277Y-116017942D01*
X143879008Y-116017942D01*
X143934162Y-116045520D01*
X143961740Y-116100674D01*
X143961740Y-116404022D01*
X143961740Y-116100674D02*
X143989317Y-116045520D01*
X144044471Y-116017942D01*
X144127202Y-116017942D01*
X144182357Y-116045520D01*
X144209934Y-116100674D01*
X144209934Y-116404022D01*
X144706322Y-116376445D02*
X144651168Y-116404022D01*
X144540860Y-116404022D01*
X144485705Y-116376445D01*
X144458128Y-116321291D01*
X144458128Y-116100674D01*
X144485705Y-116045520D01*
X144540860Y-116017942D01*
X144651168Y-116017942D01*
X144706322Y-116045520D01*
X144733900Y-116100674D01*
X144733900Y-116155828D01*
X144458128Y-116210982D01*
%TO.C,C29*%
D17*
X152663368Y-101692891D02*
X152690945Y-101720468D01*
X152718522Y-101803200D01*
X152718522Y-101858354D01*
X152690945Y-101941085D01*
X152635791Y-101996240D01*
X152580637Y-102023817D01*
X152470328Y-102051394D01*
X152387597Y-102051394D01*
X152277288Y-102023817D01*
X152222134Y-101996240D01*
X152166980Y-101941085D01*
X152139402Y-101858354D01*
X152139402Y-101803200D01*
X152166980Y-101720468D01*
X152194557Y-101692891D01*
X152194557Y-101472274D02*
X152166980Y-101444697D01*
X152139402Y-101389542D01*
X152139402Y-101251657D01*
X152166980Y-101196502D01*
X152194557Y-101168925D01*
X152249711Y-101141348D01*
X152304865Y-101141348D01*
X152387597Y-101168925D01*
X152718522Y-101499851D01*
X152718522Y-101141348D01*
X152718522Y-100865577D02*
X152718522Y-100755268D01*
X152690945Y-100700114D01*
X152663368Y-100672537D01*
X152580637Y-100617382D01*
X152470328Y-100589805D01*
X152249711Y-100589805D01*
X152194557Y-100617382D01*
X152166980Y-100644960D01*
X152139402Y-100700114D01*
X152139402Y-100810422D01*
X152166980Y-100865577D01*
X152194557Y-100893154D01*
X152249711Y-100920731D01*
X152387597Y-100920731D01*
X152442751Y-100893154D01*
X152470328Y-100865577D01*
X152497905Y-100810422D01*
X152497905Y-100700114D01*
X152470328Y-100644960D01*
X152442751Y-100617382D01*
X152387597Y-100589805D01*
%TO.C,U4*%
D19*
X146725821Y-98879478D02*
X147277364Y-99086307D01*
X146725821Y-99293135D01*
X147622078Y-99362078D02*
X147622078Y-98638178D01*
X148035735Y-99362078D01*
X148035735Y-98638178D01*
X148690692Y-99362078D02*
X148690692Y-98982892D01*
X148656221Y-98913950D01*
X148587278Y-98879478D01*
X148449392Y-98879478D01*
X148380450Y-98913950D01*
X148690692Y-99327607D02*
X148621750Y-99362078D01*
X148449392Y-99362078D01*
X148380450Y-99327607D01*
X148345978Y-99258664D01*
X148345978Y-99189721D01*
X148380450Y-99120778D01*
X148449392Y-99086307D01*
X148621750Y-99086307D01*
X148690692Y-99051835D01*
X149035407Y-99362078D02*
X149035407Y-98879478D01*
X149035407Y-98948421D02*
X149069878Y-98913950D01*
X149138821Y-98879478D01*
X149242235Y-98879478D01*
X149311178Y-98913950D01*
X149345650Y-98982892D01*
X149345650Y-99362078D01*
X149345650Y-98982892D02*
X149380121Y-98913950D01*
X149449064Y-98879478D01*
X149552478Y-98879478D01*
X149621421Y-98913950D01*
X149655892Y-98982892D01*
X149655892Y-99362078D01*
X150276378Y-99327607D02*
X150207435Y-99362078D01*
X150069550Y-99362078D01*
X150000607Y-99327607D01*
X149966135Y-99258664D01*
X149966135Y-98982892D01*
X150000607Y-98913950D01*
X150069550Y-98879478D01*
X150207435Y-98879478D01*
X150276378Y-98913950D01*
X150310850Y-98982892D01*
X150310850Y-99051835D01*
X149966135Y-99120778D01*
%TO.C,R15*%
D17*
X144082522Y-102327891D02*
X143806751Y-102520931D01*
X144082522Y-102658817D02*
X143503402Y-102658817D01*
X143503402Y-102438200D01*
X143530980Y-102383045D01*
X143558557Y-102355468D01*
X143613711Y-102327891D01*
X143696442Y-102327891D01*
X143751597Y-102355468D01*
X143779174Y-102383045D01*
X143806751Y-102438200D01*
X143806751Y-102658817D01*
X144082522Y-101776348D02*
X144082522Y-102107274D01*
X144082522Y-101941811D02*
X143503402Y-101941811D01*
X143586134Y-101996965D01*
X143641288Y-102052120D01*
X143668865Y-102107274D01*
X143503402Y-101252382D02*
X143503402Y-101528154D01*
X143779174Y-101555731D01*
X143751597Y-101528154D01*
X143724020Y-101473000D01*
X143724020Y-101335114D01*
X143751597Y-101279960D01*
X143779174Y-101252382D01*
X143834328Y-101224805D01*
X143972214Y-101224805D01*
X144027368Y-101252382D01*
X144054945Y-101279960D01*
X144082522Y-101335114D01*
X144082522Y-101473000D01*
X144054945Y-101528154D01*
X144027368Y-101555731D01*
%TO.C,C23*%
X151539368Y-99914891D02*
X151566945Y-99942468D01*
X151594522Y-100025200D01*
X151594522Y-100080354D01*
X151566945Y-100163085D01*
X151511791Y-100218240D01*
X151456637Y-100245817D01*
X151346328Y-100273394D01*
X151263597Y-100273394D01*
X151153288Y-100245817D01*
X151098134Y-100218240D01*
X151042980Y-100163085D01*
X151015402Y-100080354D01*
X151015402Y-100025200D01*
X151042980Y-99942468D01*
X151070557Y-99914891D01*
X151070557Y-99694274D02*
X151042980Y-99666697D01*
X151015402Y-99611542D01*
X151015402Y-99473657D01*
X151042980Y-99418502D01*
X151070557Y-99390925D01*
X151125711Y-99363348D01*
X151180865Y-99363348D01*
X151263597Y-99390925D01*
X151594522Y-99721851D01*
X151594522Y-99363348D01*
X151015402Y-99170308D02*
X151015402Y-98811805D01*
X151236020Y-99004845D01*
X151236020Y-98922114D01*
X151263597Y-98866960D01*
X151291174Y-98839382D01*
X151346328Y-98811805D01*
X151484214Y-98811805D01*
X151539368Y-98839382D01*
X151566945Y-98866960D01*
X151594522Y-98922114D01*
X151594522Y-99087577D01*
X151566945Y-99142731D01*
X151539368Y-99170308D01*
%TO.C,R16*%
X142958522Y-100295891D02*
X142682751Y-100488931D01*
X142958522Y-100626817D02*
X142379402Y-100626817D01*
X142379402Y-100406200D01*
X142406980Y-100351045D01*
X142434557Y-100323468D01*
X142489711Y-100295891D01*
X142572442Y-100295891D01*
X142627597Y-100323468D01*
X142655174Y-100351045D01*
X142682751Y-100406200D01*
X142682751Y-100626817D01*
X142958522Y-99744348D02*
X142958522Y-100075274D01*
X142958522Y-99909811D02*
X142379402Y-99909811D01*
X142462134Y-99964965D01*
X142517288Y-100020120D01*
X142544865Y-100075274D01*
X142379402Y-99247960D02*
X142379402Y-99358268D01*
X142406980Y-99413422D01*
X142434557Y-99441000D01*
X142517288Y-99496154D01*
X142627597Y-99523731D01*
X142848214Y-99523731D01*
X142903368Y-99496154D01*
X142930945Y-99468577D01*
X142958522Y-99413422D01*
X142958522Y-99303114D01*
X142930945Y-99247960D01*
X142903368Y-99220382D01*
X142848214Y-99192805D01*
X142710328Y-99192805D01*
X142655174Y-99220382D01*
X142627597Y-99247960D01*
X142600020Y-99303114D01*
X142600020Y-99413422D01*
X142627597Y-99468577D01*
X142655174Y-99496154D01*
X142710328Y-99523731D01*
%TO.C,S2*%
D18*
X144629777Y-120490342D02*
X145071011Y-120655805D01*
X144629777Y-120821268D01*
X145346782Y-120876422D02*
X145346782Y-120297302D01*
X145677708Y-120876422D01*
X145677708Y-120297302D01*
X146201674Y-120876422D02*
X146201674Y-120573074D01*
X146174097Y-120517920D01*
X146118942Y-120490342D01*
X146008634Y-120490342D01*
X145953480Y-120517920D01*
X146201674Y-120848845D02*
X146146520Y-120876422D01*
X146008634Y-120876422D01*
X145953480Y-120848845D01*
X145925902Y-120793691D01*
X145925902Y-120738537D01*
X145953480Y-120683382D01*
X146008634Y-120655805D01*
X146146520Y-120655805D01*
X146201674Y-120628228D01*
X146477445Y-120876422D02*
X146477445Y-120490342D01*
X146477445Y-120545497D02*
X146505022Y-120517920D01*
X146560177Y-120490342D01*
X146642908Y-120490342D01*
X146698062Y-120517920D01*
X146725640Y-120573074D01*
X146725640Y-120876422D01*
X146725640Y-120573074D02*
X146753217Y-120517920D01*
X146808371Y-120490342D01*
X146891102Y-120490342D01*
X146946257Y-120517920D01*
X146973834Y-120573074D01*
X146973834Y-120876422D01*
X147470222Y-120848845D02*
X147415068Y-120876422D01*
X147304760Y-120876422D01*
X147249605Y-120848845D01*
X147222028Y-120793691D01*
X147222028Y-120573074D01*
X147249605Y-120517920D01*
X147304760Y-120490342D01*
X147415068Y-120490342D01*
X147470222Y-120517920D01*
X147497800Y-120573074D01*
X147497800Y-120628228D01*
X147222028Y-120683382D01*
%TD*%
M02*
