%TF.GenerationSoftware,KiCad,Pcbnew,(5.1.10-6-gecec324121)-1*%
%TF.CreationDate,2021-07-07T13:29:09-07:00*%
%TF.ProjectId,SparkFun_ProMicro-RP2040,53706172-6b46-4756-9e5f-50726f4d6963,rev?*%
%TF.SameCoordinates,Original*%
%TF.FileFunction,Paste,Top*%
%TF.FilePolarity,Positive*%
%FSLAX46Y46*%
G04 Gerber Fmt 4.6, Leading zero omitted, Abs format (unit mm)*
G04 Created by KiCad (PCBNEW (5.1.10-6-gecec324121)-1) date 2021-07-07 13:29:09*
%MOMM*%
%LPD*%
G01*
G04 APERTURE LIST*
%ADD10C,0.100000*%
%ADD11R,0.600000X0.600000*%
%ADD12R,1.200000X0.800000*%
%ADD13R,0.830000X0.630000*%
%ADD14R,0.550000X1.200000*%
%ADD15R,0.900000X1.000000*%
%ADD16R,0.300000X1.000000*%
%ADD17R,0.600000X1.000000*%
%ADD18R,1.200000X1.100000*%
%ADD19R,0.850000X0.500000*%
G04 APERTURE END LIST*
D10*
%TO.C,J5*%
G36*
X153321100Y-89443600D02*
G01*
X153321100Y-90043600D01*
X153293049Y-90200709D01*
X153217821Y-90341461D01*
X153102780Y-90452077D01*
X152801100Y-90543600D01*
X152614346Y-90502474D01*
X152457547Y-90393011D01*
X152321100Y-90043600D01*
X152321100Y-89443600D01*
X152354572Y-89255324D01*
X152457547Y-89094189D01*
X152801100Y-88943600D01*
X152959188Y-88965471D01*
X153102780Y-89035123D01*
X153217821Y-89145739D01*
X153321100Y-89443600D01*
G37*
G36*
X144681100Y-89393600D02*
G01*
X144681100Y-89993600D01*
X144666710Y-90154457D01*
X144603316Y-90302994D01*
X144497125Y-90424671D01*
X144201100Y-90543600D01*
X144043012Y-90521729D01*
X143899420Y-90452077D01*
X143784379Y-90341461D01*
X143681100Y-90043600D01*
X143681100Y-89443600D01*
X143712278Y-89256857D01*
X143812547Y-89096260D01*
X144151100Y-88943600D01*
X144304476Y-88955222D01*
X144446754Y-89013670D01*
X144564007Y-89113225D01*
X144681100Y-89393600D01*
G37*
G36*
X144681100Y-93273600D02*
G01*
X144681100Y-94473600D01*
X144662809Y-94629087D01*
X144597364Y-94771312D01*
X144491173Y-94886353D01*
X144354630Y-94962948D01*
X144201100Y-94993600D01*
X144046913Y-94977098D01*
X143905372Y-94913758D01*
X143790331Y-94809779D01*
X143681100Y-94523600D01*
X143681100Y-93323600D01*
X143734478Y-93145251D01*
X143852044Y-93000904D01*
X144201100Y-92893600D01*
X144369460Y-92907198D01*
X144519801Y-92984189D01*
X144681100Y-93273600D01*
G37*
G36*
X153321100Y-93323600D02*
G01*
X153321100Y-94523600D01*
X153285323Y-94703461D01*
X153183440Y-94855940D01*
X152851100Y-94993600D01*
X152695123Y-94978399D01*
X152551478Y-94915742D01*
X152434225Y-94811763D01*
X152321100Y-94523600D01*
X152321100Y-93323600D01*
X152376772Y-93143718D01*
X152497044Y-92998833D01*
X152851100Y-92893600D01*
X153024830Y-92920201D01*
X153175156Y-93011260D01*
X153321100Y-93323600D01*
G37*
%TO.C,U2*%
G36*
X148201100Y-110383600D02*
G01*
X148801100Y-110383600D01*
X148801100Y-109783600D01*
X148201100Y-109783600D01*
X148201100Y-110383600D01*
G37*
G36*
X149201100Y-109383600D02*
G01*
X149801100Y-109383600D01*
X149801100Y-108783600D01*
X149201100Y-108783600D01*
X149201100Y-109383600D01*
G37*
G36*
X149201100Y-111383600D02*
G01*
X149801100Y-111383600D01*
X149801100Y-110783600D01*
X149201100Y-110783600D01*
X149201100Y-111383600D01*
G37*
G36*
X147201100Y-111383600D02*
G01*
X147801100Y-111383600D01*
X147801100Y-110783600D01*
X147201100Y-110783600D01*
X147201100Y-111383600D01*
G37*
G36*
X148201100Y-106333600D02*
G01*
X148201100Y-106983600D01*
X148401100Y-106983600D01*
X148401100Y-106333600D01*
X148201100Y-106333600D01*
G37*
G36*
X147801100Y-106333600D02*
G01*
X147801100Y-106983600D01*
X148001100Y-106983600D01*
X148001100Y-106333600D01*
X147801100Y-106333600D01*
G37*
G36*
X147401100Y-106333600D02*
G01*
X147401100Y-106983600D01*
X147601100Y-106983600D01*
X147601100Y-106333600D01*
X147401100Y-106333600D01*
G37*
G36*
X147001100Y-106333600D02*
G01*
X147001100Y-106983600D01*
X147201100Y-106983600D01*
X147201100Y-106333600D01*
X147001100Y-106333600D01*
G37*
G36*
X146601100Y-106333600D02*
G01*
X146601100Y-106983600D01*
X146801100Y-106983600D01*
X146801100Y-106333600D01*
X146601100Y-106333600D01*
G37*
G36*
X146201100Y-106333600D02*
G01*
X146201100Y-106983600D01*
X146401100Y-106983600D01*
X146401100Y-106333600D01*
X146201100Y-106333600D01*
G37*
G36*
X145801100Y-106333600D02*
G01*
X145801100Y-106983600D01*
X146001100Y-106983600D01*
X146001100Y-106333600D01*
X145801100Y-106333600D01*
G37*
G36*
X151001100Y-106333600D02*
G01*
X151001100Y-106983600D01*
X151201100Y-106983600D01*
X151201100Y-106333600D01*
X151001100Y-106333600D01*
G37*
G36*
X150601100Y-106333600D02*
G01*
X150601100Y-106983600D01*
X150801100Y-106983600D01*
X150801100Y-106333600D01*
X150601100Y-106333600D01*
G37*
G36*
X150201100Y-106333600D02*
G01*
X150201100Y-106983600D01*
X150401100Y-106983600D01*
X150401100Y-106333600D01*
X150201100Y-106333600D01*
G37*
G36*
X149801100Y-106333600D02*
G01*
X149801100Y-106983600D01*
X150001100Y-106983600D01*
X150001100Y-106333600D01*
X149801100Y-106333600D01*
G37*
G36*
X149401100Y-106333600D02*
G01*
X149401100Y-106983600D01*
X149601100Y-106983600D01*
X149601100Y-106333600D01*
X149401100Y-106333600D01*
G37*
G36*
X149001100Y-106333600D02*
G01*
X149001100Y-106983600D01*
X149201100Y-106983600D01*
X149201100Y-106333600D01*
X149001100Y-106333600D01*
G37*
G36*
X148601100Y-106333600D02*
G01*
X148601100Y-106983600D01*
X148801100Y-106983600D01*
X148801100Y-106333600D01*
X148601100Y-106333600D01*
G37*
G36*
X152251100Y-109783600D02*
G01*
X151601100Y-109783600D01*
X151601100Y-109983600D01*
X152251100Y-109983600D01*
X152251100Y-109783600D01*
G37*
G36*
X152251100Y-109383600D02*
G01*
X151601100Y-109383600D01*
X151601100Y-109583600D01*
X152251100Y-109583600D01*
X152251100Y-109383600D01*
G37*
G36*
X152251100Y-108983600D02*
G01*
X151601100Y-108983600D01*
X151601100Y-109183600D01*
X152251100Y-109183600D01*
X152251100Y-108983600D01*
G37*
G36*
X152251100Y-108583600D02*
G01*
X151601100Y-108583600D01*
X151601100Y-108783600D01*
X152251100Y-108783600D01*
X152251100Y-108583600D01*
G37*
G36*
X152251100Y-108183600D02*
G01*
X151601100Y-108183600D01*
X151601100Y-108383600D01*
X152251100Y-108383600D01*
X152251100Y-108183600D01*
G37*
G36*
X152251100Y-107783600D02*
G01*
X151601100Y-107783600D01*
X151601100Y-107983600D01*
X152251100Y-107983600D01*
X152251100Y-107783600D01*
G37*
G36*
X152251100Y-107383600D02*
G01*
X151601100Y-107383600D01*
X151601100Y-107583600D01*
X152251100Y-107583600D01*
X152251100Y-107383600D01*
G37*
G36*
X152251100Y-112583600D02*
G01*
X151601100Y-112583600D01*
X151601100Y-112783600D01*
X152251100Y-112783600D01*
X152251100Y-112583600D01*
G37*
G36*
X152251100Y-112183600D02*
G01*
X151601100Y-112183600D01*
X151601100Y-112383600D01*
X152251100Y-112383600D01*
X152251100Y-112183600D01*
G37*
G36*
X152251100Y-111783600D02*
G01*
X151601100Y-111783600D01*
X151601100Y-111983600D01*
X152251100Y-111983600D01*
X152251100Y-111783600D01*
G37*
G36*
X152251100Y-111383600D02*
G01*
X151601100Y-111383600D01*
X151601100Y-111583600D01*
X152251100Y-111583600D01*
X152251100Y-111383600D01*
G37*
G36*
X152251100Y-110983600D02*
G01*
X151601100Y-110983600D01*
X151601100Y-111183600D01*
X152251100Y-111183600D01*
X152251100Y-110983600D01*
G37*
G36*
X152251100Y-110583600D02*
G01*
X151601100Y-110583600D01*
X151601100Y-110783600D01*
X152251100Y-110783600D01*
X152251100Y-110583600D01*
G37*
G36*
X152251100Y-110183600D02*
G01*
X151601100Y-110183600D01*
X151601100Y-110383600D01*
X152251100Y-110383600D01*
X152251100Y-110183600D01*
G37*
G36*
X148801100Y-113833600D02*
G01*
X148801100Y-113183600D01*
X148601100Y-113183600D01*
X148601100Y-113833600D01*
X148801100Y-113833600D01*
G37*
G36*
X149201100Y-113833600D02*
G01*
X149201100Y-113183600D01*
X149001100Y-113183600D01*
X149001100Y-113833600D01*
X149201100Y-113833600D01*
G37*
G36*
X149601100Y-113833600D02*
G01*
X149601100Y-113183600D01*
X149401100Y-113183600D01*
X149401100Y-113833600D01*
X149601100Y-113833600D01*
G37*
G36*
X150001100Y-113833600D02*
G01*
X150001100Y-113183600D01*
X149801100Y-113183600D01*
X149801100Y-113833600D01*
X150001100Y-113833600D01*
G37*
G36*
X150401100Y-113833600D02*
G01*
X150401100Y-113183600D01*
X150201100Y-113183600D01*
X150201100Y-113833600D01*
X150401100Y-113833600D01*
G37*
G36*
X150801100Y-113833600D02*
G01*
X150801100Y-113183600D01*
X150601100Y-113183600D01*
X150601100Y-113833600D01*
X150801100Y-113833600D01*
G37*
G36*
X151201100Y-113833600D02*
G01*
X151201100Y-113183600D01*
X151001100Y-113183600D01*
X151001100Y-113833600D01*
X151201100Y-113833600D01*
G37*
G36*
X146001100Y-113833600D02*
G01*
X146001100Y-113183600D01*
X145801100Y-113183600D01*
X145801100Y-113833600D01*
X146001100Y-113833600D01*
G37*
G36*
X146401100Y-113833600D02*
G01*
X146401100Y-113183600D01*
X146201100Y-113183600D01*
X146201100Y-113833600D01*
X146401100Y-113833600D01*
G37*
G36*
X146801100Y-113833600D02*
G01*
X146801100Y-113183600D01*
X146601100Y-113183600D01*
X146601100Y-113833600D01*
X146801100Y-113833600D01*
G37*
G36*
X147201100Y-113833600D02*
G01*
X147201100Y-113183600D01*
X147001100Y-113183600D01*
X147001100Y-113833600D01*
X147201100Y-113833600D01*
G37*
G36*
X147601100Y-113833600D02*
G01*
X147601100Y-113183600D01*
X147401100Y-113183600D01*
X147401100Y-113833600D01*
X147601100Y-113833600D01*
G37*
G36*
X148001100Y-113833600D02*
G01*
X148001100Y-113183600D01*
X147801100Y-113183600D01*
X147801100Y-113833600D01*
X148001100Y-113833600D01*
G37*
G36*
X148401100Y-113833600D02*
G01*
X148401100Y-113183600D01*
X148201100Y-113183600D01*
X148201100Y-113833600D01*
X148401100Y-113833600D01*
G37*
G36*
X144751100Y-110383600D02*
G01*
X145401100Y-110383600D01*
X145401100Y-110183600D01*
X144751100Y-110183600D01*
X144751100Y-110383600D01*
G37*
G36*
X144751100Y-110783600D02*
G01*
X145401100Y-110783600D01*
X145401100Y-110583600D01*
X144751100Y-110583600D01*
X144751100Y-110783600D01*
G37*
G36*
X144751100Y-111183600D02*
G01*
X145401100Y-111183600D01*
X145401100Y-110983600D01*
X144751100Y-110983600D01*
X144751100Y-111183600D01*
G37*
G36*
X144751100Y-111583600D02*
G01*
X145401100Y-111583600D01*
X145401100Y-111383600D01*
X144751100Y-111383600D01*
X144751100Y-111583600D01*
G37*
G36*
X144751100Y-111983600D02*
G01*
X145401100Y-111983600D01*
X145401100Y-111783600D01*
X144751100Y-111783600D01*
X144751100Y-111983600D01*
G37*
G36*
X144751100Y-112383600D02*
G01*
X145401100Y-112383600D01*
X145401100Y-112183600D01*
X144751100Y-112183600D01*
X144751100Y-112383600D01*
G37*
G36*
X144751100Y-112783600D02*
G01*
X145401100Y-112783600D01*
X145401100Y-112583600D01*
X144751100Y-112583600D01*
X144751100Y-112783600D01*
G37*
G36*
X144751100Y-107583600D02*
G01*
X145401100Y-107583600D01*
X145401100Y-107383600D01*
X144751100Y-107383600D01*
X144751100Y-107583600D01*
G37*
G36*
X144751100Y-107983600D02*
G01*
X145401100Y-107983600D01*
X145401100Y-107783600D01*
X144751100Y-107783600D01*
X144751100Y-107983600D01*
G37*
G36*
X144751100Y-108383600D02*
G01*
X145401100Y-108383600D01*
X145401100Y-108183600D01*
X144751100Y-108183600D01*
X144751100Y-108383600D01*
G37*
G36*
X144751100Y-108783600D02*
G01*
X145401100Y-108783600D01*
X145401100Y-108583600D01*
X144751100Y-108583600D01*
X144751100Y-108783600D01*
G37*
G36*
X144751100Y-109183600D02*
G01*
X145401100Y-109183600D01*
X145401100Y-108983600D01*
X144751100Y-108983600D01*
X144751100Y-109183600D01*
G37*
G36*
X144751100Y-109583600D02*
G01*
X145401100Y-109583600D01*
X145401100Y-109383600D01*
X144751100Y-109383600D01*
X144751100Y-109583600D01*
G37*
G36*
X147201100Y-109383600D02*
G01*
X147801100Y-109383600D01*
X147801100Y-108783600D01*
X147201100Y-108783600D01*
X147201100Y-109383600D01*
G37*
G36*
X144751100Y-109983600D02*
G01*
X145401100Y-109983600D01*
X145401100Y-109783600D01*
X144751100Y-109783600D01*
X144751100Y-109983600D01*
G37*
%TO.C,U4*%
G36*
X148101100Y-102609600D02*
G01*
X148901100Y-102609600D01*
X148901100Y-101809600D01*
X148101100Y-101809600D01*
X148101100Y-102609600D01*
G37*
%TD*%
D11*
%TO.C,R11*%
X143548100Y-97883600D03*
X143548100Y-96883600D03*
%TD*%
%TO.C,LED1*%
G36*
G01*
X140289100Y-89771600D02*
X140989100Y-89771600D01*
G75*
G02*
X141139100Y-89921600I0J-150000D01*
G01*
X141139100Y-90621600D01*
G75*
G02*
X140989100Y-90771600I-150000J0D01*
G01*
X140289100Y-90771600D01*
G75*
G02*
X140139100Y-90621600I0J150000D01*
G01*
X140139100Y-89921600D01*
G75*
G02*
X140289100Y-89771600I150000J0D01*
G01*
G37*
G36*
G01*
X142043100Y-89771600D02*
X142743100Y-89771600D01*
G75*
G02*
X142893100Y-89921600I0J-150000D01*
G01*
X142893100Y-90621600D01*
G75*
G02*
X142743100Y-90771600I-150000J0D01*
G01*
X142043100Y-90771600D01*
G75*
G02*
X141893100Y-90621600I0J150000D01*
G01*
X141893100Y-89921600D01*
G75*
G02*
X142043100Y-89771600I150000J0D01*
G01*
G37*
%TD*%
%TO.C,R2*%
X151795100Y-116306600D03*
X150795100Y-116306600D03*
%TD*%
%TO.C,C6*%
X150541100Y-96494600D03*
X151541100Y-96494600D03*
%TD*%
D12*
%TO.C,F1*%
X144691100Y-98283600D03*
X144691100Y-96483600D03*
%TD*%
D13*
%TO.C,D2*%
X146215100Y-98533600D03*
X146215100Y-96233600D03*
%TD*%
D14*
%TO.C,U1*%
X149451100Y-98683700D03*
X147551100Y-98683700D03*
X147551100Y-96083500D03*
X148501100Y-96083500D03*
X149451100Y-96083500D03*
%TD*%
D11*
%TO.C,R1*%
X143675100Y-92168600D03*
X143675100Y-91168600D03*
%TD*%
%TO.C,R3*%
X153327100Y-92168600D03*
X153327100Y-91168600D03*
%TD*%
%TO.C,C7*%
X150541100Y-97383600D03*
X151541100Y-97383600D03*
%TD*%
%TO.C,C8*%
X150541100Y-98272600D03*
X151541100Y-98272600D03*
%TD*%
D15*
%TO.C,S1*%
X154450000Y-120180000D03*
X154450000Y-118580000D03*
X150350000Y-118580000D03*
X150350000Y-120180000D03*
%TD*%
D11*
%TO.C,R5*%
X151795100Y-114528600D03*
X150795100Y-114528600D03*
%TD*%
%TO.C,R7*%
X151795100Y-115417600D03*
X150795100Y-115417600D03*
%TD*%
D16*
%TO.C,J5*%
X149751100Y-94503600D03*
X150251100Y-94503600D03*
D17*
X150951100Y-94503600D03*
X151726100Y-94503600D03*
D16*
X148751100Y-94503600D03*
X149251100Y-94503600D03*
X147251100Y-94503600D03*
X146751100Y-94503600D03*
D17*
X146051100Y-94503600D03*
X145276100Y-94503600D03*
D16*
X148251100Y-94503600D03*
X147751100Y-94503600D03*
%TD*%
D11*
%TO.C,C11*%
X145207100Y-116306600D03*
X146207100Y-116306600D03*
%TD*%
%TO.C,C13*%
X145207100Y-114528600D03*
X146207100Y-114528600D03*
%TD*%
%TO.C,R10*%
X146207100Y-115417600D03*
X145207100Y-115417600D03*
%TD*%
%TO.C,C9*%
X143548100Y-109837600D03*
X143548100Y-110837600D03*
%TD*%
%TO.C,C12*%
X146985100Y-114909600D03*
X147985100Y-114909600D03*
%TD*%
%TO.C,C14*%
X152184100Y-104503600D03*
X152184100Y-105503600D03*
%TD*%
%TO.C,C15*%
X152692100Y-115663600D03*
X152692100Y-114663600D03*
%TD*%
%TO.C,C16*%
X143548100Y-106408600D03*
X143548100Y-107408600D03*
%TD*%
%TO.C,C17*%
X152946100Y-104503600D03*
X152946100Y-105503600D03*
%TD*%
%TO.C,C18*%
X150017100Y-114909600D03*
X149017100Y-114909600D03*
%TD*%
%TO.C,C19*%
X145969100Y-105384600D03*
X146969100Y-105384600D03*
%TD*%
%TO.C,R12*%
X153581100Y-96613600D03*
X153581100Y-95613600D03*
%TD*%
%TO.C,R13*%
X152311100Y-96613600D03*
X152311100Y-95613600D03*
%TD*%
%TO.C,C20*%
X151033100Y-105384600D03*
X150033100Y-105384600D03*
%TD*%
%TO.C,C21*%
X149001100Y-105384600D03*
X148001100Y-105384600D03*
%TD*%
%TO.C,R14*%
X152946100Y-103725600D03*
X152946100Y-102725600D03*
%TD*%
%TO.C,C22*%
X152184100Y-103725600D03*
X152184100Y-102725600D03*
%TD*%
D18*
%TO.C,Y1*%
X144148100Y-115345600D03*
X142448100Y-115345600D03*
X142448100Y-113945600D03*
X144148100Y-113945600D03*
%TD*%
D11*
%TO.C,C29*%
X152184100Y-101820600D03*
X152184100Y-100820600D03*
%TD*%
D19*
%TO.C,U4*%
X151276100Y-100304600D03*
X151276100Y-101574600D03*
X151276100Y-104114600D03*
X151276100Y-102844600D03*
X145726100Y-104114600D03*
X145726100Y-102844600D03*
X145726100Y-101574600D03*
X145726100Y-100304600D03*
%TD*%
D11*
%TO.C,R15*%
X143548100Y-102455600D03*
X143548100Y-101455600D03*
%TD*%
%TO.C,C23*%
X152184100Y-99042600D03*
X152184100Y-100042600D03*
%TD*%
%TO.C,R16*%
X143548100Y-99423600D03*
X143548100Y-100423600D03*
%TD*%
D15*
%TO.C,S2*%
X148100000Y-120180000D03*
X148100000Y-118580000D03*
X144000000Y-118580000D03*
X144000000Y-120180000D03*
%TD*%
M02*
