%TF.GenerationSoftware,KiCad,Pcbnew,(5.1.10-6-gecec324121)-1*%
%TF.CreationDate,2021-07-07T13:29:09-07:00*%
%TF.ProjectId,SparkFun_ProMicro-RP2040,53706172-6b46-4756-9e5f-50726f4d6963,rev?*%
%TF.SameCoordinates,Original*%
%TF.FileFunction,Copper,L3,Inr*%
%TF.FilePolarity,Positive*%
%FSLAX46Y46*%
G04 Gerber Fmt 4.6, Leading zero omitted, Abs format (unit mm)*
G04 Created by KiCad (PCBNEW (5.1.10-6-gecec324121)-1) date 2021-07-07 13:29:09*
%MOMM*%
%LPD*%
G01*
G04 APERTURE LIST*
%TA.AperFunction,EtchedComponent*%
%ADD10C,0.100000*%
%TD*%
%TA.AperFunction,ComponentPad*%
%ADD11C,1.750000*%
%TD*%
%TA.AperFunction,ComponentPad*%
%ADD12C,1.016000*%
%TD*%
%TA.AperFunction,ComponentPad*%
%ADD13O,0.600000X1.200000*%
%TD*%
%TA.AperFunction,ViaPad*%
%ADD14C,0.352400*%
%TD*%
%TA.AperFunction,Conductor*%
%ADD15C,0.304800*%
%TD*%
%TA.AperFunction,Conductor*%
%ADD16C,0.127000*%
%TD*%
%TA.AperFunction,Conductor*%
%ADD17C,0.050800*%
%TD*%
%TA.AperFunction,Conductor*%
%ADD18C,0.100000*%
%TD*%
G04 APERTURE END LIST*
D10*
%TO.C,J5*%
G36*
X144183100Y-89143600D02*
G01*
X144333100Y-89183792D01*
X144442908Y-89293600D01*
X144483100Y-89443600D01*
X144483100Y-90063600D01*
X144442908Y-90213600D01*
X144333100Y-90323408D01*
X144183100Y-90363600D01*
X144033100Y-90323408D01*
X143923292Y-90213600D01*
X143883100Y-90063600D01*
X143883100Y-89443600D01*
X143923292Y-89293600D01*
X144033100Y-89183792D01*
X144183100Y-89143600D01*
G37*
G36*
X153119100Y-89443600D02*
G01*
X153119100Y-90063600D01*
X153078908Y-90213600D01*
X152969100Y-90323408D01*
X152819100Y-90363600D01*
X152669100Y-90323408D01*
X152559292Y-90213600D01*
X152519100Y-90063600D01*
X152519100Y-89443600D01*
X152559292Y-89293600D01*
X152669100Y-89183792D01*
X152819100Y-89143600D01*
X152969100Y-89183792D01*
X153078908Y-89293600D01*
X153119100Y-89443600D01*
G37*
G36*
X143883100Y-94478600D02*
G01*
X143883100Y-93378600D01*
X143923292Y-93228600D01*
X144033100Y-93118792D01*
X144183100Y-93078600D01*
X144333100Y-93118792D01*
X144442908Y-93228600D01*
X144483100Y-93378600D01*
X144483100Y-94478600D01*
X144442908Y-94628600D01*
X144333100Y-94738408D01*
X144183100Y-94778600D01*
X144033100Y-94738408D01*
X143923292Y-94628600D01*
X143883100Y-94478600D01*
G37*
G36*
X152519100Y-94478600D02*
G01*
X152519100Y-93378600D01*
X152559292Y-93228600D01*
X152669100Y-93118792D01*
X152819100Y-93078600D01*
X152969100Y-93118792D01*
X153078908Y-93228600D01*
X153119100Y-93378600D01*
X153119100Y-94478600D01*
X153078908Y-94628600D01*
X152969100Y-94738408D01*
X152819100Y-94778600D01*
X152669100Y-94738408D01*
X152559292Y-94628600D01*
X152519100Y-94478600D01*
G37*
%TD*%
D11*
%TO.N,/9/RX1*%
%TO.C,J3*%
X139311100Y-120243600D03*
%TO.N,/8/TX1*%
X139311100Y-117703600D03*
%TO.N,/7*%
X139311100Y-115163600D03*
%TO.N,/6*%
X139311100Y-112623600D03*
%TO.N,/5*%
X139311100Y-110083600D03*
%TO.N,/4*%
X139311100Y-107543600D03*
%TO.N,/3*%
X139311100Y-105003600D03*
%TO.N,/2*%
X139311100Y-102463600D03*
%TO.N,GND*%
X139311100Y-99923600D03*
X139311100Y-97383600D03*
%TO.N,/1/RX0*%
X139311100Y-94843600D03*
%TO.N,/0/TX0*%
X139311100Y-92303600D03*
D12*
%TO.N,/9/RX1*%
X140881100Y-120243600D03*
%TO.N,/8/TX1*%
X140881100Y-117703600D03*
%TO.N,/6*%
X140881100Y-112623600D03*
%TO.N,/7*%
X140881100Y-115163600D03*
%TO.N,/5*%
X140881100Y-110083600D03*
%TO.N,/0/TX0*%
X140881100Y-92303600D03*
%TO.N,GND*%
X140881100Y-99923600D03*
%TO.N,/1/RX0*%
X140881100Y-94843600D03*
%TO.N,GND*%
X140881100Y-97383600D03*
%TO.N,/4*%
X140881100Y-107543600D03*
%TO.N,/2*%
X140881100Y-102463600D03*
%TO.N,/3*%
X140881100Y-105003600D03*
%TD*%
D11*
%TO.N,/RAW*%
%TO.C,J4*%
X157691100Y-92303600D03*
%TO.N,GND*%
X157691100Y-94843600D03*
%TO.N,/~RESET~*%
X157691100Y-97383600D03*
%TO.N,3.3V*%
X157691100Y-99923600D03*
%TO.N,/A3*%
X157691100Y-102463600D03*
%TO.N,/A2*%
X157691100Y-105003600D03*
%TO.N,/A1*%
X157691100Y-107543600D03*
%TO.N,/A0*%
X157691100Y-110083600D03*
%TO.N,/22/SPI_SCK*%
X157691100Y-112623600D03*
%TO.N,/20/SPI_CIPO*%
X157691100Y-115163600D03*
%TO.N,/23/SPI_COPI*%
X157691100Y-117703600D03*
%TO.N,/21/SPI_~CS~*%
X157691100Y-120243600D03*
D12*
%TO.N,/RAW*%
X156121100Y-92303600D03*
%TO.N,GND*%
X156121100Y-94843600D03*
%TO.N,3.3V*%
X156121100Y-99923600D03*
%TO.N,/~RESET~*%
X156121100Y-97383600D03*
%TO.N,/A3*%
X156121100Y-102463600D03*
%TO.N,/21/SPI_~CS~*%
X156121100Y-120243600D03*
%TO.N,/22/SPI_SCK*%
X156121100Y-112623600D03*
%TO.N,/23/SPI_COPI*%
X156121100Y-117703600D03*
%TO.N,/20/SPI_CIPO*%
X156121100Y-115163600D03*
%TO.N,/A2*%
X156121100Y-105003600D03*
%TO.N,/A0*%
X156121100Y-110083600D03*
%TO.N,/A1*%
X156121100Y-107543600D03*
%TD*%
D13*
%TO.N,Net-(J5-PadSHLD1)*%
%TO.C,J5*%
X152819100Y-93928600D03*
X144183100Y-93928600D03*
X144183100Y-89748600D03*
X152819100Y-89748600D03*
%TD*%
D14*
%TO.N,GND*%
X148501100Y-97002600D03*
X143802100Y-105638600D03*
X145326100Y-105384600D03*
X149009100Y-104622600D03*
X151041100Y-104749600D03*
X153581100Y-104495600D03*
X152946100Y-101828600D03*
X152946100Y-99034600D03*
X152184100Y-98272600D03*
X152057100Y-92938600D03*
X144945100Y-92811600D03*
X143421100Y-90398600D03*
X146596100Y-91922600D03*
X153581100Y-90525600D03*
X145707100Y-103479600D03*
X147485100Y-112369600D03*
X150025100Y-114274600D03*
X146977100Y-114274600D03*
X144183100Y-117703600D03*
%TO.N,/BOOT*%
X144183100Y-120243600D03*
%TO.N,GND*%
X153327100Y-115671600D03*
X142913100Y-109829600D03*
X147231100Y-111353600D03*
X147231100Y-108813600D03*
X149771100Y-108813600D03*
X148501100Y-111353600D03*
X148501100Y-110083600D03*
X147231100Y-110083600D03*
X149771100Y-110083600D03*
X148501100Y-108813600D03*
%TO.N,/RAW*%
X147675600Y-97447100D03*
%TO.N,Net-(J5-PadA5)*%
X149771100Y-93573600D03*
X153835100Y-93065600D03*
%TO.N,Net-(J5-PadB5)*%
X146850100Y-93700600D03*
X145834100Y-92176600D03*
%TO.N,V_USB*%
X150761300Y-92912800D03*
%TO.N,3.3V*%
X152692100Y-114020600D03*
X152946100Y-111099600D03*
X148628100Y-112623600D03*
X147993100Y-117449600D03*
X150787100Y-107543600D03*
X149063100Y-107670600D03*
X144437100Y-106273600D03*
X146322156Y-111072600D03*
X153581100Y-103733600D03*
X149451100Y-99857600D03*
%TO.N,/~RESET~*%
X150533100Y-112623600D03*
X150660100Y-117068600D03*
X153200100Y-98145600D03*
%TO.N,/SWDIO*%
X150025100Y-112623600D03*
%TO.N,/SWDCK*%
X149517100Y-112623600D03*
%TO.N,/23/SPI_COPI*%
X154089100Y-110210600D03*
%TO.N,/8/TX1*%
X146088100Y-111480600D03*
%TO.N,/9/RX1*%
X146088100Y-111934600D03*
%TO.N,/6*%
X146088100Y-110210600D03*
%TO.N,/7*%
X146088100Y-110664600D03*
%TO.N,/21/SPI_~CS~*%
X153581100Y-111466100D03*
%TO.N,/17/SCL*%
X151676100Y-113512600D03*
X151676100Y-117830600D03*
%TO.N,/16/SDA*%
X151063300Y-112623600D03*
X151168100Y-118465600D03*
%TO.N,/QSPI-CLK*%
X147335900Y-107427000D03*
X147231100Y-102844600D03*
X150533100Y-102844600D03*
%TO.N,/QSPI-0*%
X147231100Y-107957200D03*
X146850100Y-104114600D03*
X150533100Y-104114600D03*
%TO.N,/QSPI-3*%
X147866100Y-107543600D03*
X147612100Y-101574600D03*
X150533100Y-101574600D03*
%TO.N,Net-(C13-Pad2)*%
X147993100Y-112750600D03*
X144183100Y-112750600D03*
%TO.N,Net-(R12-Pad2)*%
X149971100Y-107670600D03*
X153581100Y-97637600D03*
%TO.N,Net-(R13-Pad2)*%
X149517100Y-107670600D03*
X152311100Y-97510600D03*
%TO.N,1.1V*%
X148628100Y-112115600D03*
X148501100Y-107670600D03*
%TO.N,/QSPI-1*%
X146215100Y-107543600D03*
X146469100Y-101574600D03*
%TO.N,/QSPI-2*%
X146596100Y-107924600D03*
X146469100Y-102844600D03*
%TO.N,/RP_D+*%
X151676100Y-95605600D03*
X147866100Y-93573600D03*
%TO.N,/RP_D-*%
X152946100Y-95605600D03*
X149263100Y-93573600D03*
%TO.N,/BOOT*%
X142532100Y-119481600D03*
X143802100Y-103352600D03*
%TO.N,*%
X153811100Y-109613600D03*
%TO.N,GND*%
X153581100Y-120243600D03*
X154470100Y-117703600D03*
%TD*%
D15*
%TO.N,/RAW*%
X147358100Y-92349438D02*
X147358100Y-97129600D01*
X147358100Y-97129600D02*
X147675600Y-97447100D01*
X147358100Y-92349438D02*
X147797637Y-91909900D01*
X155727400Y-91909900D02*
X156121100Y-92303600D01*
X147797637Y-91909900D02*
X155727400Y-91909900D01*
D16*
%TO.N,/1/RX0*%
X139311100Y-94843600D02*
X140881100Y-94843600D01*
%TO.N,Net-(J5-PadA5)*%
X149771100Y-93573600D02*
X149771100Y-92811600D01*
X149771100Y-92811600D02*
X150152100Y-92430600D01*
X150152100Y-92430600D02*
X153200100Y-92430600D01*
X153200100Y-92430600D02*
X153835100Y-93065600D01*
%TO.N,/8/TX1*%
X146088100Y-111480600D02*
X142786100Y-111480600D01*
X142278100Y-117195600D02*
X141770100Y-117703600D01*
X141770100Y-117703600D02*
X140881100Y-117703600D01*
X142786100Y-111480600D02*
X142278100Y-111988600D01*
X142278100Y-111988600D02*
X142278100Y-117195600D01*
%TO.N,/9/RX1*%
X142697100Y-120243600D02*
X142932100Y-120008600D01*
X142697100Y-120243600D02*
X140881100Y-120243600D01*
X143290100Y-111934600D02*
X146088100Y-111934600D01*
X142932100Y-112292600D02*
X143290100Y-111934600D01*
X142932100Y-120008600D02*
X142932100Y-112292600D01*
%TO.N,/6*%
X146088100Y-110210600D02*
X145975400Y-110323300D01*
X145975400Y-110323300D02*
X143152725Y-110323300D01*
X140881100Y-112594925D02*
X140881100Y-112623600D01*
X143152725Y-110323300D02*
X140881100Y-112594925D01*
%TO.N,/7*%
X146088100Y-110664600D02*
X143221100Y-110664600D01*
X142024100Y-114782600D02*
X141643100Y-115163600D01*
X141643100Y-115163600D02*
X140881100Y-115163600D01*
X143221100Y-110664600D02*
X142024100Y-111861600D01*
X142024100Y-111861600D02*
X142024100Y-114782600D01*
%TO.N,/QSPI-CLK*%
X147231100Y-102844600D02*
X150533100Y-102844600D01*
%TO.N,/QSPI-0*%
X146850100Y-104114600D02*
X150533100Y-104114600D01*
%TO.N,/QSPI-3*%
X147612100Y-101574600D02*
X150533100Y-101574600D01*
%TO.N,Net-(C13-Pad2)*%
X147993100Y-112750600D02*
X144183100Y-112750600D01*
%TO.N,/0/TX0*%
X139311100Y-92303600D02*
X140881100Y-92303600D01*
%TO.N,/RP_D+*%
X151676100Y-95605600D02*
X149009100Y-95605600D01*
X147866100Y-94462600D02*
X147866100Y-93573600D01*
X149009100Y-95605600D02*
X147866100Y-94462600D01*
%TO.N,/RP_D-*%
X152946100Y-95605600D02*
X152158775Y-95605600D01*
X152158775Y-95605600D02*
X151817475Y-95264300D01*
X149683800Y-95264300D02*
X149263100Y-94843600D01*
X149263100Y-94843600D02*
X149263100Y-93573600D01*
X151817475Y-95264300D02*
X149683800Y-95264300D01*
%TD*%
D17*
%TO.N,3.3V*%
X157137101Y-91438127D02*
X157036171Y-91505566D01*
X156893066Y-91648671D01*
X156780630Y-91816944D01*
X156707482Y-91993541D01*
X156706339Y-91990783D01*
X156634066Y-91882620D01*
X156542080Y-91790634D01*
X156433917Y-91718361D01*
X156313731Y-91668579D01*
X156186144Y-91643200D01*
X156056056Y-91643200D01*
X155928469Y-91668579D01*
X155918725Y-91672615D01*
X155897557Y-91655242D01*
X155844606Y-91626940D01*
X155787151Y-91609511D01*
X155742366Y-91605100D01*
X155742358Y-91605100D01*
X155727400Y-91603627D01*
X155712442Y-91605100D01*
X147812594Y-91605100D01*
X147797636Y-91603627D01*
X147782678Y-91605100D01*
X147782671Y-91605100D01*
X147743526Y-91608955D01*
X147737885Y-91609511D01*
X147680430Y-91626940D01*
X147672090Y-91631398D01*
X147627480Y-91655242D01*
X147581069Y-91693332D01*
X147571529Y-91704956D01*
X147153161Y-92123326D01*
X147141532Y-92132870D01*
X147103442Y-92179282D01*
X147075140Y-92232233D01*
X147057711Y-92289688D01*
X147053300Y-92334473D01*
X147053300Y-92334480D01*
X147051827Y-92349438D01*
X147053300Y-92364396D01*
X147053300Y-93441171D01*
X147005750Y-93409398D01*
X146945949Y-93384628D01*
X146882464Y-93372000D01*
X146817736Y-93372000D01*
X146754251Y-93384628D01*
X146694450Y-93409398D01*
X146640630Y-93445360D01*
X146594860Y-93491130D01*
X146558898Y-93544950D01*
X146534128Y-93604751D01*
X146521500Y-93668236D01*
X146521500Y-93732964D01*
X146534128Y-93796449D01*
X146558898Y-93856250D01*
X146594860Y-93910070D01*
X146640630Y-93955840D01*
X146694450Y-93991802D01*
X146754251Y-94016572D01*
X146817736Y-94029200D01*
X146882464Y-94029200D01*
X146945949Y-94016572D01*
X147005750Y-93991802D01*
X147053300Y-93960029D01*
X147053301Y-97114632D01*
X147051827Y-97129600D01*
X147057711Y-97189351D01*
X147075140Y-97246805D01*
X147088315Y-97271454D01*
X147103443Y-97299757D01*
X147111029Y-97309000D01*
X147129249Y-97331200D01*
X147141533Y-97346168D01*
X147153156Y-97355707D01*
X147373226Y-97575778D01*
X147384398Y-97602750D01*
X147420360Y-97656570D01*
X147466130Y-97702340D01*
X147519950Y-97738302D01*
X147579751Y-97763072D01*
X147643236Y-97775700D01*
X147707964Y-97775700D01*
X147771449Y-97763072D01*
X147831250Y-97738302D01*
X147885070Y-97702340D01*
X147930840Y-97656570D01*
X147966802Y-97602750D01*
X147991572Y-97542949D01*
X148004200Y-97479464D01*
X148004200Y-97478236D01*
X151982500Y-97478236D01*
X151982500Y-97542964D01*
X151995128Y-97606449D01*
X152019898Y-97666250D01*
X152055860Y-97720070D01*
X152101630Y-97765840D01*
X152155450Y-97801802D01*
X152215251Y-97826572D01*
X152278736Y-97839200D01*
X152343464Y-97839200D01*
X152406949Y-97826572D01*
X152466750Y-97801802D01*
X152520570Y-97765840D01*
X152566340Y-97720070D01*
X152602302Y-97666250D01*
X152627072Y-97606449D01*
X152639700Y-97542964D01*
X152639700Y-97478236D01*
X152627072Y-97414751D01*
X152602302Y-97354950D01*
X152566340Y-97301130D01*
X152520570Y-97255360D01*
X152466750Y-97219398D01*
X152406949Y-97194628D01*
X152343464Y-97182000D01*
X152278736Y-97182000D01*
X152215251Y-97194628D01*
X152155450Y-97219398D01*
X152101630Y-97255360D01*
X152055860Y-97301130D01*
X152019898Y-97354950D01*
X151995128Y-97414751D01*
X151982500Y-97478236D01*
X148004200Y-97478236D01*
X148004200Y-97414736D01*
X147991572Y-97351251D01*
X147966802Y-97291450D01*
X147930840Y-97237630D01*
X147885070Y-97191860D01*
X147831250Y-97155898D01*
X147804278Y-97144726D01*
X147662900Y-97003349D01*
X147662900Y-96970236D01*
X148172500Y-96970236D01*
X148172500Y-97034964D01*
X148185128Y-97098449D01*
X148209898Y-97158250D01*
X148245860Y-97212070D01*
X148291630Y-97257840D01*
X148345450Y-97293802D01*
X148405251Y-97318572D01*
X148468736Y-97331200D01*
X148533464Y-97331200D01*
X148596949Y-97318572D01*
X148656750Y-97293802D01*
X148710570Y-97257840D01*
X148756340Y-97212070D01*
X148792302Y-97158250D01*
X148817072Y-97098449D01*
X148829700Y-97034964D01*
X148829700Y-96970236D01*
X148817072Y-96906751D01*
X148792302Y-96846950D01*
X148756340Y-96793130D01*
X148710570Y-96747360D01*
X148656750Y-96711398D01*
X148596949Y-96686628D01*
X148533464Y-96674000D01*
X148468736Y-96674000D01*
X148405251Y-96686628D01*
X148345450Y-96711398D01*
X148291630Y-96747360D01*
X148245860Y-96793130D01*
X148209898Y-96846950D01*
X148185128Y-96906751D01*
X148172500Y-96970236D01*
X147662900Y-96970236D01*
X147662900Y-94536488D01*
X147665670Y-94545620D01*
X147685718Y-94583127D01*
X147712697Y-94616003D01*
X147720944Y-94622771D01*
X148848934Y-95750762D01*
X148855697Y-95759003D01*
X148888572Y-95785982D01*
X148926079Y-95806030D01*
X148966776Y-95818375D01*
X149009099Y-95822544D01*
X149019698Y-95821500D01*
X151427290Y-95821500D01*
X151466630Y-95860840D01*
X151520450Y-95896802D01*
X151580251Y-95921572D01*
X151643736Y-95934200D01*
X151708464Y-95934200D01*
X151771949Y-95921572D01*
X151831750Y-95896802D01*
X151885570Y-95860840D01*
X151931340Y-95815070D01*
X151967302Y-95761250D01*
X151979543Y-95731696D01*
X151998609Y-95750762D01*
X152005372Y-95759003D01*
X152038247Y-95785982D01*
X152075754Y-95806030D01*
X152116451Y-95818375D01*
X152158774Y-95822544D01*
X152169373Y-95821500D01*
X152697290Y-95821500D01*
X152736630Y-95860840D01*
X152790450Y-95896802D01*
X152850251Y-95921572D01*
X152913736Y-95934200D01*
X152978464Y-95934200D01*
X153041949Y-95921572D01*
X153101750Y-95896802D01*
X153155570Y-95860840D01*
X153201340Y-95815070D01*
X153237302Y-95761250D01*
X153262072Y-95701449D01*
X153274700Y-95637964D01*
X153274700Y-95573236D01*
X153262072Y-95509751D01*
X153237302Y-95449950D01*
X153201340Y-95396130D01*
X153155570Y-95350360D01*
X153101750Y-95314398D01*
X153041949Y-95289628D01*
X152978464Y-95277000D01*
X152913736Y-95277000D01*
X152850251Y-95289628D01*
X152790450Y-95314398D01*
X152736630Y-95350360D01*
X152697290Y-95389700D01*
X152248203Y-95389700D01*
X151977645Y-95119143D01*
X151970878Y-95110897D01*
X151938003Y-95083918D01*
X151900496Y-95063870D01*
X151859799Y-95051525D01*
X151828074Y-95048400D01*
X151817475Y-95047356D01*
X151806876Y-95048400D01*
X149773229Y-95048400D01*
X149479000Y-94754173D01*
X149479000Y-93822410D01*
X149517100Y-93784310D01*
X149561630Y-93828840D01*
X149615450Y-93864802D01*
X149675251Y-93889572D01*
X149738736Y-93902200D01*
X149803464Y-93902200D01*
X149866949Y-93889572D01*
X149926750Y-93864802D01*
X149980570Y-93828840D01*
X150026340Y-93783070D01*
X150062302Y-93729250D01*
X150087072Y-93669449D01*
X150099700Y-93605964D01*
X150099700Y-93541236D01*
X150087072Y-93477751D01*
X150062302Y-93417950D01*
X150026340Y-93364130D01*
X149987000Y-93324790D01*
X149987000Y-92901027D01*
X150241528Y-92646500D01*
X150568382Y-92646500D01*
X150551830Y-92657560D01*
X150506060Y-92703330D01*
X150470098Y-92757150D01*
X150445328Y-92816951D01*
X150432700Y-92880436D01*
X150432700Y-92945164D01*
X150445328Y-93008649D01*
X150470098Y-93068450D01*
X150506060Y-93122270D01*
X150551830Y-93168040D01*
X150605650Y-93204002D01*
X150665451Y-93228772D01*
X150728936Y-93241400D01*
X150793664Y-93241400D01*
X150857149Y-93228772D01*
X150916950Y-93204002D01*
X150970770Y-93168040D01*
X150971437Y-93167373D01*
X150968034Y-93172466D01*
X150932046Y-93259348D01*
X150913700Y-93351580D01*
X150913700Y-93445620D01*
X150932046Y-93537852D01*
X150968034Y-93624734D01*
X151020279Y-93702925D01*
X151086775Y-93769421D01*
X151164966Y-93821666D01*
X151251848Y-93857654D01*
X151344080Y-93876000D01*
X151438120Y-93876000D01*
X151530352Y-93857654D01*
X151617234Y-93821666D01*
X151695425Y-93769421D01*
X151761921Y-93702925D01*
X151814166Y-93624734D01*
X151850154Y-93537852D01*
X151868500Y-93445620D01*
X151868500Y-93378600D01*
X152366700Y-93378600D01*
X152366700Y-94500814D01*
X152373247Y-94567285D01*
X152399115Y-94652562D01*
X152441124Y-94731155D01*
X152497658Y-94800042D01*
X152566544Y-94856576D01*
X152645137Y-94898585D01*
X152730414Y-94924453D01*
X152819100Y-94933188D01*
X152907785Y-94924453D01*
X152993062Y-94898585D01*
X153071655Y-94856576D01*
X153140542Y-94800042D01*
X153197076Y-94731156D01*
X153239085Y-94652563D01*
X153264953Y-94567286D01*
X153271500Y-94500815D01*
X153271500Y-93356385D01*
X153264953Y-93289914D01*
X153239085Y-93204637D01*
X153197076Y-93126044D01*
X153140542Y-93057158D01*
X153071656Y-93000624D01*
X152993063Y-92958615D01*
X152907786Y-92932747D01*
X152819100Y-92924012D01*
X152730415Y-92932747D01*
X152645138Y-92958615D01*
X152566545Y-93000624D01*
X152497659Y-93057158D01*
X152441125Y-93126044D01*
X152399116Y-93204637D01*
X152373248Y-93289914D01*
X152366701Y-93356385D01*
X152366701Y-93378399D01*
X152366700Y-93378600D01*
X151868500Y-93378600D01*
X151868500Y-93351580D01*
X151850154Y-93259348D01*
X151814166Y-93172466D01*
X151761921Y-93094275D01*
X151695425Y-93027779D01*
X151617234Y-92975534D01*
X151530352Y-92939546D01*
X151438120Y-92921200D01*
X151344080Y-92921200D01*
X151251848Y-92939546D01*
X151164966Y-92975534D01*
X151086775Y-93027779D01*
X151057026Y-93057528D01*
X151077272Y-93008649D01*
X151089900Y-92945164D01*
X151089900Y-92880436D01*
X151077272Y-92816951D01*
X151052502Y-92757150D01*
X151016540Y-92703330D01*
X150970770Y-92657560D01*
X150954218Y-92646500D01*
X151903618Y-92646500D01*
X151901450Y-92647398D01*
X151847630Y-92683360D01*
X151801860Y-92729130D01*
X151765898Y-92782950D01*
X151741128Y-92842751D01*
X151728500Y-92906236D01*
X151728500Y-92970964D01*
X151741128Y-93034449D01*
X151765898Y-93094250D01*
X151801860Y-93148070D01*
X151847630Y-93193840D01*
X151901450Y-93229802D01*
X151961251Y-93254572D01*
X152024736Y-93267200D01*
X152089464Y-93267200D01*
X152152949Y-93254572D01*
X152212750Y-93229802D01*
X152266570Y-93193840D01*
X152312340Y-93148070D01*
X152348302Y-93094250D01*
X152373072Y-93034449D01*
X152385700Y-92970964D01*
X152385700Y-92906236D01*
X152373072Y-92842751D01*
X152348302Y-92782950D01*
X152312340Y-92729130D01*
X152266570Y-92683360D01*
X152212750Y-92647398D01*
X152210582Y-92646500D01*
X153110673Y-92646500D01*
X153506500Y-93042328D01*
X153506500Y-93097964D01*
X153519128Y-93161449D01*
X153543898Y-93221250D01*
X153579860Y-93275070D01*
X153625630Y-93320840D01*
X153679450Y-93356802D01*
X153739251Y-93381572D01*
X153802736Y-93394200D01*
X153867464Y-93394200D01*
X153930949Y-93381572D01*
X153990750Y-93356802D01*
X154044570Y-93320840D01*
X154090340Y-93275070D01*
X154126302Y-93221250D01*
X154151072Y-93161449D01*
X154163700Y-93097964D01*
X154163700Y-93033236D01*
X154151072Y-92969751D01*
X154126302Y-92909950D01*
X154090340Y-92856130D01*
X154044570Y-92810360D01*
X153990750Y-92774398D01*
X153930949Y-92749628D01*
X153867464Y-92737000D01*
X153811828Y-92737000D01*
X153360270Y-92285443D01*
X153353503Y-92277197D01*
X153320628Y-92250218D01*
X153283121Y-92230170D01*
X153242424Y-92217825D01*
X153210699Y-92214700D01*
X155465445Y-92214700D01*
X155460700Y-92238556D01*
X155460700Y-92368644D01*
X155486079Y-92496231D01*
X155535861Y-92616417D01*
X155608134Y-92724580D01*
X155700120Y-92816566D01*
X155808283Y-92888839D01*
X155928469Y-92938621D01*
X156056056Y-92964000D01*
X156186144Y-92964000D01*
X156313731Y-92938621D01*
X156433917Y-92888839D01*
X156542080Y-92816566D01*
X156634066Y-92724580D01*
X156706339Y-92616417D01*
X156707482Y-92613659D01*
X156780630Y-92790256D01*
X156893066Y-92958529D01*
X157036171Y-93101634D01*
X157137101Y-93169073D01*
X157137101Y-93978127D01*
X157036171Y-94045566D01*
X156893066Y-94188671D01*
X156780630Y-94356944D01*
X156707482Y-94533541D01*
X156706339Y-94530783D01*
X156634066Y-94422620D01*
X156542080Y-94330634D01*
X156433917Y-94258361D01*
X156313731Y-94208579D01*
X156186144Y-94183200D01*
X156056056Y-94183200D01*
X155928469Y-94208579D01*
X155808283Y-94258361D01*
X155700120Y-94330634D01*
X155608134Y-94422620D01*
X155535861Y-94530783D01*
X155486079Y-94650969D01*
X155460700Y-94778556D01*
X155460700Y-94908644D01*
X155486079Y-95036231D01*
X155535861Y-95156417D01*
X155608134Y-95264580D01*
X155700120Y-95356566D01*
X155808283Y-95428839D01*
X155928469Y-95478621D01*
X156056056Y-95504000D01*
X156186144Y-95504000D01*
X156313731Y-95478621D01*
X156433917Y-95428839D01*
X156542080Y-95356566D01*
X156634066Y-95264580D01*
X156706339Y-95156417D01*
X156707482Y-95153659D01*
X156780630Y-95330256D01*
X156893066Y-95498529D01*
X157036171Y-95641634D01*
X157137101Y-95709073D01*
X157137101Y-96518127D01*
X157036171Y-96585566D01*
X156893066Y-96728671D01*
X156780630Y-96896944D01*
X156707482Y-97073541D01*
X156706339Y-97070783D01*
X156634066Y-96962620D01*
X156542080Y-96870634D01*
X156433917Y-96798361D01*
X156313731Y-96748579D01*
X156186144Y-96723200D01*
X156056056Y-96723200D01*
X155928469Y-96748579D01*
X155808283Y-96798361D01*
X155700120Y-96870634D01*
X155608134Y-96962620D01*
X155535861Y-97070783D01*
X155486079Y-97190969D01*
X155460700Y-97318556D01*
X155460700Y-97448644D01*
X155486079Y-97576231D01*
X155535861Y-97696417D01*
X155608134Y-97804580D01*
X155700120Y-97896566D01*
X155808283Y-97968839D01*
X155928469Y-98018621D01*
X156056056Y-98044000D01*
X156186144Y-98044000D01*
X156313731Y-98018621D01*
X156433917Y-97968839D01*
X156542080Y-97896566D01*
X156634066Y-97804580D01*
X156706339Y-97696417D01*
X156707482Y-97693659D01*
X156780630Y-97870256D01*
X156893066Y-98038529D01*
X157036171Y-98181634D01*
X157137101Y-98249073D01*
X157137101Y-99025921D01*
X157111239Y-99039744D01*
X157011440Y-99172663D01*
X157137101Y-99298324D01*
X157137101Y-99440877D01*
X156940163Y-99243940D01*
X156807244Y-99343739D01*
X156711102Y-99527313D01*
X156701940Y-99558458D01*
X156610764Y-99505213D01*
X156192376Y-99923600D01*
X156610764Y-100341987D01*
X156702871Y-100288198D01*
X156717920Y-100336345D01*
X156807244Y-100503461D01*
X156940163Y-100603260D01*
X157137101Y-100406323D01*
X157137101Y-100548876D01*
X157011440Y-100674537D01*
X157111239Y-100807456D01*
X157137101Y-100821000D01*
X157137101Y-101598127D01*
X157036171Y-101665566D01*
X156893066Y-101808671D01*
X156780630Y-101976944D01*
X156707482Y-102153541D01*
X156706339Y-102150783D01*
X156634066Y-102042620D01*
X156542080Y-101950634D01*
X156433917Y-101878361D01*
X156313731Y-101828579D01*
X156186144Y-101803200D01*
X156056056Y-101803200D01*
X155928469Y-101828579D01*
X155808283Y-101878361D01*
X155700120Y-101950634D01*
X155608134Y-102042620D01*
X155535861Y-102150783D01*
X155486079Y-102270969D01*
X155460700Y-102398556D01*
X155460700Y-102528644D01*
X155486079Y-102656231D01*
X155535861Y-102776417D01*
X155608134Y-102884580D01*
X155700120Y-102976566D01*
X155808283Y-103048839D01*
X155928469Y-103098621D01*
X156056056Y-103124000D01*
X156186144Y-103124000D01*
X156313731Y-103098621D01*
X156433917Y-103048839D01*
X156542080Y-102976566D01*
X156634066Y-102884580D01*
X156706339Y-102776417D01*
X156707482Y-102773659D01*
X156780630Y-102950256D01*
X156893066Y-103118529D01*
X157036171Y-103261634D01*
X157137101Y-103329073D01*
X157137101Y-104138127D01*
X157036171Y-104205566D01*
X156893066Y-104348671D01*
X156780630Y-104516944D01*
X156707482Y-104693541D01*
X156706339Y-104690783D01*
X156634066Y-104582620D01*
X156542080Y-104490634D01*
X156433917Y-104418361D01*
X156313731Y-104368579D01*
X156186144Y-104343200D01*
X156056056Y-104343200D01*
X155928469Y-104368579D01*
X155808283Y-104418361D01*
X155700120Y-104490634D01*
X155608134Y-104582620D01*
X155535861Y-104690783D01*
X155486079Y-104810969D01*
X155460700Y-104938556D01*
X155460700Y-105068644D01*
X155486079Y-105196231D01*
X155535861Y-105316417D01*
X155608134Y-105424580D01*
X155700120Y-105516566D01*
X155808283Y-105588839D01*
X155928469Y-105638621D01*
X156056056Y-105664000D01*
X156186144Y-105664000D01*
X156313731Y-105638621D01*
X156433917Y-105588839D01*
X156542080Y-105516566D01*
X156634066Y-105424580D01*
X156706339Y-105316417D01*
X156707482Y-105313659D01*
X156780630Y-105490256D01*
X156893066Y-105658529D01*
X157036171Y-105801634D01*
X157137100Y-105869073D01*
X157137100Y-106678127D01*
X157036171Y-106745566D01*
X156893066Y-106888671D01*
X156780630Y-107056944D01*
X156707482Y-107233541D01*
X156706339Y-107230783D01*
X156634066Y-107122620D01*
X156542080Y-107030634D01*
X156433917Y-106958361D01*
X156313731Y-106908579D01*
X156186144Y-106883200D01*
X156056056Y-106883200D01*
X155928469Y-106908579D01*
X155808283Y-106958361D01*
X155700120Y-107030634D01*
X155608134Y-107122620D01*
X155535861Y-107230783D01*
X155486079Y-107350969D01*
X155460700Y-107478556D01*
X155460700Y-107608644D01*
X155486079Y-107736231D01*
X155535861Y-107856417D01*
X155608134Y-107964580D01*
X155700120Y-108056566D01*
X155808283Y-108128839D01*
X155928469Y-108178621D01*
X156056056Y-108204000D01*
X156186144Y-108204000D01*
X156313731Y-108178621D01*
X156433917Y-108128839D01*
X156542080Y-108056566D01*
X156634066Y-107964580D01*
X156706339Y-107856417D01*
X156707482Y-107853659D01*
X156780630Y-108030256D01*
X156893066Y-108198529D01*
X157036171Y-108341634D01*
X157137100Y-108409073D01*
X157137100Y-109218127D01*
X157036171Y-109285566D01*
X156893066Y-109428671D01*
X156780630Y-109596944D01*
X156707482Y-109773541D01*
X156706339Y-109770783D01*
X156634066Y-109662620D01*
X156542080Y-109570634D01*
X156433917Y-109498361D01*
X156313731Y-109448579D01*
X156186144Y-109423200D01*
X156056056Y-109423200D01*
X155928469Y-109448579D01*
X155808283Y-109498361D01*
X155700120Y-109570634D01*
X155608134Y-109662620D01*
X155535861Y-109770783D01*
X155486079Y-109890969D01*
X155460700Y-110018556D01*
X155460700Y-110148644D01*
X155486079Y-110276231D01*
X155535861Y-110396417D01*
X155608134Y-110504580D01*
X155700120Y-110596566D01*
X155808283Y-110668839D01*
X155928469Y-110718621D01*
X156056056Y-110744000D01*
X156186144Y-110744000D01*
X156313731Y-110718621D01*
X156433917Y-110668839D01*
X156542080Y-110596566D01*
X156634066Y-110504580D01*
X156706339Y-110396417D01*
X156707482Y-110393659D01*
X156780630Y-110570256D01*
X156893066Y-110738529D01*
X157036171Y-110881634D01*
X157137100Y-110949073D01*
X157137100Y-111758127D01*
X157036171Y-111825566D01*
X156893066Y-111968671D01*
X156780630Y-112136944D01*
X156707482Y-112313541D01*
X156706339Y-112310783D01*
X156634066Y-112202620D01*
X156542080Y-112110634D01*
X156433917Y-112038361D01*
X156313731Y-111988579D01*
X156186144Y-111963200D01*
X156056056Y-111963200D01*
X155928469Y-111988579D01*
X155808283Y-112038361D01*
X155700120Y-112110634D01*
X155608134Y-112202620D01*
X155535861Y-112310783D01*
X155486079Y-112430969D01*
X155460700Y-112558556D01*
X155460700Y-112688644D01*
X155486079Y-112816231D01*
X155535861Y-112936417D01*
X155608134Y-113044580D01*
X155700120Y-113136566D01*
X155808283Y-113208839D01*
X155928469Y-113258621D01*
X156056056Y-113284000D01*
X156186144Y-113284000D01*
X156313731Y-113258621D01*
X156433917Y-113208839D01*
X156542080Y-113136566D01*
X156634066Y-113044580D01*
X156706339Y-112936417D01*
X156707482Y-112933659D01*
X156780630Y-113110256D01*
X156893066Y-113278529D01*
X157036171Y-113421634D01*
X157137100Y-113489073D01*
X157137100Y-114298128D01*
X157036171Y-114365566D01*
X156893066Y-114508671D01*
X156780630Y-114676944D01*
X156707482Y-114853541D01*
X156706339Y-114850783D01*
X156634066Y-114742620D01*
X156542080Y-114650634D01*
X156433917Y-114578361D01*
X156313731Y-114528579D01*
X156186144Y-114503200D01*
X156056056Y-114503200D01*
X155928469Y-114528579D01*
X155808283Y-114578361D01*
X155700120Y-114650634D01*
X155608134Y-114742620D01*
X155535861Y-114850783D01*
X155486079Y-114970969D01*
X155460700Y-115098556D01*
X155460700Y-115228644D01*
X155486079Y-115356231D01*
X155535861Y-115476417D01*
X155608134Y-115584580D01*
X155700120Y-115676566D01*
X155808283Y-115748839D01*
X155928469Y-115798621D01*
X156056056Y-115824000D01*
X156186144Y-115824000D01*
X156313731Y-115798621D01*
X156433917Y-115748839D01*
X156542080Y-115676566D01*
X156634066Y-115584580D01*
X156706339Y-115476417D01*
X156707482Y-115473659D01*
X156780630Y-115650256D01*
X156893066Y-115818529D01*
X157036171Y-115961634D01*
X157137100Y-116029072D01*
X157137100Y-116838128D01*
X157036171Y-116905566D01*
X156893066Y-117048671D01*
X156780630Y-117216944D01*
X156707482Y-117393541D01*
X156706339Y-117390783D01*
X156634066Y-117282620D01*
X156542080Y-117190634D01*
X156433917Y-117118361D01*
X156313731Y-117068579D01*
X156186144Y-117043200D01*
X156056056Y-117043200D01*
X155928469Y-117068579D01*
X155808283Y-117118361D01*
X155700120Y-117190634D01*
X155608134Y-117282620D01*
X155535861Y-117390783D01*
X155486079Y-117510969D01*
X155460700Y-117638556D01*
X155460700Y-117768644D01*
X155486079Y-117896231D01*
X155535861Y-118016417D01*
X155608134Y-118124580D01*
X155700120Y-118216566D01*
X155808283Y-118288839D01*
X155928469Y-118338621D01*
X156056056Y-118364000D01*
X156186144Y-118364000D01*
X156313731Y-118338621D01*
X156433917Y-118288839D01*
X156542080Y-118216566D01*
X156634066Y-118124580D01*
X156706339Y-118016417D01*
X156707482Y-118013659D01*
X156780630Y-118190256D01*
X156893066Y-118358529D01*
X157036171Y-118501634D01*
X157137100Y-118569072D01*
X157137100Y-119378128D01*
X157036171Y-119445566D01*
X156893066Y-119588671D01*
X156780630Y-119756944D01*
X156707482Y-119933541D01*
X156706339Y-119930783D01*
X156634066Y-119822620D01*
X156542080Y-119730634D01*
X156433917Y-119658361D01*
X156313731Y-119608579D01*
X156186144Y-119583200D01*
X156056056Y-119583200D01*
X155928469Y-119608579D01*
X155808283Y-119658361D01*
X155700120Y-119730634D01*
X155608134Y-119822620D01*
X155535861Y-119930783D01*
X155486079Y-120050969D01*
X155460700Y-120178556D01*
X155460700Y-120308644D01*
X155486079Y-120436231D01*
X155535861Y-120556417D01*
X155608134Y-120664580D01*
X155700120Y-120756566D01*
X155808283Y-120828839D01*
X155928469Y-120878621D01*
X156056056Y-120904000D01*
X156186144Y-120904000D01*
X156313731Y-120878621D01*
X156433917Y-120828839D01*
X156542080Y-120756566D01*
X156634066Y-120664580D01*
X156706339Y-120556417D01*
X156707482Y-120553659D01*
X156780630Y-120730256D01*
X156893066Y-120898529D01*
X157036171Y-121041634D01*
X157137100Y-121109072D01*
X157137100Y-121259600D01*
X139865100Y-121259600D01*
X139865100Y-121109072D01*
X139966029Y-121041634D01*
X140109134Y-120898529D01*
X140221570Y-120730256D01*
X140294718Y-120553659D01*
X140295861Y-120556417D01*
X140368134Y-120664580D01*
X140460120Y-120756566D01*
X140568283Y-120828839D01*
X140688469Y-120878621D01*
X140816056Y-120904000D01*
X140946144Y-120904000D01*
X141073731Y-120878621D01*
X141193917Y-120828839D01*
X141302080Y-120756566D01*
X141394066Y-120664580D01*
X141466339Y-120556417D01*
X141506483Y-120459500D01*
X142686501Y-120459500D01*
X142697100Y-120460544D01*
X142707699Y-120459500D01*
X142739424Y-120456375D01*
X142780121Y-120444030D01*
X142817628Y-120423982D01*
X142850503Y-120397003D01*
X142857270Y-120388757D01*
X143034791Y-120211236D01*
X143854500Y-120211236D01*
X143854500Y-120275964D01*
X143867128Y-120339449D01*
X143891898Y-120399250D01*
X143927860Y-120453070D01*
X143973630Y-120498840D01*
X144027450Y-120534802D01*
X144087251Y-120559572D01*
X144150736Y-120572200D01*
X144215464Y-120572200D01*
X144278949Y-120559572D01*
X144338750Y-120534802D01*
X144392570Y-120498840D01*
X144438340Y-120453070D01*
X144474302Y-120399250D01*
X144499072Y-120339449D01*
X144511700Y-120275964D01*
X144511700Y-120211236D01*
X153252500Y-120211236D01*
X153252500Y-120275964D01*
X153265128Y-120339449D01*
X153289898Y-120399250D01*
X153325860Y-120453070D01*
X153371630Y-120498840D01*
X153425450Y-120534802D01*
X153485251Y-120559572D01*
X153548736Y-120572200D01*
X153613464Y-120572200D01*
X153676949Y-120559572D01*
X153736750Y-120534802D01*
X153790570Y-120498840D01*
X153836340Y-120453070D01*
X153872302Y-120399250D01*
X153897072Y-120339449D01*
X153909700Y-120275964D01*
X153909700Y-120211236D01*
X153897072Y-120147751D01*
X153872302Y-120087950D01*
X153836340Y-120034130D01*
X153790570Y-119988360D01*
X153736750Y-119952398D01*
X153676949Y-119927628D01*
X153613464Y-119915000D01*
X153548736Y-119915000D01*
X153485251Y-119927628D01*
X153425450Y-119952398D01*
X153371630Y-119988360D01*
X153325860Y-120034130D01*
X153289898Y-120087950D01*
X153265128Y-120147751D01*
X153252500Y-120211236D01*
X144511700Y-120211236D01*
X144499072Y-120147751D01*
X144474302Y-120087950D01*
X144438340Y-120034130D01*
X144392570Y-119988360D01*
X144338750Y-119952398D01*
X144278949Y-119927628D01*
X144215464Y-119915000D01*
X144150736Y-119915000D01*
X144087251Y-119927628D01*
X144027450Y-119952398D01*
X143973630Y-119988360D01*
X143927860Y-120034130D01*
X143891898Y-120087950D01*
X143867128Y-120147751D01*
X143854500Y-120211236D01*
X143034791Y-120211236D01*
X143077263Y-120168765D01*
X143085503Y-120162003D01*
X143112482Y-120129128D01*
X143132530Y-120091621D01*
X143144875Y-120050924D01*
X143148000Y-120019199D01*
X143148000Y-120019198D01*
X143149044Y-120008601D01*
X143148000Y-119998002D01*
X143148000Y-118433236D01*
X150839500Y-118433236D01*
X150839500Y-118497964D01*
X150852128Y-118561449D01*
X150876898Y-118621250D01*
X150912860Y-118675070D01*
X150958630Y-118720840D01*
X151012450Y-118756802D01*
X151072251Y-118781572D01*
X151135736Y-118794200D01*
X151200464Y-118794200D01*
X151263949Y-118781572D01*
X151323750Y-118756802D01*
X151377570Y-118720840D01*
X151423340Y-118675070D01*
X151459302Y-118621250D01*
X151484072Y-118561449D01*
X151496700Y-118497964D01*
X151496700Y-118433236D01*
X151484072Y-118369751D01*
X151459302Y-118309950D01*
X151423340Y-118256130D01*
X151377570Y-118210360D01*
X151323750Y-118174398D01*
X151263949Y-118149628D01*
X151200464Y-118137000D01*
X151135736Y-118137000D01*
X151072251Y-118149628D01*
X151012450Y-118174398D01*
X150958630Y-118210360D01*
X150912860Y-118256130D01*
X150876898Y-118309950D01*
X150852128Y-118369751D01*
X150839500Y-118433236D01*
X143148000Y-118433236D01*
X143148000Y-117671236D01*
X143854500Y-117671236D01*
X143854500Y-117735964D01*
X143867128Y-117799449D01*
X143891898Y-117859250D01*
X143927860Y-117913070D01*
X143973630Y-117958840D01*
X144027450Y-117994802D01*
X144087251Y-118019572D01*
X144150736Y-118032200D01*
X144215464Y-118032200D01*
X144278949Y-118019572D01*
X144338750Y-117994802D01*
X144392570Y-117958840D01*
X144438340Y-117913070D01*
X144474302Y-117859250D01*
X144499072Y-117799449D01*
X144499313Y-117798236D01*
X151347500Y-117798236D01*
X151347500Y-117862964D01*
X151360128Y-117926449D01*
X151384898Y-117986250D01*
X151420860Y-118040070D01*
X151466630Y-118085840D01*
X151520450Y-118121802D01*
X151580251Y-118146572D01*
X151643736Y-118159200D01*
X151708464Y-118159200D01*
X151771949Y-118146572D01*
X151831750Y-118121802D01*
X151885570Y-118085840D01*
X151931340Y-118040070D01*
X151967302Y-117986250D01*
X151992072Y-117926449D01*
X152004700Y-117862964D01*
X152004700Y-117798236D01*
X151992072Y-117734751D01*
X151967302Y-117674950D01*
X151964821Y-117671236D01*
X154141500Y-117671236D01*
X154141500Y-117735964D01*
X154154128Y-117799449D01*
X154178898Y-117859250D01*
X154214860Y-117913070D01*
X154260630Y-117958840D01*
X154314450Y-117994802D01*
X154374251Y-118019572D01*
X154437736Y-118032200D01*
X154502464Y-118032200D01*
X154565949Y-118019572D01*
X154625750Y-117994802D01*
X154679570Y-117958840D01*
X154725340Y-117913070D01*
X154761302Y-117859250D01*
X154786072Y-117799449D01*
X154798700Y-117735964D01*
X154798700Y-117671236D01*
X154786072Y-117607751D01*
X154761302Y-117547950D01*
X154725340Y-117494130D01*
X154679570Y-117448360D01*
X154625750Y-117412398D01*
X154565949Y-117387628D01*
X154502464Y-117375000D01*
X154437736Y-117375000D01*
X154374251Y-117387628D01*
X154314450Y-117412398D01*
X154260630Y-117448360D01*
X154214860Y-117494130D01*
X154178898Y-117547950D01*
X154154128Y-117607751D01*
X154141500Y-117671236D01*
X151964821Y-117671236D01*
X151931340Y-117621130D01*
X151885570Y-117575360D01*
X151831750Y-117539398D01*
X151771949Y-117514628D01*
X151708464Y-117502000D01*
X151643736Y-117502000D01*
X151580251Y-117514628D01*
X151520450Y-117539398D01*
X151466630Y-117575360D01*
X151420860Y-117621130D01*
X151384898Y-117674950D01*
X151360128Y-117734751D01*
X151347500Y-117798236D01*
X144499313Y-117798236D01*
X144511700Y-117735964D01*
X144511700Y-117671236D01*
X144499072Y-117607751D01*
X144474302Y-117547950D01*
X144438340Y-117494130D01*
X144392570Y-117448360D01*
X144338750Y-117412398D01*
X144278949Y-117387628D01*
X144215464Y-117375000D01*
X144150736Y-117375000D01*
X144087251Y-117387628D01*
X144027450Y-117412398D01*
X143973630Y-117448360D01*
X143927860Y-117494130D01*
X143891898Y-117547950D01*
X143867128Y-117607751D01*
X143854500Y-117671236D01*
X143148000Y-117671236D01*
X143148000Y-117036236D01*
X150331500Y-117036236D01*
X150331500Y-117100964D01*
X150344128Y-117164449D01*
X150368898Y-117224250D01*
X150404860Y-117278070D01*
X150450630Y-117323840D01*
X150504450Y-117359802D01*
X150564251Y-117384572D01*
X150627736Y-117397200D01*
X150692464Y-117397200D01*
X150755949Y-117384572D01*
X150815750Y-117359802D01*
X150869570Y-117323840D01*
X150915340Y-117278070D01*
X150951302Y-117224250D01*
X150976072Y-117164449D01*
X150988700Y-117100964D01*
X150988700Y-117036236D01*
X150976072Y-116972751D01*
X150951302Y-116912950D01*
X150915340Y-116859130D01*
X150869570Y-116813360D01*
X150815750Y-116777398D01*
X150755949Y-116752628D01*
X150692464Y-116740000D01*
X150627736Y-116740000D01*
X150564251Y-116752628D01*
X150504450Y-116777398D01*
X150450630Y-116813360D01*
X150404860Y-116859130D01*
X150368898Y-116912950D01*
X150344128Y-116972751D01*
X150331500Y-117036236D01*
X143148000Y-117036236D01*
X143148000Y-115639236D01*
X152998500Y-115639236D01*
X152998500Y-115703964D01*
X153011128Y-115767449D01*
X153035898Y-115827250D01*
X153071860Y-115881070D01*
X153117630Y-115926840D01*
X153171450Y-115962802D01*
X153231251Y-115987572D01*
X153294736Y-116000200D01*
X153359464Y-116000200D01*
X153422949Y-115987572D01*
X153482750Y-115962802D01*
X153536570Y-115926840D01*
X153582340Y-115881070D01*
X153618302Y-115827250D01*
X153643072Y-115767449D01*
X153655700Y-115703964D01*
X153655700Y-115639236D01*
X153643072Y-115575751D01*
X153618302Y-115515950D01*
X153582340Y-115462130D01*
X153536570Y-115416360D01*
X153482750Y-115380398D01*
X153422949Y-115355628D01*
X153359464Y-115343000D01*
X153294736Y-115343000D01*
X153231251Y-115355628D01*
X153171450Y-115380398D01*
X153117630Y-115416360D01*
X153071860Y-115462130D01*
X153035898Y-115515950D01*
X153011128Y-115575751D01*
X152998500Y-115639236D01*
X143148000Y-115639236D01*
X143148000Y-114242236D01*
X146648500Y-114242236D01*
X146648500Y-114306964D01*
X146661128Y-114370449D01*
X146685898Y-114430250D01*
X146721860Y-114484070D01*
X146767630Y-114529840D01*
X146821450Y-114565802D01*
X146881251Y-114590572D01*
X146944736Y-114603200D01*
X147009464Y-114603200D01*
X147072949Y-114590572D01*
X147132750Y-114565802D01*
X147186570Y-114529840D01*
X147232340Y-114484070D01*
X147268302Y-114430250D01*
X147293072Y-114370449D01*
X147305700Y-114306964D01*
X147305700Y-114242236D01*
X149696500Y-114242236D01*
X149696500Y-114306964D01*
X149709128Y-114370449D01*
X149733898Y-114430250D01*
X149769860Y-114484070D01*
X149815630Y-114529840D01*
X149869450Y-114565802D01*
X149929251Y-114590572D01*
X149992736Y-114603200D01*
X150057464Y-114603200D01*
X150120949Y-114590572D01*
X150180750Y-114565802D01*
X150234570Y-114529840D01*
X150280340Y-114484070D01*
X150316302Y-114430250D01*
X150341072Y-114370449D01*
X150353700Y-114306964D01*
X150353700Y-114242236D01*
X150341072Y-114178751D01*
X150316302Y-114118950D01*
X150280340Y-114065130D01*
X150234570Y-114019360D01*
X150180750Y-113983398D01*
X150120949Y-113958628D01*
X150057464Y-113946000D01*
X149992736Y-113946000D01*
X149929251Y-113958628D01*
X149869450Y-113983398D01*
X149815630Y-114019360D01*
X149769860Y-114065130D01*
X149733898Y-114118950D01*
X149709128Y-114178751D01*
X149696500Y-114242236D01*
X147305700Y-114242236D01*
X147293072Y-114178751D01*
X147268302Y-114118950D01*
X147232340Y-114065130D01*
X147186570Y-114019360D01*
X147132750Y-113983398D01*
X147072949Y-113958628D01*
X147009464Y-113946000D01*
X146944736Y-113946000D01*
X146881251Y-113958628D01*
X146821450Y-113983398D01*
X146767630Y-114019360D01*
X146721860Y-114065130D01*
X146685898Y-114118950D01*
X146661128Y-114178751D01*
X146648500Y-114242236D01*
X143148000Y-114242236D01*
X143148000Y-113480236D01*
X151347500Y-113480236D01*
X151347500Y-113544964D01*
X151360128Y-113608449D01*
X151384898Y-113668250D01*
X151420860Y-113722070D01*
X151466630Y-113767840D01*
X151520450Y-113803802D01*
X151580251Y-113828572D01*
X151643736Y-113841200D01*
X151708464Y-113841200D01*
X151771949Y-113828572D01*
X151831750Y-113803802D01*
X151885570Y-113767840D01*
X151931340Y-113722070D01*
X151967302Y-113668250D01*
X151992072Y-113608449D01*
X152004700Y-113544964D01*
X152004700Y-113480236D01*
X151992072Y-113416751D01*
X151967302Y-113356950D01*
X151931340Y-113303130D01*
X151885570Y-113257360D01*
X151831750Y-113221398D01*
X151771949Y-113196628D01*
X151708464Y-113184000D01*
X151643736Y-113184000D01*
X151580251Y-113196628D01*
X151520450Y-113221398D01*
X151466630Y-113257360D01*
X151420860Y-113303130D01*
X151384898Y-113356950D01*
X151360128Y-113416751D01*
X151347500Y-113480236D01*
X143148000Y-113480236D01*
X143148000Y-112718236D01*
X143854500Y-112718236D01*
X143854500Y-112782964D01*
X143867128Y-112846449D01*
X143891898Y-112906250D01*
X143927860Y-112960070D01*
X143973630Y-113005840D01*
X144027450Y-113041802D01*
X144087251Y-113066572D01*
X144150736Y-113079200D01*
X144215464Y-113079200D01*
X144278949Y-113066572D01*
X144338750Y-113041802D01*
X144392570Y-113005840D01*
X144431910Y-112966500D01*
X147744290Y-112966500D01*
X147783630Y-113005840D01*
X147837450Y-113041802D01*
X147897251Y-113066572D01*
X147960736Y-113079200D01*
X148025464Y-113079200D01*
X148088949Y-113066572D01*
X148148750Y-113041802D01*
X148202570Y-113005840D01*
X148248340Y-112960070D01*
X148284302Y-112906250D01*
X148309072Y-112846449D01*
X148321700Y-112782964D01*
X148321700Y-112718236D01*
X148309072Y-112654751D01*
X148284302Y-112594950D01*
X148281821Y-112591236D01*
X149188500Y-112591236D01*
X149188500Y-112655964D01*
X149201128Y-112719449D01*
X149225898Y-112779250D01*
X149261860Y-112833070D01*
X149307630Y-112878840D01*
X149361450Y-112914802D01*
X149421251Y-112939572D01*
X149484736Y-112952200D01*
X149549464Y-112952200D01*
X149612949Y-112939572D01*
X149672750Y-112914802D01*
X149726570Y-112878840D01*
X149771100Y-112834310D01*
X149815630Y-112878840D01*
X149869450Y-112914802D01*
X149929251Y-112939572D01*
X149992736Y-112952200D01*
X150057464Y-112952200D01*
X150120949Y-112939572D01*
X150180750Y-112914802D01*
X150234570Y-112878840D01*
X150279100Y-112834310D01*
X150323630Y-112878840D01*
X150377450Y-112914802D01*
X150437251Y-112939572D01*
X150500736Y-112952200D01*
X150565464Y-112952200D01*
X150628949Y-112939572D01*
X150688750Y-112914802D01*
X150742570Y-112878840D01*
X150788340Y-112833070D01*
X150798200Y-112818314D01*
X150808060Y-112833070D01*
X150853830Y-112878840D01*
X150907650Y-112914802D01*
X150967451Y-112939572D01*
X151030936Y-112952200D01*
X151095664Y-112952200D01*
X151159149Y-112939572D01*
X151218950Y-112914802D01*
X151272770Y-112878840D01*
X151318540Y-112833070D01*
X151354502Y-112779250D01*
X151379272Y-112719449D01*
X151391900Y-112655964D01*
X151391900Y-112591236D01*
X151379272Y-112527751D01*
X151354502Y-112467950D01*
X151318540Y-112414130D01*
X151272770Y-112368360D01*
X151218950Y-112332398D01*
X151159149Y-112307628D01*
X151095664Y-112295000D01*
X151030936Y-112295000D01*
X150967451Y-112307628D01*
X150907650Y-112332398D01*
X150853830Y-112368360D01*
X150808060Y-112414130D01*
X150798200Y-112428886D01*
X150788340Y-112414130D01*
X150742570Y-112368360D01*
X150688750Y-112332398D01*
X150628949Y-112307628D01*
X150565464Y-112295000D01*
X150500736Y-112295000D01*
X150437251Y-112307628D01*
X150377450Y-112332398D01*
X150323630Y-112368360D01*
X150279100Y-112412890D01*
X150234570Y-112368360D01*
X150180750Y-112332398D01*
X150120949Y-112307628D01*
X150057464Y-112295000D01*
X149992736Y-112295000D01*
X149929251Y-112307628D01*
X149869450Y-112332398D01*
X149815630Y-112368360D01*
X149771100Y-112412890D01*
X149726570Y-112368360D01*
X149672750Y-112332398D01*
X149612949Y-112307628D01*
X149549464Y-112295000D01*
X149484736Y-112295000D01*
X149421251Y-112307628D01*
X149361450Y-112332398D01*
X149307630Y-112368360D01*
X149261860Y-112414130D01*
X149225898Y-112467950D01*
X149201128Y-112527751D01*
X149188500Y-112591236D01*
X148281821Y-112591236D01*
X148248340Y-112541130D01*
X148202570Y-112495360D01*
X148148750Y-112459398D01*
X148088949Y-112434628D01*
X148025464Y-112422000D01*
X147960736Y-112422000D01*
X147897251Y-112434628D01*
X147837450Y-112459398D01*
X147790616Y-112490692D01*
X147801072Y-112465449D01*
X147813700Y-112401964D01*
X147813700Y-112337236D01*
X147801072Y-112273751D01*
X147776302Y-112213950D01*
X147740340Y-112160130D01*
X147694570Y-112114360D01*
X147647991Y-112083236D01*
X148299500Y-112083236D01*
X148299500Y-112147964D01*
X148312128Y-112211449D01*
X148336898Y-112271250D01*
X148372860Y-112325070D01*
X148418630Y-112370840D01*
X148472450Y-112406802D01*
X148532251Y-112431572D01*
X148595736Y-112444200D01*
X148660464Y-112444200D01*
X148723949Y-112431572D01*
X148783750Y-112406802D01*
X148837570Y-112370840D01*
X148883340Y-112325070D01*
X148919302Y-112271250D01*
X148944072Y-112211449D01*
X148956700Y-112147964D01*
X148956700Y-112083236D01*
X148944072Y-112019751D01*
X148919302Y-111959950D01*
X148883340Y-111906130D01*
X148837570Y-111860360D01*
X148783750Y-111824398D01*
X148723949Y-111799628D01*
X148660464Y-111787000D01*
X148595736Y-111787000D01*
X148532251Y-111799628D01*
X148472450Y-111824398D01*
X148418630Y-111860360D01*
X148372860Y-111906130D01*
X148336898Y-111959950D01*
X148312128Y-112019751D01*
X148299500Y-112083236D01*
X147647991Y-112083236D01*
X147640750Y-112078398D01*
X147580949Y-112053628D01*
X147517464Y-112041000D01*
X147452736Y-112041000D01*
X147389251Y-112053628D01*
X147329450Y-112078398D01*
X147275630Y-112114360D01*
X147229860Y-112160130D01*
X147193898Y-112213950D01*
X147169128Y-112273751D01*
X147156500Y-112337236D01*
X147156500Y-112401964D01*
X147169128Y-112465449D01*
X147193898Y-112525250D01*
X147200212Y-112534700D01*
X144431910Y-112534700D01*
X144392570Y-112495360D01*
X144338750Y-112459398D01*
X144278949Y-112434628D01*
X144215464Y-112422000D01*
X144150736Y-112422000D01*
X144087251Y-112434628D01*
X144027450Y-112459398D01*
X143973630Y-112495360D01*
X143927860Y-112541130D01*
X143891898Y-112594950D01*
X143867128Y-112654751D01*
X143854500Y-112718236D01*
X143148000Y-112718236D01*
X143148000Y-112382027D01*
X143379529Y-112150500D01*
X145839290Y-112150500D01*
X145878630Y-112189840D01*
X145932450Y-112225802D01*
X145992251Y-112250572D01*
X146055736Y-112263200D01*
X146120464Y-112263200D01*
X146183949Y-112250572D01*
X146243750Y-112225802D01*
X146297570Y-112189840D01*
X146343340Y-112144070D01*
X146379302Y-112090250D01*
X146404072Y-112030449D01*
X146416700Y-111966964D01*
X146416700Y-111902236D01*
X146404072Y-111838751D01*
X146379302Y-111778950D01*
X146343340Y-111725130D01*
X146325810Y-111707600D01*
X146343340Y-111690070D01*
X146379302Y-111636250D01*
X146404072Y-111576449D01*
X146416700Y-111512964D01*
X146416700Y-111448236D01*
X146404072Y-111384751D01*
X146379302Y-111324950D01*
X146376821Y-111321236D01*
X146902500Y-111321236D01*
X146902500Y-111385964D01*
X146915128Y-111449449D01*
X146939898Y-111509250D01*
X146975860Y-111563070D01*
X147021630Y-111608840D01*
X147075450Y-111644802D01*
X147135251Y-111669572D01*
X147198736Y-111682200D01*
X147263464Y-111682200D01*
X147326949Y-111669572D01*
X147386750Y-111644802D01*
X147440570Y-111608840D01*
X147486340Y-111563070D01*
X147522302Y-111509250D01*
X147547072Y-111449449D01*
X147559700Y-111385964D01*
X147559700Y-111321236D01*
X148172500Y-111321236D01*
X148172500Y-111385964D01*
X148185128Y-111449449D01*
X148209898Y-111509250D01*
X148245860Y-111563070D01*
X148291630Y-111608840D01*
X148345450Y-111644802D01*
X148405251Y-111669572D01*
X148468736Y-111682200D01*
X148533464Y-111682200D01*
X148596949Y-111669572D01*
X148656750Y-111644802D01*
X148710570Y-111608840D01*
X148756340Y-111563070D01*
X148792302Y-111509250D01*
X148817072Y-111449449D01*
X148820197Y-111433736D01*
X153252500Y-111433736D01*
X153252500Y-111498464D01*
X153265128Y-111561949D01*
X153289898Y-111621750D01*
X153325860Y-111675570D01*
X153371630Y-111721340D01*
X153425450Y-111757302D01*
X153485251Y-111782072D01*
X153548736Y-111794700D01*
X153613464Y-111794700D01*
X153676949Y-111782072D01*
X153736750Y-111757302D01*
X153790570Y-111721340D01*
X153836340Y-111675570D01*
X153872302Y-111621750D01*
X153897072Y-111561949D01*
X153909700Y-111498464D01*
X153909700Y-111433736D01*
X153897072Y-111370251D01*
X153872302Y-111310450D01*
X153836340Y-111256630D01*
X153790570Y-111210860D01*
X153736750Y-111174898D01*
X153676949Y-111150128D01*
X153613464Y-111137500D01*
X153548736Y-111137500D01*
X153485251Y-111150128D01*
X153425450Y-111174898D01*
X153371630Y-111210860D01*
X153325860Y-111256630D01*
X153289898Y-111310450D01*
X153265128Y-111370251D01*
X153252500Y-111433736D01*
X148820197Y-111433736D01*
X148829700Y-111385964D01*
X148829700Y-111321236D01*
X148817072Y-111257751D01*
X148792302Y-111197950D01*
X148756340Y-111144130D01*
X148710570Y-111098360D01*
X148656750Y-111062398D01*
X148596949Y-111037628D01*
X148533464Y-111025000D01*
X148468736Y-111025000D01*
X148405251Y-111037628D01*
X148345450Y-111062398D01*
X148291630Y-111098360D01*
X148245860Y-111144130D01*
X148209898Y-111197950D01*
X148185128Y-111257751D01*
X148172500Y-111321236D01*
X147559700Y-111321236D01*
X147547072Y-111257751D01*
X147522302Y-111197950D01*
X147486340Y-111144130D01*
X147440570Y-111098360D01*
X147386750Y-111062398D01*
X147326949Y-111037628D01*
X147263464Y-111025000D01*
X147198736Y-111025000D01*
X147135251Y-111037628D01*
X147075450Y-111062398D01*
X147021630Y-111098360D01*
X146975860Y-111144130D01*
X146939898Y-111197950D01*
X146915128Y-111257751D01*
X146902500Y-111321236D01*
X146376821Y-111321236D01*
X146343340Y-111271130D01*
X146297570Y-111225360D01*
X146243750Y-111189398D01*
X146183949Y-111164628D01*
X146120464Y-111152000D01*
X146055736Y-111152000D01*
X145992251Y-111164628D01*
X145932450Y-111189398D01*
X145878630Y-111225360D01*
X145839290Y-111264700D01*
X142926328Y-111264700D01*
X143310529Y-110880500D01*
X145839290Y-110880500D01*
X145878630Y-110919840D01*
X145932450Y-110955802D01*
X145992251Y-110980572D01*
X146055736Y-110993200D01*
X146120464Y-110993200D01*
X146183949Y-110980572D01*
X146243750Y-110955802D01*
X146297570Y-110919840D01*
X146343340Y-110874070D01*
X146379302Y-110820250D01*
X146404072Y-110760449D01*
X146416700Y-110696964D01*
X146416700Y-110632236D01*
X146404072Y-110568751D01*
X146379302Y-110508950D01*
X146343340Y-110455130D01*
X146325810Y-110437600D01*
X146343340Y-110420070D01*
X146379302Y-110366250D01*
X146404072Y-110306449D01*
X146416700Y-110242964D01*
X146416700Y-110178236D01*
X146404072Y-110114751D01*
X146379302Y-110054950D01*
X146376821Y-110051236D01*
X146902500Y-110051236D01*
X146902500Y-110115964D01*
X146915128Y-110179449D01*
X146939898Y-110239250D01*
X146975860Y-110293070D01*
X147021630Y-110338840D01*
X147075450Y-110374802D01*
X147135251Y-110399572D01*
X147198736Y-110412200D01*
X147263464Y-110412200D01*
X147326949Y-110399572D01*
X147386750Y-110374802D01*
X147440570Y-110338840D01*
X147486340Y-110293070D01*
X147522302Y-110239250D01*
X147547072Y-110179449D01*
X147559700Y-110115964D01*
X147559700Y-110051236D01*
X148172500Y-110051236D01*
X148172500Y-110115964D01*
X148185128Y-110179449D01*
X148209898Y-110239250D01*
X148245860Y-110293070D01*
X148291630Y-110338840D01*
X148345450Y-110374802D01*
X148405251Y-110399572D01*
X148468736Y-110412200D01*
X148533464Y-110412200D01*
X148596949Y-110399572D01*
X148656750Y-110374802D01*
X148710570Y-110338840D01*
X148756340Y-110293070D01*
X148792302Y-110239250D01*
X148817072Y-110179449D01*
X148829700Y-110115964D01*
X148829700Y-110051236D01*
X149442500Y-110051236D01*
X149442500Y-110115964D01*
X149455128Y-110179449D01*
X149479898Y-110239250D01*
X149515860Y-110293070D01*
X149561630Y-110338840D01*
X149615450Y-110374802D01*
X149675251Y-110399572D01*
X149738736Y-110412200D01*
X149803464Y-110412200D01*
X149866949Y-110399572D01*
X149926750Y-110374802D01*
X149980570Y-110338840D01*
X150026340Y-110293070D01*
X150062302Y-110239250D01*
X150087072Y-110179449D01*
X150087313Y-110178236D01*
X153760500Y-110178236D01*
X153760500Y-110242964D01*
X153773128Y-110306449D01*
X153797898Y-110366250D01*
X153833860Y-110420070D01*
X153879630Y-110465840D01*
X153933450Y-110501802D01*
X153993251Y-110526572D01*
X154056736Y-110539200D01*
X154121464Y-110539200D01*
X154184949Y-110526572D01*
X154244750Y-110501802D01*
X154298570Y-110465840D01*
X154344340Y-110420070D01*
X154380302Y-110366250D01*
X154405072Y-110306449D01*
X154417700Y-110242964D01*
X154417700Y-110178236D01*
X154405072Y-110114751D01*
X154380302Y-110054950D01*
X154344340Y-110001130D01*
X154298570Y-109955360D01*
X154244750Y-109919398D01*
X154184949Y-109894628D01*
X154121464Y-109882000D01*
X154056736Y-109882000D01*
X153993251Y-109894628D01*
X153933450Y-109919398D01*
X153879630Y-109955360D01*
X153833860Y-110001130D01*
X153797898Y-110054950D01*
X153773128Y-110114751D01*
X153760500Y-110178236D01*
X150087313Y-110178236D01*
X150099700Y-110115964D01*
X150099700Y-110051236D01*
X150087072Y-109987751D01*
X150062302Y-109927950D01*
X150026340Y-109874130D01*
X149980570Y-109828360D01*
X149926750Y-109792398D01*
X149866949Y-109767628D01*
X149803464Y-109755000D01*
X149738736Y-109755000D01*
X149675251Y-109767628D01*
X149615450Y-109792398D01*
X149561630Y-109828360D01*
X149515860Y-109874130D01*
X149479898Y-109927950D01*
X149455128Y-109987751D01*
X149442500Y-110051236D01*
X148829700Y-110051236D01*
X148817072Y-109987751D01*
X148792302Y-109927950D01*
X148756340Y-109874130D01*
X148710570Y-109828360D01*
X148656750Y-109792398D01*
X148596949Y-109767628D01*
X148533464Y-109755000D01*
X148468736Y-109755000D01*
X148405251Y-109767628D01*
X148345450Y-109792398D01*
X148291630Y-109828360D01*
X148245860Y-109874130D01*
X148209898Y-109927950D01*
X148185128Y-109987751D01*
X148172500Y-110051236D01*
X147559700Y-110051236D01*
X147547072Y-109987751D01*
X147522302Y-109927950D01*
X147486340Y-109874130D01*
X147440570Y-109828360D01*
X147386750Y-109792398D01*
X147326949Y-109767628D01*
X147263464Y-109755000D01*
X147198736Y-109755000D01*
X147135251Y-109767628D01*
X147075450Y-109792398D01*
X147021630Y-109828360D01*
X146975860Y-109874130D01*
X146939898Y-109927950D01*
X146915128Y-109987751D01*
X146902500Y-110051236D01*
X146376821Y-110051236D01*
X146343340Y-110001130D01*
X146297570Y-109955360D01*
X146243750Y-109919398D01*
X146183949Y-109894628D01*
X146120464Y-109882000D01*
X146055736Y-109882000D01*
X145992251Y-109894628D01*
X145932450Y-109919398D01*
X145878630Y-109955360D01*
X145832860Y-110001130D01*
X145796898Y-110054950D01*
X145775173Y-110107400D01*
X143163324Y-110107400D01*
X143152725Y-110106356D01*
X143142126Y-110107400D01*
X143110401Y-110110525D01*
X143069704Y-110122870D01*
X143032197Y-110142918D01*
X142999322Y-110169897D01*
X142992565Y-110178131D01*
X141150373Y-112020325D01*
X141073731Y-111988579D01*
X140946144Y-111963200D01*
X140816056Y-111963200D01*
X140688469Y-111988579D01*
X140568283Y-112038361D01*
X140460120Y-112110634D01*
X140368134Y-112202620D01*
X140295861Y-112310783D01*
X140294718Y-112313541D01*
X140221570Y-112136944D01*
X140109134Y-111968671D01*
X139966029Y-111825566D01*
X139865100Y-111758128D01*
X139865100Y-110949072D01*
X139966029Y-110881634D01*
X140109134Y-110738529D01*
X140221570Y-110570256D01*
X140294718Y-110393659D01*
X140295861Y-110396417D01*
X140368134Y-110504580D01*
X140460120Y-110596566D01*
X140568283Y-110668839D01*
X140688469Y-110718621D01*
X140816056Y-110744000D01*
X140946144Y-110744000D01*
X141073731Y-110718621D01*
X141193917Y-110668839D01*
X141302080Y-110596566D01*
X141394066Y-110504580D01*
X141466339Y-110396417D01*
X141516121Y-110276231D01*
X141541500Y-110148644D01*
X141541500Y-110018556D01*
X141516121Y-109890969D01*
X141477297Y-109797236D01*
X142584500Y-109797236D01*
X142584500Y-109861964D01*
X142597128Y-109925449D01*
X142621898Y-109985250D01*
X142657860Y-110039070D01*
X142703630Y-110084840D01*
X142757450Y-110120802D01*
X142817251Y-110145572D01*
X142880736Y-110158200D01*
X142945464Y-110158200D01*
X143008949Y-110145572D01*
X143068750Y-110120802D01*
X143122570Y-110084840D01*
X143168340Y-110039070D01*
X143204302Y-109985250D01*
X143229072Y-109925449D01*
X143241700Y-109861964D01*
X143241700Y-109797236D01*
X143229072Y-109733751D01*
X143204302Y-109673950D01*
X143168340Y-109620130D01*
X143129446Y-109581236D01*
X153482500Y-109581236D01*
X153482500Y-109645964D01*
X153495128Y-109709449D01*
X153519898Y-109769250D01*
X153555860Y-109823070D01*
X153601630Y-109868840D01*
X153655450Y-109904802D01*
X153715251Y-109929572D01*
X153778736Y-109942200D01*
X153843464Y-109942200D01*
X153906949Y-109929572D01*
X153966750Y-109904802D01*
X154020570Y-109868840D01*
X154066340Y-109823070D01*
X154102302Y-109769250D01*
X154127072Y-109709449D01*
X154139700Y-109645964D01*
X154139700Y-109581236D01*
X154127072Y-109517751D01*
X154102302Y-109457950D01*
X154066340Y-109404130D01*
X154020570Y-109358360D01*
X153966750Y-109322398D01*
X153906949Y-109297628D01*
X153843464Y-109285000D01*
X153778736Y-109285000D01*
X153715251Y-109297628D01*
X153655450Y-109322398D01*
X153601630Y-109358360D01*
X153555860Y-109404130D01*
X153519898Y-109457950D01*
X153495128Y-109517751D01*
X153482500Y-109581236D01*
X143129446Y-109581236D01*
X143122570Y-109574360D01*
X143068750Y-109538398D01*
X143008949Y-109513628D01*
X142945464Y-109501000D01*
X142880736Y-109501000D01*
X142817251Y-109513628D01*
X142757450Y-109538398D01*
X142703630Y-109574360D01*
X142657860Y-109620130D01*
X142621898Y-109673950D01*
X142597128Y-109733751D01*
X142584500Y-109797236D01*
X141477297Y-109797236D01*
X141466339Y-109770783D01*
X141394066Y-109662620D01*
X141302080Y-109570634D01*
X141193917Y-109498361D01*
X141073731Y-109448579D01*
X140946144Y-109423200D01*
X140816056Y-109423200D01*
X140688469Y-109448579D01*
X140568283Y-109498361D01*
X140460120Y-109570634D01*
X140368134Y-109662620D01*
X140295861Y-109770783D01*
X140294718Y-109773541D01*
X140221570Y-109596944D01*
X140109134Y-109428671D01*
X139966029Y-109285566D01*
X139865100Y-109218128D01*
X139865100Y-108781236D01*
X146902500Y-108781236D01*
X146902500Y-108845964D01*
X146915128Y-108909449D01*
X146939898Y-108969250D01*
X146975860Y-109023070D01*
X147021630Y-109068840D01*
X147075450Y-109104802D01*
X147135251Y-109129572D01*
X147198736Y-109142200D01*
X147263464Y-109142200D01*
X147326949Y-109129572D01*
X147386750Y-109104802D01*
X147440570Y-109068840D01*
X147486340Y-109023070D01*
X147522302Y-108969250D01*
X147547072Y-108909449D01*
X147559700Y-108845964D01*
X147559700Y-108781236D01*
X148172500Y-108781236D01*
X148172500Y-108845964D01*
X148185128Y-108909449D01*
X148209898Y-108969250D01*
X148245860Y-109023070D01*
X148291630Y-109068840D01*
X148345450Y-109104802D01*
X148405251Y-109129572D01*
X148468736Y-109142200D01*
X148533464Y-109142200D01*
X148596949Y-109129572D01*
X148656750Y-109104802D01*
X148710570Y-109068840D01*
X148756340Y-109023070D01*
X148792302Y-108969250D01*
X148817072Y-108909449D01*
X148829700Y-108845964D01*
X148829700Y-108781236D01*
X149442500Y-108781236D01*
X149442500Y-108845964D01*
X149455128Y-108909449D01*
X149479898Y-108969250D01*
X149515860Y-109023070D01*
X149561630Y-109068840D01*
X149615450Y-109104802D01*
X149675251Y-109129572D01*
X149738736Y-109142200D01*
X149803464Y-109142200D01*
X149866949Y-109129572D01*
X149926750Y-109104802D01*
X149980570Y-109068840D01*
X150026340Y-109023070D01*
X150062302Y-108969250D01*
X150087072Y-108909449D01*
X150099700Y-108845964D01*
X150099700Y-108781236D01*
X150087072Y-108717751D01*
X150062302Y-108657950D01*
X150026340Y-108604130D01*
X149980570Y-108558360D01*
X149926750Y-108522398D01*
X149866949Y-108497628D01*
X149803464Y-108485000D01*
X149738736Y-108485000D01*
X149675251Y-108497628D01*
X149615450Y-108522398D01*
X149561630Y-108558360D01*
X149515860Y-108604130D01*
X149479898Y-108657950D01*
X149455128Y-108717751D01*
X149442500Y-108781236D01*
X148829700Y-108781236D01*
X148817072Y-108717751D01*
X148792302Y-108657950D01*
X148756340Y-108604130D01*
X148710570Y-108558360D01*
X148656750Y-108522398D01*
X148596949Y-108497628D01*
X148533464Y-108485000D01*
X148468736Y-108485000D01*
X148405251Y-108497628D01*
X148345450Y-108522398D01*
X148291630Y-108558360D01*
X148245860Y-108604130D01*
X148209898Y-108657950D01*
X148185128Y-108717751D01*
X148172500Y-108781236D01*
X147559700Y-108781236D01*
X147547072Y-108717751D01*
X147522302Y-108657950D01*
X147486340Y-108604130D01*
X147440570Y-108558360D01*
X147386750Y-108522398D01*
X147326949Y-108497628D01*
X147263464Y-108485000D01*
X147198736Y-108485000D01*
X147135251Y-108497628D01*
X147075450Y-108522398D01*
X147021630Y-108558360D01*
X146975860Y-108604130D01*
X146939898Y-108657950D01*
X146915128Y-108717751D01*
X146902500Y-108781236D01*
X139865100Y-108781236D01*
X139865100Y-108409072D01*
X139966029Y-108341634D01*
X140109134Y-108198529D01*
X140221570Y-108030256D01*
X140294718Y-107853659D01*
X140295861Y-107856417D01*
X140368134Y-107964580D01*
X140460120Y-108056566D01*
X140568283Y-108128839D01*
X140688469Y-108178621D01*
X140816056Y-108204000D01*
X140946144Y-108204000D01*
X141073731Y-108178621D01*
X141193917Y-108128839D01*
X141302080Y-108056566D01*
X141394066Y-107964580D01*
X141466339Y-107856417D01*
X141516121Y-107736231D01*
X141541500Y-107608644D01*
X141541500Y-107511236D01*
X145886500Y-107511236D01*
X145886500Y-107575964D01*
X145899128Y-107639449D01*
X145923898Y-107699250D01*
X145959860Y-107753070D01*
X146005630Y-107798840D01*
X146059450Y-107834802D01*
X146119251Y-107859572D01*
X146182736Y-107872200D01*
X146247464Y-107872200D01*
X146272475Y-107867225D01*
X146267500Y-107892236D01*
X146267500Y-107956964D01*
X146280128Y-108020449D01*
X146304898Y-108080250D01*
X146340860Y-108134070D01*
X146386630Y-108179840D01*
X146440450Y-108215802D01*
X146500251Y-108240572D01*
X146563736Y-108253200D01*
X146628464Y-108253200D01*
X146691949Y-108240572D01*
X146751750Y-108215802D01*
X146805570Y-108179840D01*
X146851340Y-108134070D01*
X146887302Y-108080250D01*
X146909756Y-108026041D01*
X146915128Y-108053049D01*
X146939898Y-108112850D01*
X146975860Y-108166670D01*
X147021630Y-108212440D01*
X147075450Y-108248402D01*
X147135251Y-108273172D01*
X147198736Y-108285800D01*
X147263464Y-108285800D01*
X147326949Y-108273172D01*
X147386750Y-108248402D01*
X147440570Y-108212440D01*
X147486340Y-108166670D01*
X147522302Y-108112850D01*
X147547072Y-108053049D01*
X147559700Y-107989564D01*
X147559700Y-107924836D01*
X147547072Y-107861351D01*
X147522302Y-107801550D01*
X147486340Y-107747730D01*
X147466986Y-107728376D01*
X147491550Y-107718202D01*
X147545370Y-107682240D01*
X147561267Y-107666343D01*
X147574898Y-107699250D01*
X147610860Y-107753070D01*
X147656630Y-107798840D01*
X147710450Y-107834802D01*
X147770251Y-107859572D01*
X147833736Y-107872200D01*
X147898464Y-107872200D01*
X147961949Y-107859572D01*
X148021750Y-107834802D01*
X148075570Y-107798840D01*
X148121340Y-107753070D01*
X148157302Y-107699250D01*
X148172500Y-107662558D01*
X148172500Y-107702964D01*
X148185128Y-107766449D01*
X148209898Y-107826250D01*
X148245860Y-107880070D01*
X148291630Y-107925840D01*
X148345450Y-107961802D01*
X148405251Y-107986572D01*
X148468736Y-107999200D01*
X148533464Y-107999200D01*
X148596949Y-107986572D01*
X148656750Y-107961802D01*
X148710570Y-107925840D01*
X148756340Y-107880070D01*
X148792302Y-107826250D01*
X148817072Y-107766449D01*
X148829700Y-107702964D01*
X148829700Y-107638236D01*
X149188500Y-107638236D01*
X149188500Y-107702964D01*
X149201128Y-107766449D01*
X149225898Y-107826250D01*
X149261860Y-107880070D01*
X149307630Y-107925840D01*
X149361450Y-107961802D01*
X149421251Y-107986572D01*
X149484736Y-107999200D01*
X149549464Y-107999200D01*
X149612949Y-107986572D01*
X149672750Y-107961802D01*
X149726570Y-107925840D01*
X149744100Y-107908310D01*
X149761630Y-107925840D01*
X149815450Y-107961802D01*
X149875251Y-107986572D01*
X149938736Y-107999200D01*
X150003464Y-107999200D01*
X150066949Y-107986572D01*
X150126750Y-107961802D01*
X150180570Y-107925840D01*
X150226340Y-107880070D01*
X150262302Y-107826250D01*
X150287072Y-107766449D01*
X150299700Y-107702964D01*
X150299700Y-107638236D01*
X150287072Y-107574751D01*
X150262302Y-107514950D01*
X150226340Y-107461130D01*
X150180570Y-107415360D01*
X150126750Y-107379398D01*
X150066949Y-107354628D01*
X150003464Y-107342000D01*
X149938736Y-107342000D01*
X149875251Y-107354628D01*
X149815450Y-107379398D01*
X149761630Y-107415360D01*
X149744100Y-107432890D01*
X149726570Y-107415360D01*
X149672750Y-107379398D01*
X149612949Y-107354628D01*
X149549464Y-107342000D01*
X149484736Y-107342000D01*
X149421251Y-107354628D01*
X149361450Y-107379398D01*
X149307630Y-107415360D01*
X149261860Y-107461130D01*
X149225898Y-107514950D01*
X149201128Y-107574751D01*
X149188500Y-107638236D01*
X148829700Y-107638236D01*
X148817072Y-107574751D01*
X148792302Y-107514950D01*
X148756340Y-107461130D01*
X148710570Y-107415360D01*
X148656750Y-107379398D01*
X148596949Y-107354628D01*
X148533464Y-107342000D01*
X148468736Y-107342000D01*
X148405251Y-107354628D01*
X148345450Y-107379398D01*
X148291630Y-107415360D01*
X148245860Y-107461130D01*
X148209898Y-107514950D01*
X148194700Y-107551642D01*
X148194700Y-107511236D01*
X148182072Y-107447751D01*
X148157302Y-107387950D01*
X148121340Y-107334130D01*
X148075570Y-107288360D01*
X148021750Y-107252398D01*
X147961949Y-107227628D01*
X147898464Y-107215000D01*
X147833736Y-107215000D01*
X147770251Y-107227628D01*
X147710450Y-107252398D01*
X147656630Y-107288360D01*
X147640733Y-107304257D01*
X147627102Y-107271350D01*
X147591140Y-107217530D01*
X147545370Y-107171760D01*
X147491550Y-107135798D01*
X147431749Y-107111028D01*
X147368264Y-107098400D01*
X147303536Y-107098400D01*
X147240051Y-107111028D01*
X147180250Y-107135798D01*
X147126430Y-107171760D01*
X147080660Y-107217530D01*
X147044698Y-107271350D01*
X147019928Y-107331151D01*
X147007300Y-107394636D01*
X147007300Y-107459364D01*
X147019928Y-107522849D01*
X147044698Y-107582650D01*
X147080660Y-107636470D01*
X147100014Y-107655824D01*
X147075450Y-107665998D01*
X147021630Y-107701960D01*
X146975860Y-107747730D01*
X146939898Y-107801550D01*
X146917444Y-107855759D01*
X146912072Y-107828751D01*
X146887302Y-107768950D01*
X146851340Y-107715130D01*
X146805570Y-107669360D01*
X146751750Y-107633398D01*
X146691949Y-107608628D01*
X146628464Y-107596000D01*
X146563736Y-107596000D01*
X146538725Y-107600975D01*
X146543700Y-107575964D01*
X146543700Y-107511236D01*
X146531072Y-107447751D01*
X146506302Y-107387950D01*
X146470340Y-107334130D01*
X146424570Y-107288360D01*
X146370750Y-107252398D01*
X146310949Y-107227628D01*
X146247464Y-107215000D01*
X146182736Y-107215000D01*
X146119251Y-107227628D01*
X146059450Y-107252398D01*
X146005630Y-107288360D01*
X145959860Y-107334130D01*
X145923898Y-107387950D01*
X145899128Y-107447751D01*
X145886500Y-107511236D01*
X141541500Y-107511236D01*
X141541500Y-107478556D01*
X141516121Y-107350969D01*
X141466339Y-107230783D01*
X141394066Y-107122620D01*
X141302080Y-107030634D01*
X141193917Y-106958361D01*
X141073731Y-106908579D01*
X140946144Y-106883200D01*
X140816056Y-106883200D01*
X140688469Y-106908579D01*
X140568283Y-106958361D01*
X140460120Y-107030634D01*
X140368134Y-107122620D01*
X140295861Y-107230783D01*
X140294718Y-107233541D01*
X140221570Y-107056944D01*
X140109134Y-106888671D01*
X139966029Y-106745566D01*
X139865100Y-106678128D01*
X139865100Y-105869072D01*
X139966029Y-105801634D01*
X140109134Y-105658529D01*
X140221570Y-105490256D01*
X140294718Y-105313659D01*
X140295861Y-105316417D01*
X140368134Y-105424580D01*
X140460120Y-105516566D01*
X140568283Y-105588839D01*
X140688469Y-105638621D01*
X140816056Y-105664000D01*
X140946144Y-105664000D01*
X141073731Y-105638621D01*
X141151916Y-105606236D01*
X143473500Y-105606236D01*
X143473500Y-105670964D01*
X143486128Y-105734449D01*
X143510898Y-105794250D01*
X143546860Y-105848070D01*
X143592630Y-105893840D01*
X143646450Y-105929802D01*
X143706251Y-105954572D01*
X143769736Y-105967200D01*
X143834464Y-105967200D01*
X143897949Y-105954572D01*
X143957750Y-105929802D01*
X144011570Y-105893840D01*
X144057340Y-105848070D01*
X144093302Y-105794250D01*
X144118072Y-105734449D01*
X144130700Y-105670964D01*
X144130700Y-105606236D01*
X144118072Y-105542751D01*
X144093302Y-105482950D01*
X144057340Y-105429130D01*
X144011570Y-105383360D01*
X143964991Y-105352236D01*
X144997500Y-105352236D01*
X144997500Y-105416964D01*
X145010128Y-105480449D01*
X145034898Y-105540250D01*
X145070860Y-105594070D01*
X145116630Y-105639840D01*
X145170450Y-105675802D01*
X145230251Y-105700572D01*
X145293736Y-105713200D01*
X145358464Y-105713200D01*
X145421949Y-105700572D01*
X145481750Y-105675802D01*
X145535570Y-105639840D01*
X145581340Y-105594070D01*
X145617302Y-105540250D01*
X145642072Y-105480449D01*
X145654700Y-105416964D01*
X145654700Y-105352236D01*
X145642072Y-105288751D01*
X145617302Y-105228950D01*
X145581340Y-105175130D01*
X145535570Y-105129360D01*
X145481750Y-105093398D01*
X145421949Y-105068628D01*
X145358464Y-105056000D01*
X145293736Y-105056000D01*
X145230251Y-105068628D01*
X145170450Y-105093398D01*
X145116630Y-105129360D01*
X145070860Y-105175130D01*
X145034898Y-105228950D01*
X145010128Y-105288751D01*
X144997500Y-105352236D01*
X143964991Y-105352236D01*
X143957750Y-105347398D01*
X143897949Y-105322628D01*
X143834464Y-105310000D01*
X143769736Y-105310000D01*
X143706251Y-105322628D01*
X143646450Y-105347398D01*
X143592630Y-105383360D01*
X143546860Y-105429130D01*
X143510898Y-105482950D01*
X143486128Y-105542751D01*
X143473500Y-105606236D01*
X141151916Y-105606236D01*
X141193917Y-105588839D01*
X141302080Y-105516566D01*
X141394066Y-105424580D01*
X141466339Y-105316417D01*
X141516121Y-105196231D01*
X141541500Y-105068644D01*
X141541500Y-104938556D01*
X141516121Y-104810969D01*
X141466339Y-104690783D01*
X141394066Y-104582620D01*
X141302080Y-104490634D01*
X141193917Y-104418361D01*
X141073731Y-104368579D01*
X140946144Y-104343200D01*
X140816056Y-104343200D01*
X140688469Y-104368579D01*
X140568283Y-104418361D01*
X140460120Y-104490634D01*
X140368134Y-104582620D01*
X140295861Y-104690783D01*
X140294718Y-104693541D01*
X140221570Y-104516944D01*
X140109134Y-104348671D01*
X139966029Y-104205566D01*
X139865100Y-104138128D01*
X139865100Y-104082236D01*
X146521500Y-104082236D01*
X146521500Y-104146964D01*
X146534128Y-104210449D01*
X146558898Y-104270250D01*
X146594860Y-104324070D01*
X146640630Y-104369840D01*
X146694450Y-104405802D01*
X146754251Y-104430572D01*
X146817736Y-104443200D01*
X146882464Y-104443200D01*
X146945949Y-104430572D01*
X147005750Y-104405802D01*
X147059570Y-104369840D01*
X147098910Y-104330500D01*
X148855618Y-104330500D01*
X148853450Y-104331398D01*
X148799630Y-104367360D01*
X148753860Y-104413130D01*
X148717898Y-104466950D01*
X148693128Y-104526751D01*
X148680500Y-104590236D01*
X148680500Y-104654964D01*
X148693128Y-104718449D01*
X148717898Y-104778250D01*
X148753860Y-104832070D01*
X148799630Y-104877840D01*
X148853450Y-104913802D01*
X148913251Y-104938572D01*
X148976736Y-104951200D01*
X149041464Y-104951200D01*
X149104949Y-104938572D01*
X149164750Y-104913802D01*
X149218570Y-104877840D01*
X149264340Y-104832070D01*
X149300302Y-104778250D01*
X149325072Y-104718449D01*
X149325313Y-104717236D01*
X150712500Y-104717236D01*
X150712500Y-104781964D01*
X150725128Y-104845449D01*
X150749898Y-104905250D01*
X150785860Y-104959070D01*
X150831630Y-105004840D01*
X150885450Y-105040802D01*
X150945251Y-105065572D01*
X151008736Y-105078200D01*
X151073464Y-105078200D01*
X151136949Y-105065572D01*
X151196750Y-105040802D01*
X151250570Y-105004840D01*
X151296340Y-104959070D01*
X151332302Y-104905250D01*
X151357072Y-104845449D01*
X151369700Y-104781964D01*
X151369700Y-104717236D01*
X151357072Y-104653751D01*
X151332302Y-104593950D01*
X151296340Y-104540130D01*
X151250570Y-104494360D01*
X151203991Y-104463236D01*
X153252500Y-104463236D01*
X153252500Y-104527964D01*
X153265128Y-104591449D01*
X153289898Y-104651250D01*
X153325860Y-104705070D01*
X153371630Y-104750840D01*
X153425450Y-104786802D01*
X153485251Y-104811572D01*
X153548736Y-104824200D01*
X153613464Y-104824200D01*
X153676949Y-104811572D01*
X153736750Y-104786802D01*
X153790570Y-104750840D01*
X153836340Y-104705070D01*
X153872302Y-104651250D01*
X153897072Y-104591449D01*
X153909700Y-104527964D01*
X153909700Y-104463236D01*
X153897072Y-104399751D01*
X153872302Y-104339950D01*
X153836340Y-104286130D01*
X153790570Y-104240360D01*
X153736750Y-104204398D01*
X153676949Y-104179628D01*
X153613464Y-104167000D01*
X153548736Y-104167000D01*
X153485251Y-104179628D01*
X153425450Y-104204398D01*
X153371630Y-104240360D01*
X153325860Y-104286130D01*
X153289898Y-104339950D01*
X153265128Y-104399751D01*
X153252500Y-104463236D01*
X151203991Y-104463236D01*
X151196750Y-104458398D01*
X151136949Y-104433628D01*
X151073464Y-104421000D01*
X151008736Y-104421000D01*
X150945251Y-104433628D01*
X150885450Y-104458398D01*
X150831630Y-104494360D01*
X150785860Y-104540130D01*
X150749898Y-104593950D01*
X150725128Y-104653751D01*
X150712500Y-104717236D01*
X149325313Y-104717236D01*
X149337700Y-104654964D01*
X149337700Y-104590236D01*
X149325072Y-104526751D01*
X149300302Y-104466950D01*
X149264340Y-104413130D01*
X149218570Y-104367360D01*
X149164750Y-104331398D01*
X149162582Y-104330500D01*
X150284290Y-104330500D01*
X150323630Y-104369840D01*
X150377450Y-104405802D01*
X150437251Y-104430572D01*
X150500736Y-104443200D01*
X150565464Y-104443200D01*
X150628949Y-104430572D01*
X150688750Y-104405802D01*
X150742570Y-104369840D01*
X150788340Y-104324070D01*
X150824302Y-104270250D01*
X150849072Y-104210449D01*
X150861700Y-104146964D01*
X150861700Y-104082236D01*
X150849072Y-104018751D01*
X150824302Y-103958950D01*
X150788340Y-103905130D01*
X150742570Y-103859360D01*
X150688750Y-103823398D01*
X150628949Y-103798628D01*
X150565464Y-103786000D01*
X150500736Y-103786000D01*
X150437251Y-103798628D01*
X150377450Y-103823398D01*
X150323630Y-103859360D01*
X150284290Y-103898700D01*
X147098910Y-103898700D01*
X147059570Y-103859360D01*
X147005750Y-103823398D01*
X146945949Y-103798628D01*
X146882464Y-103786000D01*
X146817736Y-103786000D01*
X146754251Y-103798628D01*
X146694450Y-103823398D01*
X146640630Y-103859360D01*
X146594860Y-103905130D01*
X146558898Y-103958950D01*
X146534128Y-104018751D01*
X146521500Y-104082236D01*
X139865100Y-104082236D01*
X139865100Y-103329072D01*
X139878324Y-103320236D01*
X143473500Y-103320236D01*
X143473500Y-103384964D01*
X143486128Y-103448449D01*
X143510898Y-103508250D01*
X143546860Y-103562070D01*
X143592630Y-103607840D01*
X143646450Y-103643802D01*
X143706251Y-103668572D01*
X143769736Y-103681200D01*
X143834464Y-103681200D01*
X143897949Y-103668572D01*
X143957750Y-103643802D01*
X144011570Y-103607840D01*
X144057340Y-103562070D01*
X144093302Y-103508250D01*
X144118072Y-103448449D01*
X144118313Y-103447236D01*
X145378500Y-103447236D01*
X145378500Y-103511964D01*
X145391128Y-103575449D01*
X145415898Y-103635250D01*
X145451860Y-103689070D01*
X145497630Y-103734840D01*
X145551450Y-103770802D01*
X145611251Y-103795572D01*
X145674736Y-103808200D01*
X145739464Y-103808200D01*
X145802949Y-103795572D01*
X145862750Y-103770802D01*
X145916570Y-103734840D01*
X145962340Y-103689070D01*
X145998302Y-103635250D01*
X146023072Y-103575449D01*
X146035700Y-103511964D01*
X146035700Y-103447236D01*
X146023072Y-103383751D01*
X145998302Y-103323950D01*
X145962340Y-103270130D01*
X145916570Y-103224360D01*
X145862750Y-103188398D01*
X145802949Y-103163628D01*
X145739464Y-103151000D01*
X145674736Y-103151000D01*
X145611251Y-103163628D01*
X145551450Y-103188398D01*
X145497630Y-103224360D01*
X145451860Y-103270130D01*
X145415898Y-103323950D01*
X145391128Y-103383751D01*
X145378500Y-103447236D01*
X144118313Y-103447236D01*
X144130700Y-103384964D01*
X144130700Y-103320236D01*
X144118072Y-103256751D01*
X144093302Y-103196950D01*
X144057340Y-103143130D01*
X144011570Y-103097360D01*
X143957750Y-103061398D01*
X143897949Y-103036628D01*
X143834464Y-103024000D01*
X143769736Y-103024000D01*
X143706251Y-103036628D01*
X143646450Y-103061398D01*
X143592630Y-103097360D01*
X143546860Y-103143130D01*
X143510898Y-103196950D01*
X143486128Y-103256751D01*
X143473500Y-103320236D01*
X139878324Y-103320236D01*
X139966029Y-103261634D01*
X140109134Y-103118529D01*
X140221570Y-102950256D01*
X140294718Y-102773659D01*
X140295861Y-102776417D01*
X140368134Y-102884580D01*
X140460120Y-102976566D01*
X140568283Y-103048839D01*
X140688469Y-103098621D01*
X140816056Y-103124000D01*
X140946144Y-103124000D01*
X141073731Y-103098621D01*
X141193917Y-103048839D01*
X141302080Y-102976566D01*
X141394066Y-102884580D01*
X141442405Y-102812236D01*
X146140500Y-102812236D01*
X146140500Y-102876964D01*
X146153128Y-102940449D01*
X146177898Y-103000250D01*
X146213860Y-103054070D01*
X146259630Y-103099840D01*
X146313450Y-103135802D01*
X146373251Y-103160572D01*
X146436736Y-103173200D01*
X146501464Y-103173200D01*
X146564949Y-103160572D01*
X146624750Y-103135802D01*
X146678570Y-103099840D01*
X146724340Y-103054070D01*
X146760302Y-103000250D01*
X146785072Y-102940449D01*
X146797700Y-102876964D01*
X146797700Y-102812236D01*
X146902500Y-102812236D01*
X146902500Y-102876964D01*
X146915128Y-102940449D01*
X146939898Y-103000250D01*
X146975860Y-103054070D01*
X147021630Y-103099840D01*
X147075450Y-103135802D01*
X147135251Y-103160572D01*
X147198736Y-103173200D01*
X147263464Y-103173200D01*
X147326949Y-103160572D01*
X147386750Y-103135802D01*
X147440570Y-103099840D01*
X147479910Y-103060500D01*
X150284290Y-103060500D01*
X150323630Y-103099840D01*
X150377450Y-103135802D01*
X150437251Y-103160572D01*
X150500736Y-103173200D01*
X150565464Y-103173200D01*
X150628949Y-103160572D01*
X150688750Y-103135802D01*
X150742570Y-103099840D01*
X150788340Y-103054070D01*
X150824302Y-103000250D01*
X150849072Y-102940449D01*
X150861700Y-102876964D01*
X150861700Y-102812236D01*
X150849072Y-102748751D01*
X150824302Y-102688950D01*
X150788340Y-102635130D01*
X150742570Y-102589360D01*
X150688750Y-102553398D01*
X150628949Y-102528628D01*
X150565464Y-102516000D01*
X150500736Y-102516000D01*
X150437251Y-102528628D01*
X150377450Y-102553398D01*
X150323630Y-102589360D01*
X150284290Y-102628700D01*
X147479910Y-102628700D01*
X147440570Y-102589360D01*
X147386750Y-102553398D01*
X147326949Y-102528628D01*
X147263464Y-102516000D01*
X147198736Y-102516000D01*
X147135251Y-102528628D01*
X147075450Y-102553398D01*
X147021630Y-102589360D01*
X146975860Y-102635130D01*
X146939898Y-102688950D01*
X146915128Y-102748751D01*
X146902500Y-102812236D01*
X146797700Y-102812236D01*
X146785072Y-102748751D01*
X146760302Y-102688950D01*
X146724340Y-102635130D01*
X146678570Y-102589360D01*
X146624750Y-102553398D01*
X146564949Y-102528628D01*
X146501464Y-102516000D01*
X146436736Y-102516000D01*
X146373251Y-102528628D01*
X146313450Y-102553398D01*
X146259630Y-102589360D01*
X146213860Y-102635130D01*
X146177898Y-102688950D01*
X146153128Y-102748751D01*
X146140500Y-102812236D01*
X141442405Y-102812236D01*
X141466339Y-102776417D01*
X141516121Y-102656231D01*
X141541500Y-102528644D01*
X141541500Y-102398556D01*
X141516121Y-102270969D01*
X141466339Y-102150783D01*
X141394066Y-102042620D01*
X141302080Y-101950634D01*
X141193917Y-101878361D01*
X141073731Y-101828579D01*
X140946144Y-101803200D01*
X140816056Y-101803200D01*
X140688469Y-101828579D01*
X140568283Y-101878361D01*
X140460120Y-101950634D01*
X140368134Y-102042620D01*
X140295861Y-102150783D01*
X140294718Y-102153541D01*
X140221570Y-101976944D01*
X140109134Y-101808671D01*
X139966029Y-101665566D01*
X139865100Y-101598128D01*
X139865100Y-101542236D01*
X146140500Y-101542236D01*
X146140500Y-101606964D01*
X146153128Y-101670449D01*
X146177898Y-101730250D01*
X146213860Y-101784070D01*
X146259630Y-101829840D01*
X146313450Y-101865802D01*
X146373251Y-101890572D01*
X146436736Y-101903200D01*
X146501464Y-101903200D01*
X146564949Y-101890572D01*
X146624750Y-101865802D01*
X146678570Y-101829840D01*
X146724340Y-101784070D01*
X146760302Y-101730250D01*
X146785072Y-101670449D01*
X146797700Y-101606964D01*
X146797700Y-101542236D01*
X147283500Y-101542236D01*
X147283500Y-101606964D01*
X147296128Y-101670449D01*
X147320898Y-101730250D01*
X147356860Y-101784070D01*
X147402630Y-101829840D01*
X147456450Y-101865802D01*
X147516251Y-101890572D01*
X147579736Y-101903200D01*
X147644464Y-101903200D01*
X147707949Y-101890572D01*
X147767750Y-101865802D01*
X147821570Y-101829840D01*
X147860910Y-101790500D01*
X150284290Y-101790500D01*
X150323630Y-101829840D01*
X150377450Y-101865802D01*
X150437251Y-101890572D01*
X150500736Y-101903200D01*
X150565464Y-101903200D01*
X150628949Y-101890572D01*
X150688750Y-101865802D01*
X150742570Y-101829840D01*
X150776174Y-101796236D01*
X152617500Y-101796236D01*
X152617500Y-101860964D01*
X152630128Y-101924449D01*
X152654898Y-101984250D01*
X152690860Y-102038070D01*
X152736630Y-102083840D01*
X152790450Y-102119802D01*
X152850251Y-102144572D01*
X152913736Y-102157200D01*
X152978464Y-102157200D01*
X153041949Y-102144572D01*
X153101750Y-102119802D01*
X153155570Y-102083840D01*
X153201340Y-102038070D01*
X153237302Y-101984250D01*
X153262072Y-101924449D01*
X153274700Y-101860964D01*
X153274700Y-101796236D01*
X153262072Y-101732751D01*
X153237302Y-101672950D01*
X153201340Y-101619130D01*
X153155570Y-101573360D01*
X153101750Y-101537398D01*
X153041949Y-101512628D01*
X152978464Y-101500000D01*
X152913736Y-101500000D01*
X152850251Y-101512628D01*
X152790450Y-101537398D01*
X152736630Y-101573360D01*
X152690860Y-101619130D01*
X152654898Y-101672950D01*
X152630128Y-101732751D01*
X152617500Y-101796236D01*
X150776174Y-101796236D01*
X150788340Y-101784070D01*
X150824302Y-101730250D01*
X150849072Y-101670449D01*
X150861700Y-101606964D01*
X150861700Y-101542236D01*
X150849072Y-101478751D01*
X150824302Y-101418950D01*
X150788340Y-101365130D01*
X150742570Y-101319360D01*
X150688750Y-101283398D01*
X150628949Y-101258628D01*
X150565464Y-101246000D01*
X150500736Y-101246000D01*
X150437251Y-101258628D01*
X150377450Y-101283398D01*
X150323630Y-101319360D01*
X150284290Y-101358700D01*
X147860910Y-101358700D01*
X147821570Y-101319360D01*
X147767750Y-101283398D01*
X147707949Y-101258628D01*
X147644464Y-101246000D01*
X147579736Y-101246000D01*
X147516251Y-101258628D01*
X147456450Y-101283398D01*
X147402630Y-101319360D01*
X147356860Y-101365130D01*
X147320898Y-101418950D01*
X147296128Y-101478751D01*
X147283500Y-101542236D01*
X146797700Y-101542236D01*
X146785072Y-101478751D01*
X146760302Y-101418950D01*
X146724340Y-101365130D01*
X146678570Y-101319360D01*
X146624750Y-101283398D01*
X146564949Y-101258628D01*
X146501464Y-101246000D01*
X146436736Y-101246000D01*
X146373251Y-101258628D01*
X146313450Y-101283398D01*
X146259630Y-101319360D01*
X146213860Y-101365130D01*
X146177898Y-101418950D01*
X146153128Y-101478751D01*
X146140500Y-101542236D01*
X139865100Y-101542236D01*
X139865100Y-100789072D01*
X139966029Y-100721634D01*
X140109134Y-100578529D01*
X140221570Y-100410256D01*
X140294718Y-100233659D01*
X140295861Y-100236417D01*
X140368134Y-100344580D01*
X140460120Y-100436566D01*
X140568283Y-100508839D01*
X140688469Y-100558621D01*
X140816056Y-100584000D01*
X140946144Y-100584000D01*
X141073731Y-100558621D01*
X141193917Y-100508839D01*
X141302080Y-100436566D01*
X141325382Y-100413264D01*
X155702713Y-100413264D01*
X155758380Y-100508587D01*
X155879475Y-100568109D01*
X156009855Y-100602864D01*
X156144511Y-100611514D01*
X156278267Y-100593729D01*
X156405983Y-100550191D01*
X156483820Y-100508587D01*
X156539487Y-100413264D01*
X156121100Y-99994876D01*
X155702713Y-100413264D01*
X141325382Y-100413264D01*
X141394066Y-100344580D01*
X141466339Y-100236417D01*
X141516121Y-100116231D01*
X141541500Y-99988644D01*
X141541500Y-99947011D01*
X155433186Y-99947011D01*
X155450971Y-100080767D01*
X155494509Y-100208483D01*
X155536113Y-100286320D01*
X155631436Y-100341987D01*
X156049824Y-99923600D01*
X155631436Y-99505213D01*
X155536113Y-99560880D01*
X155476591Y-99681975D01*
X155441836Y-99812355D01*
X155433186Y-99947011D01*
X141541500Y-99947011D01*
X141541500Y-99858556D01*
X141516121Y-99730969D01*
X141466339Y-99610783D01*
X141394066Y-99502620D01*
X141325382Y-99433936D01*
X155702713Y-99433936D01*
X156121100Y-99852324D01*
X156539487Y-99433936D01*
X156483820Y-99338613D01*
X156362725Y-99279091D01*
X156232345Y-99244336D01*
X156097689Y-99235686D01*
X155963933Y-99253471D01*
X155836217Y-99297009D01*
X155758380Y-99338613D01*
X155702713Y-99433936D01*
X141325382Y-99433936D01*
X141302080Y-99410634D01*
X141193917Y-99338361D01*
X141073731Y-99288579D01*
X140946144Y-99263200D01*
X140816056Y-99263200D01*
X140688469Y-99288579D01*
X140568283Y-99338361D01*
X140460120Y-99410634D01*
X140368134Y-99502620D01*
X140295861Y-99610783D01*
X140294718Y-99613541D01*
X140221570Y-99436944D01*
X140109134Y-99268671D01*
X139966029Y-99125566D01*
X139865100Y-99058128D01*
X139865100Y-99002236D01*
X152617500Y-99002236D01*
X152617500Y-99066964D01*
X152630128Y-99130449D01*
X152654898Y-99190250D01*
X152690860Y-99244070D01*
X152736630Y-99289840D01*
X152790450Y-99325802D01*
X152850251Y-99350572D01*
X152913736Y-99363200D01*
X152978464Y-99363200D01*
X153041949Y-99350572D01*
X153101750Y-99325802D01*
X153155570Y-99289840D01*
X153201340Y-99244070D01*
X153237302Y-99190250D01*
X153262072Y-99130449D01*
X153274700Y-99066964D01*
X153274700Y-99002236D01*
X153262072Y-98938751D01*
X153237302Y-98878950D01*
X153201340Y-98825130D01*
X153155570Y-98779360D01*
X153101750Y-98743398D01*
X153041949Y-98718628D01*
X152978464Y-98706000D01*
X152913736Y-98706000D01*
X152850251Y-98718628D01*
X152790450Y-98743398D01*
X152736630Y-98779360D01*
X152690860Y-98825130D01*
X152654898Y-98878950D01*
X152630128Y-98938751D01*
X152617500Y-99002236D01*
X139865100Y-99002236D01*
X139865100Y-98249072D01*
X139878324Y-98240236D01*
X151855500Y-98240236D01*
X151855500Y-98304964D01*
X151868128Y-98368449D01*
X151892898Y-98428250D01*
X151928860Y-98482070D01*
X151974630Y-98527840D01*
X152028450Y-98563802D01*
X152088251Y-98588572D01*
X152151736Y-98601200D01*
X152216464Y-98601200D01*
X152279949Y-98588572D01*
X152339750Y-98563802D01*
X152393570Y-98527840D01*
X152439340Y-98482070D01*
X152475302Y-98428250D01*
X152500072Y-98368449D01*
X152512700Y-98304964D01*
X152512700Y-98240236D01*
X152500072Y-98176751D01*
X152475302Y-98116950D01*
X152472821Y-98113236D01*
X152871500Y-98113236D01*
X152871500Y-98177964D01*
X152884128Y-98241449D01*
X152908898Y-98301250D01*
X152944860Y-98355070D01*
X152990630Y-98400840D01*
X153044450Y-98436802D01*
X153104251Y-98461572D01*
X153167736Y-98474200D01*
X153232464Y-98474200D01*
X153295949Y-98461572D01*
X153355750Y-98436802D01*
X153409570Y-98400840D01*
X153455340Y-98355070D01*
X153491302Y-98301250D01*
X153516072Y-98241449D01*
X153528700Y-98177964D01*
X153528700Y-98113236D01*
X153516072Y-98049751D01*
X153491302Y-97989950D01*
X153460008Y-97943116D01*
X153485251Y-97953572D01*
X153548736Y-97966200D01*
X153613464Y-97966200D01*
X153676949Y-97953572D01*
X153736750Y-97928802D01*
X153790570Y-97892840D01*
X153836340Y-97847070D01*
X153872302Y-97793250D01*
X153897072Y-97733449D01*
X153909700Y-97669964D01*
X153909700Y-97605236D01*
X153897072Y-97541751D01*
X153872302Y-97481950D01*
X153836340Y-97428130D01*
X153790570Y-97382360D01*
X153736750Y-97346398D01*
X153676949Y-97321628D01*
X153613464Y-97309000D01*
X153548736Y-97309000D01*
X153485251Y-97321628D01*
X153425450Y-97346398D01*
X153371630Y-97382360D01*
X153325860Y-97428130D01*
X153289898Y-97481950D01*
X153265128Y-97541751D01*
X153252500Y-97605236D01*
X153252500Y-97669964D01*
X153265128Y-97733449D01*
X153289898Y-97793250D01*
X153321192Y-97840084D01*
X153295949Y-97829628D01*
X153232464Y-97817000D01*
X153167736Y-97817000D01*
X153104251Y-97829628D01*
X153044450Y-97854398D01*
X152990630Y-97890360D01*
X152944860Y-97936130D01*
X152908898Y-97989950D01*
X152884128Y-98049751D01*
X152871500Y-98113236D01*
X152472821Y-98113236D01*
X152439340Y-98063130D01*
X152393570Y-98017360D01*
X152339750Y-97981398D01*
X152279949Y-97956628D01*
X152216464Y-97944000D01*
X152151736Y-97944000D01*
X152088251Y-97956628D01*
X152028450Y-97981398D01*
X151974630Y-98017360D01*
X151928860Y-98063130D01*
X151892898Y-98116950D01*
X151868128Y-98176751D01*
X151855500Y-98240236D01*
X139878324Y-98240236D01*
X139966029Y-98181634D01*
X140109134Y-98038529D01*
X140221570Y-97870256D01*
X140294718Y-97693659D01*
X140295861Y-97696417D01*
X140368134Y-97804580D01*
X140460120Y-97896566D01*
X140568283Y-97968839D01*
X140688469Y-98018621D01*
X140816056Y-98044000D01*
X140946144Y-98044000D01*
X141073731Y-98018621D01*
X141193917Y-97968839D01*
X141302080Y-97896566D01*
X141394066Y-97804580D01*
X141466339Y-97696417D01*
X141516121Y-97576231D01*
X141541500Y-97448644D01*
X141541500Y-97318556D01*
X141516121Y-97190969D01*
X141466339Y-97070783D01*
X141394066Y-96962620D01*
X141302080Y-96870634D01*
X141193917Y-96798361D01*
X141073731Y-96748579D01*
X140946144Y-96723200D01*
X140816056Y-96723200D01*
X140688469Y-96748579D01*
X140568283Y-96798361D01*
X140460120Y-96870634D01*
X140368134Y-96962620D01*
X140295861Y-97070783D01*
X140294718Y-97073541D01*
X140221570Y-96896944D01*
X140109134Y-96728671D01*
X139966029Y-96585566D01*
X139865100Y-96518128D01*
X139865100Y-95709072D01*
X139966029Y-95641634D01*
X140109134Y-95498529D01*
X140221570Y-95330256D01*
X140294718Y-95153659D01*
X140295861Y-95156417D01*
X140368134Y-95264580D01*
X140460120Y-95356566D01*
X140568283Y-95428839D01*
X140688469Y-95478621D01*
X140816056Y-95504000D01*
X140946144Y-95504000D01*
X141073731Y-95478621D01*
X141193917Y-95428839D01*
X141302080Y-95356566D01*
X141394066Y-95264580D01*
X141466339Y-95156417D01*
X141516121Y-95036231D01*
X141541500Y-94908644D01*
X141541500Y-94778556D01*
X141516121Y-94650969D01*
X141466339Y-94530783D01*
X141394066Y-94422620D01*
X141302080Y-94330634D01*
X141193917Y-94258361D01*
X141073731Y-94208579D01*
X140946144Y-94183200D01*
X140816056Y-94183200D01*
X140688469Y-94208579D01*
X140568283Y-94258361D01*
X140460120Y-94330634D01*
X140368134Y-94422620D01*
X140295861Y-94530783D01*
X140294718Y-94533541D01*
X140221570Y-94356944D01*
X140109134Y-94188671D01*
X139966029Y-94045566D01*
X139865100Y-93978128D01*
X139865100Y-93378600D01*
X143730700Y-93378600D01*
X143730700Y-94500814D01*
X143737247Y-94567285D01*
X143763115Y-94652562D01*
X143805124Y-94731155D01*
X143861658Y-94800042D01*
X143930544Y-94856576D01*
X144009137Y-94898585D01*
X144094414Y-94924453D01*
X144183100Y-94933188D01*
X144271785Y-94924453D01*
X144357062Y-94898585D01*
X144435655Y-94856576D01*
X144504542Y-94800042D01*
X144561076Y-94731156D01*
X144603085Y-94652563D01*
X144628953Y-94567286D01*
X144635500Y-94500815D01*
X144635500Y-93356385D01*
X144635027Y-93351580D01*
X145133700Y-93351580D01*
X145133700Y-93445620D01*
X145152046Y-93537852D01*
X145188034Y-93624734D01*
X145240279Y-93702925D01*
X145306775Y-93769421D01*
X145384966Y-93821666D01*
X145471848Y-93857654D01*
X145564080Y-93876000D01*
X145658120Y-93876000D01*
X145750352Y-93857654D01*
X145837234Y-93821666D01*
X145915425Y-93769421D01*
X145981921Y-93702925D01*
X146034166Y-93624734D01*
X146070154Y-93537852D01*
X146088500Y-93445620D01*
X146088500Y-93351580D01*
X146070154Y-93259348D01*
X146034166Y-93172466D01*
X145981921Y-93094275D01*
X145915425Y-93027779D01*
X145837234Y-92975534D01*
X145750352Y-92939546D01*
X145658120Y-92921200D01*
X145564080Y-92921200D01*
X145471848Y-92939546D01*
X145384966Y-92975534D01*
X145306775Y-93027779D01*
X145240279Y-93094275D01*
X145188034Y-93172466D01*
X145152046Y-93259348D01*
X145133700Y-93351580D01*
X144635027Y-93351580D01*
X144628953Y-93289914D01*
X144603085Y-93204637D01*
X144561076Y-93126044D01*
X144504542Y-93057158D01*
X144435656Y-93000624D01*
X144357063Y-92958615D01*
X144271786Y-92932747D01*
X144183100Y-92924012D01*
X144094415Y-92932747D01*
X144009138Y-92958615D01*
X143930545Y-93000624D01*
X143861659Y-93057158D01*
X143805125Y-93126044D01*
X143763116Y-93204637D01*
X143737248Y-93289914D01*
X143730701Y-93356385D01*
X143730701Y-93378399D01*
X143730700Y-93378600D01*
X139865100Y-93378600D01*
X139865100Y-93169072D01*
X139966029Y-93101634D01*
X140109134Y-92958529D01*
X140221570Y-92790256D01*
X140294718Y-92613659D01*
X140295861Y-92616417D01*
X140368134Y-92724580D01*
X140460120Y-92816566D01*
X140568283Y-92888839D01*
X140688469Y-92938621D01*
X140816056Y-92964000D01*
X140946144Y-92964000D01*
X141073731Y-92938621D01*
X141193917Y-92888839D01*
X141302080Y-92816566D01*
X141339410Y-92779236D01*
X144616500Y-92779236D01*
X144616500Y-92843964D01*
X144629128Y-92907449D01*
X144653898Y-92967250D01*
X144689860Y-93021070D01*
X144735630Y-93066840D01*
X144789450Y-93102802D01*
X144849251Y-93127572D01*
X144912736Y-93140200D01*
X144977464Y-93140200D01*
X145040949Y-93127572D01*
X145100750Y-93102802D01*
X145154570Y-93066840D01*
X145200340Y-93021070D01*
X145236302Y-92967250D01*
X145261072Y-92907449D01*
X145273700Y-92843964D01*
X145273700Y-92779236D01*
X145261072Y-92715751D01*
X145236302Y-92655950D01*
X145200340Y-92602130D01*
X145154570Y-92556360D01*
X145100750Y-92520398D01*
X145040949Y-92495628D01*
X144977464Y-92483000D01*
X144912736Y-92483000D01*
X144849251Y-92495628D01*
X144789450Y-92520398D01*
X144735630Y-92556360D01*
X144689860Y-92602130D01*
X144653898Y-92655950D01*
X144629128Y-92715751D01*
X144616500Y-92779236D01*
X141339410Y-92779236D01*
X141394066Y-92724580D01*
X141466339Y-92616417D01*
X141516121Y-92496231D01*
X141541500Y-92368644D01*
X141541500Y-92238556D01*
X141522739Y-92144236D01*
X145505500Y-92144236D01*
X145505500Y-92208964D01*
X145518128Y-92272449D01*
X145542898Y-92332250D01*
X145578860Y-92386070D01*
X145624630Y-92431840D01*
X145678450Y-92467802D01*
X145738251Y-92492572D01*
X145801736Y-92505200D01*
X145866464Y-92505200D01*
X145929949Y-92492572D01*
X145989750Y-92467802D01*
X146043570Y-92431840D01*
X146089340Y-92386070D01*
X146125302Y-92332250D01*
X146150072Y-92272449D01*
X146162700Y-92208964D01*
X146162700Y-92144236D01*
X146150072Y-92080751D01*
X146125302Y-92020950D01*
X146089340Y-91967130D01*
X146043570Y-91921360D01*
X145996991Y-91890236D01*
X146267500Y-91890236D01*
X146267500Y-91954964D01*
X146280128Y-92018449D01*
X146304898Y-92078250D01*
X146340860Y-92132070D01*
X146386630Y-92177840D01*
X146440450Y-92213802D01*
X146500251Y-92238572D01*
X146563736Y-92251200D01*
X146628464Y-92251200D01*
X146691949Y-92238572D01*
X146751750Y-92213802D01*
X146805570Y-92177840D01*
X146851340Y-92132070D01*
X146887302Y-92078250D01*
X146912072Y-92018449D01*
X146924700Y-91954964D01*
X146924700Y-91890236D01*
X146912072Y-91826751D01*
X146887302Y-91766950D01*
X146851340Y-91713130D01*
X146805570Y-91667360D01*
X146751750Y-91631398D01*
X146691949Y-91606628D01*
X146628464Y-91594000D01*
X146563736Y-91594000D01*
X146500251Y-91606628D01*
X146440450Y-91631398D01*
X146386630Y-91667360D01*
X146340860Y-91713130D01*
X146304898Y-91766950D01*
X146280128Y-91826751D01*
X146267500Y-91890236D01*
X145996991Y-91890236D01*
X145989750Y-91885398D01*
X145929949Y-91860628D01*
X145866464Y-91848000D01*
X145801736Y-91848000D01*
X145738251Y-91860628D01*
X145678450Y-91885398D01*
X145624630Y-91921360D01*
X145578860Y-91967130D01*
X145542898Y-92020950D01*
X145518128Y-92080751D01*
X145505500Y-92144236D01*
X141522739Y-92144236D01*
X141516121Y-92110969D01*
X141466339Y-91990783D01*
X141394066Y-91882620D01*
X141302080Y-91790634D01*
X141193917Y-91718361D01*
X141073731Y-91668579D01*
X140946144Y-91643200D01*
X140816056Y-91643200D01*
X140688469Y-91668579D01*
X140568283Y-91718361D01*
X140460120Y-91790634D01*
X140368134Y-91882620D01*
X140295861Y-91990783D01*
X140294718Y-91993541D01*
X140221570Y-91816944D01*
X140109134Y-91648671D01*
X139966029Y-91505566D01*
X139865100Y-91438128D01*
X139865100Y-90366236D01*
X143092500Y-90366236D01*
X143092500Y-90430964D01*
X143105128Y-90494449D01*
X143129898Y-90554250D01*
X143165860Y-90608070D01*
X143211630Y-90653840D01*
X143265450Y-90689802D01*
X143325251Y-90714572D01*
X143388736Y-90727200D01*
X143453464Y-90727200D01*
X143516949Y-90714572D01*
X143576750Y-90689802D01*
X143630570Y-90653840D01*
X143676340Y-90608070D01*
X143712302Y-90554250D01*
X143737072Y-90494449D01*
X143749700Y-90430964D01*
X143749700Y-90366236D01*
X143737072Y-90302751D01*
X143712302Y-90242950D01*
X143676340Y-90189130D01*
X143630570Y-90143360D01*
X143576750Y-90107398D01*
X143516949Y-90082628D01*
X143453464Y-90070000D01*
X143388736Y-90070000D01*
X143325251Y-90082628D01*
X143265450Y-90107398D01*
X143211630Y-90143360D01*
X143165860Y-90189130D01*
X143129898Y-90242950D01*
X143105128Y-90302751D01*
X143092500Y-90366236D01*
X139865100Y-90366236D01*
X139865100Y-89443600D01*
X143730700Y-89443600D01*
X143730700Y-90085814D01*
X143737247Y-90152285D01*
X143763115Y-90237562D01*
X143805124Y-90316155D01*
X143861658Y-90385042D01*
X143930544Y-90441576D01*
X144009137Y-90483585D01*
X144094414Y-90509453D01*
X144183100Y-90518188D01*
X144271785Y-90509453D01*
X144357062Y-90483585D01*
X144435655Y-90441576D01*
X144504542Y-90385042D01*
X144561076Y-90316156D01*
X144603085Y-90237563D01*
X144628953Y-90152286D01*
X144635500Y-90085815D01*
X144635500Y-89443600D01*
X152366700Y-89443600D01*
X152366700Y-90085814D01*
X152373247Y-90152285D01*
X152399115Y-90237562D01*
X152441124Y-90316155D01*
X152497658Y-90385042D01*
X152566544Y-90441576D01*
X152645137Y-90483585D01*
X152730414Y-90509453D01*
X152819100Y-90518188D01*
X152907785Y-90509453D01*
X152961246Y-90493236D01*
X153252500Y-90493236D01*
X153252500Y-90557964D01*
X153265128Y-90621449D01*
X153289898Y-90681250D01*
X153325860Y-90735070D01*
X153371630Y-90780840D01*
X153425450Y-90816802D01*
X153485251Y-90841572D01*
X153548736Y-90854200D01*
X153613464Y-90854200D01*
X153676949Y-90841572D01*
X153736750Y-90816802D01*
X153790570Y-90780840D01*
X153836340Y-90735070D01*
X153872302Y-90681250D01*
X153897072Y-90621449D01*
X153909700Y-90557964D01*
X153909700Y-90493236D01*
X153897072Y-90429751D01*
X153872302Y-90369950D01*
X153836340Y-90316130D01*
X153790570Y-90270360D01*
X153736750Y-90234398D01*
X153676949Y-90209628D01*
X153613464Y-90197000D01*
X153548736Y-90197000D01*
X153485251Y-90209628D01*
X153425450Y-90234398D01*
X153371630Y-90270360D01*
X153325860Y-90316130D01*
X153289898Y-90369950D01*
X153265128Y-90429751D01*
X153252500Y-90493236D01*
X152961246Y-90493236D01*
X152993062Y-90483585D01*
X153071655Y-90441576D01*
X153140542Y-90385042D01*
X153197076Y-90316156D01*
X153239085Y-90237563D01*
X153264953Y-90152286D01*
X153271500Y-90085815D01*
X153271500Y-89421385D01*
X153264953Y-89354914D01*
X153239085Y-89269637D01*
X153197076Y-89191044D01*
X153140542Y-89122158D01*
X153071656Y-89065624D01*
X152993063Y-89023615D01*
X152907786Y-88997747D01*
X152819100Y-88989012D01*
X152730415Y-88997747D01*
X152645138Y-89023615D01*
X152566545Y-89065624D01*
X152497659Y-89122158D01*
X152441125Y-89191044D01*
X152399116Y-89269637D01*
X152373248Y-89354914D01*
X152366701Y-89421385D01*
X152366701Y-89443399D01*
X152366700Y-89443600D01*
X144635500Y-89443600D01*
X144635500Y-89421385D01*
X144628953Y-89354914D01*
X144603085Y-89269637D01*
X144561076Y-89191044D01*
X144504542Y-89122158D01*
X144435656Y-89065624D01*
X144357063Y-89023615D01*
X144271786Y-88997747D01*
X144183100Y-88989012D01*
X144094415Y-88997747D01*
X144009138Y-89023615D01*
X143930545Y-89065624D01*
X143861659Y-89122158D01*
X143805125Y-89191044D01*
X143763116Y-89269637D01*
X143737248Y-89354914D01*
X143730701Y-89421385D01*
X143730701Y-89443399D01*
X143730700Y-89443600D01*
X139865100Y-89443600D01*
X139865100Y-88747600D01*
X157137101Y-88747600D01*
X157137101Y-91438127D01*
%TA.AperFunction,Conductor*%
D18*
G36*
X157137101Y-91438127D02*
G01*
X157036171Y-91505566D01*
X156893066Y-91648671D01*
X156780630Y-91816944D01*
X156707482Y-91993541D01*
X156706339Y-91990783D01*
X156634066Y-91882620D01*
X156542080Y-91790634D01*
X156433917Y-91718361D01*
X156313731Y-91668579D01*
X156186144Y-91643200D01*
X156056056Y-91643200D01*
X155928469Y-91668579D01*
X155918725Y-91672615D01*
X155897557Y-91655242D01*
X155844606Y-91626940D01*
X155787151Y-91609511D01*
X155742366Y-91605100D01*
X155742358Y-91605100D01*
X155727400Y-91603627D01*
X155712442Y-91605100D01*
X147812594Y-91605100D01*
X147797636Y-91603627D01*
X147782678Y-91605100D01*
X147782671Y-91605100D01*
X147743526Y-91608955D01*
X147737885Y-91609511D01*
X147680430Y-91626940D01*
X147672090Y-91631398D01*
X147627480Y-91655242D01*
X147581069Y-91693332D01*
X147571529Y-91704956D01*
X147153161Y-92123326D01*
X147141532Y-92132870D01*
X147103442Y-92179282D01*
X147075140Y-92232233D01*
X147057711Y-92289688D01*
X147053300Y-92334473D01*
X147053300Y-92334480D01*
X147051827Y-92349438D01*
X147053300Y-92364396D01*
X147053300Y-93441171D01*
X147005750Y-93409398D01*
X146945949Y-93384628D01*
X146882464Y-93372000D01*
X146817736Y-93372000D01*
X146754251Y-93384628D01*
X146694450Y-93409398D01*
X146640630Y-93445360D01*
X146594860Y-93491130D01*
X146558898Y-93544950D01*
X146534128Y-93604751D01*
X146521500Y-93668236D01*
X146521500Y-93732964D01*
X146534128Y-93796449D01*
X146558898Y-93856250D01*
X146594860Y-93910070D01*
X146640630Y-93955840D01*
X146694450Y-93991802D01*
X146754251Y-94016572D01*
X146817736Y-94029200D01*
X146882464Y-94029200D01*
X146945949Y-94016572D01*
X147005750Y-93991802D01*
X147053300Y-93960029D01*
X147053301Y-97114632D01*
X147051827Y-97129600D01*
X147057711Y-97189351D01*
X147075140Y-97246805D01*
X147088315Y-97271454D01*
X147103443Y-97299757D01*
X147111029Y-97309000D01*
X147129249Y-97331200D01*
X147141533Y-97346168D01*
X147153156Y-97355707D01*
X147373226Y-97575778D01*
X147384398Y-97602750D01*
X147420360Y-97656570D01*
X147466130Y-97702340D01*
X147519950Y-97738302D01*
X147579751Y-97763072D01*
X147643236Y-97775700D01*
X147707964Y-97775700D01*
X147771449Y-97763072D01*
X147831250Y-97738302D01*
X147885070Y-97702340D01*
X147930840Y-97656570D01*
X147966802Y-97602750D01*
X147991572Y-97542949D01*
X148004200Y-97479464D01*
X148004200Y-97478236D01*
X151982500Y-97478236D01*
X151982500Y-97542964D01*
X151995128Y-97606449D01*
X152019898Y-97666250D01*
X152055860Y-97720070D01*
X152101630Y-97765840D01*
X152155450Y-97801802D01*
X152215251Y-97826572D01*
X152278736Y-97839200D01*
X152343464Y-97839200D01*
X152406949Y-97826572D01*
X152466750Y-97801802D01*
X152520570Y-97765840D01*
X152566340Y-97720070D01*
X152602302Y-97666250D01*
X152627072Y-97606449D01*
X152639700Y-97542964D01*
X152639700Y-97478236D01*
X152627072Y-97414751D01*
X152602302Y-97354950D01*
X152566340Y-97301130D01*
X152520570Y-97255360D01*
X152466750Y-97219398D01*
X152406949Y-97194628D01*
X152343464Y-97182000D01*
X152278736Y-97182000D01*
X152215251Y-97194628D01*
X152155450Y-97219398D01*
X152101630Y-97255360D01*
X152055860Y-97301130D01*
X152019898Y-97354950D01*
X151995128Y-97414751D01*
X151982500Y-97478236D01*
X148004200Y-97478236D01*
X148004200Y-97414736D01*
X147991572Y-97351251D01*
X147966802Y-97291450D01*
X147930840Y-97237630D01*
X147885070Y-97191860D01*
X147831250Y-97155898D01*
X147804278Y-97144726D01*
X147662900Y-97003349D01*
X147662900Y-96970236D01*
X148172500Y-96970236D01*
X148172500Y-97034964D01*
X148185128Y-97098449D01*
X148209898Y-97158250D01*
X148245860Y-97212070D01*
X148291630Y-97257840D01*
X148345450Y-97293802D01*
X148405251Y-97318572D01*
X148468736Y-97331200D01*
X148533464Y-97331200D01*
X148596949Y-97318572D01*
X148656750Y-97293802D01*
X148710570Y-97257840D01*
X148756340Y-97212070D01*
X148792302Y-97158250D01*
X148817072Y-97098449D01*
X148829700Y-97034964D01*
X148829700Y-96970236D01*
X148817072Y-96906751D01*
X148792302Y-96846950D01*
X148756340Y-96793130D01*
X148710570Y-96747360D01*
X148656750Y-96711398D01*
X148596949Y-96686628D01*
X148533464Y-96674000D01*
X148468736Y-96674000D01*
X148405251Y-96686628D01*
X148345450Y-96711398D01*
X148291630Y-96747360D01*
X148245860Y-96793130D01*
X148209898Y-96846950D01*
X148185128Y-96906751D01*
X148172500Y-96970236D01*
X147662900Y-96970236D01*
X147662900Y-94536488D01*
X147665670Y-94545620D01*
X147685718Y-94583127D01*
X147712697Y-94616003D01*
X147720944Y-94622771D01*
X148848934Y-95750762D01*
X148855697Y-95759003D01*
X148888572Y-95785982D01*
X148926079Y-95806030D01*
X148966776Y-95818375D01*
X149009099Y-95822544D01*
X149019698Y-95821500D01*
X151427290Y-95821500D01*
X151466630Y-95860840D01*
X151520450Y-95896802D01*
X151580251Y-95921572D01*
X151643736Y-95934200D01*
X151708464Y-95934200D01*
X151771949Y-95921572D01*
X151831750Y-95896802D01*
X151885570Y-95860840D01*
X151931340Y-95815070D01*
X151967302Y-95761250D01*
X151979543Y-95731696D01*
X151998609Y-95750762D01*
X152005372Y-95759003D01*
X152038247Y-95785982D01*
X152075754Y-95806030D01*
X152116451Y-95818375D01*
X152158774Y-95822544D01*
X152169373Y-95821500D01*
X152697290Y-95821500D01*
X152736630Y-95860840D01*
X152790450Y-95896802D01*
X152850251Y-95921572D01*
X152913736Y-95934200D01*
X152978464Y-95934200D01*
X153041949Y-95921572D01*
X153101750Y-95896802D01*
X153155570Y-95860840D01*
X153201340Y-95815070D01*
X153237302Y-95761250D01*
X153262072Y-95701449D01*
X153274700Y-95637964D01*
X153274700Y-95573236D01*
X153262072Y-95509751D01*
X153237302Y-95449950D01*
X153201340Y-95396130D01*
X153155570Y-95350360D01*
X153101750Y-95314398D01*
X153041949Y-95289628D01*
X152978464Y-95277000D01*
X152913736Y-95277000D01*
X152850251Y-95289628D01*
X152790450Y-95314398D01*
X152736630Y-95350360D01*
X152697290Y-95389700D01*
X152248203Y-95389700D01*
X151977645Y-95119143D01*
X151970878Y-95110897D01*
X151938003Y-95083918D01*
X151900496Y-95063870D01*
X151859799Y-95051525D01*
X151828074Y-95048400D01*
X151817475Y-95047356D01*
X151806876Y-95048400D01*
X149773229Y-95048400D01*
X149479000Y-94754173D01*
X149479000Y-93822410D01*
X149517100Y-93784310D01*
X149561630Y-93828840D01*
X149615450Y-93864802D01*
X149675251Y-93889572D01*
X149738736Y-93902200D01*
X149803464Y-93902200D01*
X149866949Y-93889572D01*
X149926750Y-93864802D01*
X149980570Y-93828840D01*
X150026340Y-93783070D01*
X150062302Y-93729250D01*
X150087072Y-93669449D01*
X150099700Y-93605964D01*
X150099700Y-93541236D01*
X150087072Y-93477751D01*
X150062302Y-93417950D01*
X150026340Y-93364130D01*
X149987000Y-93324790D01*
X149987000Y-92901027D01*
X150241528Y-92646500D01*
X150568382Y-92646500D01*
X150551830Y-92657560D01*
X150506060Y-92703330D01*
X150470098Y-92757150D01*
X150445328Y-92816951D01*
X150432700Y-92880436D01*
X150432700Y-92945164D01*
X150445328Y-93008649D01*
X150470098Y-93068450D01*
X150506060Y-93122270D01*
X150551830Y-93168040D01*
X150605650Y-93204002D01*
X150665451Y-93228772D01*
X150728936Y-93241400D01*
X150793664Y-93241400D01*
X150857149Y-93228772D01*
X150916950Y-93204002D01*
X150970770Y-93168040D01*
X150971437Y-93167373D01*
X150968034Y-93172466D01*
X150932046Y-93259348D01*
X150913700Y-93351580D01*
X150913700Y-93445620D01*
X150932046Y-93537852D01*
X150968034Y-93624734D01*
X151020279Y-93702925D01*
X151086775Y-93769421D01*
X151164966Y-93821666D01*
X151251848Y-93857654D01*
X151344080Y-93876000D01*
X151438120Y-93876000D01*
X151530352Y-93857654D01*
X151617234Y-93821666D01*
X151695425Y-93769421D01*
X151761921Y-93702925D01*
X151814166Y-93624734D01*
X151850154Y-93537852D01*
X151868500Y-93445620D01*
X151868500Y-93378600D01*
X152366700Y-93378600D01*
X152366700Y-94500814D01*
X152373247Y-94567285D01*
X152399115Y-94652562D01*
X152441124Y-94731155D01*
X152497658Y-94800042D01*
X152566544Y-94856576D01*
X152645137Y-94898585D01*
X152730414Y-94924453D01*
X152819100Y-94933188D01*
X152907785Y-94924453D01*
X152993062Y-94898585D01*
X153071655Y-94856576D01*
X153140542Y-94800042D01*
X153197076Y-94731156D01*
X153239085Y-94652563D01*
X153264953Y-94567286D01*
X153271500Y-94500815D01*
X153271500Y-93356385D01*
X153264953Y-93289914D01*
X153239085Y-93204637D01*
X153197076Y-93126044D01*
X153140542Y-93057158D01*
X153071656Y-93000624D01*
X152993063Y-92958615D01*
X152907786Y-92932747D01*
X152819100Y-92924012D01*
X152730415Y-92932747D01*
X152645138Y-92958615D01*
X152566545Y-93000624D01*
X152497659Y-93057158D01*
X152441125Y-93126044D01*
X152399116Y-93204637D01*
X152373248Y-93289914D01*
X152366701Y-93356385D01*
X152366701Y-93378399D01*
X152366700Y-93378600D01*
X151868500Y-93378600D01*
X151868500Y-93351580D01*
X151850154Y-93259348D01*
X151814166Y-93172466D01*
X151761921Y-93094275D01*
X151695425Y-93027779D01*
X151617234Y-92975534D01*
X151530352Y-92939546D01*
X151438120Y-92921200D01*
X151344080Y-92921200D01*
X151251848Y-92939546D01*
X151164966Y-92975534D01*
X151086775Y-93027779D01*
X151057026Y-93057528D01*
X151077272Y-93008649D01*
X151089900Y-92945164D01*
X151089900Y-92880436D01*
X151077272Y-92816951D01*
X151052502Y-92757150D01*
X151016540Y-92703330D01*
X150970770Y-92657560D01*
X150954218Y-92646500D01*
X151903618Y-92646500D01*
X151901450Y-92647398D01*
X151847630Y-92683360D01*
X151801860Y-92729130D01*
X151765898Y-92782950D01*
X151741128Y-92842751D01*
X151728500Y-92906236D01*
X151728500Y-92970964D01*
X151741128Y-93034449D01*
X151765898Y-93094250D01*
X151801860Y-93148070D01*
X151847630Y-93193840D01*
X151901450Y-93229802D01*
X151961251Y-93254572D01*
X152024736Y-93267200D01*
X152089464Y-93267200D01*
X152152949Y-93254572D01*
X152212750Y-93229802D01*
X152266570Y-93193840D01*
X152312340Y-93148070D01*
X152348302Y-93094250D01*
X152373072Y-93034449D01*
X152385700Y-92970964D01*
X152385700Y-92906236D01*
X152373072Y-92842751D01*
X152348302Y-92782950D01*
X152312340Y-92729130D01*
X152266570Y-92683360D01*
X152212750Y-92647398D01*
X152210582Y-92646500D01*
X153110673Y-92646500D01*
X153506500Y-93042328D01*
X153506500Y-93097964D01*
X153519128Y-93161449D01*
X153543898Y-93221250D01*
X153579860Y-93275070D01*
X153625630Y-93320840D01*
X153679450Y-93356802D01*
X153739251Y-93381572D01*
X153802736Y-93394200D01*
X153867464Y-93394200D01*
X153930949Y-93381572D01*
X153990750Y-93356802D01*
X154044570Y-93320840D01*
X154090340Y-93275070D01*
X154126302Y-93221250D01*
X154151072Y-93161449D01*
X154163700Y-93097964D01*
X154163700Y-93033236D01*
X154151072Y-92969751D01*
X154126302Y-92909950D01*
X154090340Y-92856130D01*
X154044570Y-92810360D01*
X153990750Y-92774398D01*
X153930949Y-92749628D01*
X153867464Y-92737000D01*
X153811828Y-92737000D01*
X153360270Y-92285443D01*
X153353503Y-92277197D01*
X153320628Y-92250218D01*
X153283121Y-92230170D01*
X153242424Y-92217825D01*
X153210699Y-92214700D01*
X155465445Y-92214700D01*
X155460700Y-92238556D01*
X155460700Y-92368644D01*
X155486079Y-92496231D01*
X155535861Y-92616417D01*
X155608134Y-92724580D01*
X155700120Y-92816566D01*
X155808283Y-92888839D01*
X155928469Y-92938621D01*
X156056056Y-92964000D01*
X156186144Y-92964000D01*
X156313731Y-92938621D01*
X156433917Y-92888839D01*
X156542080Y-92816566D01*
X156634066Y-92724580D01*
X156706339Y-92616417D01*
X156707482Y-92613659D01*
X156780630Y-92790256D01*
X156893066Y-92958529D01*
X157036171Y-93101634D01*
X157137101Y-93169073D01*
X157137101Y-93978127D01*
X157036171Y-94045566D01*
X156893066Y-94188671D01*
X156780630Y-94356944D01*
X156707482Y-94533541D01*
X156706339Y-94530783D01*
X156634066Y-94422620D01*
X156542080Y-94330634D01*
X156433917Y-94258361D01*
X156313731Y-94208579D01*
X156186144Y-94183200D01*
X156056056Y-94183200D01*
X155928469Y-94208579D01*
X155808283Y-94258361D01*
X155700120Y-94330634D01*
X155608134Y-94422620D01*
X155535861Y-94530783D01*
X155486079Y-94650969D01*
X155460700Y-94778556D01*
X155460700Y-94908644D01*
X155486079Y-95036231D01*
X155535861Y-95156417D01*
X155608134Y-95264580D01*
X155700120Y-95356566D01*
X155808283Y-95428839D01*
X155928469Y-95478621D01*
X156056056Y-95504000D01*
X156186144Y-95504000D01*
X156313731Y-95478621D01*
X156433917Y-95428839D01*
X156542080Y-95356566D01*
X156634066Y-95264580D01*
X156706339Y-95156417D01*
X156707482Y-95153659D01*
X156780630Y-95330256D01*
X156893066Y-95498529D01*
X157036171Y-95641634D01*
X157137101Y-95709073D01*
X157137101Y-96518127D01*
X157036171Y-96585566D01*
X156893066Y-96728671D01*
X156780630Y-96896944D01*
X156707482Y-97073541D01*
X156706339Y-97070783D01*
X156634066Y-96962620D01*
X156542080Y-96870634D01*
X156433917Y-96798361D01*
X156313731Y-96748579D01*
X156186144Y-96723200D01*
X156056056Y-96723200D01*
X155928469Y-96748579D01*
X155808283Y-96798361D01*
X155700120Y-96870634D01*
X155608134Y-96962620D01*
X155535861Y-97070783D01*
X155486079Y-97190969D01*
X155460700Y-97318556D01*
X155460700Y-97448644D01*
X155486079Y-97576231D01*
X155535861Y-97696417D01*
X155608134Y-97804580D01*
X155700120Y-97896566D01*
X155808283Y-97968839D01*
X155928469Y-98018621D01*
X156056056Y-98044000D01*
X156186144Y-98044000D01*
X156313731Y-98018621D01*
X156433917Y-97968839D01*
X156542080Y-97896566D01*
X156634066Y-97804580D01*
X156706339Y-97696417D01*
X156707482Y-97693659D01*
X156780630Y-97870256D01*
X156893066Y-98038529D01*
X157036171Y-98181634D01*
X157137101Y-98249073D01*
X157137101Y-99025921D01*
X157111239Y-99039744D01*
X157011440Y-99172663D01*
X157137101Y-99298324D01*
X157137101Y-99440877D01*
X156940163Y-99243940D01*
X156807244Y-99343739D01*
X156711102Y-99527313D01*
X156701940Y-99558458D01*
X156610764Y-99505213D01*
X156192376Y-99923600D01*
X156610764Y-100341987D01*
X156702871Y-100288198D01*
X156717920Y-100336345D01*
X156807244Y-100503461D01*
X156940163Y-100603260D01*
X157137101Y-100406323D01*
X157137101Y-100548876D01*
X157011440Y-100674537D01*
X157111239Y-100807456D01*
X157137101Y-100821000D01*
X157137101Y-101598127D01*
X157036171Y-101665566D01*
X156893066Y-101808671D01*
X156780630Y-101976944D01*
X156707482Y-102153541D01*
X156706339Y-102150783D01*
X156634066Y-102042620D01*
X156542080Y-101950634D01*
X156433917Y-101878361D01*
X156313731Y-101828579D01*
X156186144Y-101803200D01*
X156056056Y-101803200D01*
X155928469Y-101828579D01*
X155808283Y-101878361D01*
X155700120Y-101950634D01*
X155608134Y-102042620D01*
X155535861Y-102150783D01*
X155486079Y-102270969D01*
X155460700Y-102398556D01*
X155460700Y-102528644D01*
X155486079Y-102656231D01*
X155535861Y-102776417D01*
X155608134Y-102884580D01*
X155700120Y-102976566D01*
X155808283Y-103048839D01*
X155928469Y-103098621D01*
X156056056Y-103124000D01*
X156186144Y-103124000D01*
X156313731Y-103098621D01*
X156433917Y-103048839D01*
X156542080Y-102976566D01*
X156634066Y-102884580D01*
X156706339Y-102776417D01*
X156707482Y-102773659D01*
X156780630Y-102950256D01*
X156893066Y-103118529D01*
X157036171Y-103261634D01*
X157137101Y-103329073D01*
X157137101Y-104138127D01*
X157036171Y-104205566D01*
X156893066Y-104348671D01*
X156780630Y-104516944D01*
X156707482Y-104693541D01*
X156706339Y-104690783D01*
X156634066Y-104582620D01*
X156542080Y-104490634D01*
X156433917Y-104418361D01*
X156313731Y-104368579D01*
X156186144Y-104343200D01*
X156056056Y-104343200D01*
X155928469Y-104368579D01*
X155808283Y-104418361D01*
X155700120Y-104490634D01*
X155608134Y-104582620D01*
X155535861Y-104690783D01*
X155486079Y-104810969D01*
X155460700Y-104938556D01*
X155460700Y-105068644D01*
X155486079Y-105196231D01*
X155535861Y-105316417D01*
X155608134Y-105424580D01*
X155700120Y-105516566D01*
X155808283Y-105588839D01*
X155928469Y-105638621D01*
X156056056Y-105664000D01*
X156186144Y-105664000D01*
X156313731Y-105638621D01*
X156433917Y-105588839D01*
X156542080Y-105516566D01*
X156634066Y-105424580D01*
X156706339Y-105316417D01*
X156707482Y-105313659D01*
X156780630Y-105490256D01*
X156893066Y-105658529D01*
X157036171Y-105801634D01*
X157137100Y-105869073D01*
X157137100Y-106678127D01*
X157036171Y-106745566D01*
X156893066Y-106888671D01*
X156780630Y-107056944D01*
X156707482Y-107233541D01*
X156706339Y-107230783D01*
X156634066Y-107122620D01*
X156542080Y-107030634D01*
X156433917Y-106958361D01*
X156313731Y-106908579D01*
X156186144Y-106883200D01*
X156056056Y-106883200D01*
X155928469Y-106908579D01*
X155808283Y-106958361D01*
X155700120Y-107030634D01*
X155608134Y-107122620D01*
X155535861Y-107230783D01*
X155486079Y-107350969D01*
X155460700Y-107478556D01*
X155460700Y-107608644D01*
X155486079Y-107736231D01*
X155535861Y-107856417D01*
X155608134Y-107964580D01*
X155700120Y-108056566D01*
X155808283Y-108128839D01*
X155928469Y-108178621D01*
X156056056Y-108204000D01*
X156186144Y-108204000D01*
X156313731Y-108178621D01*
X156433917Y-108128839D01*
X156542080Y-108056566D01*
X156634066Y-107964580D01*
X156706339Y-107856417D01*
X156707482Y-107853659D01*
X156780630Y-108030256D01*
X156893066Y-108198529D01*
X157036171Y-108341634D01*
X157137100Y-108409073D01*
X157137100Y-109218127D01*
X157036171Y-109285566D01*
X156893066Y-109428671D01*
X156780630Y-109596944D01*
X156707482Y-109773541D01*
X156706339Y-109770783D01*
X156634066Y-109662620D01*
X156542080Y-109570634D01*
X156433917Y-109498361D01*
X156313731Y-109448579D01*
X156186144Y-109423200D01*
X156056056Y-109423200D01*
X155928469Y-109448579D01*
X155808283Y-109498361D01*
X155700120Y-109570634D01*
X155608134Y-109662620D01*
X155535861Y-109770783D01*
X155486079Y-109890969D01*
X155460700Y-110018556D01*
X155460700Y-110148644D01*
X155486079Y-110276231D01*
X155535861Y-110396417D01*
X155608134Y-110504580D01*
X155700120Y-110596566D01*
X155808283Y-110668839D01*
X155928469Y-110718621D01*
X156056056Y-110744000D01*
X156186144Y-110744000D01*
X156313731Y-110718621D01*
X156433917Y-110668839D01*
X156542080Y-110596566D01*
X156634066Y-110504580D01*
X156706339Y-110396417D01*
X156707482Y-110393659D01*
X156780630Y-110570256D01*
X156893066Y-110738529D01*
X157036171Y-110881634D01*
X157137100Y-110949073D01*
X157137100Y-111758127D01*
X157036171Y-111825566D01*
X156893066Y-111968671D01*
X156780630Y-112136944D01*
X156707482Y-112313541D01*
X156706339Y-112310783D01*
X156634066Y-112202620D01*
X156542080Y-112110634D01*
X156433917Y-112038361D01*
X156313731Y-111988579D01*
X156186144Y-111963200D01*
X156056056Y-111963200D01*
X155928469Y-111988579D01*
X155808283Y-112038361D01*
X155700120Y-112110634D01*
X155608134Y-112202620D01*
X155535861Y-112310783D01*
X155486079Y-112430969D01*
X155460700Y-112558556D01*
X155460700Y-112688644D01*
X155486079Y-112816231D01*
X155535861Y-112936417D01*
X155608134Y-113044580D01*
X155700120Y-113136566D01*
X155808283Y-113208839D01*
X155928469Y-113258621D01*
X156056056Y-113284000D01*
X156186144Y-113284000D01*
X156313731Y-113258621D01*
X156433917Y-113208839D01*
X156542080Y-113136566D01*
X156634066Y-113044580D01*
X156706339Y-112936417D01*
X156707482Y-112933659D01*
X156780630Y-113110256D01*
X156893066Y-113278529D01*
X157036171Y-113421634D01*
X157137100Y-113489073D01*
X157137100Y-114298128D01*
X157036171Y-114365566D01*
X156893066Y-114508671D01*
X156780630Y-114676944D01*
X156707482Y-114853541D01*
X156706339Y-114850783D01*
X156634066Y-114742620D01*
X156542080Y-114650634D01*
X156433917Y-114578361D01*
X156313731Y-114528579D01*
X156186144Y-114503200D01*
X156056056Y-114503200D01*
X155928469Y-114528579D01*
X155808283Y-114578361D01*
X155700120Y-114650634D01*
X155608134Y-114742620D01*
X155535861Y-114850783D01*
X155486079Y-114970969D01*
X155460700Y-115098556D01*
X155460700Y-115228644D01*
X155486079Y-115356231D01*
X155535861Y-115476417D01*
X155608134Y-115584580D01*
X155700120Y-115676566D01*
X155808283Y-115748839D01*
X155928469Y-115798621D01*
X156056056Y-115824000D01*
X156186144Y-115824000D01*
X156313731Y-115798621D01*
X156433917Y-115748839D01*
X156542080Y-115676566D01*
X156634066Y-115584580D01*
X156706339Y-115476417D01*
X156707482Y-115473659D01*
X156780630Y-115650256D01*
X156893066Y-115818529D01*
X157036171Y-115961634D01*
X157137100Y-116029072D01*
X157137100Y-116838128D01*
X157036171Y-116905566D01*
X156893066Y-117048671D01*
X156780630Y-117216944D01*
X156707482Y-117393541D01*
X156706339Y-117390783D01*
X156634066Y-117282620D01*
X156542080Y-117190634D01*
X156433917Y-117118361D01*
X156313731Y-117068579D01*
X156186144Y-117043200D01*
X156056056Y-117043200D01*
X155928469Y-117068579D01*
X155808283Y-117118361D01*
X155700120Y-117190634D01*
X155608134Y-117282620D01*
X155535861Y-117390783D01*
X155486079Y-117510969D01*
X155460700Y-117638556D01*
X155460700Y-117768644D01*
X155486079Y-117896231D01*
X155535861Y-118016417D01*
X155608134Y-118124580D01*
X155700120Y-118216566D01*
X155808283Y-118288839D01*
X155928469Y-118338621D01*
X156056056Y-118364000D01*
X156186144Y-118364000D01*
X156313731Y-118338621D01*
X156433917Y-118288839D01*
X156542080Y-118216566D01*
X156634066Y-118124580D01*
X156706339Y-118016417D01*
X156707482Y-118013659D01*
X156780630Y-118190256D01*
X156893066Y-118358529D01*
X157036171Y-118501634D01*
X157137100Y-118569072D01*
X157137100Y-119378128D01*
X157036171Y-119445566D01*
X156893066Y-119588671D01*
X156780630Y-119756944D01*
X156707482Y-119933541D01*
X156706339Y-119930783D01*
X156634066Y-119822620D01*
X156542080Y-119730634D01*
X156433917Y-119658361D01*
X156313731Y-119608579D01*
X156186144Y-119583200D01*
X156056056Y-119583200D01*
X155928469Y-119608579D01*
X155808283Y-119658361D01*
X155700120Y-119730634D01*
X155608134Y-119822620D01*
X155535861Y-119930783D01*
X155486079Y-120050969D01*
X155460700Y-120178556D01*
X155460700Y-120308644D01*
X155486079Y-120436231D01*
X155535861Y-120556417D01*
X155608134Y-120664580D01*
X155700120Y-120756566D01*
X155808283Y-120828839D01*
X155928469Y-120878621D01*
X156056056Y-120904000D01*
X156186144Y-120904000D01*
X156313731Y-120878621D01*
X156433917Y-120828839D01*
X156542080Y-120756566D01*
X156634066Y-120664580D01*
X156706339Y-120556417D01*
X156707482Y-120553659D01*
X156780630Y-120730256D01*
X156893066Y-120898529D01*
X157036171Y-121041634D01*
X157137100Y-121109072D01*
X157137100Y-121259600D01*
X139865100Y-121259600D01*
X139865100Y-121109072D01*
X139966029Y-121041634D01*
X140109134Y-120898529D01*
X140221570Y-120730256D01*
X140294718Y-120553659D01*
X140295861Y-120556417D01*
X140368134Y-120664580D01*
X140460120Y-120756566D01*
X140568283Y-120828839D01*
X140688469Y-120878621D01*
X140816056Y-120904000D01*
X140946144Y-120904000D01*
X141073731Y-120878621D01*
X141193917Y-120828839D01*
X141302080Y-120756566D01*
X141394066Y-120664580D01*
X141466339Y-120556417D01*
X141506483Y-120459500D01*
X142686501Y-120459500D01*
X142697100Y-120460544D01*
X142707699Y-120459500D01*
X142739424Y-120456375D01*
X142780121Y-120444030D01*
X142817628Y-120423982D01*
X142850503Y-120397003D01*
X142857270Y-120388757D01*
X143034791Y-120211236D01*
X143854500Y-120211236D01*
X143854500Y-120275964D01*
X143867128Y-120339449D01*
X143891898Y-120399250D01*
X143927860Y-120453070D01*
X143973630Y-120498840D01*
X144027450Y-120534802D01*
X144087251Y-120559572D01*
X144150736Y-120572200D01*
X144215464Y-120572200D01*
X144278949Y-120559572D01*
X144338750Y-120534802D01*
X144392570Y-120498840D01*
X144438340Y-120453070D01*
X144474302Y-120399250D01*
X144499072Y-120339449D01*
X144511700Y-120275964D01*
X144511700Y-120211236D01*
X153252500Y-120211236D01*
X153252500Y-120275964D01*
X153265128Y-120339449D01*
X153289898Y-120399250D01*
X153325860Y-120453070D01*
X153371630Y-120498840D01*
X153425450Y-120534802D01*
X153485251Y-120559572D01*
X153548736Y-120572200D01*
X153613464Y-120572200D01*
X153676949Y-120559572D01*
X153736750Y-120534802D01*
X153790570Y-120498840D01*
X153836340Y-120453070D01*
X153872302Y-120399250D01*
X153897072Y-120339449D01*
X153909700Y-120275964D01*
X153909700Y-120211236D01*
X153897072Y-120147751D01*
X153872302Y-120087950D01*
X153836340Y-120034130D01*
X153790570Y-119988360D01*
X153736750Y-119952398D01*
X153676949Y-119927628D01*
X153613464Y-119915000D01*
X153548736Y-119915000D01*
X153485251Y-119927628D01*
X153425450Y-119952398D01*
X153371630Y-119988360D01*
X153325860Y-120034130D01*
X153289898Y-120087950D01*
X153265128Y-120147751D01*
X153252500Y-120211236D01*
X144511700Y-120211236D01*
X144499072Y-120147751D01*
X144474302Y-120087950D01*
X144438340Y-120034130D01*
X144392570Y-119988360D01*
X144338750Y-119952398D01*
X144278949Y-119927628D01*
X144215464Y-119915000D01*
X144150736Y-119915000D01*
X144087251Y-119927628D01*
X144027450Y-119952398D01*
X143973630Y-119988360D01*
X143927860Y-120034130D01*
X143891898Y-120087950D01*
X143867128Y-120147751D01*
X143854500Y-120211236D01*
X143034791Y-120211236D01*
X143077263Y-120168765D01*
X143085503Y-120162003D01*
X143112482Y-120129128D01*
X143132530Y-120091621D01*
X143144875Y-120050924D01*
X143148000Y-120019199D01*
X143148000Y-120019198D01*
X143149044Y-120008601D01*
X143148000Y-119998002D01*
X143148000Y-118433236D01*
X150839500Y-118433236D01*
X150839500Y-118497964D01*
X150852128Y-118561449D01*
X150876898Y-118621250D01*
X150912860Y-118675070D01*
X150958630Y-118720840D01*
X151012450Y-118756802D01*
X151072251Y-118781572D01*
X151135736Y-118794200D01*
X151200464Y-118794200D01*
X151263949Y-118781572D01*
X151323750Y-118756802D01*
X151377570Y-118720840D01*
X151423340Y-118675070D01*
X151459302Y-118621250D01*
X151484072Y-118561449D01*
X151496700Y-118497964D01*
X151496700Y-118433236D01*
X151484072Y-118369751D01*
X151459302Y-118309950D01*
X151423340Y-118256130D01*
X151377570Y-118210360D01*
X151323750Y-118174398D01*
X151263949Y-118149628D01*
X151200464Y-118137000D01*
X151135736Y-118137000D01*
X151072251Y-118149628D01*
X151012450Y-118174398D01*
X150958630Y-118210360D01*
X150912860Y-118256130D01*
X150876898Y-118309950D01*
X150852128Y-118369751D01*
X150839500Y-118433236D01*
X143148000Y-118433236D01*
X143148000Y-117671236D01*
X143854500Y-117671236D01*
X143854500Y-117735964D01*
X143867128Y-117799449D01*
X143891898Y-117859250D01*
X143927860Y-117913070D01*
X143973630Y-117958840D01*
X144027450Y-117994802D01*
X144087251Y-118019572D01*
X144150736Y-118032200D01*
X144215464Y-118032200D01*
X144278949Y-118019572D01*
X144338750Y-117994802D01*
X144392570Y-117958840D01*
X144438340Y-117913070D01*
X144474302Y-117859250D01*
X144499072Y-117799449D01*
X144499313Y-117798236D01*
X151347500Y-117798236D01*
X151347500Y-117862964D01*
X151360128Y-117926449D01*
X151384898Y-117986250D01*
X151420860Y-118040070D01*
X151466630Y-118085840D01*
X151520450Y-118121802D01*
X151580251Y-118146572D01*
X151643736Y-118159200D01*
X151708464Y-118159200D01*
X151771949Y-118146572D01*
X151831750Y-118121802D01*
X151885570Y-118085840D01*
X151931340Y-118040070D01*
X151967302Y-117986250D01*
X151992072Y-117926449D01*
X152004700Y-117862964D01*
X152004700Y-117798236D01*
X151992072Y-117734751D01*
X151967302Y-117674950D01*
X151964821Y-117671236D01*
X154141500Y-117671236D01*
X154141500Y-117735964D01*
X154154128Y-117799449D01*
X154178898Y-117859250D01*
X154214860Y-117913070D01*
X154260630Y-117958840D01*
X154314450Y-117994802D01*
X154374251Y-118019572D01*
X154437736Y-118032200D01*
X154502464Y-118032200D01*
X154565949Y-118019572D01*
X154625750Y-117994802D01*
X154679570Y-117958840D01*
X154725340Y-117913070D01*
X154761302Y-117859250D01*
X154786072Y-117799449D01*
X154798700Y-117735964D01*
X154798700Y-117671236D01*
X154786072Y-117607751D01*
X154761302Y-117547950D01*
X154725340Y-117494130D01*
X154679570Y-117448360D01*
X154625750Y-117412398D01*
X154565949Y-117387628D01*
X154502464Y-117375000D01*
X154437736Y-117375000D01*
X154374251Y-117387628D01*
X154314450Y-117412398D01*
X154260630Y-117448360D01*
X154214860Y-117494130D01*
X154178898Y-117547950D01*
X154154128Y-117607751D01*
X154141500Y-117671236D01*
X151964821Y-117671236D01*
X151931340Y-117621130D01*
X151885570Y-117575360D01*
X151831750Y-117539398D01*
X151771949Y-117514628D01*
X151708464Y-117502000D01*
X151643736Y-117502000D01*
X151580251Y-117514628D01*
X151520450Y-117539398D01*
X151466630Y-117575360D01*
X151420860Y-117621130D01*
X151384898Y-117674950D01*
X151360128Y-117734751D01*
X151347500Y-117798236D01*
X144499313Y-117798236D01*
X144511700Y-117735964D01*
X144511700Y-117671236D01*
X144499072Y-117607751D01*
X144474302Y-117547950D01*
X144438340Y-117494130D01*
X144392570Y-117448360D01*
X144338750Y-117412398D01*
X144278949Y-117387628D01*
X144215464Y-117375000D01*
X144150736Y-117375000D01*
X144087251Y-117387628D01*
X144027450Y-117412398D01*
X143973630Y-117448360D01*
X143927860Y-117494130D01*
X143891898Y-117547950D01*
X143867128Y-117607751D01*
X143854500Y-117671236D01*
X143148000Y-117671236D01*
X143148000Y-117036236D01*
X150331500Y-117036236D01*
X150331500Y-117100964D01*
X150344128Y-117164449D01*
X150368898Y-117224250D01*
X150404860Y-117278070D01*
X150450630Y-117323840D01*
X150504450Y-117359802D01*
X150564251Y-117384572D01*
X150627736Y-117397200D01*
X150692464Y-117397200D01*
X150755949Y-117384572D01*
X150815750Y-117359802D01*
X150869570Y-117323840D01*
X150915340Y-117278070D01*
X150951302Y-117224250D01*
X150976072Y-117164449D01*
X150988700Y-117100964D01*
X150988700Y-117036236D01*
X150976072Y-116972751D01*
X150951302Y-116912950D01*
X150915340Y-116859130D01*
X150869570Y-116813360D01*
X150815750Y-116777398D01*
X150755949Y-116752628D01*
X150692464Y-116740000D01*
X150627736Y-116740000D01*
X150564251Y-116752628D01*
X150504450Y-116777398D01*
X150450630Y-116813360D01*
X150404860Y-116859130D01*
X150368898Y-116912950D01*
X150344128Y-116972751D01*
X150331500Y-117036236D01*
X143148000Y-117036236D01*
X143148000Y-115639236D01*
X152998500Y-115639236D01*
X152998500Y-115703964D01*
X153011128Y-115767449D01*
X153035898Y-115827250D01*
X153071860Y-115881070D01*
X153117630Y-115926840D01*
X153171450Y-115962802D01*
X153231251Y-115987572D01*
X153294736Y-116000200D01*
X153359464Y-116000200D01*
X153422949Y-115987572D01*
X153482750Y-115962802D01*
X153536570Y-115926840D01*
X153582340Y-115881070D01*
X153618302Y-115827250D01*
X153643072Y-115767449D01*
X153655700Y-115703964D01*
X153655700Y-115639236D01*
X153643072Y-115575751D01*
X153618302Y-115515950D01*
X153582340Y-115462130D01*
X153536570Y-115416360D01*
X153482750Y-115380398D01*
X153422949Y-115355628D01*
X153359464Y-115343000D01*
X153294736Y-115343000D01*
X153231251Y-115355628D01*
X153171450Y-115380398D01*
X153117630Y-115416360D01*
X153071860Y-115462130D01*
X153035898Y-115515950D01*
X153011128Y-115575751D01*
X152998500Y-115639236D01*
X143148000Y-115639236D01*
X143148000Y-114242236D01*
X146648500Y-114242236D01*
X146648500Y-114306964D01*
X146661128Y-114370449D01*
X146685898Y-114430250D01*
X146721860Y-114484070D01*
X146767630Y-114529840D01*
X146821450Y-114565802D01*
X146881251Y-114590572D01*
X146944736Y-114603200D01*
X147009464Y-114603200D01*
X147072949Y-114590572D01*
X147132750Y-114565802D01*
X147186570Y-114529840D01*
X147232340Y-114484070D01*
X147268302Y-114430250D01*
X147293072Y-114370449D01*
X147305700Y-114306964D01*
X147305700Y-114242236D01*
X149696500Y-114242236D01*
X149696500Y-114306964D01*
X149709128Y-114370449D01*
X149733898Y-114430250D01*
X149769860Y-114484070D01*
X149815630Y-114529840D01*
X149869450Y-114565802D01*
X149929251Y-114590572D01*
X149992736Y-114603200D01*
X150057464Y-114603200D01*
X150120949Y-114590572D01*
X150180750Y-114565802D01*
X150234570Y-114529840D01*
X150280340Y-114484070D01*
X150316302Y-114430250D01*
X150341072Y-114370449D01*
X150353700Y-114306964D01*
X150353700Y-114242236D01*
X150341072Y-114178751D01*
X150316302Y-114118950D01*
X150280340Y-114065130D01*
X150234570Y-114019360D01*
X150180750Y-113983398D01*
X150120949Y-113958628D01*
X150057464Y-113946000D01*
X149992736Y-113946000D01*
X149929251Y-113958628D01*
X149869450Y-113983398D01*
X149815630Y-114019360D01*
X149769860Y-114065130D01*
X149733898Y-114118950D01*
X149709128Y-114178751D01*
X149696500Y-114242236D01*
X147305700Y-114242236D01*
X147293072Y-114178751D01*
X147268302Y-114118950D01*
X147232340Y-114065130D01*
X147186570Y-114019360D01*
X147132750Y-113983398D01*
X147072949Y-113958628D01*
X147009464Y-113946000D01*
X146944736Y-113946000D01*
X146881251Y-113958628D01*
X146821450Y-113983398D01*
X146767630Y-114019360D01*
X146721860Y-114065130D01*
X146685898Y-114118950D01*
X146661128Y-114178751D01*
X146648500Y-114242236D01*
X143148000Y-114242236D01*
X143148000Y-113480236D01*
X151347500Y-113480236D01*
X151347500Y-113544964D01*
X151360128Y-113608449D01*
X151384898Y-113668250D01*
X151420860Y-113722070D01*
X151466630Y-113767840D01*
X151520450Y-113803802D01*
X151580251Y-113828572D01*
X151643736Y-113841200D01*
X151708464Y-113841200D01*
X151771949Y-113828572D01*
X151831750Y-113803802D01*
X151885570Y-113767840D01*
X151931340Y-113722070D01*
X151967302Y-113668250D01*
X151992072Y-113608449D01*
X152004700Y-113544964D01*
X152004700Y-113480236D01*
X151992072Y-113416751D01*
X151967302Y-113356950D01*
X151931340Y-113303130D01*
X151885570Y-113257360D01*
X151831750Y-113221398D01*
X151771949Y-113196628D01*
X151708464Y-113184000D01*
X151643736Y-113184000D01*
X151580251Y-113196628D01*
X151520450Y-113221398D01*
X151466630Y-113257360D01*
X151420860Y-113303130D01*
X151384898Y-113356950D01*
X151360128Y-113416751D01*
X151347500Y-113480236D01*
X143148000Y-113480236D01*
X143148000Y-112718236D01*
X143854500Y-112718236D01*
X143854500Y-112782964D01*
X143867128Y-112846449D01*
X143891898Y-112906250D01*
X143927860Y-112960070D01*
X143973630Y-113005840D01*
X144027450Y-113041802D01*
X144087251Y-113066572D01*
X144150736Y-113079200D01*
X144215464Y-113079200D01*
X144278949Y-113066572D01*
X144338750Y-113041802D01*
X144392570Y-113005840D01*
X144431910Y-112966500D01*
X147744290Y-112966500D01*
X147783630Y-113005840D01*
X147837450Y-113041802D01*
X147897251Y-113066572D01*
X147960736Y-113079200D01*
X148025464Y-113079200D01*
X148088949Y-113066572D01*
X148148750Y-113041802D01*
X148202570Y-113005840D01*
X148248340Y-112960070D01*
X148284302Y-112906250D01*
X148309072Y-112846449D01*
X148321700Y-112782964D01*
X148321700Y-112718236D01*
X148309072Y-112654751D01*
X148284302Y-112594950D01*
X148281821Y-112591236D01*
X149188500Y-112591236D01*
X149188500Y-112655964D01*
X149201128Y-112719449D01*
X149225898Y-112779250D01*
X149261860Y-112833070D01*
X149307630Y-112878840D01*
X149361450Y-112914802D01*
X149421251Y-112939572D01*
X149484736Y-112952200D01*
X149549464Y-112952200D01*
X149612949Y-112939572D01*
X149672750Y-112914802D01*
X149726570Y-112878840D01*
X149771100Y-112834310D01*
X149815630Y-112878840D01*
X149869450Y-112914802D01*
X149929251Y-112939572D01*
X149992736Y-112952200D01*
X150057464Y-112952200D01*
X150120949Y-112939572D01*
X150180750Y-112914802D01*
X150234570Y-112878840D01*
X150279100Y-112834310D01*
X150323630Y-112878840D01*
X150377450Y-112914802D01*
X150437251Y-112939572D01*
X150500736Y-112952200D01*
X150565464Y-112952200D01*
X150628949Y-112939572D01*
X150688750Y-112914802D01*
X150742570Y-112878840D01*
X150788340Y-112833070D01*
X150798200Y-112818314D01*
X150808060Y-112833070D01*
X150853830Y-112878840D01*
X150907650Y-112914802D01*
X150967451Y-112939572D01*
X151030936Y-112952200D01*
X151095664Y-112952200D01*
X151159149Y-112939572D01*
X151218950Y-112914802D01*
X151272770Y-112878840D01*
X151318540Y-112833070D01*
X151354502Y-112779250D01*
X151379272Y-112719449D01*
X151391900Y-112655964D01*
X151391900Y-112591236D01*
X151379272Y-112527751D01*
X151354502Y-112467950D01*
X151318540Y-112414130D01*
X151272770Y-112368360D01*
X151218950Y-112332398D01*
X151159149Y-112307628D01*
X151095664Y-112295000D01*
X151030936Y-112295000D01*
X150967451Y-112307628D01*
X150907650Y-112332398D01*
X150853830Y-112368360D01*
X150808060Y-112414130D01*
X150798200Y-112428886D01*
X150788340Y-112414130D01*
X150742570Y-112368360D01*
X150688750Y-112332398D01*
X150628949Y-112307628D01*
X150565464Y-112295000D01*
X150500736Y-112295000D01*
X150437251Y-112307628D01*
X150377450Y-112332398D01*
X150323630Y-112368360D01*
X150279100Y-112412890D01*
X150234570Y-112368360D01*
X150180750Y-112332398D01*
X150120949Y-112307628D01*
X150057464Y-112295000D01*
X149992736Y-112295000D01*
X149929251Y-112307628D01*
X149869450Y-112332398D01*
X149815630Y-112368360D01*
X149771100Y-112412890D01*
X149726570Y-112368360D01*
X149672750Y-112332398D01*
X149612949Y-112307628D01*
X149549464Y-112295000D01*
X149484736Y-112295000D01*
X149421251Y-112307628D01*
X149361450Y-112332398D01*
X149307630Y-112368360D01*
X149261860Y-112414130D01*
X149225898Y-112467950D01*
X149201128Y-112527751D01*
X149188500Y-112591236D01*
X148281821Y-112591236D01*
X148248340Y-112541130D01*
X148202570Y-112495360D01*
X148148750Y-112459398D01*
X148088949Y-112434628D01*
X148025464Y-112422000D01*
X147960736Y-112422000D01*
X147897251Y-112434628D01*
X147837450Y-112459398D01*
X147790616Y-112490692D01*
X147801072Y-112465449D01*
X147813700Y-112401964D01*
X147813700Y-112337236D01*
X147801072Y-112273751D01*
X147776302Y-112213950D01*
X147740340Y-112160130D01*
X147694570Y-112114360D01*
X147647991Y-112083236D01*
X148299500Y-112083236D01*
X148299500Y-112147964D01*
X148312128Y-112211449D01*
X148336898Y-112271250D01*
X148372860Y-112325070D01*
X148418630Y-112370840D01*
X148472450Y-112406802D01*
X148532251Y-112431572D01*
X148595736Y-112444200D01*
X148660464Y-112444200D01*
X148723949Y-112431572D01*
X148783750Y-112406802D01*
X148837570Y-112370840D01*
X148883340Y-112325070D01*
X148919302Y-112271250D01*
X148944072Y-112211449D01*
X148956700Y-112147964D01*
X148956700Y-112083236D01*
X148944072Y-112019751D01*
X148919302Y-111959950D01*
X148883340Y-111906130D01*
X148837570Y-111860360D01*
X148783750Y-111824398D01*
X148723949Y-111799628D01*
X148660464Y-111787000D01*
X148595736Y-111787000D01*
X148532251Y-111799628D01*
X148472450Y-111824398D01*
X148418630Y-111860360D01*
X148372860Y-111906130D01*
X148336898Y-111959950D01*
X148312128Y-112019751D01*
X148299500Y-112083236D01*
X147647991Y-112083236D01*
X147640750Y-112078398D01*
X147580949Y-112053628D01*
X147517464Y-112041000D01*
X147452736Y-112041000D01*
X147389251Y-112053628D01*
X147329450Y-112078398D01*
X147275630Y-112114360D01*
X147229860Y-112160130D01*
X147193898Y-112213950D01*
X147169128Y-112273751D01*
X147156500Y-112337236D01*
X147156500Y-112401964D01*
X147169128Y-112465449D01*
X147193898Y-112525250D01*
X147200212Y-112534700D01*
X144431910Y-112534700D01*
X144392570Y-112495360D01*
X144338750Y-112459398D01*
X144278949Y-112434628D01*
X144215464Y-112422000D01*
X144150736Y-112422000D01*
X144087251Y-112434628D01*
X144027450Y-112459398D01*
X143973630Y-112495360D01*
X143927860Y-112541130D01*
X143891898Y-112594950D01*
X143867128Y-112654751D01*
X143854500Y-112718236D01*
X143148000Y-112718236D01*
X143148000Y-112382027D01*
X143379529Y-112150500D01*
X145839290Y-112150500D01*
X145878630Y-112189840D01*
X145932450Y-112225802D01*
X145992251Y-112250572D01*
X146055736Y-112263200D01*
X146120464Y-112263200D01*
X146183949Y-112250572D01*
X146243750Y-112225802D01*
X146297570Y-112189840D01*
X146343340Y-112144070D01*
X146379302Y-112090250D01*
X146404072Y-112030449D01*
X146416700Y-111966964D01*
X146416700Y-111902236D01*
X146404072Y-111838751D01*
X146379302Y-111778950D01*
X146343340Y-111725130D01*
X146325810Y-111707600D01*
X146343340Y-111690070D01*
X146379302Y-111636250D01*
X146404072Y-111576449D01*
X146416700Y-111512964D01*
X146416700Y-111448236D01*
X146404072Y-111384751D01*
X146379302Y-111324950D01*
X146376821Y-111321236D01*
X146902500Y-111321236D01*
X146902500Y-111385964D01*
X146915128Y-111449449D01*
X146939898Y-111509250D01*
X146975860Y-111563070D01*
X147021630Y-111608840D01*
X147075450Y-111644802D01*
X147135251Y-111669572D01*
X147198736Y-111682200D01*
X147263464Y-111682200D01*
X147326949Y-111669572D01*
X147386750Y-111644802D01*
X147440570Y-111608840D01*
X147486340Y-111563070D01*
X147522302Y-111509250D01*
X147547072Y-111449449D01*
X147559700Y-111385964D01*
X147559700Y-111321236D01*
X148172500Y-111321236D01*
X148172500Y-111385964D01*
X148185128Y-111449449D01*
X148209898Y-111509250D01*
X148245860Y-111563070D01*
X148291630Y-111608840D01*
X148345450Y-111644802D01*
X148405251Y-111669572D01*
X148468736Y-111682200D01*
X148533464Y-111682200D01*
X148596949Y-111669572D01*
X148656750Y-111644802D01*
X148710570Y-111608840D01*
X148756340Y-111563070D01*
X148792302Y-111509250D01*
X148817072Y-111449449D01*
X148820197Y-111433736D01*
X153252500Y-111433736D01*
X153252500Y-111498464D01*
X153265128Y-111561949D01*
X153289898Y-111621750D01*
X153325860Y-111675570D01*
X153371630Y-111721340D01*
X153425450Y-111757302D01*
X153485251Y-111782072D01*
X153548736Y-111794700D01*
X153613464Y-111794700D01*
X153676949Y-111782072D01*
X153736750Y-111757302D01*
X153790570Y-111721340D01*
X153836340Y-111675570D01*
X153872302Y-111621750D01*
X153897072Y-111561949D01*
X153909700Y-111498464D01*
X153909700Y-111433736D01*
X153897072Y-111370251D01*
X153872302Y-111310450D01*
X153836340Y-111256630D01*
X153790570Y-111210860D01*
X153736750Y-111174898D01*
X153676949Y-111150128D01*
X153613464Y-111137500D01*
X153548736Y-111137500D01*
X153485251Y-111150128D01*
X153425450Y-111174898D01*
X153371630Y-111210860D01*
X153325860Y-111256630D01*
X153289898Y-111310450D01*
X153265128Y-111370251D01*
X153252500Y-111433736D01*
X148820197Y-111433736D01*
X148829700Y-111385964D01*
X148829700Y-111321236D01*
X148817072Y-111257751D01*
X148792302Y-111197950D01*
X148756340Y-111144130D01*
X148710570Y-111098360D01*
X148656750Y-111062398D01*
X148596949Y-111037628D01*
X148533464Y-111025000D01*
X148468736Y-111025000D01*
X148405251Y-111037628D01*
X148345450Y-111062398D01*
X148291630Y-111098360D01*
X148245860Y-111144130D01*
X148209898Y-111197950D01*
X148185128Y-111257751D01*
X148172500Y-111321236D01*
X147559700Y-111321236D01*
X147547072Y-111257751D01*
X147522302Y-111197950D01*
X147486340Y-111144130D01*
X147440570Y-111098360D01*
X147386750Y-111062398D01*
X147326949Y-111037628D01*
X147263464Y-111025000D01*
X147198736Y-111025000D01*
X147135251Y-111037628D01*
X147075450Y-111062398D01*
X147021630Y-111098360D01*
X146975860Y-111144130D01*
X146939898Y-111197950D01*
X146915128Y-111257751D01*
X146902500Y-111321236D01*
X146376821Y-111321236D01*
X146343340Y-111271130D01*
X146297570Y-111225360D01*
X146243750Y-111189398D01*
X146183949Y-111164628D01*
X146120464Y-111152000D01*
X146055736Y-111152000D01*
X145992251Y-111164628D01*
X145932450Y-111189398D01*
X145878630Y-111225360D01*
X145839290Y-111264700D01*
X142926328Y-111264700D01*
X143310529Y-110880500D01*
X145839290Y-110880500D01*
X145878630Y-110919840D01*
X145932450Y-110955802D01*
X145992251Y-110980572D01*
X146055736Y-110993200D01*
X146120464Y-110993200D01*
X146183949Y-110980572D01*
X146243750Y-110955802D01*
X146297570Y-110919840D01*
X146343340Y-110874070D01*
X146379302Y-110820250D01*
X146404072Y-110760449D01*
X146416700Y-110696964D01*
X146416700Y-110632236D01*
X146404072Y-110568751D01*
X146379302Y-110508950D01*
X146343340Y-110455130D01*
X146325810Y-110437600D01*
X146343340Y-110420070D01*
X146379302Y-110366250D01*
X146404072Y-110306449D01*
X146416700Y-110242964D01*
X146416700Y-110178236D01*
X146404072Y-110114751D01*
X146379302Y-110054950D01*
X146376821Y-110051236D01*
X146902500Y-110051236D01*
X146902500Y-110115964D01*
X146915128Y-110179449D01*
X146939898Y-110239250D01*
X146975860Y-110293070D01*
X147021630Y-110338840D01*
X147075450Y-110374802D01*
X147135251Y-110399572D01*
X147198736Y-110412200D01*
X147263464Y-110412200D01*
X147326949Y-110399572D01*
X147386750Y-110374802D01*
X147440570Y-110338840D01*
X147486340Y-110293070D01*
X147522302Y-110239250D01*
X147547072Y-110179449D01*
X147559700Y-110115964D01*
X147559700Y-110051236D01*
X148172500Y-110051236D01*
X148172500Y-110115964D01*
X148185128Y-110179449D01*
X148209898Y-110239250D01*
X148245860Y-110293070D01*
X148291630Y-110338840D01*
X148345450Y-110374802D01*
X148405251Y-110399572D01*
X148468736Y-110412200D01*
X148533464Y-110412200D01*
X148596949Y-110399572D01*
X148656750Y-110374802D01*
X148710570Y-110338840D01*
X148756340Y-110293070D01*
X148792302Y-110239250D01*
X148817072Y-110179449D01*
X148829700Y-110115964D01*
X148829700Y-110051236D01*
X149442500Y-110051236D01*
X149442500Y-110115964D01*
X149455128Y-110179449D01*
X149479898Y-110239250D01*
X149515860Y-110293070D01*
X149561630Y-110338840D01*
X149615450Y-110374802D01*
X149675251Y-110399572D01*
X149738736Y-110412200D01*
X149803464Y-110412200D01*
X149866949Y-110399572D01*
X149926750Y-110374802D01*
X149980570Y-110338840D01*
X150026340Y-110293070D01*
X150062302Y-110239250D01*
X150087072Y-110179449D01*
X150087313Y-110178236D01*
X153760500Y-110178236D01*
X153760500Y-110242964D01*
X153773128Y-110306449D01*
X153797898Y-110366250D01*
X153833860Y-110420070D01*
X153879630Y-110465840D01*
X153933450Y-110501802D01*
X153993251Y-110526572D01*
X154056736Y-110539200D01*
X154121464Y-110539200D01*
X154184949Y-110526572D01*
X154244750Y-110501802D01*
X154298570Y-110465840D01*
X154344340Y-110420070D01*
X154380302Y-110366250D01*
X154405072Y-110306449D01*
X154417700Y-110242964D01*
X154417700Y-110178236D01*
X154405072Y-110114751D01*
X154380302Y-110054950D01*
X154344340Y-110001130D01*
X154298570Y-109955360D01*
X154244750Y-109919398D01*
X154184949Y-109894628D01*
X154121464Y-109882000D01*
X154056736Y-109882000D01*
X153993251Y-109894628D01*
X153933450Y-109919398D01*
X153879630Y-109955360D01*
X153833860Y-110001130D01*
X153797898Y-110054950D01*
X153773128Y-110114751D01*
X153760500Y-110178236D01*
X150087313Y-110178236D01*
X150099700Y-110115964D01*
X150099700Y-110051236D01*
X150087072Y-109987751D01*
X150062302Y-109927950D01*
X150026340Y-109874130D01*
X149980570Y-109828360D01*
X149926750Y-109792398D01*
X149866949Y-109767628D01*
X149803464Y-109755000D01*
X149738736Y-109755000D01*
X149675251Y-109767628D01*
X149615450Y-109792398D01*
X149561630Y-109828360D01*
X149515860Y-109874130D01*
X149479898Y-109927950D01*
X149455128Y-109987751D01*
X149442500Y-110051236D01*
X148829700Y-110051236D01*
X148817072Y-109987751D01*
X148792302Y-109927950D01*
X148756340Y-109874130D01*
X148710570Y-109828360D01*
X148656750Y-109792398D01*
X148596949Y-109767628D01*
X148533464Y-109755000D01*
X148468736Y-109755000D01*
X148405251Y-109767628D01*
X148345450Y-109792398D01*
X148291630Y-109828360D01*
X148245860Y-109874130D01*
X148209898Y-109927950D01*
X148185128Y-109987751D01*
X148172500Y-110051236D01*
X147559700Y-110051236D01*
X147547072Y-109987751D01*
X147522302Y-109927950D01*
X147486340Y-109874130D01*
X147440570Y-109828360D01*
X147386750Y-109792398D01*
X147326949Y-109767628D01*
X147263464Y-109755000D01*
X147198736Y-109755000D01*
X147135251Y-109767628D01*
X147075450Y-109792398D01*
X147021630Y-109828360D01*
X146975860Y-109874130D01*
X146939898Y-109927950D01*
X146915128Y-109987751D01*
X146902500Y-110051236D01*
X146376821Y-110051236D01*
X146343340Y-110001130D01*
X146297570Y-109955360D01*
X146243750Y-109919398D01*
X146183949Y-109894628D01*
X146120464Y-109882000D01*
X146055736Y-109882000D01*
X145992251Y-109894628D01*
X145932450Y-109919398D01*
X145878630Y-109955360D01*
X145832860Y-110001130D01*
X145796898Y-110054950D01*
X145775173Y-110107400D01*
X143163324Y-110107400D01*
X143152725Y-110106356D01*
X143142126Y-110107400D01*
X143110401Y-110110525D01*
X143069704Y-110122870D01*
X143032197Y-110142918D01*
X142999322Y-110169897D01*
X142992565Y-110178131D01*
X141150373Y-112020325D01*
X141073731Y-111988579D01*
X140946144Y-111963200D01*
X140816056Y-111963200D01*
X140688469Y-111988579D01*
X140568283Y-112038361D01*
X140460120Y-112110634D01*
X140368134Y-112202620D01*
X140295861Y-112310783D01*
X140294718Y-112313541D01*
X140221570Y-112136944D01*
X140109134Y-111968671D01*
X139966029Y-111825566D01*
X139865100Y-111758128D01*
X139865100Y-110949072D01*
X139966029Y-110881634D01*
X140109134Y-110738529D01*
X140221570Y-110570256D01*
X140294718Y-110393659D01*
X140295861Y-110396417D01*
X140368134Y-110504580D01*
X140460120Y-110596566D01*
X140568283Y-110668839D01*
X140688469Y-110718621D01*
X140816056Y-110744000D01*
X140946144Y-110744000D01*
X141073731Y-110718621D01*
X141193917Y-110668839D01*
X141302080Y-110596566D01*
X141394066Y-110504580D01*
X141466339Y-110396417D01*
X141516121Y-110276231D01*
X141541500Y-110148644D01*
X141541500Y-110018556D01*
X141516121Y-109890969D01*
X141477297Y-109797236D01*
X142584500Y-109797236D01*
X142584500Y-109861964D01*
X142597128Y-109925449D01*
X142621898Y-109985250D01*
X142657860Y-110039070D01*
X142703630Y-110084840D01*
X142757450Y-110120802D01*
X142817251Y-110145572D01*
X142880736Y-110158200D01*
X142945464Y-110158200D01*
X143008949Y-110145572D01*
X143068750Y-110120802D01*
X143122570Y-110084840D01*
X143168340Y-110039070D01*
X143204302Y-109985250D01*
X143229072Y-109925449D01*
X143241700Y-109861964D01*
X143241700Y-109797236D01*
X143229072Y-109733751D01*
X143204302Y-109673950D01*
X143168340Y-109620130D01*
X143129446Y-109581236D01*
X153482500Y-109581236D01*
X153482500Y-109645964D01*
X153495128Y-109709449D01*
X153519898Y-109769250D01*
X153555860Y-109823070D01*
X153601630Y-109868840D01*
X153655450Y-109904802D01*
X153715251Y-109929572D01*
X153778736Y-109942200D01*
X153843464Y-109942200D01*
X153906949Y-109929572D01*
X153966750Y-109904802D01*
X154020570Y-109868840D01*
X154066340Y-109823070D01*
X154102302Y-109769250D01*
X154127072Y-109709449D01*
X154139700Y-109645964D01*
X154139700Y-109581236D01*
X154127072Y-109517751D01*
X154102302Y-109457950D01*
X154066340Y-109404130D01*
X154020570Y-109358360D01*
X153966750Y-109322398D01*
X153906949Y-109297628D01*
X153843464Y-109285000D01*
X153778736Y-109285000D01*
X153715251Y-109297628D01*
X153655450Y-109322398D01*
X153601630Y-109358360D01*
X153555860Y-109404130D01*
X153519898Y-109457950D01*
X153495128Y-109517751D01*
X153482500Y-109581236D01*
X143129446Y-109581236D01*
X143122570Y-109574360D01*
X143068750Y-109538398D01*
X143008949Y-109513628D01*
X142945464Y-109501000D01*
X142880736Y-109501000D01*
X142817251Y-109513628D01*
X142757450Y-109538398D01*
X142703630Y-109574360D01*
X142657860Y-109620130D01*
X142621898Y-109673950D01*
X142597128Y-109733751D01*
X142584500Y-109797236D01*
X141477297Y-109797236D01*
X141466339Y-109770783D01*
X141394066Y-109662620D01*
X141302080Y-109570634D01*
X141193917Y-109498361D01*
X141073731Y-109448579D01*
X140946144Y-109423200D01*
X140816056Y-109423200D01*
X140688469Y-109448579D01*
X140568283Y-109498361D01*
X140460120Y-109570634D01*
X140368134Y-109662620D01*
X140295861Y-109770783D01*
X140294718Y-109773541D01*
X140221570Y-109596944D01*
X140109134Y-109428671D01*
X139966029Y-109285566D01*
X139865100Y-109218128D01*
X139865100Y-108781236D01*
X146902500Y-108781236D01*
X146902500Y-108845964D01*
X146915128Y-108909449D01*
X146939898Y-108969250D01*
X146975860Y-109023070D01*
X147021630Y-109068840D01*
X147075450Y-109104802D01*
X147135251Y-109129572D01*
X147198736Y-109142200D01*
X147263464Y-109142200D01*
X147326949Y-109129572D01*
X147386750Y-109104802D01*
X147440570Y-109068840D01*
X147486340Y-109023070D01*
X147522302Y-108969250D01*
X147547072Y-108909449D01*
X147559700Y-108845964D01*
X147559700Y-108781236D01*
X148172500Y-108781236D01*
X148172500Y-108845964D01*
X148185128Y-108909449D01*
X148209898Y-108969250D01*
X148245860Y-109023070D01*
X148291630Y-109068840D01*
X148345450Y-109104802D01*
X148405251Y-109129572D01*
X148468736Y-109142200D01*
X148533464Y-109142200D01*
X148596949Y-109129572D01*
X148656750Y-109104802D01*
X148710570Y-109068840D01*
X148756340Y-109023070D01*
X148792302Y-108969250D01*
X148817072Y-108909449D01*
X148829700Y-108845964D01*
X148829700Y-108781236D01*
X149442500Y-108781236D01*
X149442500Y-108845964D01*
X149455128Y-108909449D01*
X149479898Y-108969250D01*
X149515860Y-109023070D01*
X149561630Y-109068840D01*
X149615450Y-109104802D01*
X149675251Y-109129572D01*
X149738736Y-109142200D01*
X149803464Y-109142200D01*
X149866949Y-109129572D01*
X149926750Y-109104802D01*
X149980570Y-109068840D01*
X150026340Y-109023070D01*
X150062302Y-108969250D01*
X150087072Y-108909449D01*
X150099700Y-108845964D01*
X150099700Y-108781236D01*
X150087072Y-108717751D01*
X150062302Y-108657950D01*
X150026340Y-108604130D01*
X149980570Y-108558360D01*
X149926750Y-108522398D01*
X149866949Y-108497628D01*
X149803464Y-108485000D01*
X149738736Y-108485000D01*
X149675251Y-108497628D01*
X149615450Y-108522398D01*
X149561630Y-108558360D01*
X149515860Y-108604130D01*
X149479898Y-108657950D01*
X149455128Y-108717751D01*
X149442500Y-108781236D01*
X148829700Y-108781236D01*
X148817072Y-108717751D01*
X148792302Y-108657950D01*
X148756340Y-108604130D01*
X148710570Y-108558360D01*
X148656750Y-108522398D01*
X148596949Y-108497628D01*
X148533464Y-108485000D01*
X148468736Y-108485000D01*
X148405251Y-108497628D01*
X148345450Y-108522398D01*
X148291630Y-108558360D01*
X148245860Y-108604130D01*
X148209898Y-108657950D01*
X148185128Y-108717751D01*
X148172500Y-108781236D01*
X147559700Y-108781236D01*
X147547072Y-108717751D01*
X147522302Y-108657950D01*
X147486340Y-108604130D01*
X147440570Y-108558360D01*
X147386750Y-108522398D01*
X147326949Y-108497628D01*
X147263464Y-108485000D01*
X147198736Y-108485000D01*
X147135251Y-108497628D01*
X147075450Y-108522398D01*
X147021630Y-108558360D01*
X146975860Y-108604130D01*
X146939898Y-108657950D01*
X146915128Y-108717751D01*
X146902500Y-108781236D01*
X139865100Y-108781236D01*
X139865100Y-108409072D01*
X139966029Y-108341634D01*
X140109134Y-108198529D01*
X140221570Y-108030256D01*
X140294718Y-107853659D01*
X140295861Y-107856417D01*
X140368134Y-107964580D01*
X140460120Y-108056566D01*
X140568283Y-108128839D01*
X140688469Y-108178621D01*
X140816056Y-108204000D01*
X140946144Y-108204000D01*
X141073731Y-108178621D01*
X141193917Y-108128839D01*
X141302080Y-108056566D01*
X141394066Y-107964580D01*
X141466339Y-107856417D01*
X141516121Y-107736231D01*
X141541500Y-107608644D01*
X141541500Y-107511236D01*
X145886500Y-107511236D01*
X145886500Y-107575964D01*
X145899128Y-107639449D01*
X145923898Y-107699250D01*
X145959860Y-107753070D01*
X146005630Y-107798840D01*
X146059450Y-107834802D01*
X146119251Y-107859572D01*
X146182736Y-107872200D01*
X146247464Y-107872200D01*
X146272475Y-107867225D01*
X146267500Y-107892236D01*
X146267500Y-107956964D01*
X146280128Y-108020449D01*
X146304898Y-108080250D01*
X146340860Y-108134070D01*
X146386630Y-108179840D01*
X146440450Y-108215802D01*
X146500251Y-108240572D01*
X146563736Y-108253200D01*
X146628464Y-108253200D01*
X146691949Y-108240572D01*
X146751750Y-108215802D01*
X146805570Y-108179840D01*
X146851340Y-108134070D01*
X146887302Y-108080250D01*
X146909756Y-108026041D01*
X146915128Y-108053049D01*
X146939898Y-108112850D01*
X146975860Y-108166670D01*
X147021630Y-108212440D01*
X147075450Y-108248402D01*
X147135251Y-108273172D01*
X147198736Y-108285800D01*
X147263464Y-108285800D01*
X147326949Y-108273172D01*
X147386750Y-108248402D01*
X147440570Y-108212440D01*
X147486340Y-108166670D01*
X147522302Y-108112850D01*
X147547072Y-108053049D01*
X147559700Y-107989564D01*
X147559700Y-107924836D01*
X147547072Y-107861351D01*
X147522302Y-107801550D01*
X147486340Y-107747730D01*
X147466986Y-107728376D01*
X147491550Y-107718202D01*
X147545370Y-107682240D01*
X147561267Y-107666343D01*
X147574898Y-107699250D01*
X147610860Y-107753070D01*
X147656630Y-107798840D01*
X147710450Y-107834802D01*
X147770251Y-107859572D01*
X147833736Y-107872200D01*
X147898464Y-107872200D01*
X147961949Y-107859572D01*
X148021750Y-107834802D01*
X148075570Y-107798840D01*
X148121340Y-107753070D01*
X148157302Y-107699250D01*
X148172500Y-107662558D01*
X148172500Y-107702964D01*
X148185128Y-107766449D01*
X148209898Y-107826250D01*
X148245860Y-107880070D01*
X148291630Y-107925840D01*
X148345450Y-107961802D01*
X148405251Y-107986572D01*
X148468736Y-107999200D01*
X148533464Y-107999200D01*
X148596949Y-107986572D01*
X148656750Y-107961802D01*
X148710570Y-107925840D01*
X148756340Y-107880070D01*
X148792302Y-107826250D01*
X148817072Y-107766449D01*
X148829700Y-107702964D01*
X148829700Y-107638236D01*
X149188500Y-107638236D01*
X149188500Y-107702964D01*
X149201128Y-107766449D01*
X149225898Y-107826250D01*
X149261860Y-107880070D01*
X149307630Y-107925840D01*
X149361450Y-107961802D01*
X149421251Y-107986572D01*
X149484736Y-107999200D01*
X149549464Y-107999200D01*
X149612949Y-107986572D01*
X149672750Y-107961802D01*
X149726570Y-107925840D01*
X149744100Y-107908310D01*
X149761630Y-107925840D01*
X149815450Y-107961802D01*
X149875251Y-107986572D01*
X149938736Y-107999200D01*
X150003464Y-107999200D01*
X150066949Y-107986572D01*
X150126750Y-107961802D01*
X150180570Y-107925840D01*
X150226340Y-107880070D01*
X150262302Y-107826250D01*
X150287072Y-107766449D01*
X150299700Y-107702964D01*
X150299700Y-107638236D01*
X150287072Y-107574751D01*
X150262302Y-107514950D01*
X150226340Y-107461130D01*
X150180570Y-107415360D01*
X150126750Y-107379398D01*
X150066949Y-107354628D01*
X150003464Y-107342000D01*
X149938736Y-107342000D01*
X149875251Y-107354628D01*
X149815450Y-107379398D01*
X149761630Y-107415360D01*
X149744100Y-107432890D01*
X149726570Y-107415360D01*
X149672750Y-107379398D01*
X149612949Y-107354628D01*
X149549464Y-107342000D01*
X149484736Y-107342000D01*
X149421251Y-107354628D01*
X149361450Y-107379398D01*
X149307630Y-107415360D01*
X149261860Y-107461130D01*
X149225898Y-107514950D01*
X149201128Y-107574751D01*
X149188500Y-107638236D01*
X148829700Y-107638236D01*
X148817072Y-107574751D01*
X148792302Y-107514950D01*
X148756340Y-107461130D01*
X148710570Y-107415360D01*
X148656750Y-107379398D01*
X148596949Y-107354628D01*
X148533464Y-107342000D01*
X148468736Y-107342000D01*
X148405251Y-107354628D01*
X148345450Y-107379398D01*
X148291630Y-107415360D01*
X148245860Y-107461130D01*
X148209898Y-107514950D01*
X148194700Y-107551642D01*
X148194700Y-107511236D01*
X148182072Y-107447751D01*
X148157302Y-107387950D01*
X148121340Y-107334130D01*
X148075570Y-107288360D01*
X148021750Y-107252398D01*
X147961949Y-107227628D01*
X147898464Y-107215000D01*
X147833736Y-107215000D01*
X147770251Y-107227628D01*
X147710450Y-107252398D01*
X147656630Y-107288360D01*
X147640733Y-107304257D01*
X147627102Y-107271350D01*
X147591140Y-107217530D01*
X147545370Y-107171760D01*
X147491550Y-107135798D01*
X147431749Y-107111028D01*
X147368264Y-107098400D01*
X147303536Y-107098400D01*
X147240051Y-107111028D01*
X147180250Y-107135798D01*
X147126430Y-107171760D01*
X147080660Y-107217530D01*
X147044698Y-107271350D01*
X147019928Y-107331151D01*
X147007300Y-107394636D01*
X147007300Y-107459364D01*
X147019928Y-107522849D01*
X147044698Y-107582650D01*
X147080660Y-107636470D01*
X147100014Y-107655824D01*
X147075450Y-107665998D01*
X147021630Y-107701960D01*
X146975860Y-107747730D01*
X146939898Y-107801550D01*
X146917444Y-107855759D01*
X146912072Y-107828751D01*
X146887302Y-107768950D01*
X146851340Y-107715130D01*
X146805570Y-107669360D01*
X146751750Y-107633398D01*
X146691949Y-107608628D01*
X146628464Y-107596000D01*
X146563736Y-107596000D01*
X146538725Y-107600975D01*
X146543700Y-107575964D01*
X146543700Y-107511236D01*
X146531072Y-107447751D01*
X146506302Y-107387950D01*
X146470340Y-107334130D01*
X146424570Y-107288360D01*
X146370750Y-107252398D01*
X146310949Y-107227628D01*
X146247464Y-107215000D01*
X146182736Y-107215000D01*
X146119251Y-107227628D01*
X146059450Y-107252398D01*
X146005630Y-107288360D01*
X145959860Y-107334130D01*
X145923898Y-107387950D01*
X145899128Y-107447751D01*
X145886500Y-107511236D01*
X141541500Y-107511236D01*
X141541500Y-107478556D01*
X141516121Y-107350969D01*
X141466339Y-107230783D01*
X141394066Y-107122620D01*
X141302080Y-107030634D01*
X141193917Y-106958361D01*
X141073731Y-106908579D01*
X140946144Y-106883200D01*
X140816056Y-106883200D01*
X140688469Y-106908579D01*
X140568283Y-106958361D01*
X140460120Y-107030634D01*
X140368134Y-107122620D01*
X140295861Y-107230783D01*
X140294718Y-107233541D01*
X140221570Y-107056944D01*
X140109134Y-106888671D01*
X139966029Y-106745566D01*
X139865100Y-106678128D01*
X139865100Y-105869072D01*
X139966029Y-105801634D01*
X140109134Y-105658529D01*
X140221570Y-105490256D01*
X140294718Y-105313659D01*
X140295861Y-105316417D01*
X140368134Y-105424580D01*
X140460120Y-105516566D01*
X140568283Y-105588839D01*
X140688469Y-105638621D01*
X140816056Y-105664000D01*
X140946144Y-105664000D01*
X141073731Y-105638621D01*
X141151916Y-105606236D01*
X143473500Y-105606236D01*
X143473500Y-105670964D01*
X143486128Y-105734449D01*
X143510898Y-105794250D01*
X143546860Y-105848070D01*
X143592630Y-105893840D01*
X143646450Y-105929802D01*
X143706251Y-105954572D01*
X143769736Y-105967200D01*
X143834464Y-105967200D01*
X143897949Y-105954572D01*
X143957750Y-105929802D01*
X144011570Y-105893840D01*
X144057340Y-105848070D01*
X144093302Y-105794250D01*
X144118072Y-105734449D01*
X144130700Y-105670964D01*
X144130700Y-105606236D01*
X144118072Y-105542751D01*
X144093302Y-105482950D01*
X144057340Y-105429130D01*
X144011570Y-105383360D01*
X143964991Y-105352236D01*
X144997500Y-105352236D01*
X144997500Y-105416964D01*
X145010128Y-105480449D01*
X145034898Y-105540250D01*
X145070860Y-105594070D01*
X145116630Y-105639840D01*
X145170450Y-105675802D01*
X145230251Y-105700572D01*
X145293736Y-105713200D01*
X145358464Y-105713200D01*
X145421949Y-105700572D01*
X145481750Y-105675802D01*
X145535570Y-105639840D01*
X145581340Y-105594070D01*
X145617302Y-105540250D01*
X145642072Y-105480449D01*
X145654700Y-105416964D01*
X145654700Y-105352236D01*
X145642072Y-105288751D01*
X145617302Y-105228950D01*
X145581340Y-105175130D01*
X145535570Y-105129360D01*
X145481750Y-105093398D01*
X145421949Y-105068628D01*
X145358464Y-105056000D01*
X145293736Y-105056000D01*
X145230251Y-105068628D01*
X145170450Y-105093398D01*
X145116630Y-105129360D01*
X145070860Y-105175130D01*
X145034898Y-105228950D01*
X145010128Y-105288751D01*
X144997500Y-105352236D01*
X143964991Y-105352236D01*
X143957750Y-105347398D01*
X143897949Y-105322628D01*
X143834464Y-105310000D01*
X143769736Y-105310000D01*
X143706251Y-105322628D01*
X143646450Y-105347398D01*
X143592630Y-105383360D01*
X143546860Y-105429130D01*
X143510898Y-105482950D01*
X143486128Y-105542751D01*
X143473500Y-105606236D01*
X141151916Y-105606236D01*
X141193917Y-105588839D01*
X141302080Y-105516566D01*
X141394066Y-105424580D01*
X141466339Y-105316417D01*
X141516121Y-105196231D01*
X141541500Y-105068644D01*
X141541500Y-104938556D01*
X141516121Y-104810969D01*
X141466339Y-104690783D01*
X141394066Y-104582620D01*
X141302080Y-104490634D01*
X141193917Y-104418361D01*
X141073731Y-104368579D01*
X140946144Y-104343200D01*
X140816056Y-104343200D01*
X140688469Y-104368579D01*
X140568283Y-104418361D01*
X140460120Y-104490634D01*
X140368134Y-104582620D01*
X140295861Y-104690783D01*
X140294718Y-104693541D01*
X140221570Y-104516944D01*
X140109134Y-104348671D01*
X139966029Y-104205566D01*
X139865100Y-104138128D01*
X139865100Y-104082236D01*
X146521500Y-104082236D01*
X146521500Y-104146964D01*
X146534128Y-104210449D01*
X146558898Y-104270250D01*
X146594860Y-104324070D01*
X146640630Y-104369840D01*
X146694450Y-104405802D01*
X146754251Y-104430572D01*
X146817736Y-104443200D01*
X146882464Y-104443200D01*
X146945949Y-104430572D01*
X147005750Y-104405802D01*
X147059570Y-104369840D01*
X147098910Y-104330500D01*
X148855618Y-104330500D01*
X148853450Y-104331398D01*
X148799630Y-104367360D01*
X148753860Y-104413130D01*
X148717898Y-104466950D01*
X148693128Y-104526751D01*
X148680500Y-104590236D01*
X148680500Y-104654964D01*
X148693128Y-104718449D01*
X148717898Y-104778250D01*
X148753860Y-104832070D01*
X148799630Y-104877840D01*
X148853450Y-104913802D01*
X148913251Y-104938572D01*
X148976736Y-104951200D01*
X149041464Y-104951200D01*
X149104949Y-104938572D01*
X149164750Y-104913802D01*
X149218570Y-104877840D01*
X149264340Y-104832070D01*
X149300302Y-104778250D01*
X149325072Y-104718449D01*
X149325313Y-104717236D01*
X150712500Y-104717236D01*
X150712500Y-104781964D01*
X150725128Y-104845449D01*
X150749898Y-104905250D01*
X150785860Y-104959070D01*
X150831630Y-105004840D01*
X150885450Y-105040802D01*
X150945251Y-105065572D01*
X151008736Y-105078200D01*
X151073464Y-105078200D01*
X151136949Y-105065572D01*
X151196750Y-105040802D01*
X151250570Y-105004840D01*
X151296340Y-104959070D01*
X151332302Y-104905250D01*
X151357072Y-104845449D01*
X151369700Y-104781964D01*
X151369700Y-104717236D01*
X151357072Y-104653751D01*
X151332302Y-104593950D01*
X151296340Y-104540130D01*
X151250570Y-104494360D01*
X151203991Y-104463236D01*
X153252500Y-104463236D01*
X153252500Y-104527964D01*
X153265128Y-104591449D01*
X153289898Y-104651250D01*
X153325860Y-104705070D01*
X153371630Y-104750840D01*
X153425450Y-104786802D01*
X153485251Y-104811572D01*
X153548736Y-104824200D01*
X153613464Y-104824200D01*
X153676949Y-104811572D01*
X153736750Y-104786802D01*
X153790570Y-104750840D01*
X153836340Y-104705070D01*
X153872302Y-104651250D01*
X153897072Y-104591449D01*
X153909700Y-104527964D01*
X153909700Y-104463236D01*
X153897072Y-104399751D01*
X153872302Y-104339950D01*
X153836340Y-104286130D01*
X153790570Y-104240360D01*
X153736750Y-104204398D01*
X153676949Y-104179628D01*
X153613464Y-104167000D01*
X153548736Y-104167000D01*
X153485251Y-104179628D01*
X153425450Y-104204398D01*
X153371630Y-104240360D01*
X153325860Y-104286130D01*
X153289898Y-104339950D01*
X153265128Y-104399751D01*
X153252500Y-104463236D01*
X151203991Y-104463236D01*
X151196750Y-104458398D01*
X151136949Y-104433628D01*
X151073464Y-104421000D01*
X151008736Y-104421000D01*
X150945251Y-104433628D01*
X150885450Y-104458398D01*
X150831630Y-104494360D01*
X150785860Y-104540130D01*
X150749898Y-104593950D01*
X150725128Y-104653751D01*
X150712500Y-104717236D01*
X149325313Y-104717236D01*
X149337700Y-104654964D01*
X149337700Y-104590236D01*
X149325072Y-104526751D01*
X149300302Y-104466950D01*
X149264340Y-104413130D01*
X149218570Y-104367360D01*
X149164750Y-104331398D01*
X149162582Y-104330500D01*
X150284290Y-104330500D01*
X150323630Y-104369840D01*
X150377450Y-104405802D01*
X150437251Y-104430572D01*
X150500736Y-104443200D01*
X150565464Y-104443200D01*
X150628949Y-104430572D01*
X150688750Y-104405802D01*
X150742570Y-104369840D01*
X150788340Y-104324070D01*
X150824302Y-104270250D01*
X150849072Y-104210449D01*
X150861700Y-104146964D01*
X150861700Y-104082236D01*
X150849072Y-104018751D01*
X150824302Y-103958950D01*
X150788340Y-103905130D01*
X150742570Y-103859360D01*
X150688750Y-103823398D01*
X150628949Y-103798628D01*
X150565464Y-103786000D01*
X150500736Y-103786000D01*
X150437251Y-103798628D01*
X150377450Y-103823398D01*
X150323630Y-103859360D01*
X150284290Y-103898700D01*
X147098910Y-103898700D01*
X147059570Y-103859360D01*
X147005750Y-103823398D01*
X146945949Y-103798628D01*
X146882464Y-103786000D01*
X146817736Y-103786000D01*
X146754251Y-103798628D01*
X146694450Y-103823398D01*
X146640630Y-103859360D01*
X146594860Y-103905130D01*
X146558898Y-103958950D01*
X146534128Y-104018751D01*
X146521500Y-104082236D01*
X139865100Y-104082236D01*
X139865100Y-103329072D01*
X139878324Y-103320236D01*
X143473500Y-103320236D01*
X143473500Y-103384964D01*
X143486128Y-103448449D01*
X143510898Y-103508250D01*
X143546860Y-103562070D01*
X143592630Y-103607840D01*
X143646450Y-103643802D01*
X143706251Y-103668572D01*
X143769736Y-103681200D01*
X143834464Y-103681200D01*
X143897949Y-103668572D01*
X143957750Y-103643802D01*
X144011570Y-103607840D01*
X144057340Y-103562070D01*
X144093302Y-103508250D01*
X144118072Y-103448449D01*
X144118313Y-103447236D01*
X145378500Y-103447236D01*
X145378500Y-103511964D01*
X145391128Y-103575449D01*
X145415898Y-103635250D01*
X145451860Y-103689070D01*
X145497630Y-103734840D01*
X145551450Y-103770802D01*
X145611251Y-103795572D01*
X145674736Y-103808200D01*
X145739464Y-103808200D01*
X145802949Y-103795572D01*
X145862750Y-103770802D01*
X145916570Y-103734840D01*
X145962340Y-103689070D01*
X145998302Y-103635250D01*
X146023072Y-103575449D01*
X146035700Y-103511964D01*
X146035700Y-103447236D01*
X146023072Y-103383751D01*
X145998302Y-103323950D01*
X145962340Y-103270130D01*
X145916570Y-103224360D01*
X145862750Y-103188398D01*
X145802949Y-103163628D01*
X145739464Y-103151000D01*
X145674736Y-103151000D01*
X145611251Y-103163628D01*
X145551450Y-103188398D01*
X145497630Y-103224360D01*
X145451860Y-103270130D01*
X145415898Y-103323950D01*
X145391128Y-103383751D01*
X145378500Y-103447236D01*
X144118313Y-103447236D01*
X144130700Y-103384964D01*
X144130700Y-103320236D01*
X144118072Y-103256751D01*
X144093302Y-103196950D01*
X144057340Y-103143130D01*
X144011570Y-103097360D01*
X143957750Y-103061398D01*
X143897949Y-103036628D01*
X143834464Y-103024000D01*
X143769736Y-103024000D01*
X143706251Y-103036628D01*
X143646450Y-103061398D01*
X143592630Y-103097360D01*
X143546860Y-103143130D01*
X143510898Y-103196950D01*
X143486128Y-103256751D01*
X143473500Y-103320236D01*
X139878324Y-103320236D01*
X139966029Y-103261634D01*
X140109134Y-103118529D01*
X140221570Y-102950256D01*
X140294718Y-102773659D01*
X140295861Y-102776417D01*
X140368134Y-102884580D01*
X140460120Y-102976566D01*
X140568283Y-103048839D01*
X140688469Y-103098621D01*
X140816056Y-103124000D01*
X140946144Y-103124000D01*
X141073731Y-103098621D01*
X141193917Y-103048839D01*
X141302080Y-102976566D01*
X141394066Y-102884580D01*
X141442405Y-102812236D01*
X146140500Y-102812236D01*
X146140500Y-102876964D01*
X146153128Y-102940449D01*
X146177898Y-103000250D01*
X146213860Y-103054070D01*
X146259630Y-103099840D01*
X146313450Y-103135802D01*
X146373251Y-103160572D01*
X146436736Y-103173200D01*
X146501464Y-103173200D01*
X146564949Y-103160572D01*
X146624750Y-103135802D01*
X146678570Y-103099840D01*
X146724340Y-103054070D01*
X146760302Y-103000250D01*
X146785072Y-102940449D01*
X146797700Y-102876964D01*
X146797700Y-102812236D01*
X146902500Y-102812236D01*
X146902500Y-102876964D01*
X146915128Y-102940449D01*
X146939898Y-103000250D01*
X146975860Y-103054070D01*
X147021630Y-103099840D01*
X147075450Y-103135802D01*
X147135251Y-103160572D01*
X147198736Y-103173200D01*
X147263464Y-103173200D01*
X147326949Y-103160572D01*
X147386750Y-103135802D01*
X147440570Y-103099840D01*
X147479910Y-103060500D01*
X150284290Y-103060500D01*
X150323630Y-103099840D01*
X150377450Y-103135802D01*
X150437251Y-103160572D01*
X150500736Y-103173200D01*
X150565464Y-103173200D01*
X150628949Y-103160572D01*
X150688750Y-103135802D01*
X150742570Y-103099840D01*
X150788340Y-103054070D01*
X150824302Y-103000250D01*
X150849072Y-102940449D01*
X150861700Y-102876964D01*
X150861700Y-102812236D01*
X150849072Y-102748751D01*
X150824302Y-102688950D01*
X150788340Y-102635130D01*
X150742570Y-102589360D01*
X150688750Y-102553398D01*
X150628949Y-102528628D01*
X150565464Y-102516000D01*
X150500736Y-102516000D01*
X150437251Y-102528628D01*
X150377450Y-102553398D01*
X150323630Y-102589360D01*
X150284290Y-102628700D01*
X147479910Y-102628700D01*
X147440570Y-102589360D01*
X147386750Y-102553398D01*
X147326949Y-102528628D01*
X147263464Y-102516000D01*
X147198736Y-102516000D01*
X147135251Y-102528628D01*
X147075450Y-102553398D01*
X147021630Y-102589360D01*
X146975860Y-102635130D01*
X146939898Y-102688950D01*
X146915128Y-102748751D01*
X146902500Y-102812236D01*
X146797700Y-102812236D01*
X146785072Y-102748751D01*
X146760302Y-102688950D01*
X146724340Y-102635130D01*
X146678570Y-102589360D01*
X146624750Y-102553398D01*
X146564949Y-102528628D01*
X146501464Y-102516000D01*
X146436736Y-102516000D01*
X146373251Y-102528628D01*
X146313450Y-102553398D01*
X146259630Y-102589360D01*
X146213860Y-102635130D01*
X146177898Y-102688950D01*
X146153128Y-102748751D01*
X146140500Y-102812236D01*
X141442405Y-102812236D01*
X141466339Y-102776417D01*
X141516121Y-102656231D01*
X141541500Y-102528644D01*
X141541500Y-102398556D01*
X141516121Y-102270969D01*
X141466339Y-102150783D01*
X141394066Y-102042620D01*
X141302080Y-101950634D01*
X141193917Y-101878361D01*
X141073731Y-101828579D01*
X140946144Y-101803200D01*
X140816056Y-101803200D01*
X140688469Y-101828579D01*
X140568283Y-101878361D01*
X140460120Y-101950634D01*
X140368134Y-102042620D01*
X140295861Y-102150783D01*
X140294718Y-102153541D01*
X140221570Y-101976944D01*
X140109134Y-101808671D01*
X139966029Y-101665566D01*
X139865100Y-101598128D01*
X139865100Y-101542236D01*
X146140500Y-101542236D01*
X146140500Y-101606964D01*
X146153128Y-101670449D01*
X146177898Y-101730250D01*
X146213860Y-101784070D01*
X146259630Y-101829840D01*
X146313450Y-101865802D01*
X146373251Y-101890572D01*
X146436736Y-101903200D01*
X146501464Y-101903200D01*
X146564949Y-101890572D01*
X146624750Y-101865802D01*
X146678570Y-101829840D01*
X146724340Y-101784070D01*
X146760302Y-101730250D01*
X146785072Y-101670449D01*
X146797700Y-101606964D01*
X146797700Y-101542236D01*
X147283500Y-101542236D01*
X147283500Y-101606964D01*
X147296128Y-101670449D01*
X147320898Y-101730250D01*
X147356860Y-101784070D01*
X147402630Y-101829840D01*
X147456450Y-101865802D01*
X147516251Y-101890572D01*
X147579736Y-101903200D01*
X147644464Y-101903200D01*
X147707949Y-101890572D01*
X147767750Y-101865802D01*
X147821570Y-101829840D01*
X147860910Y-101790500D01*
X150284290Y-101790500D01*
X150323630Y-101829840D01*
X150377450Y-101865802D01*
X150437251Y-101890572D01*
X150500736Y-101903200D01*
X150565464Y-101903200D01*
X150628949Y-101890572D01*
X150688750Y-101865802D01*
X150742570Y-101829840D01*
X150776174Y-101796236D01*
X152617500Y-101796236D01*
X152617500Y-101860964D01*
X152630128Y-101924449D01*
X152654898Y-101984250D01*
X152690860Y-102038070D01*
X152736630Y-102083840D01*
X152790450Y-102119802D01*
X152850251Y-102144572D01*
X152913736Y-102157200D01*
X152978464Y-102157200D01*
X153041949Y-102144572D01*
X153101750Y-102119802D01*
X153155570Y-102083840D01*
X153201340Y-102038070D01*
X153237302Y-101984250D01*
X153262072Y-101924449D01*
X153274700Y-101860964D01*
X153274700Y-101796236D01*
X153262072Y-101732751D01*
X153237302Y-101672950D01*
X153201340Y-101619130D01*
X153155570Y-101573360D01*
X153101750Y-101537398D01*
X153041949Y-101512628D01*
X152978464Y-101500000D01*
X152913736Y-101500000D01*
X152850251Y-101512628D01*
X152790450Y-101537398D01*
X152736630Y-101573360D01*
X152690860Y-101619130D01*
X152654898Y-101672950D01*
X152630128Y-101732751D01*
X152617500Y-101796236D01*
X150776174Y-101796236D01*
X150788340Y-101784070D01*
X150824302Y-101730250D01*
X150849072Y-101670449D01*
X150861700Y-101606964D01*
X150861700Y-101542236D01*
X150849072Y-101478751D01*
X150824302Y-101418950D01*
X150788340Y-101365130D01*
X150742570Y-101319360D01*
X150688750Y-101283398D01*
X150628949Y-101258628D01*
X150565464Y-101246000D01*
X150500736Y-101246000D01*
X150437251Y-101258628D01*
X150377450Y-101283398D01*
X150323630Y-101319360D01*
X150284290Y-101358700D01*
X147860910Y-101358700D01*
X147821570Y-101319360D01*
X147767750Y-101283398D01*
X147707949Y-101258628D01*
X147644464Y-101246000D01*
X147579736Y-101246000D01*
X147516251Y-101258628D01*
X147456450Y-101283398D01*
X147402630Y-101319360D01*
X147356860Y-101365130D01*
X147320898Y-101418950D01*
X147296128Y-101478751D01*
X147283500Y-101542236D01*
X146797700Y-101542236D01*
X146785072Y-101478751D01*
X146760302Y-101418950D01*
X146724340Y-101365130D01*
X146678570Y-101319360D01*
X146624750Y-101283398D01*
X146564949Y-101258628D01*
X146501464Y-101246000D01*
X146436736Y-101246000D01*
X146373251Y-101258628D01*
X146313450Y-101283398D01*
X146259630Y-101319360D01*
X146213860Y-101365130D01*
X146177898Y-101418950D01*
X146153128Y-101478751D01*
X146140500Y-101542236D01*
X139865100Y-101542236D01*
X139865100Y-100789072D01*
X139966029Y-100721634D01*
X140109134Y-100578529D01*
X140221570Y-100410256D01*
X140294718Y-100233659D01*
X140295861Y-100236417D01*
X140368134Y-100344580D01*
X140460120Y-100436566D01*
X140568283Y-100508839D01*
X140688469Y-100558621D01*
X140816056Y-100584000D01*
X140946144Y-100584000D01*
X141073731Y-100558621D01*
X141193917Y-100508839D01*
X141302080Y-100436566D01*
X141325382Y-100413264D01*
X155702713Y-100413264D01*
X155758380Y-100508587D01*
X155879475Y-100568109D01*
X156009855Y-100602864D01*
X156144511Y-100611514D01*
X156278267Y-100593729D01*
X156405983Y-100550191D01*
X156483820Y-100508587D01*
X156539487Y-100413264D01*
X156121100Y-99994876D01*
X155702713Y-100413264D01*
X141325382Y-100413264D01*
X141394066Y-100344580D01*
X141466339Y-100236417D01*
X141516121Y-100116231D01*
X141541500Y-99988644D01*
X141541500Y-99947011D01*
X155433186Y-99947011D01*
X155450971Y-100080767D01*
X155494509Y-100208483D01*
X155536113Y-100286320D01*
X155631436Y-100341987D01*
X156049824Y-99923600D01*
X155631436Y-99505213D01*
X155536113Y-99560880D01*
X155476591Y-99681975D01*
X155441836Y-99812355D01*
X155433186Y-99947011D01*
X141541500Y-99947011D01*
X141541500Y-99858556D01*
X141516121Y-99730969D01*
X141466339Y-99610783D01*
X141394066Y-99502620D01*
X141325382Y-99433936D01*
X155702713Y-99433936D01*
X156121100Y-99852324D01*
X156539487Y-99433936D01*
X156483820Y-99338613D01*
X156362725Y-99279091D01*
X156232345Y-99244336D01*
X156097689Y-99235686D01*
X155963933Y-99253471D01*
X155836217Y-99297009D01*
X155758380Y-99338613D01*
X155702713Y-99433936D01*
X141325382Y-99433936D01*
X141302080Y-99410634D01*
X141193917Y-99338361D01*
X141073731Y-99288579D01*
X140946144Y-99263200D01*
X140816056Y-99263200D01*
X140688469Y-99288579D01*
X140568283Y-99338361D01*
X140460120Y-99410634D01*
X140368134Y-99502620D01*
X140295861Y-99610783D01*
X140294718Y-99613541D01*
X140221570Y-99436944D01*
X140109134Y-99268671D01*
X139966029Y-99125566D01*
X139865100Y-99058128D01*
X139865100Y-99002236D01*
X152617500Y-99002236D01*
X152617500Y-99066964D01*
X152630128Y-99130449D01*
X152654898Y-99190250D01*
X152690860Y-99244070D01*
X152736630Y-99289840D01*
X152790450Y-99325802D01*
X152850251Y-99350572D01*
X152913736Y-99363200D01*
X152978464Y-99363200D01*
X153041949Y-99350572D01*
X153101750Y-99325802D01*
X153155570Y-99289840D01*
X153201340Y-99244070D01*
X153237302Y-99190250D01*
X153262072Y-99130449D01*
X153274700Y-99066964D01*
X153274700Y-99002236D01*
X153262072Y-98938751D01*
X153237302Y-98878950D01*
X153201340Y-98825130D01*
X153155570Y-98779360D01*
X153101750Y-98743398D01*
X153041949Y-98718628D01*
X152978464Y-98706000D01*
X152913736Y-98706000D01*
X152850251Y-98718628D01*
X152790450Y-98743398D01*
X152736630Y-98779360D01*
X152690860Y-98825130D01*
X152654898Y-98878950D01*
X152630128Y-98938751D01*
X152617500Y-99002236D01*
X139865100Y-99002236D01*
X139865100Y-98249072D01*
X139878324Y-98240236D01*
X151855500Y-98240236D01*
X151855500Y-98304964D01*
X151868128Y-98368449D01*
X151892898Y-98428250D01*
X151928860Y-98482070D01*
X151974630Y-98527840D01*
X152028450Y-98563802D01*
X152088251Y-98588572D01*
X152151736Y-98601200D01*
X152216464Y-98601200D01*
X152279949Y-98588572D01*
X152339750Y-98563802D01*
X152393570Y-98527840D01*
X152439340Y-98482070D01*
X152475302Y-98428250D01*
X152500072Y-98368449D01*
X152512700Y-98304964D01*
X152512700Y-98240236D01*
X152500072Y-98176751D01*
X152475302Y-98116950D01*
X152472821Y-98113236D01*
X152871500Y-98113236D01*
X152871500Y-98177964D01*
X152884128Y-98241449D01*
X152908898Y-98301250D01*
X152944860Y-98355070D01*
X152990630Y-98400840D01*
X153044450Y-98436802D01*
X153104251Y-98461572D01*
X153167736Y-98474200D01*
X153232464Y-98474200D01*
X153295949Y-98461572D01*
X153355750Y-98436802D01*
X153409570Y-98400840D01*
X153455340Y-98355070D01*
X153491302Y-98301250D01*
X153516072Y-98241449D01*
X153528700Y-98177964D01*
X153528700Y-98113236D01*
X153516072Y-98049751D01*
X153491302Y-97989950D01*
X153460008Y-97943116D01*
X153485251Y-97953572D01*
X153548736Y-97966200D01*
X153613464Y-97966200D01*
X153676949Y-97953572D01*
X153736750Y-97928802D01*
X153790570Y-97892840D01*
X153836340Y-97847070D01*
X153872302Y-97793250D01*
X153897072Y-97733449D01*
X153909700Y-97669964D01*
X153909700Y-97605236D01*
X153897072Y-97541751D01*
X153872302Y-97481950D01*
X153836340Y-97428130D01*
X153790570Y-97382360D01*
X153736750Y-97346398D01*
X153676949Y-97321628D01*
X153613464Y-97309000D01*
X153548736Y-97309000D01*
X153485251Y-97321628D01*
X153425450Y-97346398D01*
X153371630Y-97382360D01*
X153325860Y-97428130D01*
X153289898Y-97481950D01*
X153265128Y-97541751D01*
X153252500Y-97605236D01*
X153252500Y-97669964D01*
X153265128Y-97733449D01*
X153289898Y-97793250D01*
X153321192Y-97840084D01*
X153295949Y-97829628D01*
X153232464Y-97817000D01*
X153167736Y-97817000D01*
X153104251Y-97829628D01*
X153044450Y-97854398D01*
X152990630Y-97890360D01*
X152944860Y-97936130D01*
X152908898Y-97989950D01*
X152884128Y-98049751D01*
X152871500Y-98113236D01*
X152472821Y-98113236D01*
X152439340Y-98063130D01*
X152393570Y-98017360D01*
X152339750Y-97981398D01*
X152279949Y-97956628D01*
X152216464Y-97944000D01*
X152151736Y-97944000D01*
X152088251Y-97956628D01*
X152028450Y-97981398D01*
X151974630Y-98017360D01*
X151928860Y-98063130D01*
X151892898Y-98116950D01*
X151868128Y-98176751D01*
X151855500Y-98240236D01*
X139878324Y-98240236D01*
X139966029Y-98181634D01*
X140109134Y-98038529D01*
X140221570Y-97870256D01*
X140294718Y-97693659D01*
X140295861Y-97696417D01*
X140368134Y-97804580D01*
X140460120Y-97896566D01*
X140568283Y-97968839D01*
X140688469Y-98018621D01*
X140816056Y-98044000D01*
X140946144Y-98044000D01*
X141073731Y-98018621D01*
X141193917Y-97968839D01*
X141302080Y-97896566D01*
X141394066Y-97804580D01*
X141466339Y-97696417D01*
X141516121Y-97576231D01*
X141541500Y-97448644D01*
X141541500Y-97318556D01*
X141516121Y-97190969D01*
X141466339Y-97070783D01*
X141394066Y-96962620D01*
X141302080Y-96870634D01*
X141193917Y-96798361D01*
X141073731Y-96748579D01*
X140946144Y-96723200D01*
X140816056Y-96723200D01*
X140688469Y-96748579D01*
X140568283Y-96798361D01*
X140460120Y-96870634D01*
X140368134Y-96962620D01*
X140295861Y-97070783D01*
X140294718Y-97073541D01*
X140221570Y-96896944D01*
X140109134Y-96728671D01*
X139966029Y-96585566D01*
X139865100Y-96518128D01*
X139865100Y-95709072D01*
X139966029Y-95641634D01*
X140109134Y-95498529D01*
X140221570Y-95330256D01*
X140294718Y-95153659D01*
X140295861Y-95156417D01*
X140368134Y-95264580D01*
X140460120Y-95356566D01*
X140568283Y-95428839D01*
X140688469Y-95478621D01*
X140816056Y-95504000D01*
X140946144Y-95504000D01*
X141073731Y-95478621D01*
X141193917Y-95428839D01*
X141302080Y-95356566D01*
X141394066Y-95264580D01*
X141466339Y-95156417D01*
X141516121Y-95036231D01*
X141541500Y-94908644D01*
X141541500Y-94778556D01*
X141516121Y-94650969D01*
X141466339Y-94530783D01*
X141394066Y-94422620D01*
X141302080Y-94330634D01*
X141193917Y-94258361D01*
X141073731Y-94208579D01*
X140946144Y-94183200D01*
X140816056Y-94183200D01*
X140688469Y-94208579D01*
X140568283Y-94258361D01*
X140460120Y-94330634D01*
X140368134Y-94422620D01*
X140295861Y-94530783D01*
X140294718Y-94533541D01*
X140221570Y-94356944D01*
X140109134Y-94188671D01*
X139966029Y-94045566D01*
X139865100Y-93978128D01*
X139865100Y-93378600D01*
X143730700Y-93378600D01*
X143730700Y-94500814D01*
X143737247Y-94567285D01*
X143763115Y-94652562D01*
X143805124Y-94731155D01*
X143861658Y-94800042D01*
X143930544Y-94856576D01*
X144009137Y-94898585D01*
X144094414Y-94924453D01*
X144183100Y-94933188D01*
X144271785Y-94924453D01*
X144357062Y-94898585D01*
X144435655Y-94856576D01*
X144504542Y-94800042D01*
X144561076Y-94731156D01*
X144603085Y-94652563D01*
X144628953Y-94567286D01*
X144635500Y-94500815D01*
X144635500Y-93356385D01*
X144635027Y-93351580D01*
X145133700Y-93351580D01*
X145133700Y-93445620D01*
X145152046Y-93537852D01*
X145188034Y-93624734D01*
X145240279Y-93702925D01*
X145306775Y-93769421D01*
X145384966Y-93821666D01*
X145471848Y-93857654D01*
X145564080Y-93876000D01*
X145658120Y-93876000D01*
X145750352Y-93857654D01*
X145837234Y-93821666D01*
X145915425Y-93769421D01*
X145981921Y-93702925D01*
X146034166Y-93624734D01*
X146070154Y-93537852D01*
X146088500Y-93445620D01*
X146088500Y-93351580D01*
X146070154Y-93259348D01*
X146034166Y-93172466D01*
X145981921Y-93094275D01*
X145915425Y-93027779D01*
X145837234Y-92975534D01*
X145750352Y-92939546D01*
X145658120Y-92921200D01*
X145564080Y-92921200D01*
X145471848Y-92939546D01*
X145384966Y-92975534D01*
X145306775Y-93027779D01*
X145240279Y-93094275D01*
X145188034Y-93172466D01*
X145152046Y-93259348D01*
X145133700Y-93351580D01*
X144635027Y-93351580D01*
X144628953Y-93289914D01*
X144603085Y-93204637D01*
X144561076Y-93126044D01*
X144504542Y-93057158D01*
X144435656Y-93000624D01*
X144357063Y-92958615D01*
X144271786Y-92932747D01*
X144183100Y-92924012D01*
X144094415Y-92932747D01*
X144009138Y-92958615D01*
X143930545Y-93000624D01*
X143861659Y-93057158D01*
X143805125Y-93126044D01*
X143763116Y-93204637D01*
X143737248Y-93289914D01*
X143730701Y-93356385D01*
X143730701Y-93378399D01*
X143730700Y-93378600D01*
X139865100Y-93378600D01*
X139865100Y-93169072D01*
X139966029Y-93101634D01*
X140109134Y-92958529D01*
X140221570Y-92790256D01*
X140294718Y-92613659D01*
X140295861Y-92616417D01*
X140368134Y-92724580D01*
X140460120Y-92816566D01*
X140568283Y-92888839D01*
X140688469Y-92938621D01*
X140816056Y-92964000D01*
X140946144Y-92964000D01*
X141073731Y-92938621D01*
X141193917Y-92888839D01*
X141302080Y-92816566D01*
X141339410Y-92779236D01*
X144616500Y-92779236D01*
X144616500Y-92843964D01*
X144629128Y-92907449D01*
X144653898Y-92967250D01*
X144689860Y-93021070D01*
X144735630Y-93066840D01*
X144789450Y-93102802D01*
X144849251Y-93127572D01*
X144912736Y-93140200D01*
X144977464Y-93140200D01*
X145040949Y-93127572D01*
X145100750Y-93102802D01*
X145154570Y-93066840D01*
X145200340Y-93021070D01*
X145236302Y-92967250D01*
X145261072Y-92907449D01*
X145273700Y-92843964D01*
X145273700Y-92779236D01*
X145261072Y-92715751D01*
X145236302Y-92655950D01*
X145200340Y-92602130D01*
X145154570Y-92556360D01*
X145100750Y-92520398D01*
X145040949Y-92495628D01*
X144977464Y-92483000D01*
X144912736Y-92483000D01*
X144849251Y-92495628D01*
X144789450Y-92520398D01*
X144735630Y-92556360D01*
X144689860Y-92602130D01*
X144653898Y-92655950D01*
X144629128Y-92715751D01*
X144616500Y-92779236D01*
X141339410Y-92779236D01*
X141394066Y-92724580D01*
X141466339Y-92616417D01*
X141516121Y-92496231D01*
X141541500Y-92368644D01*
X141541500Y-92238556D01*
X141522739Y-92144236D01*
X145505500Y-92144236D01*
X145505500Y-92208964D01*
X145518128Y-92272449D01*
X145542898Y-92332250D01*
X145578860Y-92386070D01*
X145624630Y-92431840D01*
X145678450Y-92467802D01*
X145738251Y-92492572D01*
X145801736Y-92505200D01*
X145866464Y-92505200D01*
X145929949Y-92492572D01*
X145989750Y-92467802D01*
X146043570Y-92431840D01*
X146089340Y-92386070D01*
X146125302Y-92332250D01*
X146150072Y-92272449D01*
X146162700Y-92208964D01*
X146162700Y-92144236D01*
X146150072Y-92080751D01*
X146125302Y-92020950D01*
X146089340Y-91967130D01*
X146043570Y-91921360D01*
X145996991Y-91890236D01*
X146267500Y-91890236D01*
X146267500Y-91954964D01*
X146280128Y-92018449D01*
X146304898Y-92078250D01*
X146340860Y-92132070D01*
X146386630Y-92177840D01*
X146440450Y-92213802D01*
X146500251Y-92238572D01*
X146563736Y-92251200D01*
X146628464Y-92251200D01*
X146691949Y-92238572D01*
X146751750Y-92213802D01*
X146805570Y-92177840D01*
X146851340Y-92132070D01*
X146887302Y-92078250D01*
X146912072Y-92018449D01*
X146924700Y-91954964D01*
X146924700Y-91890236D01*
X146912072Y-91826751D01*
X146887302Y-91766950D01*
X146851340Y-91713130D01*
X146805570Y-91667360D01*
X146751750Y-91631398D01*
X146691949Y-91606628D01*
X146628464Y-91594000D01*
X146563736Y-91594000D01*
X146500251Y-91606628D01*
X146440450Y-91631398D01*
X146386630Y-91667360D01*
X146340860Y-91713130D01*
X146304898Y-91766950D01*
X146280128Y-91826751D01*
X146267500Y-91890236D01*
X145996991Y-91890236D01*
X145989750Y-91885398D01*
X145929949Y-91860628D01*
X145866464Y-91848000D01*
X145801736Y-91848000D01*
X145738251Y-91860628D01*
X145678450Y-91885398D01*
X145624630Y-91921360D01*
X145578860Y-91967130D01*
X145542898Y-92020950D01*
X145518128Y-92080751D01*
X145505500Y-92144236D01*
X141522739Y-92144236D01*
X141516121Y-92110969D01*
X141466339Y-91990783D01*
X141394066Y-91882620D01*
X141302080Y-91790634D01*
X141193917Y-91718361D01*
X141073731Y-91668579D01*
X140946144Y-91643200D01*
X140816056Y-91643200D01*
X140688469Y-91668579D01*
X140568283Y-91718361D01*
X140460120Y-91790634D01*
X140368134Y-91882620D01*
X140295861Y-91990783D01*
X140294718Y-91993541D01*
X140221570Y-91816944D01*
X140109134Y-91648671D01*
X139966029Y-91505566D01*
X139865100Y-91438128D01*
X139865100Y-90366236D01*
X143092500Y-90366236D01*
X143092500Y-90430964D01*
X143105128Y-90494449D01*
X143129898Y-90554250D01*
X143165860Y-90608070D01*
X143211630Y-90653840D01*
X143265450Y-90689802D01*
X143325251Y-90714572D01*
X143388736Y-90727200D01*
X143453464Y-90727200D01*
X143516949Y-90714572D01*
X143576750Y-90689802D01*
X143630570Y-90653840D01*
X143676340Y-90608070D01*
X143712302Y-90554250D01*
X143737072Y-90494449D01*
X143749700Y-90430964D01*
X143749700Y-90366236D01*
X143737072Y-90302751D01*
X143712302Y-90242950D01*
X143676340Y-90189130D01*
X143630570Y-90143360D01*
X143576750Y-90107398D01*
X143516949Y-90082628D01*
X143453464Y-90070000D01*
X143388736Y-90070000D01*
X143325251Y-90082628D01*
X143265450Y-90107398D01*
X143211630Y-90143360D01*
X143165860Y-90189130D01*
X143129898Y-90242950D01*
X143105128Y-90302751D01*
X143092500Y-90366236D01*
X139865100Y-90366236D01*
X139865100Y-89443600D01*
X143730700Y-89443600D01*
X143730700Y-90085814D01*
X143737247Y-90152285D01*
X143763115Y-90237562D01*
X143805124Y-90316155D01*
X143861658Y-90385042D01*
X143930544Y-90441576D01*
X144009137Y-90483585D01*
X144094414Y-90509453D01*
X144183100Y-90518188D01*
X144271785Y-90509453D01*
X144357062Y-90483585D01*
X144435655Y-90441576D01*
X144504542Y-90385042D01*
X144561076Y-90316156D01*
X144603085Y-90237563D01*
X144628953Y-90152286D01*
X144635500Y-90085815D01*
X144635500Y-89443600D01*
X152366700Y-89443600D01*
X152366700Y-90085814D01*
X152373247Y-90152285D01*
X152399115Y-90237562D01*
X152441124Y-90316155D01*
X152497658Y-90385042D01*
X152566544Y-90441576D01*
X152645137Y-90483585D01*
X152730414Y-90509453D01*
X152819100Y-90518188D01*
X152907785Y-90509453D01*
X152961246Y-90493236D01*
X153252500Y-90493236D01*
X153252500Y-90557964D01*
X153265128Y-90621449D01*
X153289898Y-90681250D01*
X153325860Y-90735070D01*
X153371630Y-90780840D01*
X153425450Y-90816802D01*
X153485251Y-90841572D01*
X153548736Y-90854200D01*
X153613464Y-90854200D01*
X153676949Y-90841572D01*
X153736750Y-90816802D01*
X153790570Y-90780840D01*
X153836340Y-90735070D01*
X153872302Y-90681250D01*
X153897072Y-90621449D01*
X153909700Y-90557964D01*
X153909700Y-90493236D01*
X153897072Y-90429751D01*
X153872302Y-90369950D01*
X153836340Y-90316130D01*
X153790570Y-90270360D01*
X153736750Y-90234398D01*
X153676949Y-90209628D01*
X153613464Y-90197000D01*
X153548736Y-90197000D01*
X153485251Y-90209628D01*
X153425450Y-90234398D01*
X153371630Y-90270360D01*
X153325860Y-90316130D01*
X153289898Y-90369950D01*
X153265128Y-90429751D01*
X153252500Y-90493236D01*
X152961246Y-90493236D01*
X152993062Y-90483585D01*
X153071655Y-90441576D01*
X153140542Y-90385042D01*
X153197076Y-90316156D01*
X153239085Y-90237563D01*
X153264953Y-90152286D01*
X153271500Y-90085815D01*
X153271500Y-89421385D01*
X153264953Y-89354914D01*
X153239085Y-89269637D01*
X153197076Y-89191044D01*
X153140542Y-89122158D01*
X153071656Y-89065624D01*
X152993063Y-89023615D01*
X152907786Y-88997747D01*
X152819100Y-88989012D01*
X152730415Y-88997747D01*
X152645138Y-89023615D01*
X152566545Y-89065624D01*
X152497659Y-89122158D01*
X152441125Y-89191044D01*
X152399116Y-89269637D01*
X152373248Y-89354914D01*
X152366701Y-89421385D01*
X152366701Y-89443399D01*
X152366700Y-89443600D01*
X144635500Y-89443600D01*
X144635500Y-89421385D01*
X144628953Y-89354914D01*
X144603085Y-89269637D01*
X144561076Y-89191044D01*
X144504542Y-89122158D01*
X144435656Y-89065624D01*
X144357063Y-89023615D01*
X144271786Y-88997747D01*
X144183100Y-88989012D01*
X144094415Y-88997747D01*
X144009138Y-89023615D01*
X143930545Y-89065624D01*
X143861659Y-89122158D01*
X143805125Y-89191044D01*
X143763116Y-89269637D01*
X143737248Y-89354914D01*
X143730701Y-89421385D01*
X143730701Y-89443399D01*
X143730700Y-89443600D01*
X139865100Y-89443600D01*
X139865100Y-88747600D01*
X157137101Y-88747600D01*
X157137101Y-91438127D01*
G37*
%TD.AperFunction*%
%TD*%
M02*
