%TF.GenerationSoftware,KiCad,Pcbnew,(5.1.10-6-gecec324121)-1*%
%TF.CreationDate,2021-07-07T13:29:09-07:00*%
%TF.ProjectId,SparkFun_ProMicro-RP2040,53706172-6b46-4756-9e5f-50726f4d6963,rev?*%
%TF.SameCoordinates,Original*%
%TF.FileFunction,Copper,L2,Inr*%
%TF.FilePolarity,Positive*%
%FSLAX46Y46*%
G04 Gerber Fmt 4.6, Leading zero omitted, Abs format (unit mm)*
G04 Created by KiCad (PCBNEW (5.1.10-6-gecec324121)-1) date 2021-07-07 13:29:09*
%MOMM*%
%LPD*%
G01*
G04 APERTURE LIST*
%TA.AperFunction,EtchedComponent*%
%ADD10C,0.100000*%
%TD*%
%TA.AperFunction,ComponentPad*%
%ADD11C,1.750000*%
%TD*%
%TA.AperFunction,ComponentPad*%
%ADD12C,1.016000*%
%TD*%
%TA.AperFunction,ComponentPad*%
%ADD13O,0.600000X1.200000*%
%TD*%
%TA.AperFunction,ViaPad*%
%ADD14C,0.352400*%
%TD*%
%TA.AperFunction,Conductor*%
%ADD15C,0.127000*%
%TD*%
%TA.AperFunction,Conductor*%
%ADD16C,0.203200*%
%TD*%
%TA.AperFunction,Conductor*%
%ADD17C,0.050800*%
%TD*%
%TA.AperFunction,Conductor*%
%ADD18C,0.100000*%
%TD*%
G04 APERTURE END LIST*
D10*
%TO.C,J5*%
G36*
X144183100Y-89143600D02*
G01*
X144333100Y-89183792D01*
X144442908Y-89293600D01*
X144483100Y-89443600D01*
X144483100Y-90063600D01*
X144442908Y-90213600D01*
X144333100Y-90323408D01*
X144183100Y-90363600D01*
X144033100Y-90323408D01*
X143923292Y-90213600D01*
X143883100Y-90063600D01*
X143883100Y-89443600D01*
X143923292Y-89293600D01*
X144033100Y-89183792D01*
X144183100Y-89143600D01*
G37*
G36*
X153119100Y-89443600D02*
G01*
X153119100Y-90063600D01*
X153078908Y-90213600D01*
X152969100Y-90323408D01*
X152819100Y-90363600D01*
X152669100Y-90323408D01*
X152559292Y-90213600D01*
X152519100Y-90063600D01*
X152519100Y-89443600D01*
X152559292Y-89293600D01*
X152669100Y-89183792D01*
X152819100Y-89143600D01*
X152969100Y-89183792D01*
X153078908Y-89293600D01*
X153119100Y-89443600D01*
G37*
G36*
X143883100Y-94478600D02*
G01*
X143883100Y-93378600D01*
X143923292Y-93228600D01*
X144033100Y-93118792D01*
X144183100Y-93078600D01*
X144333100Y-93118792D01*
X144442908Y-93228600D01*
X144483100Y-93378600D01*
X144483100Y-94478600D01*
X144442908Y-94628600D01*
X144333100Y-94738408D01*
X144183100Y-94778600D01*
X144033100Y-94738408D01*
X143923292Y-94628600D01*
X143883100Y-94478600D01*
G37*
G36*
X152519100Y-94478600D02*
G01*
X152519100Y-93378600D01*
X152559292Y-93228600D01*
X152669100Y-93118792D01*
X152819100Y-93078600D01*
X152969100Y-93118792D01*
X153078908Y-93228600D01*
X153119100Y-93378600D01*
X153119100Y-94478600D01*
X153078908Y-94628600D01*
X152969100Y-94738408D01*
X152819100Y-94778600D01*
X152669100Y-94738408D01*
X152559292Y-94628600D01*
X152519100Y-94478600D01*
G37*
%TD*%
D11*
%TO.N,/9/RX1*%
%TO.C,J3*%
X139311100Y-120243600D03*
%TO.N,/8/TX1*%
X139311100Y-117703600D03*
%TO.N,/7*%
X139311100Y-115163600D03*
%TO.N,/6*%
X139311100Y-112623600D03*
%TO.N,/5*%
X139311100Y-110083600D03*
%TO.N,/4*%
X139311100Y-107543600D03*
%TO.N,/3*%
X139311100Y-105003600D03*
%TO.N,/2*%
X139311100Y-102463600D03*
%TO.N,GND*%
X139311100Y-99923600D03*
X139311100Y-97383600D03*
%TO.N,/1/RX0*%
X139311100Y-94843600D03*
%TO.N,/0/TX0*%
X139311100Y-92303600D03*
D12*
%TO.N,/9/RX1*%
X140881100Y-120243600D03*
%TO.N,/8/TX1*%
X140881100Y-117703600D03*
%TO.N,/6*%
X140881100Y-112623600D03*
%TO.N,/7*%
X140881100Y-115163600D03*
%TO.N,/5*%
X140881100Y-110083600D03*
%TO.N,/0/TX0*%
X140881100Y-92303600D03*
%TO.N,GND*%
X140881100Y-99923600D03*
%TO.N,/1/RX0*%
X140881100Y-94843600D03*
%TO.N,GND*%
X140881100Y-97383600D03*
%TO.N,/4*%
X140881100Y-107543600D03*
%TO.N,/2*%
X140881100Y-102463600D03*
%TO.N,/3*%
X140881100Y-105003600D03*
%TD*%
D11*
%TO.N,/RAW*%
%TO.C,J4*%
X157691100Y-92303600D03*
%TO.N,GND*%
X157691100Y-94843600D03*
%TO.N,/~RESET~*%
X157691100Y-97383600D03*
%TO.N,3.3V*%
X157691100Y-99923600D03*
%TO.N,/A3*%
X157691100Y-102463600D03*
%TO.N,/A2*%
X157691100Y-105003600D03*
%TO.N,/A1*%
X157691100Y-107543600D03*
%TO.N,/A0*%
X157691100Y-110083600D03*
%TO.N,/22/SPI_SCK*%
X157691100Y-112623600D03*
%TO.N,/20/SPI_CIPO*%
X157691100Y-115163600D03*
%TO.N,/23/SPI_COPI*%
X157691100Y-117703600D03*
%TO.N,/21/SPI_~CS~*%
X157691100Y-120243600D03*
D12*
%TO.N,/RAW*%
X156121100Y-92303600D03*
%TO.N,GND*%
X156121100Y-94843600D03*
%TO.N,3.3V*%
X156121100Y-99923600D03*
%TO.N,/~RESET~*%
X156121100Y-97383600D03*
%TO.N,/A3*%
X156121100Y-102463600D03*
%TO.N,/21/SPI_~CS~*%
X156121100Y-120243600D03*
%TO.N,/22/SPI_SCK*%
X156121100Y-112623600D03*
%TO.N,/23/SPI_COPI*%
X156121100Y-117703600D03*
%TO.N,/20/SPI_CIPO*%
X156121100Y-115163600D03*
%TO.N,/A2*%
X156121100Y-105003600D03*
%TO.N,/A0*%
X156121100Y-110083600D03*
%TO.N,/A1*%
X156121100Y-107543600D03*
%TD*%
D13*
%TO.N,Net-(J5-PadSHLD1)*%
%TO.C,J5*%
X152819100Y-93928600D03*
X144183100Y-93928600D03*
X144183100Y-89748600D03*
X152819100Y-89748600D03*
%TD*%
D14*
%TO.N,GND*%
X148501100Y-97002600D03*
X143802100Y-105638600D03*
X145326100Y-105384600D03*
X149009100Y-104622600D03*
X151041100Y-104749600D03*
X153581100Y-104495600D03*
X152946100Y-101828600D03*
X152946100Y-99034600D03*
X152184100Y-98272600D03*
X152057100Y-92938600D03*
X144945100Y-92811600D03*
X143421100Y-90398600D03*
X146596100Y-91922600D03*
X153581100Y-90525600D03*
X145707100Y-103479600D03*
X147485100Y-112369600D03*
X150025100Y-114274600D03*
X146977100Y-114274600D03*
X144183100Y-117703600D03*
%TO.N,/BOOT*%
X144183100Y-120243600D03*
%TO.N,GND*%
X153327100Y-115671600D03*
X142913100Y-109829600D03*
X147231100Y-111353600D03*
X147231100Y-108813600D03*
X149771100Y-108813600D03*
X148501100Y-111353600D03*
X148501100Y-110083600D03*
X147231100Y-110083600D03*
X149771100Y-110083600D03*
X148501100Y-108813600D03*
%TO.N,/RAW*%
X147675600Y-97447100D03*
%TO.N,Net-(J5-PadA5)*%
X149771100Y-93573600D03*
X153835100Y-93065600D03*
%TO.N,Net-(J5-PadB5)*%
X146850100Y-93700600D03*
X145834100Y-92176600D03*
%TO.N,V_USB*%
X150761300Y-92912800D03*
%TO.N,3.3V*%
X152692100Y-114020600D03*
X152946100Y-111099600D03*
X148628100Y-112623600D03*
X147993100Y-117449600D03*
X150787100Y-107543600D03*
X149063100Y-107670600D03*
X144437100Y-106273600D03*
X146322156Y-111072600D03*
X153581100Y-103733600D03*
X149451100Y-99857600D03*
%TO.N,/~RESET~*%
X150533100Y-112623600D03*
X150660100Y-117068600D03*
X153200100Y-98145600D03*
%TO.N,/SWDIO*%
X150025100Y-112623600D03*
%TO.N,/SWDCK*%
X149517100Y-112623600D03*
%TO.N,/23/SPI_COPI*%
X154089100Y-110210600D03*
%TO.N,/8/TX1*%
X146088100Y-111480600D03*
%TO.N,/9/RX1*%
X146088100Y-111934600D03*
%TO.N,/6*%
X146088100Y-110210600D03*
%TO.N,/7*%
X146088100Y-110664600D03*
%TO.N,/21/SPI_~CS~*%
X153581100Y-111466100D03*
%TO.N,/17/SCL*%
X151676100Y-113512600D03*
X151676100Y-117830600D03*
%TO.N,/16/SDA*%
X151063300Y-112623600D03*
X151168100Y-118465600D03*
%TO.N,/QSPI-CLK*%
X147335900Y-107427000D03*
X147231100Y-102844600D03*
X150533100Y-102844600D03*
%TO.N,/QSPI-0*%
X147231100Y-107957200D03*
X146850100Y-104114600D03*
X150533100Y-104114600D03*
%TO.N,/QSPI-3*%
X147866100Y-107543600D03*
X147612100Y-101574600D03*
X150533100Y-101574600D03*
%TO.N,Net-(C13-Pad2)*%
X147993100Y-112750600D03*
X144183100Y-112750600D03*
%TO.N,Net-(R12-Pad2)*%
X149971100Y-107670600D03*
X153581100Y-97637600D03*
%TO.N,Net-(R13-Pad2)*%
X149517100Y-107670600D03*
X152311100Y-97510600D03*
%TO.N,1.1V*%
X148628100Y-112115600D03*
X148501100Y-107670600D03*
%TO.N,/QSPI-1*%
X146215100Y-107543600D03*
X146469100Y-101574600D03*
%TO.N,/QSPI-2*%
X146596100Y-107924600D03*
X146469100Y-102844600D03*
%TO.N,/RP_D+*%
X151676100Y-95605600D03*
X147866100Y-93573600D03*
%TO.N,/RP_D-*%
X152946100Y-95605600D03*
X149263100Y-93573600D03*
%TO.N,/BOOT*%
X142532100Y-119481600D03*
X143802100Y-103352600D03*
%TO.N,*%
X153811100Y-109613600D03*
%TO.N,GND*%
X153581100Y-120243600D03*
X154470100Y-117703600D03*
%TD*%
D15*
%TO.N,/~RESET~*%
X150533100Y-112623600D02*
X150533100Y-116941600D01*
X150533100Y-116941600D02*
X150660100Y-117068600D01*
X150533100Y-112623600D02*
X150533100Y-112242600D01*
X151422100Y-111353600D02*
X150533100Y-112242600D01*
X151422100Y-99923600D02*
X151422100Y-111353600D01*
X151422100Y-99923600D02*
X153200100Y-98145600D01*
%TO.N,/23/SPI_COPI*%
X154089100Y-110210600D02*
X154343100Y-110464600D01*
X154343100Y-110464600D02*
X154343100Y-116433600D01*
X154343100Y-116433600D02*
X155613100Y-117703600D01*
X155613100Y-117703600D02*
X156121100Y-117703600D01*
%TO.N,/21/SPI_~CS~*%
X153581100Y-111466100D02*
X154038300Y-111923300D01*
X154038300Y-119303800D02*
X154978100Y-120243600D01*
X154978100Y-120243600D02*
X156121100Y-120243600D01*
X154038300Y-111923300D02*
X154038300Y-119303800D01*
%TO.N,/17/SCL*%
X151676100Y-113512600D02*
X151676100Y-117830600D01*
%TO.N,/16/SDA*%
X151063300Y-112623600D02*
X151063300Y-116881363D01*
X151063300Y-116881363D02*
X151077600Y-116895663D01*
X151077600Y-118375100D02*
X151168100Y-118465600D01*
X151077600Y-116895663D02*
X151077600Y-118375100D01*
%TO.N,/QSPI-CLK*%
X147335900Y-107427000D02*
X147335900Y-102949400D01*
X147335900Y-102949400D02*
X147231100Y-102844600D01*
%TO.N,/QSPI-0*%
X147231100Y-107957200D02*
X146850100Y-107576200D01*
X146850100Y-107576200D02*
X146850100Y-104114600D01*
%TO.N,/QSPI-3*%
X147866100Y-107543600D02*
X147866100Y-101828600D01*
X147866100Y-101828600D02*
X147612100Y-101574600D01*
%TO.N,Net-(R12-Pad2)*%
X149971100Y-107670600D02*
X149858400Y-107557900D01*
X149858400Y-107557900D02*
X149858400Y-107529225D01*
X149858400Y-107529225D02*
X149745700Y-107416525D01*
X152946100Y-97637600D02*
X153581100Y-97637600D01*
X152946100Y-97637600D02*
X152692100Y-97891600D01*
X151745393Y-97891600D02*
X152692100Y-97891600D01*
X149745700Y-107416525D02*
X149745700Y-100368969D01*
X149745700Y-100368969D02*
X150021000Y-100093669D01*
X150021000Y-99615994D02*
X151745393Y-97891600D01*
X150021000Y-100093669D02*
X150021000Y-99615994D01*
%TO.N,Net-(R13-Pad2)*%
X151676100Y-97510600D02*
X152311100Y-97510600D01*
X149517100Y-107670600D02*
X149517100Y-100274275D01*
X149792400Y-99394300D02*
X151676100Y-97510600D01*
X149517100Y-100274275D02*
X149792400Y-99998975D01*
X149792400Y-99998975D02*
X149792400Y-99394300D01*
D16*
%TO.N,1.1V*%
X148628100Y-112115600D02*
X148374100Y-112115600D01*
X148374100Y-112115600D02*
X147993100Y-111734600D01*
X147993100Y-108178600D02*
X148501100Y-107670600D01*
X147993100Y-108178600D02*
X147993100Y-111734600D01*
D15*
%TO.N,/QSPI-1*%
X146215100Y-107543600D02*
X146215100Y-103073275D01*
X146215100Y-103073275D02*
X146127800Y-102985975D01*
X146127800Y-102985975D02*
X146127800Y-101915900D01*
X146127800Y-101915900D02*
X146469100Y-101574600D01*
%TO.N,/QSPI-2*%
X146596100Y-107924600D02*
X146596100Y-104343275D01*
X146596100Y-104343275D02*
X146508800Y-104255975D01*
X146508800Y-102884300D02*
X146469100Y-102844600D01*
X146508800Y-104255975D02*
X146508800Y-102884300D01*
%TO.N,/BOOT*%
X142532100Y-119481600D02*
X142532100Y-104622600D01*
X142532100Y-104622600D02*
X143802100Y-103352600D01*
%TO.N,*%
X153811100Y-109613600D02*
X153922400Y-109502300D01*
%TD*%
D17*
%TO.N,GND*%
X157137101Y-91438127D02*
X157036171Y-91505566D01*
X156893066Y-91648671D01*
X156780630Y-91816944D01*
X156707482Y-91993541D01*
X156706339Y-91990783D01*
X156634066Y-91882620D01*
X156542080Y-91790634D01*
X156433917Y-91718361D01*
X156313731Y-91668579D01*
X156186144Y-91643200D01*
X156056056Y-91643200D01*
X155928469Y-91668579D01*
X155808283Y-91718361D01*
X155700120Y-91790634D01*
X155608134Y-91882620D01*
X155535861Y-91990783D01*
X155486079Y-92110969D01*
X155460700Y-92238556D01*
X155460700Y-92368644D01*
X155486079Y-92496231D01*
X155535861Y-92616417D01*
X155608134Y-92724580D01*
X155700120Y-92816566D01*
X155808283Y-92888839D01*
X155928469Y-92938621D01*
X156056056Y-92964000D01*
X156186144Y-92964000D01*
X156313731Y-92938621D01*
X156433917Y-92888839D01*
X156542080Y-92816566D01*
X156634066Y-92724580D01*
X156706339Y-92616417D01*
X156707482Y-92613659D01*
X156780630Y-92790256D01*
X156893066Y-92958529D01*
X157036171Y-93101634D01*
X157137101Y-93169073D01*
X157137101Y-93945921D01*
X157111239Y-93959744D01*
X157011440Y-94092663D01*
X157137101Y-94218324D01*
X157137101Y-94360878D01*
X156940163Y-94163940D01*
X156807244Y-94263739D01*
X156711102Y-94447313D01*
X156701940Y-94478458D01*
X156610764Y-94425213D01*
X156192376Y-94843600D01*
X156610764Y-95261987D01*
X156702871Y-95208198D01*
X156717920Y-95256345D01*
X156807244Y-95423461D01*
X156940163Y-95523260D01*
X157137101Y-95326322D01*
X157137101Y-95468876D01*
X157011440Y-95594537D01*
X157111239Y-95727456D01*
X157137101Y-95741000D01*
X157137101Y-96518127D01*
X157036171Y-96585566D01*
X156893066Y-96728671D01*
X156780630Y-96896944D01*
X156707482Y-97073541D01*
X156706339Y-97070783D01*
X156634066Y-96962620D01*
X156542080Y-96870634D01*
X156433917Y-96798361D01*
X156313731Y-96748579D01*
X156186144Y-96723200D01*
X156056056Y-96723200D01*
X155928469Y-96748579D01*
X155808283Y-96798361D01*
X155700120Y-96870634D01*
X155608134Y-96962620D01*
X155535861Y-97070783D01*
X155486079Y-97190969D01*
X155460700Y-97318556D01*
X155460700Y-97448644D01*
X155486079Y-97576231D01*
X155535861Y-97696417D01*
X155608134Y-97804580D01*
X155700120Y-97896566D01*
X155808283Y-97968839D01*
X155928469Y-98018621D01*
X156056056Y-98044000D01*
X156186144Y-98044000D01*
X156313731Y-98018621D01*
X156433917Y-97968839D01*
X156542080Y-97896566D01*
X156634066Y-97804580D01*
X156706339Y-97696417D01*
X156707482Y-97693659D01*
X156780630Y-97870256D01*
X156893066Y-98038529D01*
X157036171Y-98181634D01*
X157137101Y-98249073D01*
X157137101Y-99058127D01*
X157036171Y-99125566D01*
X156893066Y-99268671D01*
X156780630Y-99436944D01*
X156707482Y-99613541D01*
X156706339Y-99610783D01*
X156634066Y-99502620D01*
X156542080Y-99410634D01*
X156433917Y-99338361D01*
X156313731Y-99288579D01*
X156186144Y-99263200D01*
X156056056Y-99263200D01*
X155928469Y-99288579D01*
X155808283Y-99338361D01*
X155700120Y-99410634D01*
X155608134Y-99502620D01*
X155535861Y-99610783D01*
X155486079Y-99730969D01*
X155460700Y-99858556D01*
X155460700Y-99988644D01*
X155486079Y-100116231D01*
X155535861Y-100236417D01*
X155608134Y-100344580D01*
X155700120Y-100436566D01*
X155808283Y-100508839D01*
X155928469Y-100558621D01*
X156056056Y-100584000D01*
X156186144Y-100584000D01*
X156313731Y-100558621D01*
X156433917Y-100508839D01*
X156542080Y-100436566D01*
X156634066Y-100344580D01*
X156706339Y-100236417D01*
X156707482Y-100233659D01*
X156780630Y-100410256D01*
X156893066Y-100578529D01*
X157036171Y-100721634D01*
X157137101Y-100789073D01*
X157137101Y-101598127D01*
X157036171Y-101665566D01*
X156893066Y-101808671D01*
X156780630Y-101976944D01*
X156707482Y-102153541D01*
X156706339Y-102150783D01*
X156634066Y-102042620D01*
X156542080Y-101950634D01*
X156433917Y-101878361D01*
X156313731Y-101828579D01*
X156186144Y-101803200D01*
X156056056Y-101803200D01*
X155928469Y-101828579D01*
X155808283Y-101878361D01*
X155700120Y-101950634D01*
X155608134Y-102042620D01*
X155535861Y-102150783D01*
X155486079Y-102270969D01*
X155460700Y-102398556D01*
X155460700Y-102528644D01*
X155486079Y-102656231D01*
X155535861Y-102776417D01*
X155608134Y-102884580D01*
X155700120Y-102976566D01*
X155808283Y-103048839D01*
X155928469Y-103098621D01*
X156056056Y-103124000D01*
X156186144Y-103124000D01*
X156313731Y-103098621D01*
X156433917Y-103048839D01*
X156542080Y-102976566D01*
X156634066Y-102884580D01*
X156706339Y-102776417D01*
X156707482Y-102773659D01*
X156780630Y-102950256D01*
X156893066Y-103118529D01*
X157036171Y-103261634D01*
X157137101Y-103329073D01*
X157137101Y-104138127D01*
X157036171Y-104205566D01*
X156893066Y-104348671D01*
X156780630Y-104516944D01*
X156707482Y-104693541D01*
X156706339Y-104690783D01*
X156634066Y-104582620D01*
X156542080Y-104490634D01*
X156433917Y-104418361D01*
X156313731Y-104368579D01*
X156186144Y-104343200D01*
X156056056Y-104343200D01*
X155928469Y-104368579D01*
X155808283Y-104418361D01*
X155700120Y-104490634D01*
X155608134Y-104582620D01*
X155535861Y-104690783D01*
X155486079Y-104810969D01*
X155460700Y-104938556D01*
X155460700Y-105068644D01*
X155486079Y-105196231D01*
X155535861Y-105316417D01*
X155608134Y-105424580D01*
X155700120Y-105516566D01*
X155808283Y-105588839D01*
X155928469Y-105638621D01*
X156056056Y-105664000D01*
X156186144Y-105664000D01*
X156313731Y-105638621D01*
X156433917Y-105588839D01*
X156542080Y-105516566D01*
X156634066Y-105424580D01*
X156706339Y-105316417D01*
X156707482Y-105313659D01*
X156780630Y-105490256D01*
X156893066Y-105658529D01*
X157036171Y-105801634D01*
X157137100Y-105869073D01*
X157137100Y-106678127D01*
X157036171Y-106745566D01*
X156893066Y-106888671D01*
X156780630Y-107056944D01*
X156707482Y-107233541D01*
X156706339Y-107230783D01*
X156634066Y-107122620D01*
X156542080Y-107030634D01*
X156433917Y-106958361D01*
X156313731Y-106908579D01*
X156186144Y-106883200D01*
X156056056Y-106883200D01*
X155928469Y-106908579D01*
X155808283Y-106958361D01*
X155700120Y-107030634D01*
X155608134Y-107122620D01*
X155535861Y-107230783D01*
X155486079Y-107350969D01*
X155460700Y-107478556D01*
X155460700Y-107608644D01*
X155486079Y-107736231D01*
X155535861Y-107856417D01*
X155608134Y-107964580D01*
X155700120Y-108056566D01*
X155808283Y-108128839D01*
X155928469Y-108178621D01*
X156056056Y-108204000D01*
X156186144Y-108204000D01*
X156313731Y-108178621D01*
X156433917Y-108128839D01*
X156542080Y-108056566D01*
X156634066Y-107964580D01*
X156706339Y-107856417D01*
X156707482Y-107853659D01*
X156780630Y-108030256D01*
X156893066Y-108198529D01*
X157036171Y-108341634D01*
X157137100Y-108409073D01*
X157137100Y-109218127D01*
X157036171Y-109285566D01*
X156893066Y-109428671D01*
X156780630Y-109596944D01*
X156707482Y-109773541D01*
X156706339Y-109770783D01*
X156634066Y-109662620D01*
X156542080Y-109570634D01*
X156433917Y-109498361D01*
X156313731Y-109448579D01*
X156186144Y-109423200D01*
X156056056Y-109423200D01*
X155928469Y-109448579D01*
X155808283Y-109498361D01*
X155700120Y-109570634D01*
X155608134Y-109662620D01*
X155535861Y-109770783D01*
X155486079Y-109890969D01*
X155460700Y-110018556D01*
X155460700Y-110148644D01*
X155486079Y-110276231D01*
X155535861Y-110396417D01*
X155608134Y-110504580D01*
X155700120Y-110596566D01*
X155808283Y-110668839D01*
X155928469Y-110718621D01*
X156056056Y-110744000D01*
X156186144Y-110744000D01*
X156313731Y-110718621D01*
X156433917Y-110668839D01*
X156542080Y-110596566D01*
X156634066Y-110504580D01*
X156706339Y-110396417D01*
X156707482Y-110393659D01*
X156780630Y-110570256D01*
X156893066Y-110738529D01*
X157036171Y-110881634D01*
X157137100Y-110949073D01*
X157137100Y-111758127D01*
X157036171Y-111825566D01*
X156893066Y-111968671D01*
X156780630Y-112136944D01*
X156707482Y-112313541D01*
X156706339Y-112310783D01*
X156634066Y-112202620D01*
X156542080Y-112110634D01*
X156433917Y-112038361D01*
X156313731Y-111988579D01*
X156186144Y-111963200D01*
X156056056Y-111963200D01*
X155928469Y-111988579D01*
X155808283Y-112038361D01*
X155700120Y-112110634D01*
X155608134Y-112202620D01*
X155535861Y-112310783D01*
X155486079Y-112430969D01*
X155460700Y-112558556D01*
X155460700Y-112688644D01*
X155486079Y-112816231D01*
X155535861Y-112936417D01*
X155608134Y-113044580D01*
X155700120Y-113136566D01*
X155808283Y-113208839D01*
X155928469Y-113258621D01*
X156056056Y-113284000D01*
X156186144Y-113284000D01*
X156313731Y-113258621D01*
X156433917Y-113208839D01*
X156542080Y-113136566D01*
X156634066Y-113044580D01*
X156706339Y-112936417D01*
X156707482Y-112933659D01*
X156780630Y-113110256D01*
X156893066Y-113278529D01*
X157036171Y-113421634D01*
X157137100Y-113489073D01*
X157137100Y-114298128D01*
X157036171Y-114365566D01*
X156893066Y-114508671D01*
X156780630Y-114676944D01*
X156707482Y-114853541D01*
X156706339Y-114850783D01*
X156634066Y-114742620D01*
X156542080Y-114650634D01*
X156433917Y-114578361D01*
X156313731Y-114528579D01*
X156186144Y-114503200D01*
X156056056Y-114503200D01*
X155928469Y-114528579D01*
X155808283Y-114578361D01*
X155700120Y-114650634D01*
X155608134Y-114742620D01*
X155535861Y-114850783D01*
X155486079Y-114970969D01*
X155460700Y-115098556D01*
X155460700Y-115228644D01*
X155486079Y-115356231D01*
X155535861Y-115476417D01*
X155608134Y-115584580D01*
X155700120Y-115676566D01*
X155808283Y-115748839D01*
X155928469Y-115798621D01*
X156056056Y-115824000D01*
X156186144Y-115824000D01*
X156313731Y-115798621D01*
X156433917Y-115748839D01*
X156542080Y-115676566D01*
X156634066Y-115584580D01*
X156706339Y-115476417D01*
X156707482Y-115473659D01*
X156780630Y-115650256D01*
X156893066Y-115818529D01*
X157036171Y-115961634D01*
X157137100Y-116029072D01*
X157137100Y-116838128D01*
X157036171Y-116905566D01*
X156893066Y-117048671D01*
X156780630Y-117216944D01*
X156707482Y-117393541D01*
X156706339Y-117390783D01*
X156634066Y-117282620D01*
X156542080Y-117190634D01*
X156433917Y-117118361D01*
X156313731Y-117068579D01*
X156186144Y-117043200D01*
X156056056Y-117043200D01*
X155928469Y-117068579D01*
X155808283Y-117118361D01*
X155700120Y-117190634D01*
X155608134Y-117282620D01*
X155563799Y-117348971D01*
X154559000Y-116344173D01*
X154559000Y-110475198D01*
X154560044Y-110464599D01*
X154555875Y-110422276D01*
X154551957Y-110409360D01*
X154543530Y-110381579D01*
X154523482Y-110344072D01*
X154496503Y-110311197D01*
X154488263Y-110304435D01*
X154417700Y-110233872D01*
X154417700Y-110178236D01*
X154405072Y-110114751D01*
X154380302Y-110054950D01*
X154344340Y-110001130D01*
X154298570Y-109955360D01*
X154244750Y-109919398D01*
X154184949Y-109894628D01*
X154121464Y-109882000D01*
X154056736Y-109882000D01*
X153993251Y-109894628D01*
X153933450Y-109919398D01*
X153879630Y-109955360D01*
X153833860Y-110001130D01*
X153797898Y-110054950D01*
X153773128Y-110114751D01*
X153760500Y-110178236D01*
X153760500Y-110242964D01*
X153773128Y-110306449D01*
X153797898Y-110366250D01*
X153833860Y-110420070D01*
X153879630Y-110465840D01*
X153933450Y-110501802D01*
X153993251Y-110526572D01*
X154056736Y-110539200D01*
X154112372Y-110539200D01*
X154127200Y-110554028D01*
X154127200Y-111706872D01*
X153909700Y-111489372D01*
X153909700Y-111433736D01*
X153897072Y-111370251D01*
X153872302Y-111310450D01*
X153836340Y-111256630D01*
X153790570Y-111210860D01*
X153736750Y-111174898D01*
X153676949Y-111150128D01*
X153613464Y-111137500D01*
X153548736Y-111137500D01*
X153485251Y-111150128D01*
X153425450Y-111174898D01*
X153371630Y-111210860D01*
X153325860Y-111256630D01*
X153289898Y-111310450D01*
X153265128Y-111370251D01*
X153252500Y-111433736D01*
X153252500Y-111498464D01*
X153265128Y-111561949D01*
X153289898Y-111621750D01*
X153325860Y-111675570D01*
X153371630Y-111721340D01*
X153425450Y-111757302D01*
X153485251Y-111782072D01*
X153548736Y-111794700D01*
X153604372Y-111794700D01*
X153822400Y-112012729D01*
X153822401Y-119293191D01*
X153821356Y-119303800D01*
X153825525Y-119346123D01*
X153837870Y-119386820D01*
X153837871Y-119386821D01*
X153857919Y-119424328D01*
X153884898Y-119457203D01*
X153893139Y-119463966D01*
X154817938Y-120388767D01*
X154824697Y-120397003D01*
X154857572Y-120423982D01*
X154895079Y-120444030D01*
X154935776Y-120456375D01*
X154978100Y-120460544D01*
X154988699Y-120459500D01*
X155495717Y-120459500D01*
X155535861Y-120556417D01*
X155608134Y-120664580D01*
X155700120Y-120756566D01*
X155808283Y-120828839D01*
X155928469Y-120878621D01*
X156056056Y-120904000D01*
X156186144Y-120904000D01*
X156313731Y-120878621D01*
X156433917Y-120828839D01*
X156542080Y-120756566D01*
X156634066Y-120664580D01*
X156706339Y-120556417D01*
X156707482Y-120553659D01*
X156780630Y-120730256D01*
X156893066Y-120898529D01*
X157036171Y-121041634D01*
X157137100Y-121109072D01*
X157137100Y-121259600D01*
X139865100Y-121259600D01*
X139865100Y-121109072D01*
X139966029Y-121041634D01*
X140109134Y-120898529D01*
X140221570Y-120730256D01*
X140294718Y-120553659D01*
X140295861Y-120556417D01*
X140368134Y-120664580D01*
X140460120Y-120756566D01*
X140568283Y-120828839D01*
X140688469Y-120878621D01*
X140816056Y-120904000D01*
X140946144Y-120904000D01*
X141073731Y-120878621D01*
X141193917Y-120828839D01*
X141302080Y-120756566D01*
X141394066Y-120664580D01*
X141466339Y-120556417D01*
X141516121Y-120436231D01*
X141541500Y-120308644D01*
X141541500Y-120211236D01*
X143854500Y-120211236D01*
X143854500Y-120275964D01*
X143867128Y-120339449D01*
X143891898Y-120399250D01*
X143927860Y-120453070D01*
X143973630Y-120498840D01*
X144027450Y-120534802D01*
X144087251Y-120559572D01*
X144150736Y-120572200D01*
X144215464Y-120572200D01*
X144278949Y-120559572D01*
X144338750Y-120534802D01*
X144392570Y-120498840D01*
X144438340Y-120453070D01*
X144474302Y-120399250D01*
X144499072Y-120339449D01*
X144511700Y-120275964D01*
X144511700Y-120211236D01*
X144499072Y-120147751D01*
X144474302Y-120087950D01*
X144438340Y-120034130D01*
X144392570Y-119988360D01*
X144338750Y-119952398D01*
X144278949Y-119927628D01*
X144215464Y-119915000D01*
X144150736Y-119915000D01*
X144087251Y-119927628D01*
X144027450Y-119952398D01*
X143973630Y-119988360D01*
X143927860Y-120034130D01*
X143891898Y-120087950D01*
X143867128Y-120147751D01*
X143854500Y-120211236D01*
X141541500Y-120211236D01*
X141541500Y-120178556D01*
X141516121Y-120050969D01*
X141466339Y-119930783D01*
X141394066Y-119822620D01*
X141302080Y-119730634D01*
X141193917Y-119658361D01*
X141073731Y-119608579D01*
X140946144Y-119583200D01*
X140816056Y-119583200D01*
X140688469Y-119608579D01*
X140568283Y-119658361D01*
X140460120Y-119730634D01*
X140368134Y-119822620D01*
X140295861Y-119930783D01*
X140294718Y-119933541D01*
X140221570Y-119756944D01*
X140109134Y-119588671D01*
X139969699Y-119449236D01*
X142203500Y-119449236D01*
X142203500Y-119513964D01*
X142216128Y-119577449D01*
X142240898Y-119637250D01*
X142276860Y-119691070D01*
X142322630Y-119736840D01*
X142376450Y-119772802D01*
X142436251Y-119797572D01*
X142499736Y-119810200D01*
X142564464Y-119810200D01*
X142627949Y-119797572D01*
X142687750Y-119772802D01*
X142741570Y-119736840D01*
X142787340Y-119691070D01*
X142823302Y-119637250D01*
X142848072Y-119577449D01*
X142860700Y-119513964D01*
X142860700Y-119449236D01*
X142848072Y-119385751D01*
X142823302Y-119325950D01*
X142787340Y-119272130D01*
X142748000Y-119232790D01*
X142748000Y-117417236D01*
X147664500Y-117417236D01*
X147664500Y-117481964D01*
X147677128Y-117545449D01*
X147701898Y-117605250D01*
X147737860Y-117659070D01*
X147783630Y-117704840D01*
X147837450Y-117740802D01*
X147897251Y-117765572D01*
X147960736Y-117778200D01*
X148025464Y-117778200D01*
X148088949Y-117765572D01*
X148148750Y-117740802D01*
X148202570Y-117704840D01*
X148248340Y-117659070D01*
X148284302Y-117605250D01*
X148309072Y-117545449D01*
X148321700Y-117481964D01*
X148321700Y-117417236D01*
X148309072Y-117353751D01*
X148284302Y-117293950D01*
X148248340Y-117240130D01*
X148202570Y-117194360D01*
X148148750Y-117158398D01*
X148088949Y-117133628D01*
X148025464Y-117121000D01*
X147960736Y-117121000D01*
X147897251Y-117133628D01*
X147837450Y-117158398D01*
X147783630Y-117194360D01*
X147737860Y-117240130D01*
X147701898Y-117293950D01*
X147677128Y-117353751D01*
X147664500Y-117417236D01*
X142748000Y-117417236D01*
X142748000Y-112718236D01*
X143854500Y-112718236D01*
X143854500Y-112782964D01*
X143867128Y-112846449D01*
X143891898Y-112906250D01*
X143927860Y-112960070D01*
X143973630Y-113005840D01*
X144027450Y-113041802D01*
X144087251Y-113066572D01*
X144150736Y-113079200D01*
X144215464Y-113079200D01*
X144278949Y-113066572D01*
X144338750Y-113041802D01*
X144392570Y-113005840D01*
X144438340Y-112960070D01*
X144474302Y-112906250D01*
X144499072Y-112846449D01*
X144511700Y-112782964D01*
X144511700Y-112718236D01*
X144499072Y-112654751D01*
X144474302Y-112594950D01*
X144438340Y-112541130D01*
X144392570Y-112495360D01*
X144338750Y-112459398D01*
X144278949Y-112434628D01*
X144215464Y-112422000D01*
X144150736Y-112422000D01*
X144087251Y-112434628D01*
X144027450Y-112459398D01*
X143973630Y-112495360D01*
X143927860Y-112541130D01*
X143891898Y-112594950D01*
X143867128Y-112654751D01*
X143854500Y-112718236D01*
X142748000Y-112718236D01*
X142748000Y-110178236D01*
X145759500Y-110178236D01*
X145759500Y-110242964D01*
X145772128Y-110306449D01*
X145796898Y-110366250D01*
X145832860Y-110420070D01*
X145850390Y-110437600D01*
X145832860Y-110455130D01*
X145796898Y-110508950D01*
X145772128Y-110568751D01*
X145759500Y-110632236D01*
X145759500Y-110696964D01*
X145772128Y-110760449D01*
X145796898Y-110820250D01*
X145832860Y-110874070D01*
X145878630Y-110919840D01*
X145932450Y-110955802D01*
X145992251Y-110980572D01*
X146004923Y-110983093D01*
X145993556Y-111040236D01*
X145993556Y-111104964D01*
X146004923Y-111162107D01*
X145992251Y-111164628D01*
X145932450Y-111189398D01*
X145878630Y-111225360D01*
X145832860Y-111271130D01*
X145796898Y-111324950D01*
X145772128Y-111384751D01*
X145759500Y-111448236D01*
X145759500Y-111512964D01*
X145772128Y-111576449D01*
X145796898Y-111636250D01*
X145832860Y-111690070D01*
X145850390Y-111707600D01*
X145832860Y-111725130D01*
X145796898Y-111778950D01*
X145772128Y-111838751D01*
X145759500Y-111902236D01*
X145759500Y-111966964D01*
X145772128Y-112030449D01*
X145796898Y-112090250D01*
X145832860Y-112144070D01*
X145878630Y-112189840D01*
X145932450Y-112225802D01*
X145992251Y-112250572D01*
X146055736Y-112263200D01*
X146120464Y-112263200D01*
X146183949Y-112250572D01*
X146243750Y-112225802D01*
X146297570Y-112189840D01*
X146343340Y-112144070D01*
X146379302Y-112090250D01*
X146404072Y-112030449D01*
X146416700Y-111966964D01*
X146416700Y-111902236D01*
X146404072Y-111838751D01*
X146379302Y-111778950D01*
X146343340Y-111725130D01*
X146325810Y-111707600D01*
X146343340Y-111690070D01*
X146379302Y-111636250D01*
X146404072Y-111576449D01*
X146416700Y-111512964D01*
X146416700Y-111448236D01*
X146405333Y-111391093D01*
X146418005Y-111388572D01*
X146477806Y-111363802D01*
X146531626Y-111327840D01*
X146577396Y-111282070D01*
X146613358Y-111228250D01*
X146638128Y-111168449D01*
X146650756Y-111104964D01*
X146650756Y-111040236D01*
X146638128Y-110976751D01*
X146613358Y-110916950D01*
X146577396Y-110863130D01*
X146531626Y-110817360D01*
X146477806Y-110781398D01*
X146418005Y-110756628D01*
X146405333Y-110754107D01*
X146416700Y-110696964D01*
X146416700Y-110632236D01*
X146404072Y-110568751D01*
X146379302Y-110508950D01*
X146343340Y-110455130D01*
X146325810Y-110437600D01*
X146343340Y-110420070D01*
X146379302Y-110366250D01*
X146404072Y-110306449D01*
X146416700Y-110242964D01*
X146416700Y-110178236D01*
X146404072Y-110114751D01*
X146379302Y-110054950D01*
X146343340Y-110001130D01*
X146297570Y-109955360D01*
X146243750Y-109919398D01*
X146183949Y-109894628D01*
X146120464Y-109882000D01*
X146055736Y-109882000D01*
X145992251Y-109894628D01*
X145932450Y-109919398D01*
X145878630Y-109955360D01*
X145832860Y-110001130D01*
X145796898Y-110054950D01*
X145772128Y-110114751D01*
X145759500Y-110178236D01*
X142748000Y-110178236D01*
X142748000Y-107511236D01*
X145886500Y-107511236D01*
X145886500Y-107575964D01*
X145899128Y-107639449D01*
X145923898Y-107699250D01*
X145959860Y-107753070D01*
X146005630Y-107798840D01*
X146059450Y-107834802D01*
X146119251Y-107859572D01*
X146182736Y-107872200D01*
X146247464Y-107872200D01*
X146272475Y-107867225D01*
X146267500Y-107892236D01*
X146267500Y-107956964D01*
X146280128Y-108020449D01*
X146304898Y-108080250D01*
X146340860Y-108134070D01*
X146386630Y-108179840D01*
X146440450Y-108215802D01*
X146500251Y-108240572D01*
X146563736Y-108253200D01*
X146628464Y-108253200D01*
X146691949Y-108240572D01*
X146751750Y-108215802D01*
X146805570Y-108179840D01*
X146851340Y-108134070D01*
X146887302Y-108080250D01*
X146909756Y-108026041D01*
X146915128Y-108053049D01*
X146939898Y-108112850D01*
X146975860Y-108166670D01*
X147021630Y-108212440D01*
X147075450Y-108248402D01*
X147135251Y-108273172D01*
X147198736Y-108285800D01*
X147263464Y-108285800D01*
X147326949Y-108273172D01*
X147386750Y-108248402D01*
X147440570Y-108212440D01*
X147486340Y-108166670D01*
X147522302Y-108112850D01*
X147547072Y-108053049D01*
X147559700Y-107989564D01*
X147559700Y-107924836D01*
X147547072Y-107861351D01*
X147522302Y-107801550D01*
X147486340Y-107747730D01*
X147466986Y-107728376D01*
X147491550Y-107718202D01*
X147545370Y-107682240D01*
X147561267Y-107666343D01*
X147574898Y-107699250D01*
X147610860Y-107753070D01*
X147656630Y-107798840D01*
X147710450Y-107834802D01*
X147770251Y-107859572D01*
X147833736Y-107872200D01*
X147898464Y-107872200D01*
X147950676Y-107861814D01*
X147822309Y-107990181D01*
X147812627Y-107998127D01*
X147804681Y-108007809D01*
X147804678Y-108007812D01*
X147794449Y-108020277D01*
X147780886Y-108036803D01*
X147757300Y-108080929D01*
X147742776Y-108128808D01*
X147739100Y-108166132D01*
X147739100Y-108166142D01*
X147737873Y-108178600D01*
X147739100Y-108191058D01*
X147739101Y-111722132D01*
X147737873Y-111734600D01*
X147739101Y-111747068D01*
X147739101Y-111747069D01*
X147742777Y-111784393D01*
X147747183Y-111798916D01*
X147757300Y-111832271D01*
X147780886Y-111876396D01*
X147804678Y-111905388D01*
X147804687Y-111905397D01*
X147812628Y-111915073D01*
X147822304Y-111923014D01*
X148185681Y-112286391D01*
X148193627Y-112296073D01*
X148203309Y-112304019D01*
X148203311Y-112304021D01*
X148232302Y-112327814D01*
X148276428Y-112351400D01*
X148324307Y-112365924D01*
X148361631Y-112369600D01*
X148361641Y-112369600D01*
X148374099Y-112370827D01*
X148386557Y-112369600D01*
X148417390Y-112369600D01*
X148372860Y-112414130D01*
X148336898Y-112467950D01*
X148312128Y-112527751D01*
X148299500Y-112591236D01*
X148299500Y-112631642D01*
X148284302Y-112594950D01*
X148248340Y-112541130D01*
X148202570Y-112495360D01*
X148148750Y-112459398D01*
X148088949Y-112434628D01*
X148025464Y-112422000D01*
X147960736Y-112422000D01*
X147897251Y-112434628D01*
X147837450Y-112459398D01*
X147783630Y-112495360D01*
X147737860Y-112541130D01*
X147701898Y-112594950D01*
X147677128Y-112654751D01*
X147664500Y-112718236D01*
X147664500Y-112782964D01*
X147677128Y-112846449D01*
X147701898Y-112906250D01*
X147737860Y-112960070D01*
X147783630Y-113005840D01*
X147837450Y-113041802D01*
X147897251Y-113066572D01*
X147960736Y-113079200D01*
X148025464Y-113079200D01*
X148088949Y-113066572D01*
X148148750Y-113041802D01*
X148202570Y-113005840D01*
X148248340Y-112960070D01*
X148284302Y-112906250D01*
X148309072Y-112846449D01*
X148321700Y-112782964D01*
X148321700Y-112742558D01*
X148336898Y-112779250D01*
X148372860Y-112833070D01*
X148418630Y-112878840D01*
X148472450Y-112914802D01*
X148532251Y-112939572D01*
X148595736Y-112952200D01*
X148660464Y-112952200D01*
X148723949Y-112939572D01*
X148783750Y-112914802D01*
X148837570Y-112878840D01*
X148883340Y-112833070D01*
X148919302Y-112779250D01*
X148944072Y-112719449D01*
X148956700Y-112655964D01*
X148956700Y-112591236D01*
X148944072Y-112527751D01*
X148919302Y-112467950D01*
X148883340Y-112414130D01*
X148838810Y-112369600D01*
X148883340Y-112325070D01*
X148919302Y-112271250D01*
X148944072Y-112211449D01*
X148956700Y-112147964D01*
X148956700Y-112083236D01*
X148944072Y-112019751D01*
X148919302Y-111959950D01*
X148883340Y-111906130D01*
X148837570Y-111860360D01*
X148783750Y-111824398D01*
X148723949Y-111799628D01*
X148660464Y-111787000D01*
X148595736Y-111787000D01*
X148532251Y-111799628D01*
X148472450Y-111824398D01*
X148454261Y-111836551D01*
X148247100Y-111629390D01*
X148247100Y-108283810D01*
X148531710Y-107999200D01*
X148533464Y-107999200D01*
X148596949Y-107986572D01*
X148656750Y-107961802D01*
X148710570Y-107925840D01*
X148756340Y-107880070D01*
X148782100Y-107841518D01*
X148807860Y-107880070D01*
X148853630Y-107925840D01*
X148907450Y-107961802D01*
X148967251Y-107986572D01*
X149030736Y-107999200D01*
X149095464Y-107999200D01*
X149158949Y-107986572D01*
X149218750Y-107961802D01*
X149272570Y-107925840D01*
X149290100Y-107908310D01*
X149307630Y-107925840D01*
X149361450Y-107961802D01*
X149421251Y-107986572D01*
X149484736Y-107999200D01*
X149549464Y-107999200D01*
X149612949Y-107986572D01*
X149672750Y-107961802D01*
X149726570Y-107925840D01*
X149744100Y-107908310D01*
X149761630Y-107925840D01*
X149815450Y-107961802D01*
X149875251Y-107986572D01*
X149938736Y-107999200D01*
X150003464Y-107999200D01*
X150066949Y-107986572D01*
X150126750Y-107961802D01*
X150180570Y-107925840D01*
X150226340Y-107880070D01*
X150262302Y-107826250D01*
X150287072Y-107766449D01*
X150299700Y-107702964D01*
X150299700Y-107638236D01*
X150287072Y-107574751D01*
X150262302Y-107514950D01*
X150259821Y-107511236D01*
X150458500Y-107511236D01*
X150458500Y-107575964D01*
X150471128Y-107639449D01*
X150495898Y-107699250D01*
X150531860Y-107753070D01*
X150577630Y-107798840D01*
X150631450Y-107834802D01*
X150691251Y-107859572D01*
X150754736Y-107872200D01*
X150819464Y-107872200D01*
X150882949Y-107859572D01*
X150942750Y-107834802D01*
X150996570Y-107798840D01*
X151042340Y-107753070D01*
X151078302Y-107699250D01*
X151103072Y-107639449D01*
X151115700Y-107575964D01*
X151115700Y-107511236D01*
X151103072Y-107447751D01*
X151078302Y-107387950D01*
X151042340Y-107334130D01*
X150996570Y-107288360D01*
X150942750Y-107252398D01*
X150882949Y-107227628D01*
X150819464Y-107215000D01*
X150754736Y-107215000D01*
X150691251Y-107227628D01*
X150631450Y-107252398D01*
X150577630Y-107288360D01*
X150531860Y-107334130D01*
X150495898Y-107387950D01*
X150471128Y-107447751D01*
X150458500Y-107511236D01*
X150259821Y-107511236D01*
X150226340Y-107461130D01*
X150180570Y-107415360D01*
X150126750Y-107379398D01*
X150066949Y-107354628D01*
X150003464Y-107342000D01*
X149976503Y-107342000D01*
X149961600Y-107327097D01*
X149961600Y-104082236D01*
X150204500Y-104082236D01*
X150204500Y-104146964D01*
X150217128Y-104210449D01*
X150241898Y-104270250D01*
X150277860Y-104324070D01*
X150323630Y-104369840D01*
X150377450Y-104405802D01*
X150437251Y-104430572D01*
X150500736Y-104443200D01*
X150565464Y-104443200D01*
X150628949Y-104430572D01*
X150688750Y-104405802D01*
X150742570Y-104369840D01*
X150788340Y-104324070D01*
X150824302Y-104270250D01*
X150849072Y-104210449D01*
X150861700Y-104146964D01*
X150861700Y-104082236D01*
X150849072Y-104018751D01*
X150824302Y-103958950D01*
X150788340Y-103905130D01*
X150742570Y-103859360D01*
X150688750Y-103823398D01*
X150628949Y-103798628D01*
X150565464Y-103786000D01*
X150500736Y-103786000D01*
X150437251Y-103798628D01*
X150377450Y-103823398D01*
X150323630Y-103859360D01*
X150277860Y-103905130D01*
X150241898Y-103958950D01*
X150217128Y-104018751D01*
X150204500Y-104082236D01*
X149961600Y-104082236D01*
X149961600Y-102812236D01*
X150204500Y-102812236D01*
X150204500Y-102876964D01*
X150217128Y-102940449D01*
X150241898Y-103000250D01*
X150277860Y-103054070D01*
X150323630Y-103099840D01*
X150377450Y-103135802D01*
X150437251Y-103160572D01*
X150500736Y-103173200D01*
X150565464Y-103173200D01*
X150628949Y-103160572D01*
X150688750Y-103135802D01*
X150742570Y-103099840D01*
X150788340Y-103054070D01*
X150824302Y-103000250D01*
X150849072Y-102940449D01*
X150861700Y-102876964D01*
X150861700Y-102812236D01*
X150849072Y-102748751D01*
X150824302Y-102688950D01*
X150788340Y-102635130D01*
X150742570Y-102589360D01*
X150688750Y-102553398D01*
X150628949Y-102528628D01*
X150565464Y-102516000D01*
X150500736Y-102516000D01*
X150437251Y-102528628D01*
X150377450Y-102553398D01*
X150323630Y-102589360D01*
X150277860Y-102635130D01*
X150241898Y-102688950D01*
X150217128Y-102748751D01*
X150204500Y-102812236D01*
X149961600Y-102812236D01*
X149961600Y-101542236D01*
X150204500Y-101542236D01*
X150204500Y-101606964D01*
X150217128Y-101670449D01*
X150241898Y-101730250D01*
X150277860Y-101784070D01*
X150323630Y-101829840D01*
X150377450Y-101865802D01*
X150437251Y-101890572D01*
X150500736Y-101903200D01*
X150565464Y-101903200D01*
X150628949Y-101890572D01*
X150688750Y-101865802D01*
X150742570Y-101829840D01*
X150788340Y-101784070D01*
X150824302Y-101730250D01*
X150849072Y-101670449D01*
X150861700Y-101606964D01*
X150861700Y-101542236D01*
X150849072Y-101478751D01*
X150824302Y-101418950D01*
X150788340Y-101365130D01*
X150742570Y-101319360D01*
X150688750Y-101283398D01*
X150628949Y-101258628D01*
X150565464Y-101246000D01*
X150500736Y-101246000D01*
X150437251Y-101258628D01*
X150377450Y-101283398D01*
X150323630Y-101319360D01*
X150277860Y-101365130D01*
X150241898Y-101418950D01*
X150217128Y-101478751D01*
X150204500Y-101542236D01*
X149961600Y-101542236D01*
X149961600Y-100458396D01*
X150166163Y-100253834D01*
X150174403Y-100247072D01*
X150201382Y-100214197D01*
X150221430Y-100176690D01*
X150233775Y-100135993D01*
X150236900Y-100104268D01*
X150236900Y-100104267D01*
X150237944Y-100093669D01*
X150236900Y-100083070D01*
X150236900Y-99705421D01*
X151834822Y-98107500D01*
X152681501Y-98107500D01*
X152692100Y-98108544D01*
X152702699Y-98107500D01*
X152734424Y-98104375D01*
X152775121Y-98092030D01*
X152812628Y-98071982D01*
X152845503Y-98045003D01*
X152852270Y-98036757D01*
X152928675Y-97960353D01*
X152908898Y-97989950D01*
X152884128Y-98049751D01*
X152871500Y-98113236D01*
X152871500Y-98168871D01*
X151276944Y-99763429D01*
X151268697Y-99770197D01*
X151247214Y-99796376D01*
X151241718Y-99803073D01*
X151221670Y-99840580D01*
X151209325Y-99881277D01*
X151205156Y-99923600D01*
X151206200Y-99934199D01*
X151206201Y-111264170D01*
X150387939Y-112082434D01*
X150379698Y-112089197D01*
X150362106Y-112110634D01*
X150352718Y-112122073D01*
X150332670Y-112159580D01*
X150320325Y-112200277D01*
X150316156Y-112242600D01*
X150317201Y-112253208D01*
X150317201Y-112374789D01*
X150279100Y-112412890D01*
X150234570Y-112368360D01*
X150180750Y-112332398D01*
X150120949Y-112307628D01*
X150057464Y-112295000D01*
X149992736Y-112295000D01*
X149929251Y-112307628D01*
X149869450Y-112332398D01*
X149815630Y-112368360D01*
X149771100Y-112412890D01*
X149726570Y-112368360D01*
X149672750Y-112332398D01*
X149612949Y-112307628D01*
X149549464Y-112295000D01*
X149484736Y-112295000D01*
X149421251Y-112307628D01*
X149361450Y-112332398D01*
X149307630Y-112368360D01*
X149261860Y-112414130D01*
X149225898Y-112467950D01*
X149201128Y-112527751D01*
X149188500Y-112591236D01*
X149188500Y-112655964D01*
X149201128Y-112719449D01*
X149225898Y-112779250D01*
X149261860Y-112833070D01*
X149307630Y-112878840D01*
X149361450Y-112914802D01*
X149421251Y-112939572D01*
X149484736Y-112952200D01*
X149549464Y-112952200D01*
X149612949Y-112939572D01*
X149672750Y-112914802D01*
X149726570Y-112878840D01*
X149771100Y-112834310D01*
X149815630Y-112878840D01*
X149869450Y-112914802D01*
X149929251Y-112939572D01*
X149992736Y-112952200D01*
X150057464Y-112952200D01*
X150120949Y-112939572D01*
X150180750Y-112914802D01*
X150234570Y-112878840D01*
X150279100Y-112834310D01*
X150317200Y-112872410D01*
X150317201Y-116930991D01*
X150316156Y-116941600D01*
X150320325Y-116983923D01*
X150332670Y-117024620D01*
X150333501Y-117026175D01*
X150331500Y-117036236D01*
X150331500Y-117100964D01*
X150344128Y-117164449D01*
X150368898Y-117224250D01*
X150404860Y-117278070D01*
X150450630Y-117323840D01*
X150504450Y-117359802D01*
X150564251Y-117384572D01*
X150627736Y-117397200D01*
X150692464Y-117397200D01*
X150755949Y-117384572D01*
X150815750Y-117359802D01*
X150861700Y-117329098D01*
X150861701Y-118346639D01*
X150852128Y-118369751D01*
X150839500Y-118433236D01*
X150839500Y-118497964D01*
X150852128Y-118561449D01*
X150876898Y-118621250D01*
X150912860Y-118675070D01*
X150958630Y-118720840D01*
X151012450Y-118756802D01*
X151072251Y-118781572D01*
X151135736Y-118794200D01*
X151200464Y-118794200D01*
X151263949Y-118781572D01*
X151323750Y-118756802D01*
X151377570Y-118720840D01*
X151423340Y-118675070D01*
X151459302Y-118621250D01*
X151484072Y-118561449D01*
X151496700Y-118497964D01*
X151496700Y-118433236D01*
X151484072Y-118369751D01*
X151459302Y-118309950D01*
X151423340Y-118256130D01*
X151377570Y-118210360D01*
X151323750Y-118174398D01*
X151293500Y-118161868D01*
X151293500Y-116906261D01*
X151294544Y-116895662D01*
X151290375Y-116853340D01*
X151290375Y-116853339D01*
X151279200Y-116816499D01*
X151279200Y-113480236D01*
X151347500Y-113480236D01*
X151347500Y-113544964D01*
X151360128Y-113608449D01*
X151384898Y-113668250D01*
X151420860Y-113722070D01*
X151460200Y-113761410D01*
X151460201Y-117581789D01*
X151420860Y-117621130D01*
X151384898Y-117674950D01*
X151360128Y-117734751D01*
X151347500Y-117798236D01*
X151347500Y-117862964D01*
X151360128Y-117926449D01*
X151384898Y-117986250D01*
X151420860Y-118040070D01*
X151466630Y-118085840D01*
X151520450Y-118121802D01*
X151580251Y-118146572D01*
X151643736Y-118159200D01*
X151708464Y-118159200D01*
X151771949Y-118146572D01*
X151831750Y-118121802D01*
X151885570Y-118085840D01*
X151931340Y-118040070D01*
X151967302Y-117986250D01*
X151992072Y-117926449D01*
X152004700Y-117862964D01*
X152004700Y-117798236D01*
X151992072Y-117734751D01*
X151967302Y-117674950D01*
X151931340Y-117621130D01*
X151892000Y-117581790D01*
X151892000Y-113988236D01*
X152363500Y-113988236D01*
X152363500Y-114052964D01*
X152376128Y-114116449D01*
X152400898Y-114176250D01*
X152436860Y-114230070D01*
X152482630Y-114275840D01*
X152536450Y-114311802D01*
X152596251Y-114336572D01*
X152659736Y-114349200D01*
X152724464Y-114349200D01*
X152787949Y-114336572D01*
X152847750Y-114311802D01*
X152901570Y-114275840D01*
X152947340Y-114230070D01*
X152983302Y-114176250D01*
X153008072Y-114116449D01*
X153020700Y-114052964D01*
X153020700Y-113988236D01*
X153008072Y-113924751D01*
X152983302Y-113864950D01*
X152947340Y-113811130D01*
X152901570Y-113765360D01*
X152847750Y-113729398D01*
X152787949Y-113704628D01*
X152724464Y-113692000D01*
X152659736Y-113692000D01*
X152596251Y-113704628D01*
X152536450Y-113729398D01*
X152482630Y-113765360D01*
X152436860Y-113811130D01*
X152400898Y-113864950D01*
X152376128Y-113924751D01*
X152363500Y-113988236D01*
X151892000Y-113988236D01*
X151892000Y-113761410D01*
X151931340Y-113722070D01*
X151967302Y-113668250D01*
X151992072Y-113608449D01*
X152004700Y-113544964D01*
X152004700Y-113480236D01*
X151992072Y-113416751D01*
X151967302Y-113356950D01*
X151931340Y-113303130D01*
X151885570Y-113257360D01*
X151831750Y-113221398D01*
X151771949Y-113196628D01*
X151708464Y-113184000D01*
X151643736Y-113184000D01*
X151580251Y-113196628D01*
X151520450Y-113221398D01*
X151466630Y-113257360D01*
X151420860Y-113303130D01*
X151384898Y-113356950D01*
X151360128Y-113416751D01*
X151347500Y-113480236D01*
X151279200Y-113480236D01*
X151279200Y-112872410D01*
X151318540Y-112833070D01*
X151354502Y-112779250D01*
X151379272Y-112719449D01*
X151391900Y-112655964D01*
X151391900Y-112591236D01*
X151379272Y-112527751D01*
X151354502Y-112467950D01*
X151318540Y-112414130D01*
X151272770Y-112368360D01*
X151218950Y-112332398D01*
X151159149Y-112307628D01*
X151095664Y-112295000D01*
X151030936Y-112295000D01*
X150967451Y-112307628D01*
X150907650Y-112332398D01*
X150853830Y-112368360D01*
X150808060Y-112414130D01*
X150798200Y-112428886D01*
X150788340Y-112414130D01*
X150749000Y-112374790D01*
X150749000Y-112332027D01*
X151567267Y-111513762D01*
X151575503Y-111507003D01*
X151602482Y-111474128D01*
X151622530Y-111436621D01*
X151634875Y-111395924D01*
X151638000Y-111364199D01*
X151639044Y-111353600D01*
X151638000Y-111343001D01*
X151638000Y-111067236D01*
X152617500Y-111067236D01*
X152617500Y-111131964D01*
X152630128Y-111195449D01*
X152654898Y-111255250D01*
X152690860Y-111309070D01*
X152736630Y-111354840D01*
X152790450Y-111390802D01*
X152850251Y-111415572D01*
X152913736Y-111428200D01*
X152978464Y-111428200D01*
X153041949Y-111415572D01*
X153101750Y-111390802D01*
X153155570Y-111354840D01*
X153201340Y-111309070D01*
X153237302Y-111255250D01*
X153262072Y-111195449D01*
X153274700Y-111131964D01*
X153274700Y-111067236D01*
X153262072Y-111003751D01*
X153237302Y-110943950D01*
X153201340Y-110890130D01*
X153155570Y-110844360D01*
X153101750Y-110808398D01*
X153041949Y-110783628D01*
X152978464Y-110771000D01*
X152913736Y-110771000D01*
X152850251Y-110783628D01*
X152790450Y-110808398D01*
X152736630Y-110844360D01*
X152690860Y-110890130D01*
X152654898Y-110943950D01*
X152630128Y-111003751D01*
X152617500Y-111067236D01*
X151638000Y-111067236D01*
X151638000Y-109581236D01*
X153482500Y-109581236D01*
X153482500Y-109645964D01*
X153495128Y-109709449D01*
X153519898Y-109769250D01*
X153555860Y-109823070D01*
X153601630Y-109868840D01*
X153655450Y-109904802D01*
X153715251Y-109929572D01*
X153778736Y-109942200D01*
X153843464Y-109942200D01*
X153906949Y-109929572D01*
X153966750Y-109904802D01*
X154020570Y-109868840D01*
X154066340Y-109823070D01*
X154102302Y-109769250D01*
X154127072Y-109709449D01*
X154139700Y-109645964D01*
X154139700Y-109581236D01*
X154133510Y-109550114D01*
X154135175Y-109544624D01*
X154139344Y-109502300D01*
X154135175Y-109459977D01*
X154122830Y-109419280D01*
X154102782Y-109381773D01*
X154075802Y-109348898D01*
X154042927Y-109321918D01*
X154005420Y-109301870D01*
X153964723Y-109289525D01*
X153922400Y-109285356D01*
X153880076Y-109289525D01*
X153874586Y-109291190D01*
X153843464Y-109285000D01*
X153778736Y-109285000D01*
X153715251Y-109297628D01*
X153655450Y-109322398D01*
X153601630Y-109358360D01*
X153555860Y-109404130D01*
X153519898Y-109457950D01*
X153495128Y-109517751D01*
X153482500Y-109581236D01*
X151638000Y-109581236D01*
X151638000Y-103701236D01*
X153252500Y-103701236D01*
X153252500Y-103765964D01*
X153265128Y-103829449D01*
X153289898Y-103889250D01*
X153325860Y-103943070D01*
X153371630Y-103988840D01*
X153425450Y-104024802D01*
X153485251Y-104049572D01*
X153548736Y-104062200D01*
X153613464Y-104062200D01*
X153676949Y-104049572D01*
X153736750Y-104024802D01*
X153790570Y-103988840D01*
X153836340Y-103943070D01*
X153872302Y-103889250D01*
X153897072Y-103829449D01*
X153909700Y-103765964D01*
X153909700Y-103701236D01*
X153897072Y-103637751D01*
X153872302Y-103577950D01*
X153836340Y-103524130D01*
X153790570Y-103478360D01*
X153736750Y-103442398D01*
X153676949Y-103417628D01*
X153613464Y-103405000D01*
X153548736Y-103405000D01*
X153485251Y-103417628D01*
X153425450Y-103442398D01*
X153371630Y-103478360D01*
X153325860Y-103524130D01*
X153289898Y-103577950D01*
X153265128Y-103637751D01*
X153252500Y-103701236D01*
X151638000Y-103701236D01*
X151638000Y-100013027D01*
X153176829Y-98474200D01*
X153232464Y-98474200D01*
X153295949Y-98461572D01*
X153355750Y-98436802D01*
X153409570Y-98400840D01*
X153455340Y-98355070D01*
X153491302Y-98301250D01*
X153516072Y-98241449D01*
X153528700Y-98177964D01*
X153528700Y-98113236D01*
X153516072Y-98049751D01*
X153491302Y-97989950D01*
X153460008Y-97943116D01*
X153485251Y-97953572D01*
X153548736Y-97966200D01*
X153613464Y-97966200D01*
X153676949Y-97953572D01*
X153736750Y-97928802D01*
X153790570Y-97892840D01*
X153836340Y-97847070D01*
X153872302Y-97793250D01*
X153897072Y-97733449D01*
X153909700Y-97669964D01*
X153909700Y-97605236D01*
X153897072Y-97541751D01*
X153872302Y-97481950D01*
X153836340Y-97428130D01*
X153790570Y-97382360D01*
X153736750Y-97346398D01*
X153676949Y-97321628D01*
X153613464Y-97309000D01*
X153548736Y-97309000D01*
X153485251Y-97321628D01*
X153425450Y-97346398D01*
X153371630Y-97382360D01*
X153332290Y-97421700D01*
X152956698Y-97421700D01*
X152946099Y-97420656D01*
X152903776Y-97424825D01*
X152863079Y-97437170D01*
X152825572Y-97457218D01*
X152792697Y-97484197D01*
X152785934Y-97492438D01*
X152602673Y-97675700D01*
X152595988Y-97675700D01*
X152602302Y-97666250D01*
X152627072Y-97606449D01*
X152639700Y-97542964D01*
X152639700Y-97478236D01*
X152627072Y-97414751D01*
X152602302Y-97354950D01*
X152566340Y-97301130D01*
X152520570Y-97255360D01*
X152466750Y-97219398D01*
X152406949Y-97194628D01*
X152343464Y-97182000D01*
X152278736Y-97182000D01*
X152215251Y-97194628D01*
X152155450Y-97219398D01*
X152101630Y-97255360D01*
X152062290Y-97294700D01*
X151686698Y-97294700D01*
X151676099Y-97293656D01*
X151633776Y-97297825D01*
X151593079Y-97310170D01*
X151555572Y-97330218D01*
X151522697Y-97357197D01*
X151515934Y-97365438D01*
X149647239Y-99234134D01*
X149638998Y-99240897D01*
X149620695Y-99263200D01*
X149612018Y-99273773D01*
X149591970Y-99311280D01*
X149579625Y-99351977D01*
X149575456Y-99394300D01*
X149576501Y-99404908D01*
X149576501Y-99553869D01*
X149546949Y-99541628D01*
X149483464Y-99529000D01*
X149418736Y-99529000D01*
X149355251Y-99541628D01*
X149295450Y-99566398D01*
X149241630Y-99602360D01*
X149195860Y-99648130D01*
X149159898Y-99701950D01*
X149135128Y-99761751D01*
X149122500Y-99825236D01*
X149122500Y-99889964D01*
X149135128Y-99953449D01*
X149159898Y-100013250D01*
X149195860Y-100067070D01*
X149241630Y-100112840D01*
X149295450Y-100148802D01*
X149331402Y-100163694D01*
X149316670Y-100191255D01*
X149304325Y-100231952D01*
X149300156Y-100274275D01*
X149301201Y-100284884D01*
X149301200Y-107421790D01*
X149290100Y-107432890D01*
X149272570Y-107415360D01*
X149218750Y-107379398D01*
X149158949Y-107354628D01*
X149095464Y-107342000D01*
X149030736Y-107342000D01*
X148967251Y-107354628D01*
X148907450Y-107379398D01*
X148853630Y-107415360D01*
X148807860Y-107461130D01*
X148782100Y-107499682D01*
X148756340Y-107461130D01*
X148710570Y-107415360D01*
X148656750Y-107379398D01*
X148596949Y-107354628D01*
X148533464Y-107342000D01*
X148468736Y-107342000D01*
X148405251Y-107354628D01*
X148345450Y-107379398D01*
X148291630Y-107415360D01*
X148245860Y-107461130D01*
X148209898Y-107514950D01*
X148194700Y-107551642D01*
X148194700Y-107511236D01*
X148182072Y-107447751D01*
X148157302Y-107387950D01*
X148121340Y-107334130D01*
X148082000Y-107294790D01*
X148082000Y-101839198D01*
X148083044Y-101828599D01*
X148078875Y-101786276D01*
X148078206Y-101784070D01*
X148066530Y-101745579D01*
X148046482Y-101708072D01*
X148019503Y-101675197D01*
X148011262Y-101668434D01*
X147940700Y-101597872D01*
X147940700Y-101542236D01*
X147928072Y-101478751D01*
X147903302Y-101418950D01*
X147867340Y-101365130D01*
X147821570Y-101319360D01*
X147767750Y-101283398D01*
X147707949Y-101258628D01*
X147644464Y-101246000D01*
X147579736Y-101246000D01*
X147516251Y-101258628D01*
X147456450Y-101283398D01*
X147402630Y-101319360D01*
X147356860Y-101365130D01*
X147320898Y-101418950D01*
X147296128Y-101478751D01*
X147283500Y-101542236D01*
X147283500Y-101606964D01*
X147296128Y-101670449D01*
X147320898Y-101730250D01*
X147356860Y-101784070D01*
X147402630Y-101829840D01*
X147456450Y-101865802D01*
X147516251Y-101890572D01*
X147579736Y-101903200D01*
X147635372Y-101903200D01*
X147650201Y-101918029D01*
X147650200Y-107294790D01*
X147640733Y-107304257D01*
X147627102Y-107271350D01*
X147591140Y-107217530D01*
X147551800Y-107178190D01*
X147551800Y-102959999D01*
X147552844Y-102949400D01*
X147551800Y-102938801D01*
X147550343Y-102924006D01*
X147559700Y-102876964D01*
X147559700Y-102812236D01*
X147547072Y-102748751D01*
X147522302Y-102688950D01*
X147486340Y-102635130D01*
X147440570Y-102589360D01*
X147386750Y-102553398D01*
X147326949Y-102528628D01*
X147263464Y-102516000D01*
X147198736Y-102516000D01*
X147135251Y-102528628D01*
X147075450Y-102553398D01*
X147021630Y-102589360D01*
X146975860Y-102635130D01*
X146939898Y-102688950D01*
X146915128Y-102748751D01*
X146902500Y-102812236D01*
X146902500Y-102876964D01*
X146915128Y-102940449D01*
X146939898Y-103000250D01*
X146975860Y-103054070D01*
X147021630Y-103099840D01*
X147075450Y-103135802D01*
X147120001Y-103154255D01*
X147120001Y-103927071D01*
X147105340Y-103905130D01*
X147059570Y-103859360D01*
X147005750Y-103823398D01*
X146945949Y-103798628D01*
X146882464Y-103786000D01*
X146817736Y-103786000D01*
X146754251Y-103798628D01*
X146724700Y-103810868D01*
X146724700Y-103053531D01*
X146760302Y-103000250D01*
X146785072Y-102940449D01*
X146797700Y-102876964D01*
X146797700Y-102812236D01*
X146785072Y-102748751D01*
X146760302Y-102688950D01*
X146724340Y-102635130D01*
X146678570Y-102589360D01*
X146624750Y-102553398D01*
X146564949Y-102528628D01*
X146501464Y-102516000D01*
X146436736Y-102516000D01*
X146373251Y-102528628D01*
X146343700Y-102540868D01*
X146343700Y-102005327D01*
X146445827Y-101903200D01*
X146501464Y-101903200D01*
X146564949Y-101890572D01*
X146624750Y-101865802D01*
X146678570Y-101829840D01*
X146724340Y-101784070D01*
X146760302Y-101730250D01*
X146785072Y-101670449D01*
X146797700Y-101606964D01*
X146797700Y-101542236D01*
X146785072Y-101478751D01*
X146760302Y-101418950D01*
X146724340Y-101365130D01*
X146678570Y-101319360D01*
X146624750Y-101283398D01*
X146564949Y-101258628D01*
X146501464Y-101246000D01*
X146436736Y-101246000D01*
X146373251Y-101258628D01*
X146313450Y-101283398D01*
X146259630Y-101319360D01*
X146213860Y-101365130D01*
X146177898Y-101418950D01*
X146153128Y-101478751D01*
X146140500Y-101542236D01*
X146140500Y-101597873D01*
X145982639Y-101755734D01*
X145974398Y-101762497D01*
X145954884Y-101786276D01*
X145947418Y-101795373D01*
X145927370Y-101832880D01*
X145915025Y-101873577D01*
X145910856Y-101915900D01*
X145911901Y-101926508D01*
X145911900Y-102975376D01*
X145910856Y-102985975D01*
X145911900Y-102996573D01*
X145915025Y-103028298D01*
X145927370Y-103068995D01*
X145947418Y-103106502D01*
X145974397Y-103139378D01*
X145982643Y-103146145D01*
X145999201Y-103162703D01*
X145999200Y-107294790D01*
X145959860Y-107334130D01*
X145923898Y-107387950D01*
X145899128Y-107447751D01*
X145886500Y-107511236D01*
X142748000Y-107511236D01*
X142748000Y-106241236D01*
X144108500Y-106241236D01*
X144108500Y-106305964D01*
X144121128Y-106369449D01*
X144145898Y-106429250D01*
X144181860Y-106483070D01*
X144227630Y-106528840D01*
X144281450Y-106564802D01*
X144341251Y-106589572D01*
X144404736Y-106602200D01*
X144469464Y-106602200D01*
X144532949Y-106589572D01*
X144592750Y-106564802D01*
X144646570Y-106528840D01*
X144692340Y-106483070D01*
X144728302Y-106429250D01*
X144753072Y-106369449D01*
X144765700Y-106305964D01*
X144765700Y-106241236D01*
X144753072Y-106177751D01*
X144728302Y-106117950D01*
X144692340Y-106064130D01*
X144646570Y-106018360D01*
X144592750Y-105982398D01*
X144532949Y-105957628D01*
X144469464Y-105945000D01*
X144404736Y-105945000D01*
X144341251Y-105957628D01*
X144281450Y-105982398D01*
X144227630Y-106018360D01*
X144181860Y-106064130D01*
X144145898Y-106117950D01*
X144121128Y-106177751D01*
X144108500Y-106241236D01*
X142748000Y-106241236D01*
X142748000Y-104712027D01*
X143778828Y-103681200D01*
X143834464Y-103681200D01*
X143897949Y-103668572D01*
X143957750Y-103643802D01*
X144011570Y-103607840D01*
X144057340Y-103562070D01*
X144093302Y-103508250D01*
X144118072Y-103448449D01*
X144130700Y-103384964D01*
X144130700Y-103320236D01*
X144118072Y-103256751D01*
X144093302Y-103196950D01*
X144057340Y-103143130D01*
X144011570Y-103097360D01*
X143957750Y-103061398D01*
X143897949Y-103036628D01*
X143834464Y-103024000D01*
X143769736Y-103024000D01*
X143706251Y-103036628D01*
X143646450Y-103061398D01*
X143592630Y-103097360D01*
X143546860Y-103143130D01*
X143510898Y-103196950D01*
X143486128Y-103256751D01*
X143473500Y-103320236D01*
X143473500Y-103375872D01*
X142386939Y-104462434D01*
X142378698Y-104469197D01*
X142354229Y-104499013D01*
X142351718Y-104502073D01*
X142331670Y-104539580D01*
X142319325Y-104580277D01*
X142315156Y-104622600D01*
X142316201Y-104633209D01*
X142316200Y-119232790D01*
X142276860Y-119272130D01*
X142240898Y-119325950D01*
X142216128Y-119385751D01*
X142203500Y-119449236D01*
X139969699Y-119449236D01*
X139966029Y-119445566D01*
X139865100Y-119378128D01*
X139865100Y-118569072D01*
X139966029Y-118501634D01*
X140109134Y-118358529D01*
X140221570Y-118190256D01*
X140294718Y-118013659D01*
X140295861Y-118016417D01*
X140368134Y-118124580D01*
X140460120Y-118216566D01*
X140568283Y-118288839D01*
X140688469Y-118338621D01*
X140816056Y-118364000D01*
X140946144Y-118364000D01*
X141073731Y-118338621D01*
X141193917Y-118288839D01*
X141302080Y-118216566D01*
X141394066Y-118124580D01*
X141466339Y-118016417D01*
X141516121Y-117896231D01*
X141541500Y-117768644D01*
X141541500Y-117638556D01*
X141516121Y-117510969D01*
X141466339Y-117390783D01*
X141394066Y-117282620D01*
X141302080Y-117190634D01*
X141193917Y-117118361D01*
X141073731Y-117068579D01*
X140946144Y-117043200D01*
X140816056Y-117043200D01*
X140688469Y-117068579D01*
X140568283Y-117118361D01*
X140460120Y-117190634D01*
X140368134Y-117282620D01*
X140295861Y-117390783D01*
X140294718Y-117393541D01*
X140221570Y-117216944D01*
X140109134Y-117048671D01*
X139966029Y-116905566D01*
X139865100Y-116838128D01*
X139865100Y-116029072D01*
X139966029Y-115961634D01*
X140109134Y-115818529D01*
X140221570Y-115650256D01*
X140294718Y-115473659D01*
X140295861Y-115476417D01*
X140368134Y-115584580D01*
X140460120Y-115676566D01*
X140568283Y-115748839D01*
X140688469Y-115798621D01*
X140816056Y-115824000D01*
X140946144Y-115824000D01*
X141073731Y-115798621D01*
X141193917Y-115748839D01*
X141302080Y-115676566D01*
X141394066Y-115584580D01*
X141466339Y-115476417D01*
X141516121Y-115356231D01*
X141541500Y-115228644D01*
X141541500Y-115098556D01*
X141516121Y-114970969D01*
X141466339Y-114850783D01*
X141394066Y-114742620D01*
X141302080Y-114650634D01*
X141193917Y-114578361D01*
X141073731Y-114528579D01*
X140946144Y-114503200D01*
X140816056Y-114503200D01*
X140688469Y-114528579D01*
X140568283Y-114578361D01*
X140460120Y-114650634D01*
X140368134Y-114742620D01*
X140295861Y-114850783D01*
X140294718Y-114853541D01*
X140221570Y-114676944D01*
X140109134Y-114508671D01*
X139966029Y-114365566D01*
X139865100Y-114298128D01*
X139865100Y-113489072D01*
X139966029Y-113421634D01*
X140109134Y-113278529D01*
X140221570Y-113110256D01*
X140294718Y-112933659D01*
X140295861Y-112936417D01*
X140368134Y-113044580D01*
X140460120Y-113136566D01*
X140568283Y-113208839D01*
X140688469Y-113258621D01*
X140816056Y-113284000D01*
X140946144Y-113284000D01*
X141073731Y-113258621D01*
X141193917Y-113208839D01*
X141302080Y-113136566D01*
X141394066Y-113044580D01*
X141466339Y-112936417D01*
X141516121Y-112816231D01*
X141541500Y-112688644D01*
X141541500Y-112558556D01*
X141516121Y-112430969D01*
X141466339Y-112310783D01*
X141394066Y-112202620D01*
X141302080Y-112110634D01*
X141193917Y-112038361D01*
X141073731Y-111988579D01*
X140946144Y-111963200D01*
X140816056Y-111963200D01*
X140688469Y-111988579D01*
X140568283Y-112038361D01*
X140460120Y-112110634D01*
X140368134Y-112202620D01*
X140295861Y-112310783D01*
X140294718Y-112313541D01*
X140221570Y-112136944D01*
X140109134Y-111968671D01*
X139966029Y-111825566D01*
X139865100Y-111758128D01*
X139865100Y-110949072D01*
X139966029Y-110881634D01*
X140109134Y-110738529D01*
X140221570Y-110570256D01*
X140294718Y-110393659D01*
X140295861Y-110396417D01*
X140368134Y-110504580D01*
X140460120Y-110596566D01*
X140568283Y-110668839D01*
X140688469Y-110718621D01*
X140816056Y-110744000D01*
X140946144Y-110744000D01*
X141073731Y-110718621D01*
X141193917Y-110668839D01*
X141302080Y-110596566D01*
X141394066Y-110504580D01*
X141466339Y-110396417D01*
X141516121Y-110276231D01*
X141541500Y-110148644D01*
X141541500Y-110018556D01*
X141516121Y-109890969D01*
X141466339Y-109770783D01*
X141394066Y-109662620D01*
X141302080Y-109570634D01*
X141193917Y-109498361D01*
X141073731Y-109448579D01*
X140946144Y-109423200D01*
X140816056Y-109423200D01*
X140688469Y-109448579D01*
X140568283Y-109498361D01*
X140460120Y-109570634D01*
X140368134Y-109662620D01*
X140295861Y-109770783D01*
X140294718Y-109773541D01*
X140221570Y-109596944D01*
X140109134Y-109428671D01*
X139966029Y-109285566D01*
X139865100Y-109218128D01*
X139865100Y-108409072D01*
X139966029Y-108341634D01*
X140109134Y-108198529D01*
X140221570Y-108030256D01*
X140294718Y-107853659D01*
X140295861Y-107856417D01*
X140368134Y-107964580D01*
X140460120Y-108056566D01*
X140568283Y-108128839D01*
X140688469Y-108178621D01*
X140816056Y-108204000D01*
X140946144Y-108204000D01*
X141073731Y-108178621D01*
X141193917Y-108128839D01*
X141302080Y-108056566D01*
X141394066Y-107964580D01*
X141466339Y-107856417D01*
X141516121Y-107736231D01*
X141541500Y-107608644D01*
X141541500Y-107478556D01*
X141516121Y-107350969D01*
X141466339Y-107230783D01*
X141394066Y-107122620D01*
X141302080Y-107030634D01*
X141193917Y-106958361D01*
X141073731Y-106908579D01*
X140946144Y-106883200D01*
X140816056Y-106883200D01*
X140688469Y-106908579D01*
X140568283Y-106958361D01*
X140460120Y-107030634D01*
X140368134Y-107122620D01*
X140295861Y-107230783D01*
X140294718Y-107233541D01*
X140221570Y-107056944D01*
X140109134Y-106888671D01*
X139966029Y-106745566D01*
X139865100Y-106678128D01*
X139865100Y-105869072D01*
X139966029Y-105801634D01*
X140109134Y-105658529D01*
X140221570Y-105490256D01*
X140294718Y-105313659D01*
X140295861Y-105316417D01*
X140368134Y-105424580D01*
X140460120Y-105516566D01*
X140568283Y-105588839D01*
X140688469Y-105638621D01*
X140816056Y-105664000D01*
X140946144Y-105664000D01*
X141073731Y-105638621D01*
X141193917Y-105588839D01*
X141302080Y-105516566D01*
X141394066Y-105424580D01*
X141466339Y-105316417D01*
X141516121Y-105196231D01*
X141541500Y-105068644D01*
X141541500Y-104938556D01*
X141516121Y-104810969D01*
X141466339Y-104690783D01*
X141394066Y-104582620D01*
X141302080Y-104490634D01*
X141193917Y-104418361D01*
X141073731Y-104368579D01*
X140946144Y-104343200D01*
X140816056Y-104343200D01*
X140688469Y-104368579D01*
X140568283Y-104418361D01*
X140460120Y-104490634D01*
X140368134Y-104582620D01*
X140295861Y-104690783D01*
X140294718Y-104693541D01*
X140221570Y-104516944D01*
X140109134Y-104348671D01*
X139966029Y-104205566D01*
X139865100Y-104138128D01*
X139865100Y-103329072D01*
X139966029Y-103261634D01*
X140109134Y-103118529D01*
X140221570Y-102950256D01*
X140294718Y-102773659D01*
X140295861Y-102776417D01*
X140368134Y-102884580D01*
X140460120Y-102976566D01*
X140568283Y-103048839D01*
X140688469Y-103098621D01*
X140816056Y-103124000D01*
X140946144Y-103124000D01*
X141073731Y-103098621D01*
X141193917Y-103048839D01*
X141302080Y-102976566D01*
X141394066Y-102884580D01*
X141466339Y-102776417D01*
X141516121Y-102656231D01*
X141541500Y-102528644D01*
X141541500Y-102398556D01*
X141516121Y-102270969D01*
X141466339Y-102150783D01*
X141394066Y-102042620D01*
X141302080Y-101950634D01*
X141193917Y-101878361D01*
X141073731Y-101828579D01*
X140946144Y-101803200D01*
X140816056Y-101803200D01*
X140688469Y-101828579D01*
X140568283Y-101878361D01*
X140460120Y-101950634D01*
X140368134Y-102042620D01*
X140295861Y-102150783D01*
X140294718Y-102153541D01*
X140221570Y-101976944D01*
X140109134Y-101808671D01*
X139966029Y-101665566D01*
X139865100Y-101598128D01*
X139865100Y-100821279D01*
X139890961Y-100807456D01*
X139990760Y-100674537D01*
X139865100Y-100548877D01*
X139865100Y-100406323D01*
X140062037Y-100603260D01*
X140194956Y-100503461D01*
X140242194Y-100413264D01*
X140462713Y-100413264D01*
X140518380Y-100508587D01*
X140639475Y-100568109D01*
X140769855Y-100602864D01*
X140904511Y-100611514D01*
X141038267Y-100593729D01*
X141165983Y-100550191D01*
X141243820Y-100508587D01*
X141299487Y-100413264D01*
X140881100Y-99994876D01*
X140462713Y-100413264D01*
X140242194Y-100413264D01*
X140291098Y-100319887D01*
X140300260Y-100288742D01*
X140391436Y-100341987D01*
X140809824Y-99923600D01*
X140952376Y-99923600D01*
X141370764Y-100341987D01*
X141466087Y-100286320D01*
X141525609Y-100165225D01*
X141560364Y-100034845D01*
X141569014Y-99900189D01*
X141551229Y-99766433D01*
X141507691Y-99638717D01*
X141466087Y-99560880D01*
X141370764Y-99505213D01*
X140952376Y-99923600D01*
X140809824Y-99923600D01*
X140391436Y-99505213D01*
X140299329Y-99559002D01*
X140284280Y-99510855D01*
X140243167Y-99433936D01*
X140462713Y-99433936D01*
X140881100Y-99852324D01*
X141299487Y-99433936D01*
X141243820Y-99338613D01*
X141122725Y-99279091D01*
X140992345Y-99244336D01*
X140857689Y-99235686D01*
X140723933Y-99253471D01*
X140596217Y-99297009D01*
X140518380Y-99338613D01*
X140462713Y-99433936D01*
X140243167Y-99433936D01*
X140194956Y-99343739D01*
X140062037Y-99243940D01*
X139865100Y-99440877D01*
X139865100Y-99298323D01*
X139990760Y-99172663D01*
X139890961Y-99039744D01*
X139865100Y-99026200D01*
X139865100Y-98281279D01*
X139890961Y-98267456D01*
X139990760Y-98134537D01*
X139865100Y-98008877D01*
X139865100Y-97866323D01*
X140062037Y-98063260D01*
X140194956Y-97963461D01*
X140242194Y-97873264D01*
X140462713Y-97873264D01*
X140518380Y-97968587D01*
X140639475Y-98028109D01*
X140769855Y-98062864D01*
X140904511Y-98071514D01*
X141038267Y-98053729D01*
X141165983Y-98010191D01*
X141243820Y-97968587D01*
X141299487Y-97873264D01*
X140881100Y-97454876D01*
X140462713Y-97873264D01*
X140242194Y-97873264D01*
X140291098Y-97779887D01*
X140300260Y-97748742D01*
X140391436Y-97801987D01*
X140809824Y-97383600D01*
X140952376Y-97383600D01*
X141370764Y-97801987D01*
X141466087Y-97746320D01*
X141525609Y-97625225D01*
X141560364Y-97494845D01*
X141565510Y-97414736D01*
X147347000Y-97414736D01*
X147347000Y-97479464D01*
X147359628Y-97542949D01*
X147384398Y-97602750D01*
X147420360Y-97656570D01*
X147466130Y-97702340D01*
X147519950Y-97738302D01*
X147579751Y-97763072D01*
X147643236Y-97775700D01*
X147707964Y-97775700D01*
X147771449Y-97763072D01*
X147831250Y-97738302D01*
X147885070Y-97702340D01*
X147930840Y-97656570D01*
X147966802Y-97602750D01*
X147991572Y-97542949D01*
X148004200Y-97479464D01*
X148004200Y-97414736D01*
X147991572Y-97351251D01*
X147966802Y-97291450D01*
X147930840Y-97237630D01*
X147885070Y-97191860D01*
X147831250Y-97155898D01*
X147771449Y-97131128D01*
X147707964Y-97118500D01*
X147643236Y-97118500D01*
X147579751Y-97131128D01*
X147519950Y-97155898D01*
X147466130Y-97191860D01*
X147420360Y-97237630D01*
X147384398Y-97291450D01*
X147359628Y-97351251D01*
X147347000Y-97414736D01*
X141565510Y-97414736D01*
X141569014Y-97360189D01*
X141551229Y-97226433D01*
X141507691Y-97098717D01*
X141466087Y-97020880D01*
X141370764Y-96965213D01*
X140952376Y-97383600D01*
X140809824Y-97383600D01*
X140391436Y-96965213D01*
X140299329Y-97019002D01*
X140284280Y-96970855D01*
X140243167Y-96893936D01*
X140462713Y-96893936D01*
X140881100Y-97312324D01*
X141299487Y-96893936D01*
X141243820Y-96798613D01*
X141122725Y-96739091D01*
X140992345Y-96704336D01*
X140857689Y-96695686D01*
X140723933Y-96713471D01*
X140596217Y-96757009D01*
X140518380Y-96798613D01*
X140462713Y-96893936D01*
X140243167Y-96893936D01*
X140194956Y-96803739D01*
X140062037Y-96703940D01*
X139865100Y-96900877D01*
X139865100Y-96758323D01*
X139990760Y-96632663D01*
X139890961Y-96499744D01*
X139865100Y-96486200D01*
X139865100Y-95709072D01*
X139966029Y-95641634D01*
X140034427Y-95573236D01*
X151347500Y-95573236D01*
X151347500Y-95637964D01*
X151360128Y-95701449D01*
X151384898Y-95761250D01*
X151420860Y-95815070D01*
X151466630Y-95860840D01*
X151520450Y-95896802D01*
X151580251Y-95921572D01*
X151643736Y-95934200D01*
X151708464Y-95934200D01*
X151771949Y-95921572D01*
X151831750Y-95896802D01*
X151885570Y-95860840D01*
X151931340Y-95815070D01*
X151967302Y-95761250D01*
X151992072Y-95701449D01*
X152004700Y-95637964D01*
X152004700Y-95573236D01*
X152617500Y-95573236D01*
X152617500Y-95637964D01*
X152630128Y-95701449D01*
X152654898Y-95761250D01*
X152690860Y-95815070D01*
X152736630Y-95860840D01*
X152790450Y-95896802D01*
X152850251Y-95921572D01*
X152913736Y-95934200D01*
X152978464Y-95934200D01*
X153041949Y-95921572D01*
X153101750Y-95896802D01*
X153155570Y-95860840D01*
X153201340Y-95815070D01*
X153237302Y-95761250D01*
X153262072Y-95701449D01*
X153274700Y-95637964D01*
X153274700Y-95573236D01*
X153262072Y-95509751D01*
X153237302Y-95449950D01*
X153201340Y-95396130D01*
X153155570Y-95350360D01*
X153129985Y-95333264D01*
X155702713Y-95333264D01*
X155758380Y-95428587D01*
X155879475Y-95488109D01*
X156009855Y-95522864D01*
X156144511Y-95531514D01*
X156278267Y-95513729D01*
X156405983Y-95470191D01*
X156483820Y-95428587D01*
X156539487Y-95333264D01*
X156121100Y-94914876D01*
X155702713Y-95333264D01*
X153129985Y-95333264D01*
X153101750Y-95314398D01*
X153041949Y-95289628D01*
X152978464Y-95277000D01*
X152913736Y-95277000D01*
X152850251Y-95289628D01*
X152790450Y-95314398D01*
X152736630Y-95350360D01*
X152690860Y-95396130D01*
X152654898Y-95449950D01*
X152630128Y-95509751D01*
X152617500Y-95573236D01*
X152004700Y-95573236D01*
X151992072Y-95509751D01*
X151967302Y-95449950D01*
X151931340Y-95396130D01*
X151885570Y-95350360D01*
X151831750Y-95314398D01*
X151771949Y-95289628D01*
X151708464Y-95277000D01*
X151643736Y-95277000D01*
X151580251Y-95289628D01*
X151520450Y-95314398D01*
X151466630Y-95350360D01*
X151420860Y-95396130D01*
X151384898Y-95449950D01*
X151360128Y-95509751D01*
X151347500Y-95573236D01*
X140034427Y-95573236D01*
X140109134Y-95498529D01*
X140221570Y-95330256D01*
X140294718Y-95153659D01*
X140295861Y-95156417D01*
X140368134Y-95264580D01*
X140460120Y-95356566D01*
X140568283Y-95428839D01*
X140688469Y-95478621D01*
X140816056Y-95504000D01*
X140946144Y-95504000D01*
X141073731Y-95478621D01*
X141193917Y-95428839D01*
X141302080Y-95356566D01*
X141394066Y-95264580D01*
X141466339Y-95156417D01*
X141516121Y-95036231D01*
X141541500Y-94908644D01*
X141541500Y-94778556D01*
X141516121Y-94650969D01*
X141466339Y-94530783D01*
X141394066Y-94422620D01*
X141302080Y-94330634D01*
X141193917Y-94258361D01*
X141073731Y-94208579D01*
X140946144Y-94183200D01*
X140816056Y-94183200D01*
X140688469Y-94208579D01*
X140568283Y-94258361D01*
X140460120Y-94330634D01*
X140368134Y-94422620D01*
X140295861Y-94530783D01*
X140294718Y-94533541D01*
X140221570Y-94356944D01*
X140109134Y-94188671D01*
X139966029Y-94045566D01*
X139865100Y-93978128D01*
X139865100Y-93378600D01*
X143730700Y-93378600D01*
X143730700Y-94500814D01*
X143737247Y-94567285D01*
X143763115Y-94652562D01*
X143805124Y-94731155D01*
X143861658Y-94800042D01*
X143930544Y-94856576D01*
X144009137Y-94898585D01*
X144094414Y-94924453D01*
X144183100Y-94933188D01*
X144271785Y-94924453D01*
X144357062Y-94898585D01*
X144435655Y-94856576D01*
X144504542Y-94800042D01*
X144561076Y-94731156D01*
X144603085Y-94652563D01*
X144628953Y-94567286D01*
X144635500Y-94500815D01*
X144635500Y-93356385D01*
X144635027Y-93351580D01*
X145133700Y-93351580D01*
X145133700Y-93445620D01*
X145152046Y-93537852D01*
X145188034Y-93624734D01*
X145240279Y-93702925D01*
X145306775Y-93769421D01*
X145384966Y-93821666D01*
X145471848Y-93857654D01*
X145564080Y-93876000D01*
X145658120Y-93876000D01*
X145750352Y-93857654D01*
X145837234Y-93821666D01*
X145915425Y-93769421D01*
X145981921Y-93702925D01*
X146005099Y-93668236D01*
X146521500Y-93668236D01*
X146521500Y-93732964D01*
X146534128Y-93796449D01*
X146558898Y-93856250D01*
X146594860Y-93910070D01*
X146640630Y-93955840D01*
X146694450Y-93991802D01*
X146754251Y-94016572D01*
X146817736Y-94029200D01*
X146882464Y-94029200D01*
X146945949Y-94016572D01*
X147005750Y-93991802D01*
X147059570Y-93955840D01*
X147105340Y-93910070D01*
X147141302Y-93856250D01*
X147166072Y-93796449D01*
X147178700Y-93732964D01*
X147178700Y-93668236D01*
X147166072Y-93604751D01*
X147141302Y-93544950D01*
X147138821Y-93541236D01*
X147537500Y-93541236D01*
X147537500Y-93605964D01*
X147550128Y-93669449D01*
X147574898Y-93729250D01*
X147610860Y-93783070D01*
X147656630Y-93828840D01*
X147710450Y-93864802D01*
X147770251Y-93889572D01*
X147833736Y-93902200D01*
X147898464Y-93902200D01*
X147961949Y-93889572D01*
X148021750Y-93864802D01*
X148075570Y-93828840D01*
X148121340Y-93783070D01*
X148157302Y-93729250D01*
X148182072Y-93669449D01*
X148194700Y-93605964D01*
X148194700Y-93541236D01*
X148934500Y-93541236D01*
X148934500Y-93605964D01*
X148947128Y-93669449D01*
X148971898Y-93729250D01*
X149007860Y-93783070D01*
X149053630Y-93828840D01*
X149107450Y-93864802D01*
X149167251Y-93889572D01*
X149230736Y-93902200D01*
X149295464Y-93902200D01*
X149358949Y-93889572D01*
X149418750Y-93864802D01*
X149472570Y-93828840D01*
X149517100Y-93784310D01*
X149561630Y-93828840D01*
X149615450Y-93864802D01*
X149675251Y-93889572D01*
X149738736Y-93902200D01*
X149803464Y-93902200D01*
X149866949Y-93889572D01*
X149926750Y-93864802D01*
X149980570Y-93828840D01*
X150026340Y-93783070D01*
X150062302Y-93729250D01*
X150087072Y-93669449D01*
X150099700Y-93605964D01*
X150099700Y-93541236D01*
X150087072Y-93477751D01*
X150062302Y-93417950D01*
X150026340Y-93364130D01*
X149980570Y-93318360D01*
X149926750Y-93282398D01*
X149866949Y-93257628D01*
X149803464Y-93245000D01*
X149738736Y-93245000D01*
X149675251Y-93257628D01*
X149615450Y-93282398D01*
X149561630Y-93318360D01*
X149517100Y-93362890D01*
X149472570Y-93318360D01*
X149418750Y-93282398D01*
X149358949Y-93257628D01*
X149295464Y-93245000D01*
X149230736Y-93245000D01*
X149167251Y-93257628D01*
X149107450Y-93282398D01*
X149053630Y-93318360D01*
X149007860Y-93364130D01*
X148971898Y-93417950D01*
X148947128Y-93477751D01*
X148934500Y-93541236D01*
X148194700Y-93541236D01*
X148182072Y-93477751D01*
X148157302Y-93417950D01*
X148121340Y-93364130D01*
X148075570Y-93318360D01*
X148021750Y-93282398D01*
X147961949Y-93257628D01*
X147898464Y-93245000D01*
X147833736Y-93245000D01*
X147770251Y-93257628D01*
X147710450Y-93282398D01*
X147656630Y-93318360D01*
X147610860Y-93364130D01*
X147574898Y-93417950D01*
X147550128Y-93477751D01*
X147537500Y-93541236D01*
X147138821Y-93541236D01*
X147105340Y-93491130D01*
X147059570Y-93445360D01*
X147005750Y-93409398D01*
X146945949Y-93384628D01*
X146882464Y-93372000D01*
X146817736Y-93372000D01*
X146754251Y-93384628D01*
X146694450Y-93409398D01*
X146640630Y-93445360D01*
X146594860Y-93491130D01*
X146558898Y-93544950D01*
X146534128Y-93604751D01*
X146521500Y-93668236D01*
X146005099Y-93668236D01*
X146034166Y-93624734D01*
X146070154Y-93537852D01*
X146088500Y-93445620D01*
X146088500Y-93351580D01*
X146070154Y-93259348D01*
X146034166Y-93172466D01*
X145981921Y-93094275D01*
X145915425Y-93027779D01*
X145837234Y-92975534D01*
X145750352Y-92939546D01*
X145658120Y-92921200D01*
X145564080Y-92921200D01*
X145471848Y-92939546D01*
X145384966Y-92975534D01*
X145306775Y-93027779D01*
X145240279Y-93094275D01*
X145188034Y-93172466D01*
X145152046Y-93259348D01*
X145133700Y-93351580D01*
X144635027Y-93351580D01*
X144628953Y-93289914D01*
X144603085Y-93204637D01*
X144561076Y-93126044D01*
X144504542Y-93057158D01*
X144435656Y-93000624D01*
X144357063Y-92958615D01*
X144271786Y-92932747D01*
X144183100Y-92924012D01*
X144094415Y-92932747D01*
X144009138Y-92958615D01*
X143930545Y-93000624D01*
X143861659Y-93057158D01*
X143805125Y-93126044D01*
X143763116Y-93204637D01*
X143737248Y-93289914D01*
X143730701Y-93356385D01*
X143730701Y-93378399D01*
X143730700Y-93378600D01*
X139865100Y-93378600D01*
X139865100Y-93169072D01*
X139966029Y-93101634D01*
X140109134Y-92958529D01*
X140221570Y-92790256D01*
X140294718Y-92613659D01*
X140295861Y-92616417D01*
X140368134Y-92724580D01*
X140460120Y-92816566D01*
X140568283Y-92888839D01*
X140688469Y-92938621D01*
X140816056Y-92964000D01*
X140946144Y-92964000D01*
X141073731Y-92938621D01*
X141193917Y-92888839D01*
X141206492Y-92880436D01*
X150432700Y-92880436D01*
X150432700Y-92945164D01*
X150445328Y-93008649D01*
X150470098Y-93068450D01*
X150506060Y-93122270D01*
X150551830Y-93168040D01*
X150605650Y-93204002D01*
X150665451Y-93228772D01*
X150728936Y-93241400D01*
X150793664Y-93241400D01*
X150857149Y-93228772D01*
X150916950Y-93204002D01*
X150970770Y-93168040D01*
X150971437Y-93167373D01*
X150968034Y-93172466D01*
X150932046Y-93259348D01*
X150913700Y-93351580D01*
X150913700Y-93445620D01*
X150932046Y-93537852D01*
X150968034Y-93624734D01*
X151020279Y-93702925D01*
X151086775Y-93769421D01*
X151164966Y-93821666D01*
X151251848Y-93857654D01*
X151344080Y-93876000D01*
X151438120Y-93876000D01*
X151530352Y-93857654D01*
X151617234Y-93821666D01*
X151695425Y-93769421D01*
X151761921Y-93702925D01*
X151814166Y-93624734D01*
X151850154Y-93537852D01*
X151868500Y-93445620D01*
X151868500Y-93378600D01*
X152366700Y-93378600D01*
X152366700Y-94500814D01*
X152373247Y-94567285D01*
X152399115Y-94652562D01*
X152441124Y-94731155D01*
X152497658Y-94800042D01*
X152566544Y-94856576D01*
X152645137Y-94898585D01*
X152730414Y-94924453D01*
X152819100Y-94933188D01*
X152907785Y-94924453D01*
X152993062Y-94898585D01*
X153052132Y-94867011D01*
X155433186Y-94867011D01*
X155450971Y-95000767D01*
X155494509Y-95128483D01*
X155536113Y-95206320D01*
X155631436Y-95261987D01*
X156049824Y-94843600D01*
X155631436Y-94425213D01*
X155536113Y-94480880D01*
X155476591Y-94601975D01*
X155441836Y-94732355D01*
X155433186Y-94867011D01*
X153052132Y-94867011D01*
X153071655Y-94856576D01*
X153140542Y-94800042D01*
X153197076Y-94731156D01*
X153239085Y-94652563D01*
X153264953Y-94567286D01*
X153271500Y-94500815D01*
X153271500Y-94353936D01*
X155702713Y-94353936D01*
X156121100Y-94772324D01*
X156539487Y-94353936D01*
X156483820Y-94258613D01*
X156362725Y-94199091D01*
X156232345Y-94164336D01*
X156097689Y-94155686D01*
X155963933Y-94173471D01*
X155836217Y-94217009D01*
X155758380Y-94258613D01*
X155702713Y-94353936D01*
X153271500Y-94353936D01*
X153271500Y-93356385D01*
X153264953Y-93289914D01*
X153239085Y-93204637D01*
X153197076Y-93126044D01*
X153140542Y-93057158D01*
X153111394Y-93033236D01*
X153506500Y-93033236D01*
X153506500Y-93097964D01*
X153519128Y-93161449D01*
X153543898Y-93221250D01*
X153579860Y-93275070D01*
X153625630Y-93320840D01*
X153679450Y-93356802D01*
X153739251Y-93381572D01*
X153802736Y-93394200D01*
X153867464Y-93394200D01*
X153930949Y-93381572D01*
X153990750Y-93356802D01*
X154044570Y-93320840D01*
X154090340Y-93275070D01*
X154126302Y-93221250D01*
X154151072Y-93161449D01*
X154163700Y-93097964D01*
X154163700Y-93033236D01*
X154151072Y-92969751D01*
X154126302Y-92909950D01*
X154090340Y-92856130D01*
X154044570Y-92810360D01*
X153990750Y-92774398D01*
X153930949Y-92749628D01*
X153867464Y-92737000D01*
X153802736Y-92737000D01*
X153739251Y-92749628D01*
X153679450Y-92774398D01*
X153625630Y-92810360D01*
X153579860Y-92856130D01*
X153543898Y-92909950D01*
X153519128Y-92969751D01*
X153506500Y-93033236D01*
X153111394Y-93033236D01*
X153071656Y-93000624D01*
X152993063Y-92958615D01*
X152907786Y-92932747D01*
X152819100Y-92924012D01*
X152730415Y-92932747D01*
X152645138Y-92958615D01*
X152566545Y-93000624D01*
X152497659Y-93057158D01*
X152441125Y-93126044D01*
X152399116Y-93204637D01*
X152373248Y-93289914D01*
X152366701Y-93356385D01*
X152366701Y-93378399D01*
X152366700Y-93378600D01*
X151868500Y-93378600D01*
X151868500Y-93351580D01*
X151850154Y-93259348D01*
X151814166Y-93172466D01*
X151761921Y-93094275D01*
X151695425Y-93027779D01*
X151617234Y-92975534D01*
X151530352Y-92939546D01*
X151438120Y-92921200D01*
X151344080Y-92921200D01*
X151251848Y-92939546D01*
X151164966Y-92975534D01*
X151086775Y-93027779D01*
X151057026Y-93057528D01*
X151077272Y-93008649D01*
X151089900Y-92945164D01*
X151089900Y-92880436D01*
X151077272Y-92816951D01*
X151052502Y-92757150D01*
X151016540Y-92703330D01*
X150970770Y-92657560D01*
X150916950Y-92621598D01*
X150857149Y-92596828D01*
X150793664Y-92584200D01*
X150728936Y-92584200D01*
X150665451Y-92596828D01*
X150605650Y-92621598D01*
X150551830Y-92657560D01*
X150506060Y-92703330D01*
X150470098Y-92757150D01*
X150445328Y-92816951D01*
X150432700Y-92880436D01*
X141206492Y-92880436D01*
X141302080Y-92816566D01*
X141394066Y-92724580D01*
X141466339Y-92616417D01*
X141516121Y-92496231D01*
X141541500Y-92368644D01*
X141541500Y-92238556D01*
X141522739Y-92144236D01*
X145505500Y-92144236D01*
X145505500Y-92208964D01*
X145518128Y-92272449D01*
X145542898Y-92332250D01*
X145578860Y-92386070D01*
X145624630Y-92431840D01*
X145678450Y-92467802D01*
X145738251Y-92492572D01*
X145801736Y-92505200D01*
X145866464Y-92505200D01*
X145929949Y-92492572D01*
X145989750Y-92467802D01*
X146043570Y-92431840D01*
X146089340Y-92386070D01*
X146125302Y-92332250D01*
X146150072Y-92272449D01*
X146162700Y-92208964D01*
X146162700Y-92144236D01*
X146150072Y-92080751D01*
X146125302Y-92020950D01*
X146089340Y-91967130D01*
X146043570Y-91921360D01*
X145989750Y-91885398D01*
X145929949Y-91860628D01*
X145866464Y-91848000D01*
X145801736Y-91848000D01*
X145738251Y-91860628D01*
X145678450Y-91885398D01*
X145624630Y-91921360D01*
X145578860Y-91967130D01*
X145542898Y-92020950D01*
X145518128Y-92080751D01*
X145505500Y-92144236D01*
X141522739Y-92144236D01*
X141516121Y-92110969D01*
X141466339Y-91990783D01*
X141394066Y-91882620D01*
X141302080Y-91790634D01*
X141193917Y-91718361D01*
X141073731Y-91668579D01*
X140946144Y-91643200D01*
X140816056Y-91643200D01*
X140688469Y-91668579D01*
X140568283Y-91718361D01*
X140460120Y-91790634D01*
X140368134Y-91882620D01*
X140295861Y-91990783D01*
X140294718Y-91993541D01*
X140221570Y-91816944D01*
X140109134Y-91648671D01*
X139966029Y-91505566D01*
X139865100Y-91438128D01*
X139865100Y-89443600D01*
X143730700Y-89443600D01*
X143730700Y-90085814D01*
X143737247Y-90152285D01*
X143763115Y-90237562D01*
X143805124Y-90316155D01*
X143861658Y-90385042D01*
X143930544Y-90441576D01*
X144009137Y-90483585D01*
X144094414Y-90509453D01*
X144183100Y-90518188D01*
X144271785Y-90509453D01*
X144357062Y-90483585D01*
X144435655Y-90441576D01*
X144504542Y-90385042D01*
X144561076Y-90316156D01*
X144603085Y-90237563D01*
X144628953Y-90152286D01*
X144635500Y-90085815D01*
X144635500Y-89443600D01*
X152366700Y-89443600D01*
X152366700Y-90085814D01*
X152373247Y-90152285D01*
X152399115Y-90237562D01*
X152441124Y-90316155D01*
X152497658Y-90385042D01*
X152566544Y-90441576D01*
X152645137Y-90483585D01*
X152730414Y-90509453D01*
X152819100Y-90518188D01*
X152907785Y-90509453D01*
X152993062Y-90483585D01*
X153071655Y-90441576D01*
X153140542Y-90385042D01*
X153197076Y-90316156D01*
X153239085Y-90237563D01*
X153264953Y-90152286D01*
X153271500Y-90085815D01*
X153271500Y-89421385D01*
X153264953Y-89354914D01*
X153239085Y-89269637D01*
X153197076Y-89191044D01*
X153140542Y-89122158D01*
X153071656Y-89065624D01*
X152993063Y-89023615D01*
X152907786Y-88997747D01*
X152819100Y-88989012D01*
X152730415Y-88997747D01*
X152645138Y-89023615D01*
X152566545Y-89065624D01*
X152497659Y-89122158D01*
X152441125Y-89191044D01*
X152399116Y-89269637D01*
X152373248Y-89354914D01*
X152366701Y-89421385D01*
X152366701Y-89443399D01*
X152366700Y-89443600D01*
X144635500Y-89443600D01*
X144635500Y-89421385D01*
X144628953Y-89354914D01*
X144603085Y-89269637D01*
X144561076Y-89191044D01*
X144504542Y-89122158D01*
X144435656Y-89065624D01*
X144357063Y-89023615D01*
X144271786Y-88997747D01*
X144183100Y-88989012D01*
X144094415Y-88997747D01*
X144009138Y-89023615D01*
X143930545Y-89065624D01*
X143861659Y-89122158D01*
X143805125Y-89191044D01*
X143763116Y-89269637D01*
X143737248Y-89354914D01*
X143730701Y-89421385D01*
X143730701Y-89443399D01*
X143730700Y-89443600D01*
X139865100Y-89443600D01*
X139865100Y-88747600D01*
X157137101Y-88747600D01*
X157137101Y-91438127D01*
%TA.AperFunction,Conductor*%
D18*
G36*
X157137101Y-91438127D02*
G01*
X157036171Y-91505566D01*
X156893066Y-91648671D01*
X156780630Y-91816944D01*
X156707482Y-91993541D01*
X156706339Y-91990783D01*
X156634066Y-91882620D01*
X156542080Y-91790634D01*
X156433917Y-91718361D01*
X156313731Y-91668579D01*
X156186144Y-91643200D01*
X156056056Y-91643200D01*
X155928469Y-91668579D01*
X155808283Y-91718361D01*
X155700120Y-91790634D01*
X155608134Y-91882620D01*
X155535861Y-91990783D01*
X155486079Y-92110969D01*
X155460700Y-92238556D01*
X155460700Y-92368644D01*
X155486079Y-92496231D01*
X155535861Y-92616417D01*
X155608134Y-92724580D01*
X155700120Y-92816566D01*
X155808283Y-92888839D01*
X155928469Y-92938621D01*
X156056056Y-92964000D01*
X156186144Y-92964000D01*
X156313731Y-92938621D01*
X156433917Y-92888839D01*
X156542080Y-92816566D01*
X156634066Y-92724580D01*
X156706339Y-92616417D01*
X156707482Y-92613659D01*
X156780630Y-92790256D01*
X156893066Y-92958529D01*
X157036171Y-93101634D01*
X157137101Y-93169073D01*
X157137101Y-93945921D01*
X157111239Y-93959744D01*
X157011440Y-94092663D01*
X157137101Y-94218324D01*
X157137101Y-94360878D01*
X156940163Y-94163940D01*
X156807244Y-94263739D01*
X156711102Y-94447313D01*
X156701940Y-94478458D01*
X156610764Y-94425213D01*
X156192376Y-94843600D01*
X156610764Y-95261987D01*
X156702871Y-95208198D01*
X156717920Y-95256345D01*
X156807244Y-95423461D01*
X156940163Y-95523260D01*
X157137101Y-95326322D01*
X157137101Y-95468876D01*
X157011440Y-95594537D01*
X157111239Y-95727456D01*
X157137101Y-95741000D01*
X157137101Y-96518127D01*
X157036171Y-96585566D01*
X156893066Y-96728671D01*
X156780630Y-96896944D01*
X156707482Y-97073541D01*
X156706339Y-97070783D01*
X156634066Y-96962620D01*
X156542080Y-96870634D01*
X156433917Y-96798361D01*
X156313731Y-96748579D01*
X156186144Y-96723200D01*
X156056056Y-96723200D01*
X155928469Y-96748579D01*
X155808283Y-96798361D01*
X155700120Y-96870634D01*
X155608134Y-96962620D01*
X155535861Y-97070783D01*
X155486079Y-97190969D01*
X155460700Y-97318556D01*
X155460700Y-97448644D01*
X155486079Y-97576231D01*
X155535861Y-97696417D01*
X155608134Y-97804580D01*
X155700120Y-97896566D01*
X155808283Y-97968839D01*
X155928469Y-98018621D01*
X156056056Y-98044000D01*
X156186144Y-98044000D01*
X156313731Y-98018621D01*
X156433917Y-97968839D01*
X156542080Y-97896566D01*
X156634066Y-97804580D01*
X156706339Y-97696417D01*
X156707482Y-97693659D01*
X156780630Y-97870256D01*
X156893066Y-98038529D01*
X157036171Y-98181634D01*
X157137101Y-98249073D01*
X157137101Y-99058127D01*
X157036171Y-99125566D01*
X156893066Y-99268671D01*
X156780630Y-99436944D01*
X156707482Y-99613541D01*
X156706339Y-99610783D01*
X156634066Y-99502620D01*
X156542080Y-99410634D01*
X156433917Y-99338361D01*
X156313731Y-99288579D01*
X156186144Y-99263200D01*
X156056056Y-99263200D01*
X155928469Y-99288579D01*
X155808283Y-99338361D01*
X155700120Y-99410634D01*
X155608134Y-99502620D01*
X155535861Y-99610783D01*
X155486079Y-99730969D01*
X155460700Y-99858556D01*
X155460700Y-99988644D01*
X155486079Y-100116231D01*
X155535861Y-100236417D01*
X155608134Y-100344580D01*
X155700120Y-100436566D01*
X155808283Y-100508839D01*
X155928469Y-100558621D01*
X156056056Y-100584000D01*
X156186144Y-100584000D01*
X156313731Y-100558621D01*
X156433917Y-100508839D01*
X156542080Y-100436566D01*
X156634066Y-100344580D01*
X156706339Y-100236417D01*
X156707482Y-100233659D01*
X156780630Y-100410256D01*
X156893066Y-100578529D01*
X157036171Y-100721634D01*
X157137101Y-100789073D01*
X157137101Y-101598127D01*
X157036171Y-101665566D01*
X156893066Y-101808671D01*
X156780630Y-101976944D01*
X156707482Y-102153541D01*
X156706339Y-102150783D01*
X156634066Y-102042620D01*
X156542080Y-101950634D01*
X156433917Y-101878361D01*
X156313731Y-101828579D01*
X156186144Y-101803200D01*
X156056056Y-101803200D01*
X155928469Y-101828579D01*
X155808283Y-101878361D01*
X155700120Y-101950634D01*
X155608134Y-102042620D01*
X155535861Y-102150783D01*
X155486079Y-102270969D01*
X155460700Y-102398556D01*
X155460700Y-102528644D01*
X155486079Y-102656231D01*
X155535861Y-102776417D01*
X155608134Y-102884580D01*
X155700120Y-102976566D01*
X155808283Y-103048839D01*
X155928469Y-103098621D01*
X156056056Y-103124000D01*
X156186144Y-103124000D01*
X156313731Y-103098621D01*
X156433917Y-103048839D01*
X156542080Y-102976566D01*
X156634066Y-102884580D01*
X156706339Y-102776417D01*
X156707482Y-102773659D01*
X156780630Y-102950256D01*
X156893066Y-103118529D01*
X157036171Y-103261634D01*
X157137101Y-103329073D01*
X157137101Y-104138127D01*
X157036171Y-104205566D01*
X156893066Y-104348671D01*
X156780630Y-104516944D01*
X156707482Y-104693541D01*
X156706339Y-104690783D01*
X156634066Y-104582620D01*
X156542080Y-104490634D01*
X156433917Y-104418361D01*
X156313731Y-104368579D01*
X156186144Y-104343200D01*
X156056056Y-104343200D01*
X155928469Y-104368579D01*
X155808283Y-104418361D01*
X155700120Y-104490634D01*
X155608134Y-104582620D01*
X155535861Y-104690783D01*
X155486079Y-104810969D01*
X155460700Y-104938556D01*
X155460700Y-105068644D01*
X155486079Y-105196231D01*
X155535861Y-105316417D01*
X155608134Y-105424580D01*
X155700120Y-105516566D01*
X155808283Y-105588839D01*
X155928469Y-105638621D01*
X156056056Y-105664000D01*
X156186144Y-105664000D01*
X156313731Y-105638621D01*
X156433917Y-105588839D01*
X156542080Y-105516566D01*
X156634066Y-105424580D01*
X156706339Y-105316417D01*
X156707482Y-105313659D01*
X156780630Y-105490256D01*
X156893066Y-105658529D01*
X157036171Y-105801634D01*
X157137100Y-105869073D01*
X157137100Y-106678127D01*
X157036171Y-106745566D01*
X156893066Y-106888671D01*
X156780630Y-107056944D01*
X156707482Y-107233541D01*
X156706339Y-107230783D01*
X156634066Y-107122620D01*
X156542080Y-107030634D01*
X156433917Y-106958361D01*
X156313731Y-106908579D01*
X156186144Y-106883200D01*
X156056056Y-106883200D01*
X155928469Y-106908579D01*
X155808283Y-106958361D01*
X155700120Y-107030634D01*
X155608134Y-107122620D01*
X155535861Y-107230783D01*
X155486079Y-107350969D01*
X155460700Y-107478556D01*
X155460700Y-107608644D01*
X155486079Y-107736231D01*
X155535861Y-107856417D01*
X155608134Y-107964580D01*
X155700120Y-108056566D01*
X155808283Y-108128839D01*
X155928469Y-108178621D01*
X156056056Y-108204000D01*
X156186144Y-108204000D01*
X156313731Y-108178621D01*
X156433917Y-108128839D01*
X156542080Y-108056566D01*
X156634066Y-107964580D01*
X156706339Y-107856417D01*
X156707482Y-107853659D01*
X156780630Y-108030256D01*
X156893066Y-108198529D01*
X157036171Y-108341634D01*
X157137100Y-108409073D01*
X157137100Y-109218127D01*
X157036171Y-109285566D01*
X156893066Y-109428671D01*
X156780630Y-109596944D01*
X156707482Y-109773541D01*
X156706339Y-109770783D01*
X156634066Y-109662620D01*
X156542080Y-109570634D01*
X156433917Y-109498361D01*
X156313731Y-109448579D01*
X156186144Y-109423200D01*
X156056056Y-109423200D01*
X155928469Y-109448579D01*
X155808283Y-109498361D01*
X155700120Y-109570634D01*
X155608134Y-109662620D01*
X155535861Y-109770783D01*
X155486079Y-109890969D01*
X155460700Y-110018556D01*
X155460700Y-110148644D01*
X155486079Y-110276231D01*
X155535861Y-110396417D01*
X155608134Y-110504580D01*
X155700120Y-110596566D01*
X155808283Y-110668839D01*
X155928469Y-110718621D01*
X156056056Y-110744000D01*
X156186144Y-110744000D01*
X156313731Y-110718621D01*
X156433917Y-110668839D01*
X156542080Y-110596566D01*
X156634066Y-110504580D01*
X156706339Y-110396417D01*
X156707482Y-110393659D01*
X156780630Y-110570256D01*
X156893066Y-110738529D01*
X157036171Y-110881634D01*
X157137100Y-110949073D01*
X157137100Y-111758127D01*
X157036171Y-111825566D01*
X156893066Y-111968671D01*
X156780630Y-112136944D01*
X156707482Y-112313541D01*
X156706339Y-112310783D01*
X156634066Y-112202620D01*
X156542080Y-112110634D01*
X156433917Y-112038361D01*
X156313731Y-111988579D01*
X156186144Y-111963200D01*
X156056056Y-111963200D01*
X155928469Y-111988579D01*
X155808283Y-112038361D01*
X155700120Y-112110634D01*
X155608134Y-112202620D01*
X155535861Y-112310783D01*
X155486079Y-112430969D01*
X155460700Y-112558556D01*
X155460700Y-112688644D01*
X155486079Y-112816231D01*
X155535861Y-112936417D01*
X155608134Y-113044580D01*
X155700120Y-113136566D01*
X155808283Y-113208839D01*
X155928469Y-113258621D01*
X156056056Y-113284000D01*
X156186144Y-113284000D01*
X156313731Y-113258621D01*
X156433917Y-113208839D01*
X156542080Y-113136566D01*
X156634066Y-113044580D01*
X156706339Y-112936417D01*
X156707482Y-112933659D01*
X156780630Y-113110256D01*
X156893066Y-113278529D01*
X157036171Y-113421634D01*
X157137100Y-113489073D01*
X157137100Y-114298128D01*
X157036171Y-114365566D01*
X156893066Y-114508671D01*
X156780630Y-114676944D01*
X156707482Y-114853541D01*
X156706339Y-114850783D01*
X156634066Y-114742620D01*
X156542080Y-114650634D01*
X156433917Y-114578361D01*
X156313731Y-114528579D01*
X156186144Y-114503200D01*
X156056056Y-114503200D01*
X155928469Y-114528579D01*
X155808283Y-114578361D01*
X155700120Y-114650634D01*
X155608134Y-114742620D01*
X155535861Y-114850783D01*
X155486079Y-114970969D01*
X155460700Y-115098556D01*
X155460700Y-115228644D01*
X155486079Y-115356231D01*
X155535861Y-115476417D01*
X155608134Y-115584580D01*
X155700120Y-115676566D01*
X155808283Y-115748839D01*
X155928469Y-115798621D01*
X156056056Y-115824000D01*
X156186144Y-115824000D01*
X156313731Y-115798621D01*
X156433917Y-115748839D01*
X156542080Y-115676566D01*
X156634066Y-115584580D01*
X156706339Y-115476417D01*
X156707482Y-115473659D01*
X156780630Y-115650256D01*
X156893066Y-115818529D01*
X157036171Y-115961634D01*
X157137100Y-116029072D01*
X157137100Y-116838128D01*
X157036171Y-116905566D01*
X156893066Y-117048671D01*
X156780630Y-117216944D01*
X156707482Y-117393541D01*
X156706339Y-117390783D01*
X156634066Y-117282620D01*
X156542080Y-117190634D01*
X156433917Y-117118361D01*
X156313731Y-117068579D01*
X156186144Y-117043200D01*
X156056056Y-117043200D01*
X155928469Y-117068579D01*
X155808283Y-117118361D01*
X155700120Y-117190634D01*
X155608134Y-117282620D01*
X155563799Y-117348971D01*
X154559000Y-116344173D01*
X154559000Y-110475198D01*
X154560044Y-110464599D01*
X154555875Y-110422276D01*
X154551957Y-110409360D01*
X154543530Y-110381579D01*
X154523482Y-110344072D01*
X154496503Y-110311197D01*
X154488263Y-110304435D01*
X154417700Y-110233872D01*
X154417700Y-110178236D01*
X154405072Y-110114751D01*
X154380302Y-110054950D01*
X154344340Y-110001130D01*
X154298570Y-109955360D01*
X154244750Y-109919398D01*
X154184949Y-109894628D01*
X154121464Y-109882000D01*
X154056736Y-109882000D01*
X153993251Y-109894628D01*
X153933450Y-109919398D01*
X153879630Y-109955360D01*
X153833860Y-110001130D01*
X153797898Y-110054950D01*
X153773128Y-110114751D01*
X153760500Y-110178236D01*
X153760500Y-110242964D01*
X153773128Y-110306449D01*
X153797898Y-110366250D01*
X153833860Y-110420070D01*
X153879630Y-110465840D01*
X153933450Y-110501802D01*
X153993251Y-110526572D01*
X154056736Y-110539200D01*
X154112372Y-110539200D01*
X154127200Y-110554028D01*
X154127200Y-111706872D01*
X153909700Y-111489372D01*
X153909700Y-111433736D01*
X153897072Y-111370251D01*
X153872302Y-111310450D01*
X153836340Y-111256630D01*
X153790570Y-111210860D01*
X153736750Y-111174898D01*
X153676949Y-111150128D01*
X153613464Y-111137500D01*
X153548736Y-111137500D01*
X153485251Y-111150128D01*
X153425450Y-111174898D01*
X153371630Y-111210860D01*
X153325860Y-111256630D01*
X153289898Y-111310450D01*
X153265128Y-111370251D01*
X153252500Y-111433736D01*
X153252500Y-111498464D01*
X153265128Y-111561949D01*
X153289898Y-111621750D01*
X153325860Y-111675570D01*
X153371630Y-111721340D01*
X153425450Y-111757302D01*
X153485251Y-111782072D01*
X153548736Y-111794700D01*
X153604372Y-111794700D01*
X153822400Y-112012729D01*
X153822401Y-119293191D01*
X153821356Y-119303800D01*
X153825525Y-119346123D01*
X153837870Y-119386820D01*
X153837871Y-119386821D01*
X153857919Y-119424328D01*
X153884898Y-119457203D01*
X153893139Y-119463966D01*
X154817938Y-120388767D01*
X154824697Y-120397003D01*
X154857572Y-120423982D01*
X154895079Y-120444030D01*
X154935776Y-120456375D01*
X154978100Y-120460544D01*
X154988699Y-120459500D01*
X155495717Y-120459500D01*
X155535861Y-120556417D01*
X155608134Y-120664580D01*
X155700120Y-120756566D01*
X155808283Y-120828839D01*
X155928469Y-120878621D01*
X156056056Y-120904000D01*
X156186144Y-120904000D01*
X156313731Y-120878621D01*
X156433917Y-120828839D01*
X156542080Y-120756566D01*
X156634066Y-120664580D01*
X156706339Y-120556417D01*
X156707482Y-120553659D01*
X156780630Y-120730256D01*
X156893066Y-120898529D01*
X157036171Y-121041634D01*
X157137100Y-121109072D01*
X157137100Y-121259600D01*
X139865100Y-121259600D01*
X139865100Y-121109072D01*
X139966029Y-121041634D01*
X140109134Y-120898529D01*
X140221570Y-120730256D01*
X140294718Y-120553659D01*
X140295861Y-120556417D01*
X140368134Y-120664580D01*
X140460120Y-120756566D01*
X140568283Y-120828839D01*
X140688469Y-120878621D01*
X140816056Y-120904000D01*
X140946144Y-120904000D01*
X141073731Y-120878621D01*
X141193917Y-120828839D01*
X141302080Y-120756566D01*
X141394066Y-120664580D01*
X141466339Y-120556417D01*
X141516121Y-120436231D01*
X141541500Y-120308644D01*
X141541500Y-120211236D01*
X143854500Y-120211236D01*
X143854500Y-120275964D01*
X143867128Y-120339449D01*
X143891898Y-120399250D01*
X143927860Y-120453070D01*
X143973630Y-120498840D01*
X144027450Y-120534802D01*
X144087251Y-120559572D01*
X144150736Y-120572200D01*
X144215464Y-120572200D01*
X144278949Y-120559572D01*
X144338750Y-120534802D01*
X144392570Y-120498840D01*
X144438340Y-120453070D01*
X144474302Y-120399250D01*
X144499072Y-120339449D01*
X144511700Y-120275964D01*
X144511700Y-120211236D01*
X144499072Y-120147751D01*
X144474302Y-120087950D01*
X144438340Y-120034130D01*
X144392570Y-119988360D01*
X144338750Y-119952398D01*
X144278949Y-119927628D01*
X144215464Y-119915000D01*
X144150736Y-119915000D01*
X144087251Y-119927628D01*
X144027450Y-119952398D01*
X143973630Y-119988360D01*
X143927860Y-120034130D01*
X143891898Y-120087950D01*
X143867128Y-120147751D01*
X143854500Y-120211236D01*
X141541500Y-120211236D01*
X141541500Y-120178556D01*
X141516121Y-120050969D01*
X141466339Y-119930783D01*
X141394066Y-119822620D01*
X141302080Y-119730634D01*
X141193917Y-119658361D01*
X141073731Y-119608579D01*
X140946144Y-119583200D01*
X140816056Y-119583200D01*
X140688469Y-119608579D01*
X140568283Y-119658361D01*
X140460120Y-119730634D01*
X140368134Y-119822620D01*
X140295861Y-119930783D01*
X140294718Y-119933541D01*
X140221570Y-119756944D01*
X140109134Y-119588671D01*
X139969699Y-119449236D01*
X142203500Y-119449236D01*
X142203500Y-119513964D01*
X142216128Y-119577449D01*
X142240898Y-119637250D01*
X142276860Y-119691070D01*
X142322630Y-119736840D01*
X142376450Y-119772802D01*
X142436251Y-119797572D01*
X142499736Y-119810200D01*
X142564464Y-119810200D01*
X142627949Y-119797572D01*
X142687750Y-119772802D01*
X142741570Y-119736840D01*
X142787340Y-119691070D01*
X142823302Y-119637250D01*
X142848072Y-119577449D01*
X142860700Y-119513964D01*
X142860700Y-119449236D01*
X142848072Y-119385751D01*
X142823302Y-119325950D01*
X142787340Y-119272130D01*
X142748000Y-119232790D01*
X142748000Y-117417236D01*
X147664500Y-117417236D01*
X147664500Y-117481964D01*
X147677128Y-117545449D01*
X147701898Y-117605250D01*
X147737860Y-117659070D01*
X147783630Y-117704840D01*
X147837450Y-117740802D01*
X147897251Y-117765572D01*
X147960736Y-117778200D01*
X148025464Y-117778200D01*
X148088949Y-117765572D01*
X148148750Y-117740802D01*
X148202570Y-117704840D01*
X148248340Y-117659070D01*
X148284302Y-117605250D01*
X148309072Y-117545449D01*
X148321700Y-117481964D01*
X148321700Y-117417236D01*
X148309072Y-117353751D01*
X148284302Y-117293950D01*
X148248340Y-117240130D01*
X148202570Y-117194360D01*
X148148750Y-117158398D01*
X148088949Y-117133628D01*
X148025464Y-117121000D01*
X147960736Y-117121000D01*
X147897251Y-117133628D01*
X147837450Y-117158398D01*
X147783630Y-117194360D01*
X147737860Y-117240130D01*
X147701898Y-117293950D01*
X147677128Y-117353751D01*
X147664500Y-117417236D01*
X142748000Y-117417236D01*
X142748000Y-112718236D01*
X143854500Y-112718236D01*
X143854500Y-112782964D01*
X143867128Y-112846449D01*
X143891898Y-112906250D01*
X143927860Y-112960070D01*
X143973630Y-113005840D01*
X144027450Y-113041802D01*
X144087251Y-113066572D01*
X144150736Y-113079200D01*
X144215464Y-113079200D01*
X144278949Y-113066572D01*
X144338750Y-113041802D01*
X144392570Y-113005840D01*
X144438340Y-112960070D01*
X144474302Y-112906250D01*
X144499072Y-112846449D01*
X144511700Y-112782964D01*
X144511700Y-112718236D01*
X144499072Y-112654751D01*
X144474302Y-112594950D01*
X144438340Y-112541130D01*
X144392570Y-112495360D01*
X144338750Y-112459398D01*
X144278949Y-112434628D01*
X144215464Y-112422000D01*
X144150736Y-112422000D01*
X144087251Y-112434628D01*
X144027450Y-112459398D01*
X143973630Y-112495360D01*
X143927860Y-112541130D01*
X143891898Y-112594950D01*
X143867128Y-112654751D01*
X143854500Y-112718236D01*
X142748000Y-112718236D01*
X142748000Y-110178236D01*
X145759500Y-110178236D01*
X145759500Y-110242964D01*
X145772128Y-110306449D01*
X145796898Y-110366250D01*
X145832860Y-110420070D01*
X145850390Y-110437600D01*
X145832860Y-110455130D01*
X145796898Y-110508950D01*
X145772128Y-110568751D01*
X145759500Y-110632236D01*
X145759500Y-110696964D01*
X145772128Y-110760449D01*
X145796898Y-110820250D01*
X145832860Y-110874070D01*
X145878630Y-110919840D01*
X145932450Y-110955802D01*
X145992251Y-110980572D01*
X146004923Y-110983093D01*
X145993556Y-111040236D01*
X145993556Y-111104964D01*
X146004923Y-111162107D01*
X145992251Y-111164628D01*
X145932450Y-111189398D01*
X145878630Y-111225360D01*
X145832860Y-111271130D01*
X145796898Y-111324950D01*
X145772128Y-111384751D01*
X145759500Y-111448236D01*
X145759500Y-111512964D01*
X145772128Y-111576449D01*
X145796898Y-111636250D01*
X145832860Y-111690070D01*
X145850390Y-111707600D01*
X145832860Y-111725130D01*
X145796898Y-111778950D01*
X145772128Y-111838751D01*
X145759500Y-111902236D01*
X145759500Y-111966964D01*
X145772128Y-112030449D01*
X145796898Y-112090250D01*
X145832860Y-112144070D01*
X145878630Y-112189840D01*
X145932450Y-112225802D01*
X145992251Y-112250572D01*
X146055736Y-112263200D01*
X146120464Y-112263200D01*
X146183949Y-112250572D01*
X146243750Y-112225802D01*
X146297570Y-112189840D01*
X146343340Y-112144070D01*
X146379302Y-112090250D01*
X146404072Y-112030449D01*
X146416700Y-111966964D01*
X146416700Y-111902236D01*
X146404072Y-111838751D01*
X146379302Y-111778950D01*
X146343340Y-111725130D01*
X146325810Y-111707600D01*
X146343340Y-111690070D01*
X146379302Y-111636250D01*
X146404072Y-111576449D01*
X146416700Y-111512964D01*
X146416700Y-111448236D01*
X146405333Y-111391093D01*
X146418005Y-111388572D01*
X146477806Y-111363802D01*
X146531626Y-111327840D01*
X146577396Y-111282070D01*
X146613358Y-111228250D01*
X146638128Y-111168449D01*
X146650756Y-111104964D01*
X146650756Y-111040236D01*
X146638128Y-110976751D01*
X146613358Y-110916950D01*
X146577396Y-110863130D01*
X146531626Y-110817360D01*
X146477806Y-110781398D01*
X146418005Y-110756628D01*
X146405333Y-110754107D01*
X146416700Y-110696964D01*
X146416700Y-110632236D01*
X146404072Y-110568751D01*
X146379302Y-110508950D01*
X146343340Y-110455130D01*
X146325810Y-110437600D01*
X146343340Y-110420070D01*
X146379302Y-110366250D01*
X146404072Y-110306449D01*
X146416700Y-110242964D01*
X146416700Y-110178236D01*
X146404072Y-110114751D01*
X146379302Y-110054950D01*
X146343340Y-110001130D01*
X146297570Y-109955360D01*
X146243750Y-109919398D01*
X146183949Y-109894628D01*
X146120464Y-109882000D01*
X146055736Y-109882000D01*
X145992251Y-109894628D01*
X145932450Y-109919398D01*
X145878630Y-109955360D01*
X145832860Y-110001130D01*
X145796898Y-110054950D01*
X145772128Y-110114751D01*
X145759500Y-110178236D01*
X142748000Y-110178236D01*
X142748000Y-107511236D01*
X145886500Y-107511236D01*
X145886500Y-107575964D01*
X145899128Y-107639449D01*
X145923898Y-107699250D01*
X145959860Y-107753070D01*
X146005630Y-107798840D01*
X146059450Y-107834802D01*
X146119251Y-107859572D01*
X146182736Y-107872200D01*
X146247464Y-107872200D01*
X146272475Y-107867225D01*
X146267500Y-107892236D01*
X146267500Y-107956964D01*
X146280128Y-108020449D01*
X146304898Y-108080250D01*
X146340860Y-108134070D01*
X146386630Y-108179840D01*
X146440450Y-108215802D01*
X146500251Y-108240572D01*
X146563736Y-108253200D01*
X146628464Y-108253200D01*
X146691949Y-108240572D01*
X146751750Y-108215802D01*
X146805570Y-108179840D01*
X146851340Y-108134070D01*
X146887302Y-108080250D01*
X146909756Y-108026041D01*
X146915128Y-108053049D01*
X146939898Y-108112850D01*
X146975860Y-108166670D01*
X147021630Y-108212440D01*
X147075450Y-108248402D01*
X147135251Y-108273172D01*
X147198736Y-108285800D01*
X147263464Y-108285800D01*
X147326949Y-108273172D01*
X147386750Y-108248402D01*
X147440570Y-108212440D01*
X147486340Y-108166670D01*
X147522302Y-108112850D01*
X147547072Y-108053049D01*
X147559700Y-107989564D01*
X147559700Y-107924836D01*
X147547072Y-107861351D01*
X147522302Y-107801550D01*
X147486340Y-107747730D01*
X147466986Y-107728376D01*
X147491550Y-107718202D01*
X147545370Y-107682240D01*
X147561267Y-107666343D01*
X147574898Y-107699250D01*
X147610860Y-107753070D01*
X147656630Y-107798840D01*
X147710450Y-107834802D01*
X147770251Y-107859572D01*
X147833736Y-107872200D01*
X147898464Y-107872200D01*
X147950676Y-107861814D01*
X147822309Y-107990181D01*
X147812627Y-107998127D01*
X147804681Y-108007809D01*
X147804678Y-108007812D01*
X147794449Y-108020277D01*
X147780886Y-108036803D01*
X147757300Y-108080929D01*
X147742776Y-108128808D01*
X147739100Y-108166132D01*
X147739100Y-108166142D01*
X147737873Y-108178600D01*
X147739100Y-108191058D01*
X147739101Y-111722132D01*
X147737873Y-111734600D01*
X147739101Y-111747068D01*
X147739101Y-111747069D01*
X147742777Y-111784393D01*
X147747183Y-111798916D01*
X147757300Y-111832271D01*
X147780886Y-111876396D01*
X147804678Y-111905388D01*
X147804687Y-111905397D01*
X147812628Y-111915073D01*
X147822304Y-111923014D01*
X148185681Y-112286391D01*
X148193627Y-112296073D01*
X148203309Y-112304019D01*
X148203311Y-112304021D01*
X148232302Y-112327814D01*
X148276428Y-112351400D01*
X148324307Y-112365924D01*
X148361631Y-112369600D01*
X148361641Y-112369600D01*
X148374099Y-112370827D01*
X148386557Y-112369600D01*
X148417390Y-112369600D01*
X148372860Y-112414130D01*
X148336898Y-112467950D01*
X148312128Y-112527751D01*
X148299500Y-112591236D01*
X148299500Y-112631642D01*
X148284302Y-112594950D01*
X148248340Y-112541130D01*
X148202570Y-112495360D01*
X148148750Y-112459398D01*
X148088949Y-112434628D01*
X148025464Y-112422000D01*
X147960736Y-112422000D01*
X147897251Y-112434628D01*
X147837450Y-112459398D01*
X147783630Y-112495360D01*
X147737860Y-112541130D01*
X147701898Y-112594950D01*
X147677128Y-112654751D01*
X147664500Y-112718236D01*
X147664500Y-112782964D01*
X147677128Y-112846449D01*
X147701898Y-112906250D01*
X147737860Y-112960070D01*
X147783630Y-113005840D01*
X147837450Y-113041802D01*
X147897251Y-113066572D01*
X147960736Y-113079200D01*
X148025464Y-113079200D01*
X148088949Y-113066572D01*
X148148750Y-113041802D01*
X148202570Y-113005840D01*
X148248340Y-112960070D01*
X148284302Y-112906250D01*
X148309072Y-112846449D01*
X148321700Y-112782964D01*
X148321700Y-112742558D01*
X148336898Y-112779250D01*
X148372860Y-112833070D01*
X148418630Y-112878840D01*
X148472450Y-112914802D01*
X148532251Y-112939572D01*
X148595736Y-112952200D01*
X148660464Y-112952200D01*
X148723949Y-112939572D01*
X148783750Y-112914802D01*
X148837570Y-112878840D01*
X148883340Y-112833070D01*
X148919302Y-112779250D01*
X148944072Y-112719449D01*
X148956700Y-112655964D01*
X148956700Y-112591236D01*
X148944072Y-112527751D01*
X148919302Y-112467950D01*
X148883340Y-112414130D01*
X148838810Y-112369600D01*
X148883340Y-112325070D01*
X148919302Y-112271250D01*
X148944072Y-112211449D01*
X148956700Y-112147964D01*
X148956700Y-112083236D01*
X148944072Y-112019751D01*
X148919302Y-111959950D01*
X148883340Y-111906130D01*
X148837570Y-111860360D01*
X148783750Y-111824398D01*
X148723949Y-111799628D01*
X148660464Y-111787000D01*
X148595736Y-111787000D01*
X148532251Y-111799628D01*
X148472450Y-111824398D01*
X148454261Y-111836551D01*
X148247100Y-111629390D01*
X148247100Y-108283810D01*
X148531710Y-107999200D01*
X148533464Y-107999200D01*
X148596949Y-107986572D01*
X148656750Y-107961802D01*
X148710570Y-107925840D01*
X148756340Y-107880070D01*
X148782100Y-107841518D01*
X148807860Y-107880070D01*
X148853630Y-107925840D01*
X148907450Y-107961802D01*
X148967251Y-107986572D01*
X149030736Y-107999200D01*
X149095464Y-107999200D01*
X149158949Y-107986572D01*
X149218750Y-107961802D01*
X149272570Y-107925840D01*
X149290100Y-107908310D01*
X149307630Y-107925840D01*
X149361450Y-107961802D01*
X149421251Y-107986572D01*
X149484736Y-107999200D01*
X149549464Y-107999200D01*
X149612949Y-107986572D01*
X149672750Y-107961802D01*
X149726570Y-107925840D01*
X149744100Y-107908310D01*
X149761630Y-107925840D01*
X149815450Y-107961802D01*
X149875251Y-107986572D01*
X149938736Y-107999200D01*
X150003464Y-107999200D01*
X150066949Y-107986572D01*
X150126750Y-107961802D01*
X150180570Y-107925840D01*
X150226340Y-107880070D01*
X150262302Y-107826250D01*
X150287072Y-107766449D01*
X150299700Y-107702964D01*
X150299700Y-107638236D01*
X150287072Y-107574751D01*
X150262302Y-107514950D01*
X150259821Y-107511236D01*
X150458500Y-107511236D01*
X150458500Y-107575964D01*
X150471128Y-107639449D01*
X150495898Y-107699250D01*
X150531860Y-107753070D01*
X150577630Y-107798840D01*
X150631450Y-107834802D01*
X150691251Y-107859572D01*
X150754736Y-107872200D01*
X150819464Y-107872200D01*
X150882949Y-107859572D01*
X150942750Y-107834802D01*
X150996570Y-107798840D01*
X151042340Y-107753070D01*
X151078302Y-107699250D01*
X151103072Y-107639449D01*
X151115700Y-107575964D01*
X151115700Y-107511236D01*
X151103072Y-107447751D01*
X151078302Y-107387950D01*
X151042340Y-107334130D01*
X150996570Y-107288360D01*
X150942750Y-107252398D01*
X150882949Y-107227628D01*
X150819464Y-107215000D01*
X150754736Y-107215000D01*
X150691251Y-107227628D01*
X150631450Y-107252398D01*
X150577630Y-107288360D01*
X150531860Y-107334130D01*
X150495898Y-107387950D01*
X150471128Y-107447751D01*
X150458500Y-107511236D01*
X150259821Y-107511236D01*
X150226340Y-107461130D01*
X150180570Y-107415360D01*
X150126750Y-107379398D01*
X150066949Y-107354628D01*
X150003464Y-107342000D01*
X149976503Y-107342000D01*
X149961600Y-107327097D01*
X149961600Y-104082236D01*
X150204500Y-104082236D01*
X150204500Y-104146964D01*
X150217128Y-104210449D01*
X150241898Y-104270250D01*
X150277860Y-104324070D01*
X150323630Y-104369840D01*
X150377450Y-104405802D01*
X150437251Y-104430572D01*
X150500736Y-104443200D01*
X150565464Y-104443200D01*
X150628949Y-104430572D01*
X150688750Y-104405802D01*
X150742570Y-104369840D01*
X150788340Y-104324070D01*
X150824302Y-104270250D01*
X150849072Y-104210449D01*
X150861700Y-104146964D01*
X150861700Y-104082236D01*
X150849072Y-104018751D01*
X150824302Y-103958950D01*
X150788340Y-103905130D01*
X150742570Y-103859360D01*
X150688750Y-103823398D01*
X150628949Y-103798628D01*
X150565464Y-103786000D01*
X150500736Y-103786000D01*
X150437251Y-103798628D01*
X150377450Y-103823398D01*
X150323630Y-103859360D01*
X150277860Y-103905130D01*
X150241898Y-103958950D01*
X150217128Y-104018751D01*
X150204500Y-104082236D01*
X149961600Y-104082236D01*
X149961600Y-102812236D01*
X150204500Y-102812236D01*
X150204500Y-102876964D01*
X150217128Y-102940449D01*
X150241898Y-103000250D01*
X150277860Y-103054070D01*
X150323630Y-103099840D01*
X150377450Y-103135802D01*
X150437251Y-103160572D01*
X150500736Y-103173200D01*
X150565464Y-103173200D01*
X150628949Y-103160572D01*
X150688750Y-103135802D01*
X150742570Y-103099840D01*
X150788340Y-103054070D01*
X150824302Y-103000250D01*
X150849072Y-102940449D01*
X150861700Y-102876964D01*
X150861700Y-102812236D01*
X150849072Y-102748751D01*
X150824302Y-102688950D01*
X150788340Y-102635130D01*
X150742570Y-102589360D01*
X150688750Y-102553398D01*
X150628949Y-102528628D01*
X150565464Y-102516000D01*
X150500736Y-102516000D01*
X150437251Y-102528628D01*
X150377450Y-102553398D01*
X150323630Y-102589360D01*
X150277860Y-102635130D01*
X150241898Y-102688950D01*
X150217128Y-102748751D01*
X150204500Y-102812236D01*
X149961600Y-102812236D01*
X149961600Y-101542236D01*
X150204500Y-101542236D01*
X150204500Y-101606964D01*
X150217128Y-101670449D01*
X150241898Y-101730250D01*
X150277860Y-101784070D01*
X150323630Y-101829840D01*
X150377450Y-101865802D01*
X150437251Y-101890572D01*
X150500736Y-101903200D01*
X150565464Y-101903200D01*
X150628949Y-101890572D01*
X150688750Y-101865802D01*
X150742570Y-101829840D01*
X150788340Y-101784070D01*
X150824302Y-101730250D01*
X150849072Y-101670449D01*
X150861700Y-101606964D01*
X150861700Y-101542236D01*
X150849072Y-101478751D01*
X150824302Y-101418950D01*
X150788340Y-101365130D01*
X150742570Y-101319360D01*
X150688750Y-101283398D01*
X150628949Y-101258628D01*
X150565464Y-101246000D01*
X150500736Y-101246000D01*
X150437251Y-101258628D01*
X150377450Y-101283398D01*
X150323630Y-101319360D01*
X150277860Y-101365130D01*
X150241898Y-101418950D01*
X150217128Y-101478751D01*
X150204500Y-101542236D01*
X149961600Y-101542236D01*
X149961600Y-100458396D01*
X150166163Y-100253834D01*
X150174403Y-100247072D01*
X150201382Y-100214197D01*
X150221430Y-100176690D01*
X150233775Y-100135993D01*
X150236900Y-100104268D01*
X150236900Y-100104267D01*
X150237944Y-100093669D01*
X150236900Y-100083070D01*
X150236900Y-99705421D01*
X151834822Y-98107500D01*
X152681501Y-98107500D01*
X152692100Y-98108544D01*
X152702699Y-98107500D01*
X152734424Y-98104375D01*
X152775121Y-98092030D01*
X152812628Y-98071982D01*
X152845503Y-98045003D01*
X152852270Y-98036757D01*
X152928675Y-97960353D01*
X152908898Y-97989950D01*
X152884128Y-98049751D01*
X152871500Y-98113236D01*
X152871500Y-98168871D01*
X151276944Y-99763429D01*
X151268697Y-99770197D01*
X151247214Y-99796376D01*
X151241718Y-99803073D01*
X151221670Y-99840580D01*
X151209325Y-99881277D01*
X151205156Y-99923600D01*
X151206200Y-99934199D01*
X151206201Y-111264170D01*
X150387939Y-112082434D01*
X150379698Y-112089197D01*
X150362106Y-112110634D01*
X150352718Y-112122073D01*
X150332670Y-112159580D01*
X150320325Y-112200277D01*
X150316156Y-112242600D01*
X150317201Y-112253208D01*
X150317201Y-112374789D01*
X150279100Y-112412890D01*
X150234570Y-112368360D01*
X150180750Y-112332398D01*
X150120949Y-112307628D01*
X150057464Y-112295000D01*
X149992736Y-112295000D01*
X149929251Y-112307628D01*
X149869450Y-112332398D01*
X149815630Y-112368360D01*
X149771100Y-112412890D01*
X149726570Y-112368360D01*
X149672750Y-112332398D01*
X149612949Y-112307628D01*
X149549464Y-112295000D01*
X149484736Y-112295000D01*
X149421251Y-112307628D01*
X149361450Y-112332398D01*
X149307630Y-112368360D01*
X149261860Y-112414130D01*
X149225898Y-112467950D01*
X149201128Y-112527751D01*
X149188500Y-112591236D01*
X149188500Y-112655964D01*
X149201128Y-112719449D01*
X149225898Y-112779250D01*
X149261860Y-112833070D01*
X149307630Y-112878840D01*
X149361450Y-112914802D01*
X149421251Y-112939572D01*
X149484736Y-112952200D01*
X149549464Y-112952200D01*
X149612949Y-112939572D01*
X149672750Y-112914802D01*
X149726570Y-112878840D01*
X149771100Y-112834310D01*
X149815630Y-112878840D01*
X149869450Y-112914802D01*
X149929251Y-112939572D01*
X149992736Y-112952200D01*
X150057464Y-112952200D01*
X150120949Y-112939572D01*
X150180750Y-112914802D01*
X150234570Y-112878840D01*
X150279100Y-112834310D01*
X150317200Y-112872410D01*
X150317201Y-116930991D01*
X150316156Y-116941600D01*
X150320325Y-116983923D01*
X150332670Y-117024620D01*
X150333501Y-117026175D01*
X150331500Y-117036236D01*
X150331500Y-117100964D01*
X150344128Y-117164449D01*
X150368898Y-117224250D01*
X150404860Y-117278070D01*
X150450630Y-117323840D01*
X150504450Y-117359802D01*
X150564251Y-117384572D01*
X150627736Y-117397200D01*
X150692464Y-117397200D01*
X150755949Y-117384572D01*
X150815750Y-117359802D01*
X150861700Y-117329098D01*
X150861701Y-118346639D01*
X150852128Y-118369751D01*
X150839500Y-118433236D01*
X150839500Y-118497964D01*
X150852128Y-118561449D01*
X150876898Y-118621250D01*
X150912860Y-118675070D01*
X150958630Y-118720840D01*
X151012450Y-118756802D01*
X151072251Y-118781572D01*
X151135736Y-118794200D01*
X151200464Y-118794200D01*
X151263949Y-118781572D01*
X151323750Y-118756802D01*
X151377570Y-118720840D01*
X151423340Y-118675070D01*
X151459302Y-118621250D01*
X151484072Y-118561449D01*
X151496700Y-118497964D01*
X151496700Y-118433236D01*
X151484072Y-118369751D01*
X151459302Y-118309950D01*
X151423340Y-118256130D01*
X151377570Y-118210360D01*
X151323750Y-118174398D01*
X151293500Y-118161868D01*
X151293500Y-116906261D01*
X151294544Y-116895662D01*
X151290375Y-116853340D01*
X151290375Y-116853339D01*
X151279200Y-116816499D01*
X151279200Y-113480236D01*
X151347500Y-113480236D01*
X151347500Y-113544964D01*
X151360128Y-113608449D01*
X151384898Y-113668250D01*
X151420860Y-113722070D01*
X151460200Y-113761410D01*
X151460201Y-117581789D01*
X151420860Y-117621130D01*
X151384898Y-117674950D01*
X151360128Y-117734751D01*
X151347500Y-117798236D01*
X151347500Y-117862964D01*
X151360128Y-117926449D01*
X151384898Y-117986250D01*
X151420860Y-118040070D01*
X151466630Y-118085840D01*
X151520450Y-118121802D01*
X151580251Y-118146572D01*
X151643736Y-118159200D01*
X151708464Y-118159200D01*
X151771949Y-118146572D01*
X151831750Y-118121802D01*
X151885570Y-118085840D01*
X151931340Y-118040070D01*
X151967302Y-117986250D01*
X151992072Y-117926449D01*
X152004700Y-117862964D01*
X152004700Y-117798236D01*
X151992072Y-117734751D01*
X151967302Y-117674950D01*
X151931340Y-117621130D01*
X151892000Y-117581790D01*
X151892000Y-113988236D01*
X152363500Y-113988236D01*
X152363500Y-114052964D01*
X152376128Y-114116449D01*
X152400898Y-114176250D01*
X152436860Y-114230070D01*
X152482630Y-114275840D01*
X152536450Y-114311802D01*
X152596251Y-114336572D01*
X152659736Y-114349200D01*
X152724464Y-114349200D01*
X152787949Y-114336572D01*
X152847750Y-114311802D01*
X152901570Y-114275840D01*
X152947340Y-114230070D01*
X152983302Y-114176250D01*
X153008072Y-114116449D01*
X153020700Y-114052964D01*
X153020700Y-113988236D01*
X153008072Y-113924751D01*
X152983302Y-113864950D01*
X152947340Y-113811130D01*
X152901570Y-113765360D01*
X152847750Y-113729398D01*
X152787949Y-113704628D01*
X152724464Y-113692000D01*
X152659736Y-113692000D01*
X152596251Y-113704628D01*
X152536450Y-113729398D01*
X152482630Y-113765360D01*
X152436860Y-113811130D01*
X152400898Y-113864950D01*
X152376128Y-113924751D01*
X152363500Y-113988236D01*
X151892000Y-113988236D01*
X151892000Y-113761410D01*
X151931340Y-113722070D01*
X151967302Y-113668250D01*
X151992072Y-113608449D01*
X152004700Y-113544964D01*
X152004700Y-113480236D01*
X151992072Y-113416751D01*
X151967302Y-113356950D01*
X151931340Y-113303130D01*
X151885570Y-113257360D01*
X151831750Y-113221398D01*
X151771949Y-113196628D01*
X151708464Y-113184000D01*
X151643736Y-113184000D01*
X151580251Y-113196628D01*
X151520450Y-113221398D01*
X151466630Y-113257360D01*
X151420860Y-113303130D01*
X151384898Y-113356950D01*
X151360128Y-113416751D01*
X151347500Y-113480236D01*
X151279200Y-113480236D01*
X151279200Y-112872410D01*
X151318540Y-112833070D01*
X151354502Y-112779250D01*
X151379272Y-112719449D01*
X151391900Y-112655964D01*
X151391900Y-112591236D01*
X151379272Y-112527751D01*
X151354502Y-112467950D01*
X151318540Y-112414130D01*
X151272770Y-112368360D01*
X151218950Y-112332398D01*
X151159149Y-112307628D01*
X151095664Y-112295000D01*
X151030936Y-112295000D01*
X150967451Y-112307628D01*
X150907650Y-112332398D01*
X150853830Y-112368360D01*
X150808060Y-112414130D01*
X150798200Y-112428886D01*
X150788340Y-112414130D01*
X150749000Y-112374790D01*
X150749000Y-112332027D01*
X151567267Y-111513762D01*
X151575503Y-111507003D01*
X151602482Y-111474128D01*
X151622530Y-111436621D01*
X151634875Y-111395924D01*
X151638000Y-111364199D01*
X151639044Y-111353600D01*
X151638000Y-111343001D01*
X151638000Y-111067236D01*
X152617500Y-111067236D01*
X152617500Y-111131964D01*
X152630128Y-111195449D01*
X152654898Y-111255250D01*
X152690860Y-111309070D01*
X152736630Y-111354840D01*
X152790450Y-111390802D01*
X152850251Y-111415572D01*
X152913736Y-111428200D01*
X152978464Y-111428200D01*
X153041949Y-111415572D01*
X153101750Y-111390802D01*
X153155570Y-111354840D01*
X153201340Y-111309070D01*
X153237302Y-111255250D01*
X153262072Y-111195449D01*
X153274700Y-111131964D01*
X153274700Y-111067236D01*
X153262072Y-111003751D01*
X153237302Y-110943950D01*
X153201340Y-110890130D01*
X153155570Y-110844360D01*
X153101750Y-110808398D01*
X153041949Y-110783628D01*
X152978464Y-110771000D01*
X152913736Y-110771000D01*
X152850251Y-110783628D01*
X152790450Y-110808398D01*
X152736630Y-110844360D01*
X152690860Y-110890130D01*
X152654898Y-110943950D01*
X152630128Y-111003751D01*
X152617500Y-111067236D01*
X151638000Y-111067236D01*
X151638000Y-109581236D01*
X153482500Y-109581236D01*
X153482500Y-109645964D01*
X153495128Y-109709449D01*
X153519898Y-109769250D01*
X153555860Y-109823070D01*
X153601630Y-109868840D01*
X153655450Y-109904802D01*
X153715251Y-109929572D01*
X153778736Y-109942200D01*
X153843464Y-109942200D01*
X153906949Y-109929572D01*
X153966750Y-109904802D01*
X154020570Y-109868840D01*
X154066340Y-109823070D01*
X154102302Y-109769250D01*
X154127072Y-109709449D01*
X154139700Y-109645964D01*
X154139700Y-109581236D01*
X154133510Y-109550114D01*
X154135175Y-109544624D01*
X154139344Y-109502300D01*
X154135175Y-109459977D01*
X154122830Y-109419280D01*
X154102782Y-109381773D01*
X154075802Y-109348898D01*
X154042927Y-109321918D01*
X154005420Y-109301870D01*
X153964723Y-109289525D01*
X153922400Y-109285356D01*
X153880076Y-109289525D01*
X153874586Y-109291190D01*
X153843464Y-109285000D01*
X153778736Y-109285000D01*
X153715251Y-109297628D01*
X153655450Y-109322398D01*
X153601630Y-109358360D01*
X153555860Y-109404130D01*
X153519898Y-109457950D01*
X153495128Y-109517751D01*
X153482500Y-109581236D01*
X151638000Y-109581236D01*
X151638000Y-103701236D01*
X153252500Y-103701236D01*
X153252500Y-103765964D01*
X153265128Y-103829449D01*
X153289898Y-103889250D01*
X153325860Y-103943070D01*
X153371630Y-103988840D01*
X153425450Y-104024802D01*
X153485251Y-104049572D01*
X153548736Y-104062200D01*
X153613464Y-104062200D01*
X153676949Y-104049572D01*
X153736750Y-104024802D01*
X153790570Y-103988840D01*
X153836340Y-103943070D01*
X153872302Y-103889250D01*
X153897072Y-103829449D01*
X153909700Y-103765964D01*
X153909700Y-103701236D01*
X153897072Y-103637751D01*
X153872302Y-103577950D01*
X153836340Y-103524130D01*
X153790570Y-103478360D01*
X153736750Y-103442398D01*
X153676949Y-103417628D01*
X153613464Y-103405000D01*
X153548736Y-103405000D01*
X153485251Y-103417628D01*
X153425450Y-103442398D01*
X153371630Y-103478360D01*
X153325860Y-103524130D01*
X153289898Y-103577950D01*
X153265128Y-103637751D01*
X153252500Y-103701236D01*
X151638000Y-103701236D01*
X151638000Y-100013027D01*
X153176829Y-98474200D01*
X153232464Y-98474200D01*
X153295949Y-98461572D01*
X153355750Y-98436802D01*
X153409570Y-98400840D01*
X153455340Y-98355070D01*
X153491302Y-98301250D01*
X153516072Y-98241449D01*
X153528700Y-98177964D01*
X153528700Y-98113236D01*
X153516072Y-98049751D01*
X153491302Y-97989950D01*
X153460008Y-97943116D01*
X153485251Y-97953572D01*
X153548736Y-97966200D01*
X153613464Y-97966200D01*
X153676949Y-97953572D01*
X153736750Y-97928802D01*
X153790570Y-97892840D01*
X153836340Y-97847070D01*
X153872302Y-97793250D01*
X153897072Y-97733449D01*
X153909700Y-97669964D01*
X153909700Y-97605236D01*
X153897072Y-97541751D01*
X153872302Y-97481950D01*
X153836340Y-97428130D01*
X153790570Y-97382360D01*
X153736750Y-97346398D01*
X153676949Y-97321628D01*
X153613464Y-97309000D01*
X153548736Y-97309000D01*
X153485251Y-97321628D01*
X153425450Y-97346398D01*
X153371630Y-97382360D01*
X153332290Y-97421700D01*
X152956698Y-97421700D01*
X152946099Y-97420656D01*
X152903776Y-97424825D01*
X152863079Y-97437170D01*
X152825572Y-97457218D01*
X152792697Y-97484197D01*
X152785934Y-97492438D01*
X152602673Y-97675700D01*
X152595988Y-97675700D01*
X152602302Y-97666250D01*
X152627072Y-97606449D01*
X152639700Y-97542964D01*
X152639700Y-97478236D01*
X152627072Y-97414751D01*
X152602302Y-97354950D01*
X152566340Y-97301130D01*
X152520570Y-97255360D01*
X152466750Y-97219398D01*
X152406949Y-97194628D01*
X152343464Y-97182000D01*
X152278736Y-97182000D01*
X152215251Y-97194628D01*
X152155450Y-97219398D01*
X152101630Y-97255360D01*
X152062290Y-97294700D01*
X151686698Y-97294700D01*
X151676099Y-97293656D01*
X151633776Y-97297825D01*
X151593079Y-97310170D01*
X151555572Y-97330218D01*
X151522697Y-97357197D01*
X151515934Y-97365438D01*
X149647239Y-99234134D01*
X149638998Y-99240897D01*
X149620695Y-99263200D01*
X149612018Y-99273773D01*
X149591970Y-99311280D01*
X149579625Y-99351977D01*
X149575456Y-99394300D01*
X149576501Y-99404908D01*
X149576501Y-99553869D01*
X149546949Y-99541628D01*
X149483464Y-99529000D01*
X149418736Y-99529000D01*
X149355251Y-99541628D01*
X149295450Y-99566398D01*
X149241630Y-99602360D01*
X149195860Y-99648130D01*
X149159898Y-99701950D01*
X149135128Y-99761751D01*
X149122500Y-99825236D01*
X149122500Y-99889964D01*
X149135128Y-99953449D01*
X149159898Y-100013250D01*
X149195860Y-100067070D01*
X149241630Y-100112840D01*
X149295450Y-100148802D01*
X149331402Y-100163694D01*
X149316670Y-100191255D01*
X149304325Y-100231952D01*
X149300156Y-100274275D01*
X149301201Y-100284884D01*
X149301200Y-107421790D01*
X149290100Y-107432890D01*
X149272570Y-107415360D01*
X149218750Y-107379398D01*
X149158949Y-107354628D01*
X149095464Y-107342000D01*
X149030736Y-107342000D01*
X148967251Y-107354628D01*
X148907450Y-107379398D01*
X148853630Y-107415360D01*
X148807860Y-107461130D01*
X148782100Y-107499682D01*
X148756340Y-107461130D01*
X148710570Y-107415360D01*
X148656750Y-107379398D01*
X148596949Y-107354628D01*
X148533464Y-107342000D01*
X148468736Y-107342000D01*
X148405251Y-107354628D01*
X148345450Y-107379398D01*
X148291630Y-107415360D01*
X148245860Y-107461130D01*
X148209898Y-107514950D01*
X148194700Y-107551642D01*
X148194700Y-107511236D01*
X148182072Y-107447751D01*
X148157302Y-107387950D01*
X148121340Y-107334130D01*
X148082000Y-107294790D01*
X148082000Y-101839198D01*
X148083044Y-101828599D01*
X148078875Y-101786276D01*
X148078206Y-101784070D01*
X148066530Y-101745579D01*
X148046482Y-101708072D01*
X148019503Y-101675197D01*
X148011262Y-101668434D01*
X147940700Y-101597872D01*
X147940700Y-101542236D01*
X147928072Y-101478751D01*
X147903302Y-101418950D01*
X147867340Y-101365130D01*
X147821570Y-101319360D01*
X147767750Y-101283398D01*
X147707949Y-101258628D01*
X147644464Y-101246000D01*
X147579736Y-101246000D01*
X147516251Y-101258628D01*
X147456450Y-101283398D01*
X147402630Y-101319360D01*
X147356860Y-101365130D01*
X147320898Y-101418950D01*
X147296128Y-101478751D01*
X147283500Y-101542236D01*
X147283500Y-101606964D01*
X147296128Y-101670449D01*
X147320898Y-101730250D01*
X147356860Y-101784070D01*
X147402630Y-101829840D01*
X147456450Y-101865802D01*
X147516251Y-101890572D01*
X147579736Y-101903200D01*
X147635372Y-101903200D01*
X147650201Y-101918029D01*
X147650200Y-107294790D01*
X147640733Y-107304257D01*
X147627102Y-107271350D01*
X147591140Y-107217530D01*
X147551800Y-107178190D01*
X147551800Y-102959999D01*
X147552844Y-102949400D01*
X147551800Y-102938801D01*
X147550343Y-102924006D01*
X147559700Y-102876964D01*
X147559700Y-102812236D01*
X147547072Y-102748751D01*
X147522302Y-102688950D01*
X147486340Y-102635130D01*
X147440570Y-102589360D01*
X147386750Y-102553398D01*
X147326949Y-102528628D01*
X147263464Y-102516000D01*
X147198736Y-102516000D01*
X147135251Y-102528628D01*
X147075450Y-102553398D01*
X147021630Y-102589360D01*
X146975860Y-102635130D01*
X146939898Y-102688950D01*
X146915128Y-102748751D01*
X146902500Y-102812236D01*
X146902500Y-102876964D01*
X146915128Y-102940449D01*
X146939898Y-103000250D01*
X146975860Y-103054070D01*
X147021630Y-103099840D01*
X147075450Y-103135802D01*
X147120001Y-103154255D01*
X147120001Y-103927071D01*
X147105340Y-103905130D01*
X147059570Y-103859360D01*
X147005750Y-103823398D01*
X146945949Y-103798628D01*
X146882464Y-103786000D01*
X146817736Y-103786000D01*
X146754251Y-103798628D01*
X146724700Y-103810868D01*
X146724700Y-103053531D01*
X146760302Y-103000250D01*
X146785072Y-102940449D01*
X146797700Y-102876964D01*
X146797700Y-102812236D01*
X146785072Y-102748751D01*
X146760302Y-102688950D01*
X146724340Y-102635130D01*
X146678570Y-102589360D01*
X146624750Y-102553398D01*
X146564949Y-102528628D01*
X146501464Y-102516000D01*
X146436736Y-102516000D01*
X146373251Y-102528628D01*
X146343700Y-102540868D01*
X146343700Y-102005327D01*
X146445827Y-101903200D01*
X146501464Y-101903200D01*
X146564949Y-101890572D01*
X146624750Y-101865802D01*
X146678570Y-101829840D01*
X146724340Y-101784070D01*
X146760302Y-101730250D01*
X146785072Y-101670449D01*
X146797700Y-101606964D01*
X146797700Y-101542236D01*
X146785072Y-101478751D01*
X146760302Y-101418950D01*
X146724340Y-101365130D01*
X146678570Y-101319360D01*
X146624750Y-101283398D01*
X146564949Y-101258628D01*
X146501464Y-101246000D01*
X146436736Y-101246000D01*
X146373251Y-101258628D01*
X146313450Y-101283398D01*
X146259630Y-101319360D01*
X146213860Y-101365130D01*
X146177898Y-101418950D01*
X146153128Y-101478751D01*
X146140500Y-101542236D01*
X146140500Y-101597873D01*
X145982639Y-101755734D01*
X145974398Y-101762497D01*
X145954884Y-101786276D01*
X145947418Y-101795373D01*
X145927370Y-101832880D01*
X145915025Y-101873577D01*
X145910856Y-101915900D01*
X145911901Y-101926508D01*
X145911900Y-102975376D01*
X145910856Y-102985975D01*
X145911900Y-102996573D01*
X145915025Y-103028298D01*
X145927370Y-103068995D01*
X145947418Y-103106502D01*
X145974397Y-103139378D01*
X145982643Y-103146145D01*
X145999201Y-103162703D01*
X145999200Y-107294790D01*
X145959860Y-107334130D01*
X145923898Y-107387950D01*
X145899128Y-107447751D01*
X145886500Y-107511236D01*
X142748000Y-107511236D01*
X142748000Y-106241236D01*
X144108500Y-106241236D01*
X144108500Y-106305964D01*
X144121128Y-106369449D01*
X144145898Y-106429250D01*
X144181860Y-106483070D01*
X144227630Y-106528840D01*
X144281450Y-106564802D01*
X144341251Y-106589572D01*
X144404736Y-106602200D01*
X144469464Y-106602200D01*
X144532949Y-106589572D01*
X144592750Y-106564802D01*
X144646570Y-106528840D01*
X144692340Y-106483070D01*
X144728302Y-106429250D01*
X144753072Y-106369449D01*
X144765700Y-106305964D01*
X144765700Y-106241236D01*
X144753072Y-106177751D01*
X144728302Y-106117950D01*
X144692340Y-106064130D01*
X144646570Y-106018360D01*
X144592750Y-105982398D01*
X144532949Y-105957628D01*
X144469464Y-105945000D01*
X144404736Y-105945000D01*
X144341251Y-105957628D01*
X144281450Y-105982398D01*
X144227630Y-106018360D01*
X144181860Y-106064130D01*
X144145898Y-106117950D01*
X144121128Y-106177751D01*
X144108500Y-106241236D01*
X142748000Y-106241236D01*
X142748000Y-104712027D01*
X143778828Y-103681200D01*
X143834464Y-103681200D01*
X143897949Y-103668572D01*
X143957750Y-103643802D01*
X144011570Y-103607840D01*
X144057340Y-103562070D01*
X144093302Y-103508250D01*
X144118072Y-103448449D01*
X144130700Y-103384964D01*
X144130700Y-103320236D01*
X144118072Y-103256751D01*
X144093302Y-103196950D01*
X144057340Y-103143130D01*
X144011570Y-103097360D01*
X143957750Y-103061398D01*
X143897949Y-103036628D01*
X143834464Y-103024000D01*
X143769736Y-103024000D01*
X143706251Y-103036628D01*
X143646450Y-103061398D01*
X143592630Y-103097360D01*
X143546860Y-103143130D01*
X143510898Y-103196950D01*
X143486128Y-103256751D01*
X143473500Y-103320236D01*
X143473500Y-103375872D01*
X142386939Y-104462434D01*
X142378698Y-104469197D01*
X142354229Y-104499013D01*
X142351718Y-104502073D01*
X142331670Y-104539580D01*
X142319325Y-104580277D01*
X142315156Y-104622600D01*
X142316201Y-104633209D01*
X142316200Y-119232790D01*
X142276860Y-119272130D01*
X142240898Y-119325950D01*
X142216128Y-119385751D01*
X142203500Y-119449236D01*
X139969699Y-119449236D01*
X139966029Y-119445566D01*
X139865100Y-119378128D01*
X139865100Y-118569072D01*
X139966029Y-118501634D01*
X140109134Y-118358529D01*
X140221570Y-118190256D01*
X140294718Y-118013659D01*
X140295861Y-118016417D01*
X140368134Y-118124580D01*
X140460120Y-118216566D01*
X140568283Y-118288839D01*
X140688469Y-118338621D01*
X140816056Y-118364000D01*
X140946144Y-118364000D01*
X141073731Y-118338621D01*
X141193917Y-118288839D01*
X141302080Y-118216566D01*
X141394066Y-118124580D01*
X141466339Y-118016417D01*
X141516121Y-117896231D01*
X141541500Y-117768644D01*
X141541500Y-117638556D01*
X141516121Y-117510969D01*
X141466339Y-117390783D01*
X141394066Y-117282620D01*
X141302080Y-117190634D01*
X141193917Y-117118361D01*
X141073731Y-117068579D01*
X140946144Y-117043200D01*
X140816056Y-117043200D01*
X140688469Y-117068579D01*
X140568283Y-117118361D01*
X140460120Y-117190634D01*
X140368134Y-117282620D01*
X140295861Y-117390783D01*
X140294718Y-117393541D01*
X140221570Y-117216944D01*
X140109134Y-117048671D01*
X139966029Y-116905566D01*
X139865100Y-116838128D01*
X139865100Y-116029072D01*
X139966029Y-115961634D01*
X140109134Y-115818529D01*
X140221570Y-115650256D01*
X140294718Y-115473659D01*
X140295861Y-115476417D01*
X140368134Y-115584580D01*
X140460120Y-115676566D01*
X140568283Y-115748839D01*
X140688469Y-115798621D01*
X140816056Y-115824000D01*
X140946144Y-115824000D01*
X141073731Y-115798621D01*
X141193917Y-115748839D01*
X141302080Y-115676566D01*
X141394066Y-115584580D01*
X141466339Y-115476417D01*
X141516121Y-115356231D01*
X141541500Y-115228644D01*
X141541500Y-115098556D01*
X141516121Y-114970969D01*
X141466339Y-114850783D01*
X141394066Y-114742620D01*
X141302080Y-114650634D01*
X141193917Y-114578361D01*
X141073731Y-114528579D01*
X140946144Y-114503200D01*
X140816056Y-114503200D01*
X140688469Y-114528579D01*
X140568283Y-114578361D01*
X140460120Y-114650634D01*
X140368134Y-114742620D01*
X140295861Y-114850783D01*
X140294718Y-114853541D01*
X140221570Y-114676944D01*
X140109134Y-114508671D01*
X139966029Y-114365566D01*
X139865100Y-114298128D01*
X139865100Y-113489072D01*
X139966029Y-113421634D01*
X140109134Y-113278529D01*
X140221570Y-113110256D01*
X140294718Y-112933659D01*
X140295861Y-112936417D01*
X140368134Y-113044580D01*
X140460120Y-113136566D01*
X140568283Y-113208839D01*
X140688469Y-113258621D01*
X140816056Y-113284000D01*
X140946144Y-113284000D01*
X141073731Y-113258621D01*
X141193917Y-113208839D01*
X141302080Y-113136566D01*
X141394066Y-113044580D01*
X141466339Y-112936417D01*
X141516121Y-112816231D01*
X141541500Y-112688644D01*
X141541500Y-112558556D01*
X141516121Y-112430969D01*
X141466339Y-112310783D01*
X141394066Y-112202620D01*
X141302080Y-112110634D01*
X141193917Y-112038361D01*
X141073731Y-111988579D01*
X140946144Y-111963200D01*
X140816056Y-111963200D01*
X140688469Y-111988579D01*
X140568283Y-112038361D01*
X140460120Y-112110634D01*
X140368134Y-112202620D01*
X140295861Y-112310783D01*
X140294718Y-112313541D01*
X140221570Y-112136944D01*
X140109134Y-111968671D01*
X139966029Y-111825566D01*
X139865100Y-111758128D01*
X139865100Y-110949072D01*
X139966029Y-110881634D01*
X140109134Y-110738529D01*
X140221570Y-110570256D01*
X140294718Y-110393659D01*
X140295861Y-110396417D01*
X140368134Y-110504580D01*
X140460120Y-110596566D01*
X140568283Y-110668839D01*
X140688469Y-110718621D01*
X140816056Y-110744000D01*
X140946144Y-110744000D01*
X141073731Y-110718621D01*
X141193917Y-110668839D01*
X141302080Y-110596566D01*
X141394066Y-110504580D01*
X141466339Y-110396417D01*
X141516121Y-110276231D01*
X141541500Y-110148644D01*
X141541500Y-110018556D01*
X141516121Y-109890969D01*
X141466339Y-109770783D01*
X141394066Y-109662620D01*
X141302080Y-109570634D01*
X141193917Y-109498361D01*
X141073731Y-109448579D01*
X140946144Y-109423200D01*
X140816056Y-109423200D01*
X140688469Y-109448579D01*
X140568283Y-109498361D01*
X140460120Y-109570634D01*
X140368134Y-109662620D01*
X140295861Y-109770783D01*
X140294718Y-109773541D01*
X140221570Y-109596944D01*
X140109134Y-109428671D01*
X139966029Y-109285566D01*
X139865100Y-109218128D01*
X139865100Y-108409072D01*
X139966029Y-108341634D01*
X140109134Y-108198529D01*
X140221570Y-108030256D01*
X140294718Y-107853659D01*
X140295861Y-107856417D01*
X140368134Y-107964580D01*
X140460120Y-108056566D01*
X140568283Y-108128839D01*
X140688469Y-108178621D01*
X140816056Y-108204000D01*
X140946144Y-108204000D01*
X141073731Y-108178621D01*
X141193917Y-108128839D01*
X141302080Y-108056566D01*
X141394066Y-107964580D01*
X141466339Y-107856417D01*
X141516121Y-107736231D01*
X141541500Y-107608644D01*
X141541500Y-107478556D01*
X141516121Y-107350969D01*
X141466339Y-107230783D01*
X141394066Y-107122620D01*
X141302080Y-107030634D01*
X141193917Y-106958361D01*
X141073731Y-106908579D01*
X140946144Y-106883200D01*
X140816056Y-106883200D01*
X140688469Y-106908579D01*
X140568283Y-106958361D01*
X140460120Y-107030634D01*
X140368134Y-107122620D01*
X140295861Y-107230783D01*
X140294718Y-107233541D01*
X140221570Y-107056944D01*
X140109134Y-106888671D01*
X139966029Y-106745566D01*
X139865100Y-106678128D01*
X139865100Y-105869072D01*
X139966029Y-105801634D01*
X140109134Y-105658529D01*
X140221570Y-105490256D01*
X140294718Y-105313659D01*
X140295861Y-105316417D01*
X140368134Y-105424580D01*
X140460120Y-105516566D01*
X140568283Y-105588839D01*
X140688469Y-105638621D01*
X140816056Y-105664000D01*
X140946144Y-105664000D01*
X141073731Y-105638621D01*
X141193917Y-105588839D01*
X141302080Y-105516566D01*
X141394066Y-105424580D01*
X141466339Y-105316417D01*
X141516121Y-105196231D01*
X141541500Y-105068644D01*
X141541500Y-104938556D01*
X141516121Y-104810969D01*
X141466339Y-104690783D01*
X141394066Y-104582620D01*
X141302080Y-104490634D01*
X141193917Y-104418361D01*
X141073731Y-104368579D01*
X140946144Y-104343200D01*
X140816056Y-104343200D01*
X140688469Y-104368579D01*
X140568283Y-104418361D01*
X140460120Y-104490634D01*
X140368134Y-104582620D01*
X140295861Y-104690783D01*
X140294718Y-104693541D01*
X140221570Y-104516944D01*
X140109134Y-104348671D01*
X139966029Y-104205566D01*
X139865100Y-104138128D01*
X139865100Y-103329072D01*
X139966029Y-103261634D01*
X140109134Y-103118529D01*
X140221570Y-102950256D01*
X140294718Y-102773659D01*
X140295861Y-102776417D01*
X140368134Y-102884580D01*
X140460120Y-102976566D01*
X140568283Y-103048839D01*
X140688469Y-103098621D01*
X140816056Y-103124000D01*
X140946144Y-103124000D01*
X141073731Y-103098621D01*
X141193917Y-103048839D01*
X141302080Y-102976566D01*
X141394066Y-102884580D01*
X141466339Y-102776417D01*
X141516121Y-102656231D01*
X141541500Y-102528644D01*
X141541500Y-102398556D01*
X141516121Y-102270969D01*
X141466339Y-102150783D01*
X141394066Y-102042620D01*
X141302080Y-101950634D01*
X141193917Y-101878361D01*
X141073731Y-101828579D01*
X140946144Y-101803200D01*
X140816056Y-101803200D01*
X140688469Y-101828579D01*
X140568283Y-101878361D01*
X140460120Y-101950634D01*
X140368134Y-102042620D01*
X140295861Y-102150783D01*
X140294718Y-102153541D01*
X140221570Y-101976944D01*
X140109134Y-101808671D01*
X139966029Y-101665566D01*
X139865100Y-101598128D01*
X139865100Y-100821279D01*
X139890961Y-100807456D01*
X139990760Y-100674537D01*
X139865100Y-100548877D01*
X139865100Y-100406323D01*
X140062037Y-100603260D01*
X140194956Y-100503461D01*
X140242194Y-100413264D01*
X140462713Y-100413264D01*
X140518380Y-100508587D01*
X140639475Y-100568109D01*
X140769855Y-100602864D01*
X140904511Y-100611514D01*
X141038267Y-100593729D01*
X141165983Y-100550191D01*
X141243820Y-100508587D01*
X141299487Y-100413264D01*
X140881100Y-99994876D01*
X140462713Y-100413264D01*
X140242194Y-100413264D01*
X140291098Y-100319887D01*
X140300260Y-100288742D01*
X140391436Y-100341987D01*
X140809824Y-99923600D01*
X140952376Y-99923600D01*
X141370764Y-100341987D01*
X141466087Y-100286320D01*
X141525609Y-100165225D01*
X141560364Y-100034845D01*
X141569014Y-99900189D01*
X141551229Y-99766433D01*
X141507691Y-99638717D01*
X141466087Y-99560880D01*
X141370764Y-99505213D01*
X140952376Y-99923600D01*
X140809824Y-99923600D01*
X140391436Y-99505213D01*
X140299329Y-99559002D01*
X140284280Y-99510855D01*
X140243167Y-99433936D01*
X140462713Y-99433936D01*
X140881100Y-99852324D01*
X141299487Y-99433936D01*
X141243820Y-99338613D01*
X141122725Y-99279091D01*
X140992345Y-99244336D01*
X140857689Y-99235686D01*
X140723933Y-99253471D01*
X140596217Y-99297009D01*
X140518380Y-99338613D01*
X140462713Y-99433936D01*
X140243167Y-99433936D01*
X140194956Y-99343739D01*
X140062037Y-99243940D01*
X139865100Y-99440877D01*
X139865100Y-99298323D01*
X139990760Y-99172663D01*
X139890961Y-99039744D01*
X139865100Y-99026200D01*
X139865100Y-98281279D01*
X139890961Y-98267456D01*
X139990760Y-98134537D01*
X139865100Y-98008877D01*
X139865100Y-97866323D01*
X140062037Y-98063260D01*
X140194956Y-97963461D01*
X140242194Y-97873264D01*
X140462713Y-97873264D01*
X140518380Y-97968587D01*
X140639475Y-98028109D01*
X140769855Y-98062864D01*
X140904511Y-98071514D01*
X141038267Y-98053729D01*
X141165983Y-98010191D01*
X141243820Y-97968587D01*
X141299487Y-97873264D01*
X140881100Y-97454876D01*
X140462713Y-97873264D01*
X140242194Y-97873264D01*
X140291098Y-97779887D01*
X140300260Y-97748742D01*
X140391436Y-97801987D01*
X140809824Y-97383600D01*
X140952376Y-97383600D01*
X141370764Y-97801987D01*
X141466087Y-97746320D01*
X141525609Y-97625225D01*
X141560364Y-97494845D01*
X141565510Y-97414736D01*
X147347000Y-97414736D01*
X147347000Y-97479464D01*
X147359628Y-97542949D01*
X147384398Y-97602750D01*
X147420360Y-97656570D01*
X147466130Y-97702340D01*
X147519950Y-97738302D01*
X147579751Y-97763072D01*
X147643236Y-97775700D01*
X147707964Y-97775700D01*
X147771449Y-97763072D01*
X147831250Y-97738302D01*
X147885070Y-97702340D01*
X147930840Y-97656570D01*
X147966802Y-97602750D01*
X147991572Y-97542949D01*
X148004200Y-97479464D01*
X148004200Y-97414736D01*
X147991572Y-97351251D01*
X147966802Y-97291450D01*
X147930840Y-97237630D01*
X147885070Y-97191860D01*
X147831250Y-97155898D01*
X147771449Y-97131128D01*
X147707964Y-97118500D01*
X147643236Y-97118500D01*
X147579751Y-97131128D01*
X147519950Y-97155898D01*
X147466130Y-97191860D01*
X147420360Y-97237630D01*
X147384398Y-97291450D01*
X147359628Y-97351251D01*
X147347000Y-97414736D01*
X141565510Y-97414736D01*
X141569014Y-97360189D01*
X141551229Y-97226433D01*
X141507691Y-97098717D01*
X141466087Y-97020880D01*
X141370764Y-96965213D01*
X140952376Y-97383600D01*
X140809824Y-97383600D01*
X140391436Y-96965213D01*
X140299329Y-97019002D01*
X140284280Y-96970855D01*
X140243167Y-96893936D01*
X140462713Y-96893936D01*
X140881100Y-97312324D01*
X141299487Y-96893936D01*
X141243820Y-96798613D01*
X141122725Y-96739091D01*
X140992345Y-96704336D01*
X140857689Y-96695686D01*
X140723933Y-96713471D01*
X140596217Y-96757009D01*
X140518380Y-96798613D01*
X140462713Y-96893936D01*
X140243167Y-96893936D01*
X140194956Y-96803739D01*
X140062037Y-96703940D01*
X139865100Y-96900877D01*
X139865100Y-96758323D01*
X139990760Y-96632663D01*
X139890961Y-96499744D01*
X139865100Y-96486200D01*
X139865100Y-95709072D01*
X139966029Y-95641634D01*
X140034427Y-95573236D01*
X151347500Y-95573236D01*
X151347500Y-95637964D01*
X151360128Y-95701449D01*
X151384898Y-95761250D01*
X151420860Y-95815070D01*
X151466630Y-95860840D01*
X151520450Y-95896802D01*
X151580251Y-95921572D01*
X151643736Y-95934200D01*
X151708464Y-95934200D01*
X151771949Y-95921572D01*
X151831750Y-95896802D01*
X151885570Y-95860840D01*
X151931340Y-95815070D01*
X151967302Y-95761250D01*
X151992072Y-95701449D01*
X152004700Y-95637964D01*
X152004700Y-95573236D01*
X152617500Y-95573236D01*
X152617500Y-95637964D01*
X152630128Y-95701449D01*
X152654898Y-95761250D01*
X152690860Y-95815070D01*
X152736630Y-95860840D01*
X152790450Y-95896802D01*
X152850251Y-95921572D01*
X152913736Y-95934200D01*
X152978464Y-95934200D01*
X153041949Y-95921572D01*
X153101750Y-95896802D01*
X153155570Y-95860840D01*
X153201340Y-95815070D01*
X153237302Y-95761250D01*
X153262072Y-95701449D01*
X153274700Y-95637964D01*
X153274700Y-95573236D01*
X153262072Y-95509751D01*
X153237302Y-95449950D01*
X153201340Y-95396130D01*
X153155570Y-95350360D01*
X153129985Y-95333264D01*
X155702713Y-95333264D01*
X155758380Y-95428587D01*
X155879475Y-95488109D01*
X156009855Y-95522864D01*
X156144511Y-95531514D01*
X156278267Y-95513729D01*
X156405983Y-95470191D01*
X156483820Y-95428587D01*
X156539487Y-95333264D01*
X156121100Y-94914876D01*
X155702713Y-95333264D01*
X153129985Y-95333264D01*
X153101750Y-95314398D01*
X153041949Y-95289628D01*
X152978464Y-95277000D01*
X152913736Y-95277000D01*
X152850251Y-95289628D01*
X152790450Y-95314398D01*
X152736630Y-95350360D01*
X152690860Y-95396130D01*
X152654898Y-95449950D01*
X152630128Y-95509751D01*
X152617500Y-95573236D01*
X152004700Y-95573236D01*
X151992072Y-95509751D01*
X151967302Y-95449950D01*
X151931340Y-95396130D01*
X151885570Y-95350360D01*
X151831750Y-95314398D01*
X151771949Y-95289628D01*
X151708464Y-95277000D01*
X151643736Y-95277000D01*
X151580251Y-95289628D01*
X151520450Y-95314398D01*
X151466630Y-95350360D01*
X151420860Y-95396130D01*
X151384898Y-95449950D01*
X151360128Y-95509751D01*
X151347500Y-95573236D01*
X140034427Y-95573236D01*
X140109134Y-95498529D01*
X140221570Y-95330256D01*
X140294718Y-95153659D01*
X140295861Y-95156417D01*
X140368134Y-95264580D01*
X140460120Y-95356566D01*
X140568283Y-95428839D01*
X140688469Y-95478621D01*
X140816056Y-95504000D01*
X140946144Y-95504000D01*
X141073731Y-95478621D01*
X141193917Y-95428839D01*
X141302080Y-95356566D01*
X141394066Y-95264580D01*
X141466339Y-95156417D01*
X141516121Y-95036231D01*
X141541500Y-94908644D01*
X141541500Y-94778556D01*
X141516121Y-94650969D01*
X141466339Y-94530783D01*
X141394066Y-94422620D01*
X141302080Y-94330634D01*
X141193917Y-94258361D01*
X141073731Y-94208579D01*
X140946144Y-94183200D01*
X140816056Y-94183200D01*
X140688469Y-94208579D01*
X140568283Y-94258361D01*
X140460120Y-94330634D01*
X140368134Y-94422620D01*
X140295861Y-94530783D01*
X140294718Y-94533541D01*
X140221570Y-94356944D01*
X140109134Y-94188671D01*
X139966029Y-94045566D01*
X139865100Y-93978128D01*
X139865100Y-93378600D01*
X143730700Y-93378600D01*
X143730700Y-94500814D01*
X143737247Y-94567285D01*
X143763115Y-94652562D01*
X143805124Y-94731155D01*
X143861658Y-94800042D01*
X143930544Y-94856576D01*
X144009137Y-94898585D01*
X144094414Y-94924453D01*
X144183100Y-94933188D01*
X144271785Y-94924453D01*
X144357062Y-94898585D01*
X144435655Y-94856576D01*
X144504542Y-94800042D01*
X144561076Y-94731156D01*
X144603085Y-94652563D01*
X144628953Y-94567286D01*
X144635500Y-94500815D01*
X144635500Y-93356385D01*
X144635027Y-93351580D01*
X145133700Y-93351580D01*
X145133700Y-93445620D01*
X145152046Y-93537852D01*
X145188034Y-93624734D01*
X145240279Y-93702925D01*
X145306775Y-93769421D01*
X145384966Y-93821666D01*
X145471848Y-93857654D01*
X145564080Y-93876000D01*
X145658120Y-93876000D01*
X145750352Y-93857654D01*
X145837234Y-93821666D01*
X145915425Y-93769421D01*
X145981921Y-93702925D01*
X146005099Y-93668236D01*
X146521500Y-93668236D01*
X146521500Y-93732964D01*
X146534128Y-93796449D01*
X146558898Y-93856250D01*
X146594860Y-93910070D01*
X146640630Y-93955840D01*
X146694450Y-93991802D01*
X146754251Y-94016572D01*
X146817736Y-94029200D01*
X146882464Y-94029200D01*
X146945949Y-94016572D01*
X147005750Y-93991802D01*
X147059570Y-93955840D01*
X147105340Y-93910070D01*
X147141302Y-93856250D01*
X147166072Y-93796449D01*
X147178700Y-93732964D01*
X147178700Y-93668236D01*
X147166072Y-93604751D01*
X147141302Y-93544950D01*
X147138821Y-93541236D01*
X147537500Y-93541236D01*
X147537500Y-93605964D01*
X147550128Y-93669449D01*
X147574898Y-93729250D01*
X147610860Y-93783070D01*
X147656630Y-93828840D01*
X147710450Y-93864802D01*
X147770251Y-93889572D01*
X147833736Y-93902200D01*
X147898464Y-93902200D01*
X147961949Y-93889572D01*
X148021750Y-93864802D01*
X148075570Y-93828840D01*
X148121340Y-93783070D01*
X148157302Y-93729250D01*
X148182072Y-93669449D01*
X148194700Y-93605964D01*
X148194700Y-93541236D01*
X148934500Y-93541236D01*
X148934500Y-93605964D01*
X148947128Y-93669449D01*
X148971898Y-93729250D01*
X149007860Y-93783070D01*
X149053630Y-93828840D01*
X149107450Y-93864802D01*
X149167251Y-93889572D01*
X149230736Y-93902200D01*
X149295464Y-93902200D01*
X149358949Y-93889572D01*
X149418750Y-93864802D01*
X149472570Y-93828840D01*
X149517100Y-93784310D01*
X149561630Y-93828840D01*
X149615450Y-93864802D01*
X149675251Y-93889572D01*
X149738736Y-93902200D01*
X149803464Y-93902200D01*
X149866949Y-93889572D01*
X149926750Y-93864802D01*
X149980570Y-93828840D01*
X150026340Y-93783070D01*
X150062302Y-93729250D01*
X150087072Y-93669449D01*
X150099700Y-93605964D01*
X150099700Y-93541236D01*
X150087072Y-93477751D01*
X150062302Y-93417950D01*
X150026340Y-93364130D01*
X149980570Y-93318360D01*
X149926750Y-93282398D01*
X149866949Y-93257628D01*
X149803464Y-93245000D01*
X149738736Y-93245000D01*
X149675251Y-93257628D01*
X149615450Y-93282398D01*
X149561630Y-93318360D01*
X149517100Y-93362890D01*
X149472570Y-93318360D01*
X149418750Y-93282398D01*
X149358949Y-93257628D01*
X149295464Y-93245000D01*
X149230736Y-93245000D01*
X149167251Y-93257628D01*
X149107450Y-93282398D01*
X149053630Y-93318360D01*
X149007860Y-93364130D01*
X148971898Y-93417950D01*
X148947128Y-93477751D01*
X148934500Y-93541236D01*
X148194700Y-93541236D01*
X148182072Y-93477751D01*
X148157302Y-93417950D01*
X148121340Y-93364130D01*
X148075570Y-93318360D01*
X148021750Y-93282398D01*
X147961949Y-93257628D01*
X147898464Y-93245000D01*
X147833736Y-93245000D01*
X147770251Y-93257628D01*
X147710450Y-93282398D01*
X147656630Y-93318360D01*
X147610860Y-93364130D01*
X147574898Y-93417950D01*
X147550128Y-93477751D01*
X147537500Y-93541236D01*
X147138821Y-93541236D01*
X147105340Y-93491130D01*
X147059570Y-93445360D01*
X147005750Y-93409398D01*
X146945949Y-93384628D01*
X146882464Y-93372000D01*
X146817736Y-93372000D01*
X146754251Y-93384628D01*
X146694450Y-93409398D01*
X146640630Y-93445360D01*
X146594860Y-93491130D01*
X146558898Y-93544950D01*
X146534128Y-93604751D01*
X146521500Y-93668236D01*
X146005099Y-93668236D01*
X146034166Y-93624734D01*
X146070154Y-93537852D01*
X146088500Y-93445620D01*
X146088500Y-93351580D01*
X146070154Y-93259348D01*
X146034166Y-93172466D01*
X145981921Y-93094275D01*
X145915425Y-93027779D01*
X145837234Y-92975534D01*
X145750352Y-92939546D01*
X145658120Y-92921200D01*
X145564080Y-92921200D01*
X145471848Y-92939546D01*
X145384966Y-92975534D01*
X145306775Y-93027779D01*
X145240279Y-93094275D01*
X145188034Y-93172466D01*
X145152046Y-93259348D01*
X145133700Y-93351580D01*
X144635027Y-93351580D01*
X144628953Y-93289914D01*
X144603085Y-93204637D01*
X144561076Y-93126044D01*
X144504542Y-93057158D01*
X144435656Y-93000624D01*
X144357063Y-92958615D01*
X144271786Y-92932747D01*
X144183100Y-92924012D01*
X144094415Y-92932747D01*
X144009138Y-92958615D01*
X143930545Y-93000624D01*
X143861659Y-93057158D01*
X143805125Y-93126044D01*
X143763116Y-93204637D01*
X143737248Y-93289914D01*
X143730701Y-93356385D01*
X143730701Y-93378399D01*
X143730700Y-93378600D01*
X139865100Y-93378600D01*
X139865100Y-93169072D01*
X139966029Y-93101634D01*
X140109134Y-92958529D01*
X140221570Y-92790256D01*
X140294718Y-92613659D01*
X140295861Y-92616417D01*
X140368134Y-92724580D01*
X140460120Y-92816566D01*
X140568283Y-92888839D01*
X140688469Y-92938621D01*
X140816056Y-92964000D01*
X140946144Y-92964000D01*
X141073731Y-92938621D01*
X141193917Y-92888839D01*
X141206492Y-92880436D01*
X150432700Y-92880436D01*
X150432700Y-92945164D01*
X150445328Y-93008649D01*
X150470098Y-93068450D01*
X150506060Y-93122270D01*
X150551830Y-93168040D01*
X150605650Y-93204002D01*
X150665451Y-93228772D01*
X150728936Y-93241400D01*
X150793664Y-93241400D01*
X150857149Y-93228772D01*
X150916950Y-93204002D01*
X150970770Y-93168040D01*
X150971437Y-93167373D01*
X150968034Y-93172466D01*
X150932046Y-93259348D01*
X150913700Y-93351580D01*
X150913700Y-93445620D01*
X150932046Y-93537852D01*
X150968034Y-93624734D01*
X151020279Y-93702925D01*
X151086775Y-93769421D01*
X151164966Y-93821666D01*
X151251848Y-93857654D01*
X151344080Y-93876000D01*
X151438120Y-93876000D01*
X151530352Y-93857654D01*
X151617234Y-93821666D01*
X151695425Y-93769421D01*
X151761921Y-93702925D01*
X151814166Y-93624734D01*
X151850154Y-93537852D01*
X151868500Y-93445620D01*
X151868500Y-93378600D01*
X152366700Y-93378600D01*
X152366700Y-94500814D01*
X152373247Y-94567285D01*
X152399115Y-94652562D01*
X152441124Y-94731155D01*
X152497658Y-94800042D01*
X152566544Y-94856576D01*
X152645137Y-94898585D01*
X152730414Y-94924453D01*
X152819100Y-94933188D01*
X152907785Y-94924453D01*
X152993062Y-94898585D01*
X153052132Y-94867011D01*
X155433186Y-94867011D01*
X155450971Y-95000767D01*
X155494509Y-95128483D01*
X155536113Y-95206320D01*
X155631436Y-95261987D01*
X156049824Y-94843600D01*
X155631436Y-94425213D01*
X155536113Y-94480880D01*
X155476591Y-94601975D01*
X155441836Y-94732355D01*
X155433186Y-94867011D01*
X153052132Y-94867011D01*
X153071655Y-94856576D01*
X153140542Y-94800042D01*
X153197076Y-94731156D01*
X153239085Y-94652563D01*
X153264953Y-94567286D01*
X153271500Y-94500815D01*
X153271500Y-94353936D01*
X155702713Y-94353936D01*
X156121100Y-94772324D01*
X156539487Y-94353936D01*
X156483820Y-94258613D01*
X156362725Y-94199091D01*
X156232345Y-94164336D01*
X156097689Y-94155686D01*
X155963933Y-94173471D01*
X155836217Y-94217009D01*
X155758380Y-94258613D01*
X155702713Y-94353936D01*
X153271500Y-94353936D01*
X153271500Y-93356385D01*
X153264953Y-93289914D01*
X153239085Y-93204637D01*
X153197076Y-93126044D01*
X153140542Y-93057158D01*
X153111394Y-93033236D01*
X153506500Y-93033236D01*
X153506500Y-93097964D01*
X153519128Y-93161449D01*
X153543898Y-93221250D01*
X153579860Y-93275070D01*
X153625630Y-93320840D01*
X153679450Y-93356802D01*
X153739251Y-93381572D01*
X153802736Y-93394200D01*
X153867464Y-93394200D01*
X153930949Y-93381572D01*
X153990750Y-93356802D01*
X154044570Y-93320840D01*
X154090340Y-93275070D01*
X154126302Y-93221250D01*
X154151072Y-93161449D01*
X154163700Y-93097964D01*
X154163700Y-93033236D01*
X154151072Y-92969751D01*
X154126302Y-92909950D01*
X154090340Y-92856130D01*
X154044570Y-92810360D01*
X153990750Y-92774398D01*
X153930949Y-92749628D01*
X153867464Y-92737000D01*
X153802736Y-92737000D01*
X153739251Y-92749628D01*
X153679450Y-92774398D01*
X153625630Y-92810360D01*
X153579860Y-92856130D01*
X153543898Y-92909950D01*
X153519128Y-92969751D01*
X153506500Y-93033236D01*
X153111394Y-93033236D01*
X153071656Y-93000624D01*
X152993063Y-92958615D01*
X152907786Y-92932747D01*
X152819100Y-92924012D01*
X152730415Y-92932747D01*
X152645138Y-92958615D01*
X152566545Y-93000624D01*
X152497659Y-93057158D01*
X152441125Y-93126044D01*
X152399116Y-93204637D01*
X152373248Y-93289914D01*
X152366701Y-93356385D01*
X152366701Y-93378399D01*
X152366700Y-93378600D01*
X151868500Y-93378600D01*
X151868500Y-93351580D01*
X151850154Y-93259348D01*
X151814166Y-93172466D01*
X151761921Y-93094275D01*
X151695425Y-93027779D01*
X151617234Y-92975534D01*
X151530352Y-92939546D01*
X151438120Y-92921200D01*
X151344080Y-92921200D01*
X151251848Y-92939546D01*
X151164966Y-92975534D01*
X151086775Y-93027779D01*
X151057026Y-93057528D01*
X151077272Y-93008649D01*
X151089900Y-92945164D01*
X151089900Y-92880436D01*
X151077272Y-92816951D01*
X151052502Y-92757150D01*
X151016540Y-92703330D01*
X150970770Y-92657560D01*
X150916950Y-92621598D01*
X150857149Y-92596828D01*
X150793664Y-92584200D01*
X150728936Y-92584200D01*
X150665451Y-92596828D01*
X150605650Y-92621598D01*
X150551830Y-92657560D01*
X150506060Y-92703330D01*
X150470098Y-92757150D01*
X150445328Y-92816951D01*
X150432700Y-92880436D01*
X141206492Y-92880436D01*
X141302080Y-92816566D01*
X141394066Y-92724580D01*
X141466339Y-92616417D01*
X141516121Y-92496231D01*
X141541500Y-92368644D01*
X141541500Y-92238556D01*
X141522739Y-92144236D01*
X145505500Y-92144236D01*
X145505500Y-92208964D01*
X145518128Y-92272449D01*
X145542898Y-92332250D01*
X145578860Y-92386070D01*
X145624630Y-92431840D01*
X145678450Y-92467802D01*
X145738251Y-92492572D01*
X145801736Y-92505200D01*
X145866464Y-92505200D01*
X145929949Y-92492572D01*
X145989750Y-92467802D01*
X146043570Y-92431840D01*
X146089340Y-92386070D01*
X146125302Y-92332250D01*
X146150072Y-92272449D01*
X146162700Y-92208964D01*
X146162700Y-92144236D01*
X146150072Y-92080751D01*
X146125302Y-92020950D01*
X146089340Y-91967130D01*
X146043570Y-91921360D01*
X145989750Y-91885398D01*
X145929949Y-91860628D01*
X145866464Y-91848000D01*
X145801736Y-91848000D01*
X145738251Y-91860628D01*
X145678450Y-91885398D01*
X145624630Y-91921360D01*
X145578860Y-91967130D01*
X145542898Y-92020950D01*
X145518128Y-92080751D01*
X145505500Y-92144236D01*
X141522739Y-92144236D01*
X141516121Y-92110969D01*
X141466339Y-91990783D01*
X141394066Y-91882620D01*
X141302080Y-91790634D01*
X141193917Y-91718361D01*
X141073731Y-91668579D01*
X140946144Y-91643200D01*
X140816056Y-91643200D01*
X140688469Y-91668579D01*
X140568283Y-91718361D01*
X140460120Y-91790634D01*
X140368134Y-91882620D01*
X140295861Y-91990783D01*
X140294718Y-91993541D01*
X140221570Y-91816944D01*
X140109134Y-91648671D01*
X139966029Y-91505566D01*
X139865100Y-91438128D01*
X139865100Y-89443600D01*
X143730700Y-89443600D01*
X143730700Y-90085814D01*
X143737247Y-90152285D01*
X143763115Y-90237562D01*
X143805124Y-90316155D01*
X143861658Y-90385042D01*
X143930544Y-90441576D01*
X144009137Y-90483585D01*
X144094414Y-90509453D01*
X144183100Y-90518188D01*
X144271785Y-90509453D01*
X144357062Y-90483585D01*
X144435655Y-90441576D01*
X144504542Y-90385042D01*
X144561076Y-90316156D01*
X144603085Y-90237563D01*
X144628953Y-90152286D01*
X144635500Y-90085815D01*
X144635500Y-89443600D01*
X152366700Y-89443600D01*
X152366700Y-90085814D01*
X152373247Y-90152285D01*
X152399115Y-90237562D01*
X152441124Y-90316155D01*
X152497658Y-90385042D01*
X152566544Y-90441576D01*
X152645137Y-90483585D01*
X152730414Y-90509453D01*
X152819100Y-90518188D01*
X152907785Y-90509453D01*
X152993062Y-90483585D01*
X153071655Y-90441576D01*
X153140542Y-90385042D01*
X153197076Y-90316156D01*
X153239085Y-90237563D01*
X153264953Y-90152286D01*
X153271500Y-90085815D01*
X153271500Y-89421385D01*
X153264953Y-89354914D01*
X153239085Y-89269637D01*
X153197076Y-89191044D01*
X153140542Y-89122158D01*
X153071656Y-89065624D01*
X152993063Y-89023615D01*
X152907786Y-88997747D01*
X152819100Y-88989012D01*
X152730415Y-88997747D01*
X152645138Y-89023615D01*
X152566545Y-89065624D01*
X152497659Y-89122158D01*
X152441125Y-89191044D01*
X152399116Y-89269637D01*
X152373248Y-89354914D01*
X152366701Y-89421385D01*
X152366701Y-89443399D01*
X152366700Y-89443600D01*
X144635500Y-89443600D01*
X144635500Y-89421385D01*
X144628953Y-89354914D01*
X144603085Y-89269637D01*
X144561076Y-89191044D01*
X144504542Y-89122158D01*
X144435656Y-89065624D01*
X144357063Y-89023615D01*
X144271786Y-88997747D01*
X144183100Y-88989012D01*
X144094415Y-88997747D01*
X144009138Y-89023615D01*
X143930545Y-89065624D01*
X143861659Y-89122158D01*
X143805125Y-89191044D01*
X143763116Y-89269637D01*
X143737248Y-89354914D01*
X143730701Y-89421385D01*
X143730701Y-89443399D01*
X143730700Y-89443600D01*
X139865100Y-89443600D01*
X139865100Y-88747600D01*
X157137101Y-88747600D01*
X157137101Y-91438127D01*
G37*
%TD.AperFunction*%
D17*
X155452934Y-117848762D02*
X155459697Y-117857003D01*
X155481900Y-117875224D01*
X155486079Y-117896231D01*
X155535861Y-118016417D01*
X155608134Y-118124580D01*
X155700120Y-118216566D01*
X155808283Y-118288839D01*
X155928469Y-118338621D01*
X156056056Y-118364000D01*
X156186144Y-118364000D01*
X156313731Y-118338621D01*
X156433917Y-118288839D01*
X156542080Y-118216566D01*
X156634066Y-118124580D01*
X156706339Y-118016417D01*
X156707482Y-118013659D01*
X156780630Y-118190256D01*
X156893066Y-118358529D01*
X157036171Y-118501634D01*
X157137100Y-118569072D01*
X157137100Y-119378128D01*
X157036171Y-119445566D01*
X156893066Y-119588671D01*
X156780630Y-119756944D01*
X156707482Y-119933541D01*
X156706339Y-119930783D01*
X156634066Y-119822620D01*
X156542080Y-119730634D01*
X156433917Y-119658361D01*
X156313731Y-119608579D01*
X156186144Y-119583200D01*
X156056056Y-119583200D01*
X155928469Y-119608579D01*
X155808283Y-119658361D01*
X155700120Y-119730634D01*
X155608134Y-119822620D01*
X155535861Y-119930783D01*
X155495717Y-120027700D01*
X155067529Y-120027700D01*
X154254200Y-119214373D01*
X154254200Y-116650027D01*
X155452934Y-117848762D01*
%TA.AperFunction,Conductor*%
D18*
G36*
X155452934Y-117848762D02*
G01*
X155459697Y-117857003D01*
X155481900Y-117875224D01*
X155486079Y-117896231D01*
X155535861Y-118016417D01*
X155608134Y-118124580D01*
X155700120Y-118216566D01*
X155808283Y-118288839D01*
X155928469Y-118338621D01*
X156056056Y-118364000D01*
X156186144Y-118364000D01*
X156313731Y-118338621D01*
X156433917Y-118288839D01*
X156542080Y-118216566D01*
X156634066Y-118124580D01*
X156706339Y-118016417D01*
X156707482Y-118013659D01*
X156780630Y-118190256D01*
X156893066Y-118358529D01*
X157036171Y-118501634D01*
X157137100Y-118569072D01*
X157137100Y-119378128D01*
X157036171Y-119445566D01*
X156893066Y-119588671D01*
X156780630Y-119756944D01*
X156707482Y-119933541D01*
X156706339Y-119930783D01*
X156634066Y-119822620D01*
X156542080Y-119730634D01*
X156433917Y-119658361D01*
X156313731Y-119608579D01*
X156186144Y-119583200D01*
X156056056Y-119583200D01*
X155928469Y-119608579D01*
X155808283Y-119658361D01*
X155700120Y-119730634D01*
X155608134Y-119822620D01*
X155535861Y-119930783D01*
X155495717Y-120027700D01*
X155067529Y-120027700D01*
X154254200Y-119214373D01*
X154254200Y-116650027D01*
X155452934Y-117848762D01*
G37*
%TD.AperFunction*%
%TD*%
M02*
